<svg width="1349" height="1354" viewBox="0 0 1349 1354" fill="none" xmlns="http://www.w3.org/2000/svg">
<rect width="437" height="440" rx="30" transform="matrix(-1 0 0 1 893 457)" fill="#AC6CFF"/>
<path d="M454.792 719.354C557.292 798.353 563.292 563.353 454.792 641.854V719.354Z" fill="#2C2E33"/>
<path d="M639.477 457C560.477 559.5 795.477 565.5 716.977 457H639.477Z" fill="#2C2E33"/>
<path d="M893.141 714.789C790.641 793.788 784.641 558.788 893.141 637.289V714.789Z" fill="#2C2E33"/>
<path d="M643.273 897.282C564.274 794.782 799.274 788.782 720.773 897.282H643.273Z" fill="#2C2E33"/>
<path d="M498 711.529C534.5 701.028 517 640.028 496.5 640.028C495.666 640.028 494.833 639.965 494 640.029C493.166 640.092 492.332 640.409 491.5 640.529C481 643.655 456 687.529 437 640.529V711.529C455 668.528 478.5 703.528 487.5 709.31C490.784 710.915 494.258 711.834 498 711.529Z" fill="#6B009D"/>
<path d="M30 463H180.323H257.174H408C424.569 463 438 476.432 438 493V862C438 878.569 424.569 892 408 892H271.084C265.175 892 261.675 885.386 265 880.5L268.939 872.621C269.645 871.209 270.239 869.744 270.714 868.239L272.115 863.801C272.704 861.938 273.109 860.022 273.324 858.08L273.642 855.226C273.88 853.082 273.886 850.918 273.66 848.772L273.473 846.991C273.159 844.015 272.39 841.105 271.19 838.363C270.069 835.801 268.585 833.414 266.784 831.275L264.642 828.731C262.561 826.26 260.095 824.141 257.338 822.457L254.936 820.989C253.316 819.999 251.605 819.164 249.827 818.498L243.438 816.102C241.485 815.369 239.46 814.843 237.398 814.53L227.383 813.013C225.135 812.672 222.855 812.588 220.588 812.763L207.896 813.739C205.639 813.912 203.409 814.341 201.249 815.016L192.009 817.903C189.679 818.632 187.445 819.642 185.359 820.912L180.072 824.13C178.031 825.372 176.146 826.854 174.457 828.543L173.498 829.503C171.839 831.161 170.39 833.017 169.183 835.029C168.396 836.341 167.714 837.714 167.146 839.135L166.204 841.489C165.404 843.491 164.821 845.573 164.467 847.699L164.387 848.177C164.13 849.723 164 851.288 164 852.855C164 854.615 164.163 856.37 164.487 858.1L165.5 863.5L167.461 869.709C168.151 871.896 169.09 873.996 170.259 875.969L176.5 886.5C178.237 888.741 176.639 892 173.804 892L30 892C13.4315 892 0 878.569 0 862V493C0 476.432 13.4315 463 30 463Z" fill="#6B009D"/>
<path d="M180 463C101.001 565.5 336.001 571.5 257.5 463H180Z" fill="#2C2E33"/>
<path d="M715.529 852.192C705.028 815.692 644.028 833.192 644.028 853.692C644.028 854.526 643.966 855.36 644.029 856.192C644.092 857.027 644.409 857.86 644.529 858.692C647.655 869.192 691.529 894.192 644.529 913.192H715.529C672.528 895.192 707.528 871.692 713.311 862.692C714.915 859.408 715.834 855.935 715.529 852.192Z" fill="#6B009D"/>
<path d="M467 1320.19V1169.87L467 1093.02V942.192C467 925.624 480.432 912.192 497 912.192H866.001C882.569 912.192 896.001 925.624 896.001 942.192V1079.11C896.001 1085.02 889.386 1088.52 884.5 1085.19L876.622 1081.25C875.21 1080.55 873.744 1079.95 872.239 1079.48L867.802 1078.08C865.939 1077.49 864.023 1077.08 862.081 1076.87L859.226 1076.55C857.082 1076.31 854.918 1076.31 852.773 1076.53L850.991 1076.72C848.015 1077.03 845.105 1077.8 842.364 1079C839.802 1080.12 837.414 1081.61 835.275 1083.41L832.731 1085.55C830.26 1087.63 828.142 1090.1 826.457 1092.85L824.989 1095.26C823.999 1096.88 823.165 1098.59 822.498 1100.37L820.102 1106.75C819.37 1108.71 818.843 1110.73 818.531 1112.79L817.013 1122.81C816.672 1125.06 816.589 1127.34 816.763 1129.6L817.739 1142.3C817.913 1144.55 818.341 1146.78 819.016 1148.94L821.904 1158.18C822.632 1160.51 823.642 1162.75 824.912 1164.83L828.131 1170.12C829.373 1172.16 830.854 1174.05 832.543 1175.74L833.503 1176.69C835.162 1178.35 837.018 1179.8 839.029 1181.01C840.341 1181.8 841.714 1182.48 843.135 1183.05L845.49 1183.99C847.491 1184.79 849.573 1185.37 851.699 1185.73L852.177 1185.81C853.723 1186.06 855.288 1186.19 856.856 1186.19C858.615 1186.19 860.371 1186.03 862.1 1185.7L867.5 1184.69L873.709 1182.73C875.896 1182.04 877.997 1181.1 879.97 1179.93L890.5 1173.69C892.742 1171.96 896.001 1173.55 896.001 1176.39L896.001 1320.19C896.001 1336.76 882.569 1350.19 866.001 1350.19H497C480.432 1350.19 467 1336.76 467 1320.19Z" fill="#6B009D"/>
<path d="M467 1170.19C569.5 1249.19 575.5 1014.19 467 1092.69V1170.19Z" fill="#2C2E33"/>
<path d="M713.529 498C703.028 534.5 642.028 517 642.028 496.5C642.028 495.666 641.966 494.833 642.029 494C642.092 493.166 642.409 492.332 642.529 491.5C645.655 481 689.529 456 642.529 437H713.529C670.528 455 705.528 478.5 711.311 487.5C712.915 490.784 713.834 494.258 713.529 498Z" fill="#6B009D"/>
<path d="M465 30V180.323L465 257.174V408C465 424.569 478.432 438 495 438L864.001 438C880.569 438 894.001 424.569 894.001 408V271.084C894.001 265.175 887.386 261.675 882.5 265L874.622 268.939C873.21 269.645 871.744 270.239 870.239 270.714L865.802 272.115C863.939 272.704 862.023 273.109 860.081 273.324L857.226 273.642C855.082 273.88 852.918 273.886 850.773 273.66L848.991 273.473C846.015 273.159 843.105 272.39 840.364 271.19C837.802 270.069 835.414 268.585 833.275 266.784L830.731 264.642C828.26 262.561 826.142 260.095 824.457 257.338L822.989 254.936C821.999 253.316 821.165 251.605 820.498 249.827L818.102 243.438C817.37 241.485 816.843 239.46 816.531 237.398L815.013 227.383C814.672 225.135 814.589 222.855 814.763 220.588L815.739 207.896C815.913 205.639 816.341 203.409 817.016 201.249L819.904 192.009C820.632 189.679 821.642 187.445 822.912 185.359L826.131 180.072C827.373 178.031 828.854 176.146 830.543 174.457L831.503 173.498C833.162 171.839 835.018 170.39 837.029 169.183C838.341 168.396 839.714 167.714 841.135 167.146L843.49 166.204C845.491 165.404 847.573 164.821 849.699 164.467L850.177 164.387C851.723 164.13 853.288 164 854.856 164C856.615 164 858.371 164.163 860.1 164.487L865.5 165.5L871.709 167.461C873.896 168.151 875.997 169.09 877.97 170.259L888.5 176.5C890.742 178.237 894.001 176.639 894.001 173.804L894.001 30C894.001 13.4315 880.569 0 864.001 0L495 0C478.432 0 465 13.4315 465 30Z" fill="#6B009D"/>
<path d="M465 180C567.5 101.001 573.5 336.001 465 257.5V180Z" fill="#2C2E33"/>
<path d="M850.192 705.529C813.692 695.028 831.192 634.028 851.692 634.028C852.526 634.028 853.36 633.965 854.192 634.029C855.027 634.092 855.86 634.409 856.692 634.529C867.192 637.655 892.192 681.529 911.192 634.529V705.529C893.192 662.528 869.692 697.528 860.692 703.31C857.408 704.915 853.935 705.834 850.192 705.529Z" fill="#6B009D"/>
<path d="M1318.19 457H1167.87H1091.02H940.192C923.624 457 910.192 470.432 910.192 487V856C910.192 872.569 923.624 886 940.192 886H1077.11C1083.02 886 1086.52 879.386 1083.19 874.5L1079.25 866.621C1078.55 865.209 1077.95 863.744 1077.48 862.239L1076.08 857.801C1075.49 855.938 1075.08 854.022 1074.87 852.08L1074.55 849.226C1074.31 847.082 1074.31 844.918 1074.53 842.772L1074.72 840.991C1075.03 838.015 1075.8 835.105 1077 832.363C1078.12 829.801 1079.61 827.414 1081.41 825.275L1083.55 822.731C1085.63 820.26 1088.1 818.141 1090.85 816.457L1093.26 814.989C1094.88 813.999 1096.59 813.164 1098.37 812.498L1104.75 810.102C1106.71 809.369 1108.73 808.843 1110.79 808.53L1120.81 807.013C1123.06 806.672 1125.34 806.588 1127.6 806.763L1140.3 807.739C1142.55 807.912 1144.78 808.341 1146.94 809.016L1156.18 811.903C1158.51 812.632 1160.75 813.642 1162.83 814.912L1168.12 818.13C1170.16 819.372 1172.05 820.854 1173.74 822.543L1174.69 823.503C1176.35 825.161 1177.8 827.017 1179.01 829.029C1179.8 830.341 1180.48 831.714 1181.05 833.135L1181.99 835.489C1182.79 837.491 1183.37 839.573 1183.73 841.699L1183.81 842.177C1184.06 843.723 1184.19 845.288 1184.19 846.855C1184.19 848.615 1184.03 850.37 1183.7 852.1L1182.69 857.5L1180.73 863.709C1180.04 865.896 1179.1 867.996 1177.93 869.969L1171.69 880.5C1169.96 882.741 1171.55 886 1174.39 886L1318.19 886C1334.76 886 1348.19 872.569 1348.19 856V487C1348.19 470.432 1334.76 457 1318.19 457Z" fill="#6B009D"/>
<path d="M1168.19 457C1247.19 559.5 1012.19 565.5 1090.69 457H1168.19Z" fill="#2C2E33"/>
<rect width="437" height="440" rx="30" fill="#AC6CFF"/>
<path d="M497.5 258.001C534 247.5 516.5 186.5 496 186.5C495.166 186.5 494.333 186.438 493.5 186.501C492.666 186.564 491.832 186.881 491 187.001C480.5 190.127 455.5 234.001 436.5 187.001V258.001C454.5 215 478 250 487 255.783C490.284 257.387 493.758 258.306 497.5 258.001Z" fill="#AC6CFF"/>
<path d="M183.058 501C193.56 537.5 254.559 520 254.559 499.5C254.559 498.666 254.622 497.833 254.559 497C254.495 496.166 254.179 495.332 254.058 494.5C250.933 484 207.058 459 254.058 440H183.058C226.06 458 191.06 481.5 185.277 490.5C183.673 493.784 182.753 497.258 183.058 501Z" fill="#AC6CFF"/>
<rect width="437" height="440" rx="30" transform="matrix(-1 0 0 1 1345.69 0)" fill="#AC6CFF"/>
<path d="M848.192 258.001C811.692 247.5 829.192 186.5 849.692 186.5C850.526 186.5 851.36 186.438 852.192 186.501C853.027 186.564 853.86 186.881 854.692 187.001C865.192 190.127 890.192 234.001 909.192 187.001V258.001C891.192 215 867.692 250 858.692 255.783C855.408 257.387 851.935 258.306 848.192 258.001Z" fill="#AC6CFF"/>
<path d="M1162.63 501C1152.13 537.5 1091.13 520 1091.13 499.5C1091.13 498.666 1091.07 497.833 1091.13 497C1091.2 496.166 1091.51 495.332 1091.63 494.5C1094.76 484 1138.63 459 1091.63 440H1162.63C1119.63 458 1154.63 481.5 1160.42 490.5C1162.02 493.784 1162.94 497.258 1162.63 501Z" fill="#AC6CFF"/>
<rect width="437" height="440" rx="30" transform="matrix(1 0 0 -1 0 1353.19)" fill="#AC6CFF"/>
<path d="M497.5 1095.19C534 1105.69 516.5 1166.69 496 1166.69C495.166 1166.69 494.333 1166.75 493.5 1166.69C492.666 1166.63 491.832 1166.31 491 1166.19C480.5 1163.07 455.5 1119.19 436.5 1166.19V1095.19C454.5 1138.19 478 1103.19 487 1097.41C490.284 1095.81 493.758 1094.89 497.5 1095.19Z" fill="#AC6CFF"/>
<path d="M183.058 852.192C193.56 815.692 254.559 833.192 254.559 853.692C254.559 854.526 254.622 855.36 254.559 856.192C254.495 857.027 254.179 857.86 254.058 858.692C250.933 869.192 207.058 894.192 254.058 913.192H183.058C226.06 895.192 191.06 871.692 185.277 862.692C183.673 859.408 182.753 855.935 183.058 852.192Z" fill="#AC6CFF"/>
<rect x="1347.69" y="1353.19" width="437" height="440" rx="30" transform="rotate(180 1347.69 1353.19)" fill="#AC6CFF"/>
<path d="M850.192 1095.19C813.692 1105.69 831.192 1166.69 851.692 1166.69C852.526 1166.69 853.36 1166.75 854.192 1166.69C855.027 1166.63 855.86 1166.31 856.692 1166.19C867.192 1163.07 892.192 1119.19 911.192 1166.19V1095.19C893.192 1138.19 869.692 1103.19 860.692 1097.41C857.408 1095.81 853.935 1094.89 850.192 1095.19Z" fill="#AC6CFF"/>
<path d="M1164.63 852.192C1154.13 815.692 1093.13 833.192 1093.13 853.692C1093.13 854.526 1093.07 855.36 1093.13 856.192C1093.2 857.027 1093.51 857.86 1093.63 858.692C1096.76 869.192 1140.63 894.192 1093.63 913.192H1164.63C1121.63 895.192 1156.63 871.692 1162.42 862.692C1164.02 859.408 1164.94 855.935 1164.63 852.192Z" fill="#AC6CFF"/>
</svg>
