<svg width="367" height="366" viewBox="0 0 367 366" fill="none" xmlns="http://www.w3.org/2000/svg">
<circle cx="185.91" cy="181.609" r="91.7241" fill="white"/>
<path d="M298.478 244.873C309.381 224.68 314.765 201.969 314.088 179.031C313.41 156.093 306.695 133.74 294.62 114.226C282.544 94.7117 265.536 78.7276 245.31 67.8859C225.085 57.0443 202.358 51.7286 179.422 52.4753C156.486 53.2219 134.153 60.0045 114.675 72.1386C95.1978 84.2728 79.265 101.329 68.4844 121.587C57.7038 141.845 52.4567 164.589 53.2726 187.522C54.0884 210.456 60.9383 232.768 73.1311 252.209L90.4849 241.325C80.2063 224.937 74.4319 206.127 73.7441 186.794C73.0564 167.461 77.4797 148.288 86.5677 131.211C95.6558 114.133 109.087 99.7543 125.507 89.5252C141.926 79.2961 160.753 73.5784 180.088 72.9489C199.424 72.3195 218.583 76.8006 235.633 85.9401C252.683 95.0797 267.021 108.554 277.201 125.005C287.38 141.455 293.041 160.299 293.612 179.636C294.183 198.973 289.644 218.118 280.453 235.141L298.478 244.873Z" fill="white"/>
<circle cx="73.1946" cy="229.195" r="23.1946" fill="#7E41CE"/>
<circle cx="292.392" cy="127.138" r="23.1946" fill="#7E41CE"/>
<circle cx="233.353" cy="72.3157" r="23.1946" fill="#7E41CE"/>
<circle cx="135.654" cy="69.5032" r="23.1946" fill="#7E41CE"/>
<circle cx="73.0989" cy="132.058" r="23.1946" fill="#7E41CE"/>
<circle cx="293.195" cy="224.195" r="23.1946" fill="#7E41CE"/>
<path d="M163.51 170H159.276L165.728 151.311H170.82L177.262 170H173.028L168.347 155.582H168.201L163.51 170ZM163.246 162.654H173.247V165.738H163.246V162.654ZM179.512 170V151.311H183.463V166.742H191.475V170H179.512ZM194.092 170V151.311H198.044V166.742H206.056V170H194.092ZM119.961 193.686C119.888 192.95 119.575 192.378 119.021 191.97C118.468 191.563 117.716 191.359 116.767 191.359C116.122 191.359 115.578 191.45 115.134 191.633C114.69 191.809 114.349 192.055 114.112 192.372C113.88 192.688 113.765 193.047 113.765 193.449C113.753 193.783 113.823 194.075 113.975 194.325C114.133 194.574 114.349 194.79 114.623 194.973C114.896 195.149 115.213 195.304 115.572 195.438C115.931 195.566 116.314 195.675 116.722 195.766L118.401 196.168C119.216 196.351 119.964 196.594 120.646 196.898C121.327 197.202 121.917 197.576 122.416 198.02C122.915 198.465 123.301 198.988 123.575 199.59C123.855 200.192 123.998 200.883 124.004 201.662C123.998 202.805 123.706 203.797 123.128 204.636C122.556 205.47 121.728 206.118 120.646 206.58C119.569 207.037 118.27 207.265 116.749 207.265C115.24 207.265 113.926 207.033 112.807 206.571C111.693 206.109 110.823 205.424 110.197 204.518C109.576 203.605 109.251 202.477 109.22 201.132H113.044C113.087 201.759 113.266 202.282 113.582 202.702C113.905 203.116 114.334 203.429 114.869 203.642C115.411 203.849 116.022 203.952 116.703 203.952C117.373 203.952 117.953 203.855 118.446 203.66C118.945 203.465 119.331 203.195 119.605 202.848C119.879 202.501 120.016 202.103 120.016 201.652C120.016 201.233 119.891 200.88 119.642 200.594C119.398 200.308 119.039 200.065 118.565 199.864C118.096 199.663 117.522 199.481 116.84 199.316L114.805 198.805C113.23 198.422 111.985 197.823 111.073 197.008C110.16 196.192 109.707 195.094 109.713 193.713C109.707 192.582 110.008 191.593 110.617 190.747C111.231 189.902 112.074 189.242 113.144 188.767C114.215 188.293 115.432 188.055 116.795 188.055C118.182 188.055 119.392 188.293 120.427 188.767C121.467 189.242 122.276 189.902 122.854 190.747C123.432 191.593 123.73 192.573 123.748 193.686H119.961ZM126.662 207V188.311H139.255V191.569H130.613V196.022H138.607V199.28H130.613V203.742H139.291V207H126.662ZM142.396 188.311H147.269L152.416 200.868H152.635L157.782 188.311H162.655V207H158.822V194.836H158.667L153.83 206.909H151.221L146.384 194.79H146.229V207H142.396V188.311ZM165.91 207V188.311H178.504V191.569H169.862V196.022H177.856V199.28H169.862V203.742H178.54V207H165.91ZM191.783 193.686C191.71 192.95 191.397 192.378 190.844 191.97C190.29 191.563 189.539 191.359 188.59 191.359C187.945 191.359 187.4 191.45 186.956 191.633C186.512 191.809 186.171 192.055 185.934 192.372C185.703 192.688 185.587 193.047 185.587 193.449C185.575 193.783 185.645 194.075 185.797 194.325C185.955 194.574 186.171 194.79 186.445 194.973C186.719 195.149 187.035 195.304 187.394 195.438C187.753 195.566 188.136 195.675 188.544 195.766L190.223 196.168C191.038 196.351 191.786 196.594 192.468 196.898C193.149 197.202 193.739 197.576 194.238 198.02C194.737 198.465 195.123 198.988 195.397 199.59C195.677 200.192 195.82 200.883 195.826 201.662C195.82 202.805 195.528 203.797 194.95 204.636C194.378 205.47 193.551 206.118 192.468 206.58C191.391 207.037 190.092 207.265 188.571 207.265C187.063 207.265 185.748 207.033 184.629 206.571C183.516 206.109 182.646 205.424 182.019 204.518C181.399 203.605 181.073 202.477 181.043 201.132H184.866C184.909 201.759 185.088 202.282 185.405 202.702C185.727 203.116 186.156 203.429 186.691 203.642C187.233 203.849 187.844 203.952 188.526 203.952C189.195 203.952 189.776 203.855 190.269 203.66C190.767 203.465 191.154 203.195 191.428 202.848C191.701 202.501 191.838 202.103 191.838 201.652C191.838 201.233 191.713 200.88 191.464 200.594C191.221 200.308 190.862 200.065 190.387 199.864C189.919 199.663 189.344 199.481 188.663 199.316L186.628 198.805C185.052 198.422 183.808 197.823 182.895 197.008C181.983 196.192 181.529 195.094 181.536 193.713C181.529 192.582 181.831 191.593 182.439 190.747C183.053 189.902 183.896 189.242 184.967 188.767C186.037 188.293 187.254 188.055 188.617 188.055C190.004 188.055 191.215 188.293 192.249 188.767C193.289 189.242 194.098 189.902 194.676 190.747C195.254 191.593 195.552 192.573 195.571 193.686H191.783ZM197.772 191.569V188.311H213.121V191.569H207.399V207H203.494V191.569H197.772ZM215.649 207V188.311H228.242V191.569H219.6V196.022H227.594V199.28H219.6V203.742H228.279V207H215.649ZM231.384 207V188.311H238.757C240.168 188.311 241.373 188.563 242.371 189.068C243.375 189.567 244.138 190.276 244.661 191.195C245.191 192.107 245.455 193.181 245.455 194.416C245.455 195.657 245.187 196.725 244.652 197.619C244.117 198.507 243.341 199.189 242.325 199.663C241.315 200.138 240.092 200.375 238.657 200.375H233.72V197.199H238.018C238.772 197.199 239.399 197.096 239.898 196.889C240.397 196.682 240.768 196.372 241.011 195.958C241.26 195.544 241.385 195.03 241.385 194.416C241.385 193.795 241.26 193.272 241.011 192.846C240.768 192.42 240.394 192.098 239.889 191.879C239.39 191.654 238.76 191.541 238 191.541H235.335V207H231.384ZM241.476 198.495L246.121 207H241.759L237.215 198.495H241.476ZM258.386 193.686C258.313 192.95 258 192.378 257.446 191.97C256.892 191.563 256.141 191.359 255.192 191.359C254.547 191.359 254.003 191.45 253.559 191.633C253.115 191.809 252.774 192.055 252.537 192.372C252.305 192.688 252.19 193.047 252.19 193.449C252.178 193.783 252.248 194.075 252.4 194.325C252.558 194.574 252.774 194.79 253.048 194.973C253.321 195.149 253.638 195.304 253.997 195.438C254.356 195.566 254.739 195.675 255.146 195.766L256.826 196.168C257.641 196.351 258.389 196.594 259.07 196.898C259.752 197.202 260.342 197.576 260.841 198.02C261.34 198.465 261.726 198.988 262 199.59C262.28 200.192 262.423 200.883 262.429 201.662C262.423 202.805 262.131 203.797 261.553 204.636C260.981 205.47 260.153 206.118 259.07 206.58C257.994 207.037 256.695 207.265 255.174 207.265C253.665 207.265 252.351 207.033 251.232 206.571C250.118 206.109 249.248 205.424 248.622 204.518C248.001 203.605 247.676 202.477 247.645 201.132H251.469C251.511 201.759 251.691 202.282 252.007 202.702C252.33 203.116 252.759 203.429 253.294 203.642C253.835 203.849 254.447 203.952 255.128 203.952C255.797 203.952 256.378 203.855 256.871 203.66C257.37 203.465 257.756 203.195 258.03 202.848C258.304 202.501 258.441 202.103 258.441 201.652C258.441 201.233 258.316 200.88 258.067 200.594C257.823 200.308 257.464 200.065 256.99 199.864C256.521 199.663 255.946 199.481 255.265 199.316L253.23 198.805C251.654 198.422 250.41 197.823 249.498 197.008C248.585 196.192 248.132 195.094 248.138 193.713C248.132 192.582 248.433 191.593 249.041 190.747C249.656 189.902 250.499 189.242 251.569 188.767C252.64 188.293 253.857 188.055 255.219 188.055C256.607 188.055 257.817 188.293 258.851 188.767C259.892 189.242 260.701 189.902 261.279 190.747C261.857 191.593 262.155 192.573 262.173 193.686H258.386Z" fill="black"/>
</svg>
