<svg width="471" height="417" viewBox="0 0 471 417" fill="none" xmlns="http://www.w3.org/2000/svg">
<rect x="389.945" y="204.587" width="60.2184" height="5.54749" transform="rotate(-7.85373 389.945 204.587)" fill="white"/>
<path d="M208.812 379.573C204.356 372.555 196.273 349.993 197.204 342.408C200.752 313.514 241.192 296.348 234.925 265.184C229.226 236.846 180.439 219.19 161.22 190.628C151.21 175.754 161.09 150.628 163.947 135.045L391.462 153.823C385.431 186.725 391.447 219.516 408.42 246.248L208.812 379.573Z" fill="#EADAFF"/>
<path d="M232.644 294.863C216.86 341.84 166.825 367.41 120.888 351.975C74.9518 336.541 50.5082 285.946 66.2921 238.969C82.0761 191.993 132.111 166.423 178.047 181.857C223.984 197.292 248.428 247.886 232.644 294.863ZM90.45 247.086C79.2504 280.419 96.5945 316.319 129.189 327.27C161.784 338.222 197.286 320.079 208.486 286.746C219.685 253.413 202.341 217.514 169.747 206.562C137.152 195.61 101.65 213.754 90.45 247.086Z" fill="#AC6CFF"/>
<ellipse cx="149.82" cy="266.396" rx="51.9849" ry="53.3094" transform="rotate(22.6982 149.82 266.396)" fill="white"/>
<path d="M127.143 268.786L174.708 256.712L177.26 266.769L139.241 276.419L139.312 276.698L148.905 285.857L139.987 288.121L129.543 278.239L127.143 268.786Z" fill="black"/>
<path d="M265.318 303.374L264.712 300.78L268.843 297.18L268.818 297.073L263.518 295.68L262.911 293.087L270.925 295.424L274.796 294.518L275.334 296.817L271.463 297.723L265.318 303.374ZM265.89 281.14C267.084 280.86 268.153 280.849 269.097 281.106C270.039 281.359 270.823 281.822 271.447 282.496C272.066 283.167 272.489 283.985 272.715 284.951C272.943 285.924 272.926 286.849 272.665 287.726C272.404 288.603 271.907 289.364 271.175 290.009C270.442 290.654 269.481 291.116 268.29 291.395C267.096 291.674 266.028 291.688 265.085 291.434C264.142 291.181 263.361 290.719 262.741 290.048C262.118 289.378 261.693 288.557 261.465 287.584C261.239 286.618 261.257 285.696 261.518 284.819C261.774 283.94 262.269 283.177 263.001 282.532C263.733 281.883 264.696 281.419 265.89 281.14ZM266.439 283.487C265.666 283.668 265.041 283.937 264.564 284.293C264.086 284.645 263.759 285.062 263.582 285.543C263.405 286.024 263.382 286.545 263.513 287.105C263.644 287.664 263.896 288.12 264.268 288.473C264.64 288.826 265.118 289.056 265.704 289.163C266.288 289.267 266.967 289.229 267.741 289.048C268.514 288.867 269.14 288.6 269.618 288.248C270.094 287.892 270.421 287.473 270.598 286.992C270.775 286.51 270.798 285.99 270.667 285.43C270.536 284.871 270.285 284.414 269.912 284.062C269.54 283.709 269.062 283.481 268.478 283.377C267.892 283.269 267.213 283.306 266.439 283.487ZM258.431 273.943L257.889 271.628L265 269.963C265.799 269.777 266.542 269.804 267.23 270.045C267.917 270.283 268.508 270.703 269.002 271.305C269.493 271.908 269.845 272.663 270.057 273.568C270.269 274.477 270.29 275.311 270.117 276.069C269.942 276.828 269.599 277.467 269.088 277.985C268.578 278.503 267.923 278.855 267.125 279.042L260.014 280.706L259.472 278.391L266.385 276.773C266.802 276.676 267.152 276.498 267.434 276.24C267.715 275.979 267.908 275.659 268.015 275.281C268.122 274.902 268.124 274.49 268.019 274.045C267.914 273.596 267.73 273.227 267.467 272.939C267.204 272.647 266.888 272.448 266.521 272.343C266.154 272.233 265.761 272.227 265.344 272.325L258.431 273.943ZM267.001 261.211L256.784 266.906L256.192 264.377L263.377 260.784L263.355 260.694L255.279 260.474L254.772 258.309L261.93 254.53L261.907 254.434L253.859 254.406L253.267 251.877L264.95 252.448L265.478 254.704L258.807 258.464L258.827 258.55L266.473 258.954L267.001 261.211ZM252.435 248.323L263.385 245.76L263.927 248.075L252.977 250.638L252.435 248.323ZM262.939 243.855L251.989 246.418L251.448 244.103L260.489 241.987L259.39 237.293L261.299 236.846L262.939 243.855ZM260.94 235.313L249.99 237.875L249.448 235.56L258.49 233.444L257.391 228.75L259.3 228.303L260.94 235.313ZM258.126 223.285L247.176 225.848L246.634 223.533L255.675 221.417L254.576 216.723L256.485 216.276L258.126 223.285ZM256.126 214.743L245.176 217.305L243.45 209.927L245.358 209.48L246.543 214.543L249.152 213.933L248.056 209.249L249.965 208.802L251.061 213.486L253.676 212.874L252.486 207.79L254.395 207.343L256.126 214.743ZM253.527 203.636L254.108 206.117L242.273 204.9L241.575 201.916L251.642 195.579L252.222 198.06L244.416 202.78L244.436 202.865L253.527 203.636ZM249.259 204.799L247.888 198.939L249.695 198.516L251.067 204.376L249.259 204.799ZM251.333 194.261L240.383 196.823L239.372 192.503C239.179 191.676 239.161 190.936 239.32 190.282C239.475 189.626 239.786 189.081 240.252 188.649C240.714 188.213 241.307 187.911 242.031 187.742C242.758 187.572 243.42 187.582 244.017 187.773C244.611 187.965 245.117 188.326 245.534 188.856C245.951 189.383 246.257 190.067 246.454 190.908L247.131 193.801L245.27 194.236L244.681 191.718C244.578 191.276 244.431 190.923 244.242 190.659C244.052 190.395 243.819 190.22 243.544 190.134C243.267 190.045 242.949 190.042 242.589 190.126C242.225 190.211 241.936 190.356 241.72 190.561C241.504 190.762 241.367 191.025 241.307 191.351C241.244 191.674 241.264 192.059 241.369 192.504L241.734 194.065L250.791 191.946L251.333 194.261ZM244.966 189.514L249.312 185.626L249.91 188.182L245.55 192.011L244.966 189.514ZM235.927 177.784L246.877 175.221L247.345 177.221L241.568 183.598L241.587 183.678L248.479 182.065L249.021 184.38L238.071 186.943L237.595 184.911L243.376 178.573L243.353 178.477L236.467 180.088L235.927 177.784ZM297.454 294.789L286.504 297.351L285.962 295.036L290.48 293.979L289.38 289.279L284.862 290.336L284.321 288.027L295.271 285.464L295.812 287.774L291.289 288.832L292.388 293.532L296.912 292.474L297.454 294.789ZM286.995 274.774C288.189 274.495 289.258 274.483 290.201 274.74C291.144 274.993 291.927 275.456 292.551 276.13C293.171 276.801 293.593 277.619 293.819 278.585C294.047 279.558 294.031 280.483 293.77 281.36C293.509 282.237 293.012 282.998 292.279 283.643C291.547 284.289 290.585 284.75 289.395 285.029C288.201 285.309 287.132 285.322 286.189 285.069C285.247 284.816 284.466 284.354 283.846 283.683C283.223 283.013 282.798 282.191 282.57 281.218C282.344 280.252 282.361 279.331 282.622 278.454C282.879 277.574 283.374 276.812 284.106 276.166C284.838 275.518 285.801 275.054 286.995 274.774ZM287.544 277.121C286.771 277.302 286.145 277.571 285.669 277.927C285.191 278.279 284.864 278.696 284.687 279.177C284.51 279.659 284.487 280.179 284.618 280.739C284.749 281.298 285 281.755 285.372 282.107C285.744 282.46 286.223 282.69 286.808 282.798C287.393 282.901 288.072 282.863 288.845 282.682C289.619 282.501 290.244 282.234 290.722 281.882C291.199 281.526 291.526 281.107 291.703 280.626C291.88 280.145 291.903 279.624 291.772 279.064C291.641 278.505 291.389 278.049 291.017 277.696C290.645 277.343 290.167 277.115 289.582 277.011C288.997 276.903 288.318 276.94 287.544 277.121ZM291.588 269.725L281.371 275.42L280.779 272.892L287.963 269.298L287.942 269.208L279.866 268.988L279.359 266.823L286.517 263.044L286.494 262.948L278.446 262.92L277.854 260.391L289.537 260.962L290.065 263.218L283.394 266.978L283.414 267.064L291.06 267.468L291.588 269.725ZM278.755 255.637L276.846 256.084L274.741 247.091L276.65 246.644L277.435 249.997L286.476 247.881L287.011 250.169L277.97 252.285L278.755 255.637ZM277.632 234.766C278.826 234.487 279.895 234.475 280.838 234.732C281.781 234.985 282.564 235.448 283.188 236.122C283.808 236.793 284.231 237.611 284.457 238.577C284.684 239.55 284.668 240.475 284.407 241.352C284.146 242.229 283.649 242.99 282.916 243.635C282.184 244.281 281.222 244.743 280.032 245.021C278.838 245.301 277.769 245.314 276.827 245.061C275.884 244.808 275.103 244.346 274.483 243.675C273.86 243.005 273.435 242.183 273.207 241.21C272.981 240.244 272.999 239.323 273.26 238.446C273.516 237.566 274.011 236.804 274.743 236.158C275.475 235.51 276.438 235.046 277.632 234.766ZM278.181 237.113C277.408 237.294 276.783 237.563 276.306 237.919C275.828 238.271 275.501 238.688 275.324 239.169C275.147 239.651 275.124 240.171 275.255 240.731C275.386 241.29 275.637 241.747 276.009 242.099C276.382 242.452 276.86 242.682 277.446 242.79C278.03 242.894 278.709 242.855 279.483 242.674C280.256 242.493 280.882 242.226 281.359 241.874C281.836 241.518 282.163 241.099 282.34 240.618C282.517 240.137 282.54 239.616 282.409 239.057C282.278 238.497 282.026 238.041 281.654 237.688C281.282 237.335 280.804 237.107 280.219 237.003C279.634 236.896 278.955 236.932 278.181 237.113ZM272.513 220.289L273.061 222.631C272.768 222.745 272.519 222.895 272.315 223.082C272.107 223.27 271.943 223.487 271.824 223.733C271.705 223.979 271.632 224.247 271.607 224.539C271.58 224.827 271.604 225.128 271.677 225.442C271.81 226.009 272.066 226.469 272.446 226.824C272.822 227.18 273.305 227.411 273.894 227.517C274.479 227.625 275.152 227.59 275.911 227.412C276.691 227.229 277.32 226.96 277.797 226.604C278.273 226.244 278.597 225.823 278.77 225.339C278.942 224.855 278.964 224.336 278.835 223.784C278.762 223.474 278.654 223.196 278.51 222.952C278.366 222.704 278.191 222.494 277.986 222.324C277.777 222.155 277.542 222.03 277.283 221.948C277.022 221.862 276.739 221.827 276.434 221.842L275.897 219.497C276.414 219.44 276.934 219.478 277.458 219.611C277.977 219.742 278.468 219.967 278.93 220.288C279.388 220.605 279.789 221.019 280.134 221.528C280.474 222.035 280.727 222.64 280.891 223.342C281.12 224.319 281.103 225.244 280.841 226.117C280.579 226.987 280.081 227.742 279.347 228.384C278.613 229.022 277.651 229.48 276.46 229.759C275.266 230.038 274.198 230.052 273.255 229.799C272.312 229.545 271.531 229.085 270.913 228.418C270.291 227.751 269.867 226.937 269.642 225.975C269.493 225.34 269.445 224.731 269.496 224.148C269.547 223.561 269.694 223.017 269.938 222.516C270.178 222.016 270.513 221.577 270.943 221.198C271.372 220.815 271.896 220.513 272.513 220.289ZM279.241 216.964L268.291 219.526L267.279 215.206C267.086 214.379 267.069 213.639 267.228 212.985C267.382 212.328 267.693 211.784 268.159 211.351C268.622 210.916 269.214 210.614 269.938 210.445C270.665 210.274 271.327 210.285 271.925 210.476C272.519 210.668 273.024 211.029 273.442 211.559C273.858 212.086 274.165 212.77 274.362 213.611L275.039 216.503L273.178 216.939L272.589 214.42C272.485 213.978 272.339 213.626 272.149 213.362C271.959 213.098 271.727 212.923 271.451 212.837C271.174 212.747 270.856 212.745 270.496 212.829C270.132 212.914 269.843 213.059 269.628 213.264C269.412 213.465 269.274 213.728 269.215 214.054C269.151 214.377 269.172 214.761 269.276 215.207L269.641 216.768L278.699 214.649L279.241 216.964ZM272.874 212.216L277.22 208.329L277.818 210.884L273.458 214.713L272.874 212.216ZM276.928 207.083L265.978 209.646L264.251 202.267L266.16 201.82L267.345 206.884L269.954 206.273L268.858 201.589L270.767 201.143L271.863 205.826L274.478 205.215L273.288 200.13L275.196 199.683L276.928 207.083ZM274.329 195.977L274.91 198.457L263.075 197.24L262.377 194.256L272.443 187.919L273.024 190.4L265.218 195.12L265.238 195.205L274.329 195.977ZM270.061 197.139L268.69 191.279L270.497 190.856L271.868 196.716L270.061 197.139ZM263.504 190.472L261.596 190.919L259.491 181.926L261.4 181.479L262.184 184.831L271.226 182.715L271.761 185.004L262.72 187.12L263.504 190.472ZM270.094 177.882L259.144 180.445L257.418 173.066L259.326 172.619L260.511 177.683L263.121 177.072L262.024 172.388L263.933 171.942L265.029 176.625L267.644 176.014L266.454 170.929L268.363 170.482L270.094 177.882ZM307.383 290.022L306.841 287.707L313.952 286.043C314.751 285.856 315.494 285.883 316.182 286.125C316.869 286.362 317.46 286.782 317.954 287.385C318.445 287.988 318.797 288.742 319.008 289.648C319.221 290.557 319.241 291.39 319.069 292.149C318.893 292.908 318.55 293.547 318.04 294.065C317.53 294.582 316.875 294.935 316.077 295.122L308.966 296.786L308.424 294.471L315.337 292.853C315.754 292.755 316.104 292.578 316.385 292.32C316.666 292.059 316.86 291.739 316.967 291.36C317.074 290.982 317.076 290.57 316.971 290.124C316.866 289.675 316.682 289.307 316.419 289.019C316.155 288.727 315.84 288.528 315.473 288.422C315.106 288.313 314.713 288.307 314.296 288.404L307.383 290.022ZM308.154 279.125C307.733 279.269 307.441 279.531 307.278 279.911C307.115 280.292 307.099 280.76 307.229 281.316C307.317 281.694 307.445 282 307.613 282.235C307.777 282.471 307.969 282.637 308.186 282.733C308.403 282.825 308.63 282.843 308.865 282.788C309.063 282.75 309.224 282.668 309.349 282.545C309.474 282.418 309.571 282.262 309.64 282.077C309.706 281.892 309.754 281.686 309.783 281.457C309.808 281.229 309.82 280.989 309.818 280.738L309.823 279.699C309.818 279.197 309.858 278.725 309.942 278.284C310.027 277.843 310.166 277.446 310.357 277.093C310.549 276.74 310.803 276.441 311.118 276.198C311.433 275.952 311.818 275.773 312.273 275.663C312.944 275.51 313.565 275.545 314.136 275.769C314.703 275.989 315.196 276.385 315.615 276.956C316.03 277.525 316.342 278.254 316.551 279.145C316.757 280.029 316.802 280.831 316.685 281.55C316.567 282.266 316.285 282.87 315.84 283.361C315.39 283.85 314.773 284.195 313.99 284.397L313.466 282.157C313.827 282.046 314.109 281.869 314.311 281.626C314.51 281.381 314.634 281.087 314.686 280.744C314.733 280.398 314.709 280.026 314.616 279.626C314.524 279.234 314.388 278.907 314.206 278.645C314.023 278.38 313.812 278.19 313.571 278.078C313.33 277.965 313.078 277.939 312.814 278.001C312.568 278.058 312.379 278.18 312.246 278.365C312.111 278.547 312.018 278.791 311.965 279.096C311.912 279.398 311.884 279.76 311.881 280.182L311.861 281.444C311.852 282.42 311.672 283.231 311.319 283.878C310.967 284.524 310.385 284.94 309.575 285.126C308.913 285.285 308.293 285.244 307.714 285.003C307.134 284.759 306.632 284.356 306.207 283.794C305.782 283.231 305.476 282.551 305.29 281.753C305.099 280.94 305.072 280.198 305.209 279.527C305.344 278.852 305.62 278.288 306.036 277.833C306.452 277.379 306.985 277.07 307.635 276.906L308.154 279.125ZM315.036 273.374L304.086 275.937L302.36 268.558L304.268 268.111L305.453 273.175L308.063 272.564L306.966 267.88L308.875 267.434L309.971 272.117L312.586 271.506L311.396 266.421L313.305 265.974L315.036 273.374ZM312.879 264.155L301.929 266.717L300.918 262.397C300.724 261.57 300.707 260.83 300.866 260.176C301.021 259.52 301.331 258.975 301.798 258.543C302.26 258.107 302.853 257.805 303.576 257.636C304.304 257.466 304.966 257.476 305.563 257.667C306.157 257.859 306.663 258.22 307.08 258.75C307.496 259.277 307.803 259.961 308 260.802L308.677 263.695L306.816 264.13L306.227 261.612C306.123 261.17 305.977 260.817 305.787 260.553C305.598 260.289 305.365 260.114 305.089 260.028C304.813 259.939 304.494 259.936 304.134 260.02C303.771 260.106 303.481 260.25 303.266 260.455C303.05 260.656 302.912 260.919 302.853 261.245C302.79 261.568 302.81 261.953 302.914 262.398L303.28 263.959L312.337 261.84L312.879 264.155ZM306.512 259.408L310.858 255.52L311.456 258.076L307.096 261.905L306.512 259.408ZM303.001 250.693L304.808 250.27L305.976 255.264L304.169 255.687L303.001 250.693ZM308.915 247.217L297.965 249.779L296.268 242.529L298.177 242.082L299.332 247.017L301.941 246.407L300.899 241.953L302.808 241.506L303.85 245.96L308.373 244.902L308.915 247.217ZM306.854 238.409L295.904 240.972L294.893 236.652C294.699 235.825 294.682 235.084 294.841 234.431C294.996 233.774 295.306 233.23 295.773 232.797C296.235 232.362 296.828 232.06 297.551 231.89C298.278 231.72 298.941 231.73 299.538 231.921C300.132 232.113 300.637 232.474 301.055 233.005C301.471 233.531 301.778 234.215 301.975 235.056L302.652 237.949L300.791 238.384L300.202 235.866C300.098 235.424 299.952 235.071 299.762 234.807C299.573 234.543 299.34 234.368 299.064 234.283C298.788 234.193 298.469 234.191 298.109 234.275C297.746 234.36 297.456 234.505 297.241 234.709C297.025 234.91 296.887 235.174 296.828 235.5C296.765 235.823 296.785 236.207 296.889 236.653L297.255 238.214L306.312 236.094L306.854 238.409ZM300.487 233.662L304.833 229.774L305.431 232.33L301.071 236.159L300.487 233.662ZM293.05 228.776L304 226.213L304.541 228.529L293.591 231.091L293.05 228.776ZM303.554 224.309L292.604 226.871L290.877 219.493L292.786 219.046L293.971 224.11L296.58 223.499L295.484 218.815L297.393 218.368L298.489 223.052L301.103 222.44L299.913 217.356L301.822 216.909L303.554 224.309ZM288.303 208.493L299.253 205.931L299.721 207.931L293.944 214.307L293.963 214.387L300.855 212.775L301.396 215.09L290.446 217.652L289.971 215.621L295.751 209.282L295.729 209.186L288.842 210.798L288.303 208.493ZM297.897 200.136L298.805 204.018L287.855 206.581L286.939 202.667C286.682 201.565 286.679 200.566 286.931 199.669C287.18 198.772 287.663 198.014 288.379 197.395C289.094 196.773 290.02 196.329 291.157 196.063C292.298 195.796 293.329 195.782 294.25 196.022C295.169 196.257 295.942 196.725 296.569 197.424C297.194 198.12 297.637 199.024 297.897 200.136ZM296.28 202.167L295.936 200.697C295.776 200.012 295.52 199.465 295.168 199.055C294.812 198.642 294.35 198.378 293.782 198.263C293.209 198.145 292.514 198.182 291.698 198.373C290.889 198.562 290.256 198.836 289.798 199.195C289.34 199.55 289.044 199.99 288.911 200.514C288.778 201.037 288.792 201.641 288.952 202.326L289.297 203.801L296.28 202.167ZM296.242 193.064L285.292 195.627L284.75 193.311L293.791 191.196L292.693 186.501L294.601 186.055L296.242 193.064ZM283.77 189.122L283.163 186.529L287.294 182.929L287.269 182.822L281.969 181.428L281.362 178.835L289.376 181.173L293.247 180.267L293.785 182.566L289.914 183.472L283.77 189.122ZM338.402 276.67L338.983 279.151L327.148 277.934L326.45 274.95L336.517 268.613L337.097 271.094L329.291 275.814L329.311 275.899L338.402 276.67ZM334.134 277.833L332.763 271.973L334.57 271.55L335.942 277.41L334.134 277.833ZM323.115 260.699L334.065 258.136L334.533 260.136L328.756 266.512L328.774 266.593L335.666 264.98L336.208 267.295L325.258 269.857L324.783 267.826L330.563 261.488L330.541 261.391L323.654 263.003L323.115 260.699ZM332.709 252.341L333.617 256.223L322.667 258.786L321.751 254.872C321.493 253.771 321.491 252.771 321.743 251.874C321.992 250.977 322.474 250.219 323.191 249.601C323.906 248.978 324.832 248.534 325.969 248.268C327.11 248.001 328.141 247.987 329.061 248.227C329.981 248.463 330.754 248.93 331.38 249.63C332.006 250.325 332.448 251.229 332.709 252.341ZM331.092 254.372L330.748 252.902C330.587 252.218 330.331 251.67 329.98 251.26C329.624 250.847 329.162 250.583 328.593 250.468C328.021 250.35 327.326 250.387 326.51 250.578C325.701 250.767 325.067 251.041 324.61 251.4C324.152 251.755 323.856 252.195 323.723 252.719C323.59 253.242 323.603 253.846 323.764 254.531L324.109 256.006L331.092 254.372ZM330.238 241.784L319.288 244.347L317.561 236.969L319.47 236.522L320.655 241.585L323.264 240.975L322.168 236.291L324.077 235.844L325.173 240.528L327.787 239.916L326.598 234.831L328.506 234.385L330.238 241.784ZM328.081 232.565L317.131 235.128L315.434 227.878L317.343 227.431L318.498 232.366L321.107 231.756L320.064 227.302L321.973 226.855L323.015 231.309L327.539 230.25L328.081 232.565ZM326.019 223.758L315.069 226.321L313.373 219.071L315.281 218.624L316.436 223.559L319.046 222.948L318.003 218.494L319.912 218.048L320.954 222.502L325.478 221.443L326.019 223.758ZM312.466 215.198L323.417 212.636L323.958 214.951L313.008 217.513L312.466 215.198ZM313.593 202.735L314.141 205.077C313.848 205.19 313.6 205.341 313.395 205.528C313.187 205.715 313.024 205.932 312.905 206.178C312.785 206.424 312.713 206.693 312.687 206.985C312.661 207.273 312.684 207.574 312.758 207.888C312.89 208.454 313.147 208.915 313.527 209.27C313.903 209.625 314.386 209.856 314.975 209.963C315.56 210.07 316.232 210.035 316.991 209.857C317.772 209.675 318.401 209.405 318.878 209.049C319.354 208.69 319.678 208.268 319.85 207.784C320.023 207.3 320.045 206.782 319.915 206.229C319.843 205.919 319.735 205.642 319.591 205.397C319.446 205.149 319.271 204.94 319.066 204.77C318.857 204.601 318.623 204.475 318.363 204.393C318.103 204.308 317.82 204.272 317.515 204.287L316.978 201.943C317.494 201.886 318.015 201.924 318.538 202.057C319.058 202.187 319.548 202.413 320.011 202.733C320.468 203.051 320.87 203.464 321.215 203.974C321.555 204.481 321.807 205.085 321.972 205.788C322.2 206.764 322.184 207.689 321.922 208.563C321.659 209.432 321.161 210.188 320.428 210.83C319.694 211.468 318.731 211.926 317.541 212.205C316.347 212.484 315.278 212.497 314.336 212.244C313.393 211.991 312.612 211.531 311.993 210.864C311.371 210.197 310.948 209.383 310.722 208.42C310.574 207.786 310.525 207.177 310.577 206.593C310.627 206.006 310.775 205.462 311.018 204.962C311.258 204.462 311.594 204.022 312.024 203.644C312.453 203.261 312.976 202.958 313.593 202.735ZM308.829 199.657L319.779 197.094L320.321 199.409L309.371 201.972L308.829 199.657ZM319.334 195.189L308.384 197.752L306.657 190.374L308.566 189.927L309.751 194.99L312.36 194.38L311.264 189.696L313.172 189.249L314.269 193.933L316.883 193.321L315.693 188.236L317.602 187.79L319.334 195.189ZM304.083 179.374L315.033 176.812L315.501 178.811L309.724 185.188L309.742 185.268L316.634 183.655L317.176 185.97L306.226 188.533L305.751 186.501L311.531 180.163L311.509 180.067L304.622 181.679L304.083 179.374ZM305.641 177.432L303.733 177.878L301.628 168.885L303.537 168.439L304.321 171.791L313.363 169.675L313.898 171.963L304.857 174.079L305.641 177.432ZM346.354 263.456L357.304 260.893L357.846 263.208L346.896 265.771L346.354 263.456ZM343.765 252.392L354.715 249.829L355.183 251.829L349.406 258.206L349.425 258.286L356.317 256.673L356.859 258.988L345.909 261.551L345.433 259.519L351.214 253.181L351.191 253.085L344.304 254.696L343.765 252.392ZM345.324 250.449L343.415 250.896L341.31 241.903L343.219 241.456L344.004 244.809L353.045 242.693L353.581 244.981L344.539 247.097L345.324 250.449ZM351.914 237.859L340.964 240.422L339.237 233.044L341.146 232.597L342.331 237.66L344.94 237.05L343.844 232.366L345.753 231.919L346.849 236.603L349.463 235.991L348.273 230.906L350.182 230.46L351.914 237.859ZM349.756 228.64L338.806 231.203L337.795 226.883C337.602 226.056 337.585 225.316 337.744 224.662C337.898 224.005 338.209 223.461 338.675 223.028C339.137 222.593 339.73 222.291 340.454 222.121C341.181 221.951 341.843 221.962 342.441 222.153C343.035 222.344 343.54 222.706 343.957 223.236C344.374 223.762 344.681 224.446 344.877 225.287L345.554 228.18L343.694 228.615L343.104 226.097C343.001 225.655 342.854 225.302 342.665 225.038C342.475 224.774 342.243 224.6 341.967 224.514C341.69 224.424 341.372 224.422 341.012 224.506C340.648 224.591 340.359 224.736 340.144 224.94C339.927 225.141 339.79 225.405 339.731 225.731C339.667 226.054 339.688 226.438 339.792 226.884L340.157 228.445L349.215 226.325L349.756 228.64ZM343.389 223.893L347.736 220.005L348.334 222.561L343.974 226.39L343.389 223.893ZM347.444 218.76L336.494 221.322L334.797 214.072L336.706 213.625L337.861 218.56L340.47 217.95L339.428 213.496L341.337 213.049L342.379 217.503L346.902 216.445L347.444 218.76ZM345.261 209.432L345.842 211.913L334.007 210.696L333.309 207.712L343.376 201.375L343.956 203.856L336.15 208.576L336.17 208.661L345.261 209.432ZM340.993 210.595L339.622 204.735L341.429 204.312L342.801 210.172L340.993 210.595ZM333.81 192.576L334.358 194.917C334.065 195.031 333.817 195.181 333.612 195.368C333.404 195.556 333.241 195.773 333.122 196.019C333.002 196.265 332.93 196.534 332.904 196.825C332.878 197.114 332.901 197.415 332.975 197.728C333.107 198.295 333.363 198.756 333.744 199.11C334.12 199.466 334.603 199.697 335.192 199.804C335.777 199.911 336.449 199.876 337.208 199.698C337.989 199.516 338.618 199.246 339.095 198.89C339.571 198.531 339.895 198.109 340.067 197.625C340.24 197.141 340.261 196.623 340.132 196.07C340.06 195.76 339.951 195.483 339.808 195.238C339.663 194.99 339.488 194.781 339.283 194.611C339.074 194.442 338.84 194.316 338.58 194.234C338.319 194.148 338.037 194.113 337.732 194.128L337.195 191.784C337.711 191.727 338.232 191.765 338.755 191.898C339.275 192.028 339.765 192.253 340.228 192.574C340.685 192.892 341.087 193.305 341.432 193.815C341.772 194.322 342.024 194.926 342.189 195.628C342.417 196.605 342.401 197.53 342.139 198.403C341.876 199.273 341.378 200.029 340.645 200.67C339.911 201.308 338.948 201.767 337.758 202.045C336.564 202.325 335.495 202.338 334.552 202.085C333.61 201.832 332.829 201.372 332.21 200.704C331.588 200.038 331.164 199.223 330.939 198.261C330.791 197.627 330.742 197.018 330.794 196.434C330.844 195.847 330.991 195.303 331.235 194.802C331.475 194.303 331.811 193.863 332.241 193.484C332.67 193.102 333.193 192.799 333.81 192.576ZM340.538 189.25L329.588 191.813L327.861 184.434L329.77 183.987L330.955 189.051L333.564 188.44L332.468 183.756L334.377 183.31L335.473 187.993L338.088 187.382L336.898 182.297L338.806 181.85L340.538 189.25ZM329.19 175.916C328.768 176.06 328.476 176.322 328.313 176.702C328.15 177.083 328.134 177.551 328.264 178.107C328.353 178.485 328.481 178.791 328.649 179.026C328.813 179.262 329.004 179.428 329.222 179.524C329.439 179.616 329.665 179.634 329.9 179.579C330.098 179.541 330.259 179.46 330.385 179.336C330.509 179.209 330.606 179.053 330.676 178.868C330.741 178.683 330.789 178.477 330.818 178.248C330.844 178.02 330.855 177.781 330.853 177.529L330.858 176.49C330.853 175.988 330.893 175.516 330.978 175.075C331.063 174.634 331.201 174.237 331.393 173.884C331.585 173.531 331.838 173.233 332.153 172.99C332.468 172.743 332.853 172.565 333.308 172.454C333.979 172.301 334.6 172.336 335.171 172.56C335.738 172.78 336.231 173.176 336.651 173.747C337.066 174.316 337.377 175.045 337.586 175.937C337.793 176.821 337.838 177.622 337.72 178.341C337.602 179.057 337.32 179.661 336.875 180.152C336.425 180.641 335.809 180.986 335.025 181.188L334.501 178.948C334.862 178.837 335.144 178.66 335.347 178.417C335.545 178.172 335.67 177.878 335.721 177.535C335.768 177.189 335.745 176.817 335.651 176.417C335.56 176.025 335.423 175.698 335.241 175.436C335.059 175.171 334.847 174.982 334.607 174.869C334.366 174.756 334.114 174.73 333.85 174.792C333.604 174.85 333.414 174.971 333.281 175.156C333.147 175.338 333.053 175.582 333.001 175.887C332.947 176.189 332.919 176.551 332.916 176.973L332.896 178.235C332.888 179.211 332.707 180.022 332.355 180.669C332.002 181.315 331.421 181.731 330.611 181.917C329.949 182.076 329.328 182.035 328.749 181.794C328.17 181.55 327.667 181.147 327.242 180.585C326.818 180.023 326.512 179.342 326.325 178.544C326.135 177.731 326.108 176.989 326.244 176.318C326.379 175.644 326.655 175.079 327.071 174.624C327.488 174.17 328.021 173.861 328.67 173.698L329.19 175.916Z" fill="black"/>
</svg>
