<svg width="398" height="279" viewBox="0 0 398 279" fill="none" xmlns="http://www.w3.org/2000/svg">
<rect x="342.468" y="220.986" width="60.2184" height="5.54749" transform="rotate(24.3337 342.468 220.986)" fill="white"/>
<path d="M101.755 242.755C102.651 234.557 104.769 221.443 110.073 216.243C130.279 196.433 176.678 199.809 190.856 172.014C203.748 146.74 177.649 102.183 180.475 68.127C181.946 50.3913 204.644 37.4923 216.253 27.4091L376.529 186.649C352.017 207.939 336.663 236.816 333.252 268.045L101.755 242.755Z" fill="#EADAFF"/>
<path d="M166.727 200.216C125.07 224.976 71.2278 211.278 46.4679 169.62C21.708 127.962 35.4064 74.1204 77.064 49.3605C118.722 24.6006 172.564 38.299 197.323 79.9565C222.083 121.614 208.385 175.456 166.727 200.216ZM90.085 71.268C60.5266 88.8365 50.8069 127.04 68.3754 156.599C85.9439 186.157 124.148 195.877 153.706 178.308C183.265 160.74 192.984 122.536 175.416 92.9776C157.847 63.4192 119.643 53.6995 90.085 71.268Z" fill="#AC6CFF"/>
<circle cx="121.898" cy="124.79" r="51.9849" transform="rotate(59.2742 121.898 124.79)" fill="white"/>
<path d="M134.73 151.211L128.075 147.805L121.633 124.887C121.03 122.91 120.446 121.211 119.88 119.791C119.322 118.357 118.672 117.155 117.931 116.183C117.176 115.205 116.222 114.421 115.07 113.831C113.79 113.176 112.539 112.904 111.316 113.014C110.08 113.117 108.954 113.546 107.94 114.301C106.911 115.049 106.069 116.062 105.414 117.342C104.73 118.679 104.404 119.983 104.435 121.255C104.466 122.527 104.848 123.692 105.581 124.749C106.314 125.806 107.378 126.691 108.771 127.404L104.285 136.171C101.427 134.708 99.2767 132.792 97.8342 130.421C96.3917 128.05 95.6911 125.403 95.7326 122.482C95.7741 119.56 96.5734 116.578 98.1305 113.534C99.7314 110.406 101.679 107.966 103.975 106.216C106.263 104.444 108.712 103.41 111.323 103.112C113.933 102.815 116.497 103.31 119.014 104.598C120.664 105.442 122.125 106.603 123.397 108.079C124.676 109.541 125.875 111.599 126.994 114.253C128.098 116.9 129.247 120.422 130.442 124.819L133.429 134.395L133.728 134.548L143.114 116.203L150.665 120.067L134.73 151.211Z" fill="black"/>
<path d="M204.793 225.284L194.808 221.898L197.049 215.287L198.79 215.877L197.264 220.377L199.643 221.184L201.02 217.122L202.761 217.713L201.384 221.774L205.508 223.173L204.793 225.284ZM199.622 207.699L200.338 205.588L206.822 207.787C207.551 208.034 208.129 208.424 208.557 208.957C208.986 209.487 209.248 210.114 209.343 210.838C209.435 211.561 209.341 212.336 209.061 213.161C208.78 213.99 208.383 214.664 207.87 215.182C207.354 215.699 206.765 216.037 206.102 216.197C205.439 216.356 204.743 216.312 204.015 216.066L197.531 213.867L198.247 211.756L204.551 213.893C204.931 214.022 205.297 214.054 205.649 213.989C206.002 213.92 206.315 213.761 206.588 213.513C206.86 213.265 207.066 212.938 207.203 212.531C207.342 212.122 207.378 211.737 207.312 211.378C207.246 211.015 207.094 210.7 206.854 210.434C206.616 210.165 206.307 209.966 205.926 209.837L199.622 207.699ZM203.759 195.5L213.744 198.886L213.126 200.709L205.368 202.922L205.343 202.995L211.628 205.126L210.912 207.237L200.927 203.851L201.555 201.999L209.296 199.818L209.326 199.731L203.047 197.601L203.759 195.5ZM215.536 193.602L214.335 197.142L204.351 193.756L205.561 190.187C205.901 189.183 206.394 188.386 207.04 187.797C207.682 187.206 208.442 186.842 209.318 186.705C210.196 186.564 211.153 186.669 212.19 187.021C213.23 187.373 214.057 187.873 214.672 188.52C215.287 189.163 215.67 189.919 215.822 190.785C215.975 191.649 215.88 192.588 215.536 193.602ZM213.243 194.417L213.697 193.076C213.909 192.452 213.976 191.89 213.9 191.389C213.821 190.884 213.584 190.445 213.189 190.072C212.791 189.694 212.22 189.379 211.476 189.127C210.738 188.877 210.098 188.781 209.556 188.84C209.016 188.896 208.562 189.099 208.197 189.45C207.832 189.801 207.543 190.288 207.332 190.912L206.875 192.258L213.243 194.417ZM218.115 185.995L217.348 188.257L208.532 181.425L209.455 178.704L220.607 178.648L219.839 180.91L211.288 180.799L211.262 180.877L218.115 185.995ZM214.143 184.806L215.954 179.462L217.602 180.021L215.79 185.365L214.143 184.806ZM211.029 174.06L211.912 171.457L219.553 170.982L219.593 170.865L213.817 165.84L214.7 163.237L224.684 166.623L223.99 168.67L217.491 166.467L217.463 166.55L223.037 171.321L222.564 172.715L215.213 173.104L215.185 173.186L221.708 175.399L221.014 177.446L211.029 174.06ZM225.274 164.884L215.289 161.498L217.571 154.77L219.311 155.36L217.746 159.977L220.125 160.784L221.573 156.513L223.314 157.103L221.865 161.374L224.249 162.182L225.822 157.546L227.562 158.136L225.274 164.884ZM220.972 144.74L230.957 148.126L230.338 149.949L222.581 152.162L222.556 152.235L228.841 154.366L228.125 156.477L218.14 153.091L218.768 151.239L226.509 149.058L226.539 148.97L220.259 146.841L220.972 144.74ZM223.175 143.966L221.434 143.376L224.215 135.175L225.956 135.766L224.919 138.823L233.163 141.618L232.456 143.705L224.211 140.909L223.175 143.966ZM234.828 136.71L234.061 138.972L225.245 132.139L226.167 129.419L237.319 129.363L236.552 131.625L228.001 131.514L227.974 131.592L234.828 136.71ZM230.855 135.52L232.667 130.177L234.315 130.736L232.503 136.079L230.855 135.52ZM237.727 128.161L227.742 124.775L228.458 122.664L236.702 125.46L238.154 121.179L239.894 121.769L237.727 128.161ZM223.625 235.138L213.641 231.752L214.356 229.641L218.759 231.134L218.804 231.002L215.62 225.916L216.478 223.386L219.692 228.607L226.477 226.728L225.621 229.253L220.588 230.596L221.504 232.065L224.341 233.027L223.625 235.138ZM219.682 213.935L229.667 217.321L229.049 219.144L221.291 221.357L221.267 221.43L227.551 223.561L226.835 225.672L216.85 222.287L217.479 220.434L225.22 218.253L225.249 218.166L218.97 216.036L219.682 213.935ZM228.378 204.708C229.466 205.077 230.323 205.598 230.947 206.27C231.572 206.938 231.965 207.695 232.128 208.54C232.289 209.381 232.22 210.242 231.921 211.123C231.62 212.01 231.149 212.738 230.506 213.307C229.864 213.876 229.092 214.235 228.189 214.386C227.286 214.536 226.292 214.427 225.207 214.059C224.118 213.69 223.261 213.171 222.636 212.503C222.011 211.834 221.618 211.079 221.458 210.238C221.294 209.397 221.362 208.532 221.663 207.645C221.962 206.764 222.432 206.039 223.075 205.47C223.715 204.897 224.486 204.536 225.389 204.385C226.292 204.231 227.289 204.339 228.378 204.708ZM227.652 206.849C226.947 206.609 226.316 206.513 225.76 206.56C225.205 206.604 224.738 206.774 224.359 207.069C223.98 207.365 223.704 207.767 223.531 208.278C223.358 208.788 223.332 209.276 223.453 209.741C223.574 210.206 223.841 210.626 224.254 211.002C224.668 211.374 225.227 211.68 225.932 211.919C226.638 212.158 227.268 212.256 227.823 212.212C228.379 212.165 228.846 211.994 229.225 211.698C229.605 211.403 229.881 211 230.054 210.49C230.227 209.979 230.253 209.492 230.131 209.027C230.01 208.561 229.743 208.143 229.329 207.771C228.916 207.395 228.357 207.088 227.652 206.849ZM234.535 202.965L223.582 202.436L224.364 200.13L231.862 200.83L231.89 200.747L225.57 196.571L226.24 194.597L233.809 195.136L233.839 195.048L227.447 191.038L228.229 188.732L237.245 194.974L236.547 197.032L229.374 196.72L229.348 196.798L235.233 200.908L234.535 202.965ZM238.597 190.988L228.612 187.602L229.328 185.491L237.572 188.286L239.024 184.006L240.764 184.596L238.597 190.988ZM241.238 183.198L231.253 179.812L233.535 173.084L235.275 173.674L233.71 178.291L236.089 179.098L237.537 174.827L239.278 175.417L237.829 179.688L240.214 180.497L241.786 175.86L243.526 176.45L241.238 183.198ZM245.289 171.252L244.089 174.792L234.104 171.406L235.314 167.837C235.655 166.833 236.148 166.036 236.793 165.447C237.436 164.856 238.195 164.492 239.072 164.355C239.949 164.214 240.907 164.319 241.943 164.671C242.984 165.023 243.811 165.523 244.425 166.17C245.04 166.813 245.424 167.569 245.576 168.435C245.728 169.299 245.633 170.238 245.289 171.252ZM242.996 172.067L243.451 170.726C243.662 170.102 243.73 169.54 243.653 169.039C243.574 168.534 243.337 168.095 242.942 167.722C242.544 167.344 241.974 167.029 241.229 166.777C240.491 166.527 239.852 166.431 239.31 166.49C238.769 166.546 238.316 166.749 237.95 167.1C237.585 167.451 237.297 167.938 237.085 168.562L236.629 169.908L242.996 172.067ZM242.964 155.891C242.703 155.879 242.461 155.904 242.237 155.965C242.01 156.026 241.803 156.124 241.615 156.26C241.426 156.391 241.258 156.559 241.113 156.764C240.969 156.965 240.85 157.202 240.758 157.475C240.585 157.985 240.559 158.477 240.682 158.949C240.805 159.419 241.073 159.843 241.484 160.222C241.893 160.599 242.444 160.906 243.14 161.142C243.836 161.378 244.463 161.473 245.022 161.427C245.581 161.381 246.055 161.208 246.443 160.908C246.827 160.608 247.109 160.194 247.288 159.667C247.45 159.19 247.503 158.753 247.449 158.358C247.393 157.958 247.239 157.616 246.987 157.331C246.737 157.044 246.399 156.827 245.973 156.683L246.182 156.276L245.309 158.85L243.72 158.311L245.136 154.133L246.394 154.559C247.272 154.857 247.963 155.298 248.468 155.882C248.97 156.465 249.281 157.14 249.402 157.906C249.519 158.67 249.436 159.472 249.152 160.31C248.834 161.246 248.349 161.999 247.696 162.567C247.04 163.135 246.262 163.487 245.364 163.625C244.464 163.758 243.487 163.646 242.434 163.289C241.624 163.015 240.943 162.653 240.388 162.204C239.832 161.751 239.404 161.236 239.107 160.66C238.809 160.085 238.641 159.475 238.602 158.831C238.563 158.187 238.655 157.536 238.879 156.876C239.071 156.31 239.332 155.812 239.663 155.381C239.991 154.948 240.368 154.594 240.795 154.318C241.223 154.04 241.684 153.85 242.179 153.749C242.67 153.648 243.174 153.646 243.691 153.746L242.964 155.891ZM251.018 154.359L241.033 150.973L243.314 144.245L245.055 144.835L243.489 149.452L245.868 150.259L247.317 145.988L249.057 146.578L247.609 150.849L249.993 151.658L251.565 147.021L253.306 147.611L251.018 154.359ZM253.065 131.906C254.153 132.276 255.01 132.796 255.634 133.468C256.259 134.136 256.652 134.893 256.815 135.739C256.976 136.579 256.907 137.44 256.608 138.321C256.307 139.208 255.836 139.936 255.193 140.505C254.551 141.074 253.779 141.433 252.876 141.584C251.973 141.734 250.979 141.626 249.894 141.257C248.805 140.888 247.948 140.369 247.323 139.701C246.698 139.032 246.305 138.278 246.145 137.437C245.981 136.595 246.049 135.73 246.35 134.843C246.649 133.962 247.119 133.237 247.762 132.669C248.402 132.096 249.173 131.734 250.076 131.583C250.98 131.429 251.976 131.537 253.065 131.906ZM252.339 134.047C251.634 133.808 251.003 133.712 250.447 133.759C249.892 133.802 249.425 133.972 249.046 134.267C248.667 134.563 248.391 134.966 248.218 135.476C248.045 135.986 248.019 136.474 248.14 136.939C248.261 137.404 248.528 137.825 248.941 138.2C249.355 138.572 249.914 138.878 250.62 139.117C251.325 139.356 251.955 139.454 252.51 139.41C253.066 139.363 253.533 139.192 253.912 138.897C254.292 138.601 254.568 138.198 254.741 137.688C254.914 137.178 254.94 136.69 254.818 136.225C254.697 135.76 254.43 135.341 254.016 134.969C253.603 134.593 253.044 134.286 252.339 134.047ZM258.587 132.036L248.603 128.65L250.844 122.039L252.585 122.629L251.059 127.129L253.438 127.936L254.815 123.874L256.556 124.465L255.179 128.526L259.303 129.925L258.587 132.036ZM254.377 209.845L253.177 213.385L243.192 209.999L244.402 206.43C244.742 205.426 245.236 204.629 245.881 204.04C246.523 203.449 247.283 203.085 248.159 202.948C249.037 202.807 249.994 202.912 251.031 203.264C252.071 203.616 252.898 204.116 253.513 204.763C254.128 205.406 254.511 206.162 254.663 207.028C254.816 207.892 254.721 208.831 254.377 209.845ZM252.084 210.66L252.538 209.319C252.75 208.695 252.817 208.133 252.741 207.632C252.662 207.127 252.425 206.688 252.03 206.315C251.632 205.937 251.061 205.622 250.317 205.37C249.579 205.12 248.939 205.024 248.397 205.083C247.857 205.139 247.404 205.342 247.038 205.693C246.673 206.044 246.384 206.531 246.173 207.155L245.716 208.501L252.084 210.66ZM247.295 197.899L257.279 201.285L256.564 203.396L246.579 200.01L247.295 197.899ZM253.356 190.636C253.096 190.624 252.854 190.649 252.63 190.71C252.403 190.771 252.195 190.869 252.008 191.005C251.818 191.137 251.651 191.304 251.506 191.509C251.361 191.71 251.243 191.947 251.15 192.22C250.977 192.73 250.952 193.222 251.074 193.695C251.198 194.164 251.465 194.588 251.877 194.967C252.285 195.345 252.837 195.651 253.533 195.887C254.228 196.123 254.855 196.218 255.415 196.172C255.974 196.126 256.447 195.953 256.835 195.654C257.22 195.353 257.502 194.939 257.68 194.413C257.842 193.935 257.896 193.498 257.842 193.103C257.785 192.703 257.631 192.361 257.38 192.076C257.129 191.789 256.791 191.573 256.366 191.428L256.574 191.021L255.701 193.595L254.112 193.056L255.529 188.878L256.787 189.304C257.664 189.602 258.356 190.043 258.86 190.627C259.362 191.21 259.673 191.885 259.794 192.651C259.912 193.415 259.828 194.217 259.544 195.055C259.227 195.992 258.741 196.744 258.088 197.312C257.432 197.88 256.655 198.232 255.757 198.37C254.856 198.503 253.879 198.391 252.826 198.034C252.017 197.76 251.335 197.398 250.781 196.949C250.224 196.496 249.797 195.981 249.499 195.406C249.202 194.83 249.033 194.22 248.994 193.576C248.955 192.933 249.048 192.281 249.271 191.621C249.463 191.055 249.725 190.557 250.056 190.126C250.384 189.693 250.761 189.339 251.188 189.064C251.616 188.785 252.077 188.595 252.571 188.494C253.062 188.393 253.566 188.392 254.084 188.491L253.356 190.636ZM252.141 183.607L262.126 186.993L261.41 189.104L251.425 185.718L252.141 183.607ZM254.342 182.841L252.601 182.25L255.382 174.05L257.122 174.64L256.086 177.697L264.33 180.493L263.623 182.579L255.378 179.784L254.342 182.841ZM265.994 175.584L265.227 177.847L256.411 171.014L257.334 168.293L268.486 168.237L267.719 170.499L259.168 170.388L259.141 170.466L265.994 175.584ZM262.022 174.395L263.834 169.052L265.482 169.61L263.67 174.954L262.022 174.395ZM268.893 167.035L258.909 163.65L259.625 161.539L267.869 164.334L269.32 160.054L271.061 160.644L268.893 167.035ZM262.703 227.296C262.296 227.202 261.934 227.265 261.616 227.487C261.298 227.709 261.053 228.074 260.881 228.581C260.764 228.925 260.714 229.233 260.731 229.503C260.745 229.772 260.815 229.999 260.941 230.183C261.068 230.364 261.239 230.491 261.453 230.563C261.63 230.63 261.799 230.646 261.959 230.61C262.121 230.571 262.276 230.494 262.423 230.381C262.567 230.267 262.707 230.126 262.843 229.958C262.977 229.79 263.105 229.605 263.227 229.404L263.746 228.579C263.991 228.177 264.257 227.821 264.543 227.512C264.829 227.203 265.135 226.956 265.463 226.77C265.791 226.584 266.14 226.472 266.512 226.435C266.884 226.395 267.279 226.443 267.696 226.581C268.306 226.791 268.783 227.127 269.127 227.588C269.468 228.045 269.665 228.604 269.716 229.266C269.764 229.924 269.651 230.66 269.375 231.472C269.102 232.278 268.74 232.938 268.29 233.453C267.842 233.964 267.319 234.304 266.721 234.475C266.121 234.641 265.459 234.611 264.735 234.383L265.428 232.341C265.77 232.431 266.082 232.43 266.364 232.337C266.643 232.24 266.888 232.068 267.099 231.82C267.308 231.568 267.474 231.26 267.597 230.896C267.718 230.539 267.772 230.211 267.757 229.912C267.743 229.61 267.669 229.355 267.533 229.146C267.397 228.937 267.209 228.791 266.969 228.71C266.744 228.634 266.533 228.637 266.335 228.718C266.139 228.796 265.944 228.944 265.75 229.161C265.558 229.375 265.356 229.649 265.145 229.983L264.504 230.978C264.013 231.75 263.468 232.306 262.867 232.646C262.266 232.986 261.597 233.029 260.861 232.776C260.255 232.574 259.781 232.234 259.44 231.756C259.099 231.274 258.899 230.705 258.84 230.047C258.78 229.389 258.874 228.696 259.121 227.968C259.372 227.227 259.718 226.623 260.159 226.156C260.601 225.686 261.1 225.374 261.657 225.218C262.213 225.062 262.791 225.081 263.389 225.273L262.703 227.296ZM271.03 226.128L261.045 222.742L263.326 216.014L265.067 216.605L263.501 221.222L265.88 222.028L267.329 217.757L269.069 218.348L267.621 222.619L270.005 223.427L271.577 218.79L273.318 219.381L271.03 226.128ZM270.379 206.712L269.654 208.847C269.365 208.792 269.093 208.789 268.837 208.836C268.579 208.883 268.341 208.974 268.124 209.111C267.908 209.248 267.717 209.426 267.552 209.645C267.388 209.861 267.257 210.113 267.16 210.399C266.985 210.915 266.961 211.409 267.088 211.88C267.211 212.349 267.481 212.772 267.897 213.149C268.309 213.524 268.862 213.829 269.554 214.064C270.266 214.306 270.9 214.403 271.456 214.356C272.013 214.305 272.48 214.13 272.857 213.831C273.234 213.531 273.508 213.129 273.679 212.625C273.775 212.342 273.826 212.068 273.833 211.802C273.841 211.533 273.805 211.28 273.726 211.043C273.644 210.805 273.519 210.589 273.353 210.395C273.188 210.197 272.981 210.029 272.731 209.89L273.465 207.758C273.904 207.969 274.299 208.257 274.65 208.622C274.999 208.983 275.278 209.406 275.487 209.89C275.694 210.369 275.808 210.898 275.83 211.474C275.85 212.046 275.752 212.652 275.534 213.293C275.232 214.183 274.761 214.911 274.12 215.476C273.48 216.039 272.709 216.393 271.807 216.541C270.907 216.685 269.914 216.573 268.828 216.204C267.74 215.835 266.883 215.316 266.258 214.648C265.633 213.979 265.239 213.226 265.078 212.389C264.913 211.55 264.979 210.692 265.277 209.814C265.473 209.236 265.736 208.727 266.066 208.288C266.397 207.846 266.784 207.486 267.226 207.208C267.665 206.929 268.149 206.746 268.679 206.657C269.21 206.565 269.777 206.584 270.379 206.712ZM269.488 197.845L270.203 195.734L276.688 197.933C277.416 198.18 277.994 198.57 278.422 199.102C278.851 199.632 279.113 200.259 279.208 200.984C279.3 201.707 279.206 202.481 278.926 203.307C278.645 204.136 278.248 204.809 277.735 205.328C277.219 205.845 276.63 206.183 275.967 206.342C275.304 206.502 274.609 206.458 273.88 206.211L267.396 204.012L268.112 201.901L274.416 204.039C274.796 204.168 275.162 204.2 275.514 204.134C275.867 204.065 276.18 203.907 276.453 203.659C276.726 203.411 276.931 203.083 277.068 202.677C277.207 202.268 277.244 201.883 277.177 201.523C277.112 201.161 276.959 200.846 276.72 200.58C276.481 200.311 276.172 200.112 275.791 199.983L269.488 197.845ZM280.777 197.383L270.792 193.997L272.128 190.058C272.384 189.304 272.737 188.706 273.188 188.264C273.636 187.818 274.153 187.539 274.738 187.426C275.322 187.308 275.944 187.361 276.603 187.585C277.266 187.81 277.788 188.147 278.169 188.595C278.547 189.041 278.77 189.579 278.84 190.208C278.91 190.834 278.815 191.53 278.555 192.297L277.661 194.935L275.964 194.359L276.743 192.063C276.88 191.66 276.938 191.306 276.918 191.002C276.898 190.698 276.799 190.444 276.622 190.239C276.446 190.031 276.194 189.871 275.866 189.76C275.534 189.647 275.232 189.619 274.96 189.675C274.688 189.728 274.448 189.87 274.239 190.1C274.029 190.325 273.855 190.641 273.717 191.048L273.234 192.471L281.493 195.272L280.777 197.383ZM278.062 190.45L283.447 189.509L282.657 191.84L277.29 192.727L278.062 190.45ZM274.563 182.876L284.548 186.262L283.832 188.373L273.848 184.987L274.563 182.876ZM276.764 182.11L275.023 181.52L277.804 173.319L279.545 173.91L278.508 176.966L286.752 179.762L286.045 181.849L277.801 179.053L276.764 182.11ZM278.064 172.554L278.866 170.189L283.938 169.371L283.971 169.273L280.443 165.538L281.245 163.174L286.465 169.004L289.994 170.201L289.284 172.298L285.754 171.101L278.064 172.554ZM283.593 254.471L273.608 251.085L275.85 244.474L277.591 245.065L276.065 249.565L278.444 250.371L279.821 246.31L281.562 246.9L280.184 250.962L284.309 252.36L283.593 254.471ZM284.435 235.572C285.524 235.941 286.381 236.462 287.004 237.133C287.629 237.802 288.023 238.559 288.186 239.404C288.347 240.245 288.278 241.106 287.979 241.987C287.678 242.874 287.206 243.602 286.564 244.171C285.922 244.739 285.15 245.099 284.247 245.249C283.344 245.4 282.35 245.291 281.264 244.923C280.176 244.554 279.319 244.035 278.694 243.366C278.069 242.698 277.676 241.943 277.515 241.102C277.352 240.26 277.42 239.396 277.721 238.508C278.02 237.627 278.49 236.903 279.132 236.334C279.772 235.761 280.544 235.399 281.446 235.249C282.35 235.095 283.347 235.203 284.435 235.572ZM283.71 237.712C283.004 237.473 282.374 237.377 281.818 237.424C281.263 237.468 280.796 237.637 280.417 237.933C280.037 238.228 279.761 238.631 279.588 239.141C279.415 239.652 279.389 240.139 279.511 240.605C279.632 241.07 279.899 241.49 280.312 241.866C280.725 242.238 281.285 242.543 281.99 242.783C282.696 243.022 283.326 243.119 283.88 243.076C284.436 243.029 284.904 242.857 285.283 242.562C285.662 242.267 285.939 241.864 286.112 241.353C286.285 240.843 286.31 240.355 286.189 239.89C286.068 239.425 285.8 239.006 285.387 238.634C284.974 238.259 284.415 237.951 283.71 237.712ZM289.958 235.701L279.973 232.315L281.309 228.376C281.565 227.622 281.918 227.024 282.368 226.582C282.817 226.137 283.334 225.857 283.919 225.744C284.503 225.627 285.124 225.68 285.784 225.903C286.447 226.128 286.969 226.465 287.35 226.913C287.728 227.36 287.951 227.898 288.02 228.526C288.091 229.152 287.996 229.848 287.736 230.615L286.842 233.253L285.145 232.677L285.924 230.381C286.06 229.978 286.119 229.625 286.099 229.321C286.078 229.017 285.98 228.762 285.803 228.557C285.627 228.349 285.375 228.189 285.047 228.078C284.715 227.965 284.413 227.937 284.14 227.993C283.869 228.046 283.629 228.188 283.42 228.418C283.21 228.644 283.036 228.96 282.898 229.366L282.415 230.789L290.674 233.59L289.958 235.701ZM287.243 228.768L292.628 227.827L291.838 230.158L286.471 231.045L287.243 228.768ZM294.091 223.514L284.106 220.128L285.462 216.13C285.711 215.396 286.027 214.82 286.412 214.403C286.796 213.986 287.223 213.72 287.694 213.604C288.161 213.487 288.645 213.513 289.145 213.683C289.535 213.815 289.852 214.009 290.095 214.266C290.334 214.521 290.502 214.817 290.598 215.154C290.692 215.487 290.719 215.84 290.679 216.214L290.776 216.247C290.922 215.872 291.15 215.553 291.46 215.289C291.772 215.021 292.142 214.844 292.57 214.757C292.995 214.669 293.453 214.709 293.943 214.875C294.473 215.055 294.901 215.347 295.228 215.751C295.553 216.151 295.749 216.647 295.816 217.239C295.884 217.831 295.791 218.5 295.537 219.248L294.091 223.514ZM293.081 220.818L293.664 219.097C293.864 218.508 293.897 218.041 293.764 217.695C293.628 217.348 293.372 217.111 292.995 216.983C292.718 216.889 292.452 216.873 292.196 216.935C291.939 216.997 291.709 217.131 291.505 217.337C291.302 217.54 291.143 217.81 291.029 218.148L290.429 219.918L293.081 220.818ZM289 219.434L289.531 217.869C289.629 217.579 289.665 217.306 289.641 217.047C289.614 216.784 289.528 216.556 289.384 216.362C289.241 216.165 289.037 216.022 288.774 215.932C288.413 215.81 288.079 215.84 287.771 216.022C287.464 216.2 287.231 216.524 287.072 216.992L286.528 218.596L289 219.434ZM297.169 214.437L287.184 211.051L289.465 204.323L291.206 204.913L289.64 209.53L292.019 210.337L293.468 206.066L295.208 206.657L293.76 210.927L296.144 211.736L297.716 207.099L299.457 207.689L297.169 214.437ZM295.507 197.118C295.247 197.106 295.005 197.131 294.781 197.193C294.553 197.254 294.346 197.352 294.159 197.488C293.969 197.619 293.802 197.787 293.656 197.991C293.512 198.192 293.394 198.429 293.301 198.702C293.128 199.213 293.103 199.704 293.225 200.177C293.349 200.647 293.616 201.071 294.028 201.449C294.436 201.827 294.988 202.134 295.683 202.37C296.379 202.605 297.006 202.7 297.565 202.655C298.125 202.609 298.598 202.436 298.986 202.136C299.371 201.835 299.652 201.422 299.831 200.895C299.993 200.417 300.047 199.981 299.992 199.585C299.936 199.186 299.782 198.843 299.531 198.559C299.28 198.271 298.942 198.055 298.516 197.911L298.725 197.503L297.852 200.077L296.263 199.538L297.68 195.36L298.938 195.787C299.815 196.084 300.506 196.525 301.011 197.11C301.513 197.693 301.824 198.367 301.945 199.133C302.063 199.898 301.979 200.699 301.695 201.538C301.378 202.474 300.892 203.226 300.239 203.795C299.583 204.362 298.806 204.715 297.907 204.852C297.007 204.986 296.03 204.874 294.977 204.517C294.168 204.242 293.486 203.88 292.931 203.431C292.375 202.978 291.948 202.464 291.65 201.888C291.352 201.312 291.184 200.703 291.145 200.059C291.106 199.415 291.199 198.763 291.422 198.103C291.614 197.538 291.875 197.039 292.207 196.608C292.534 196.176 292.912 195.822 293.339 195.546C293.767 195.267 294.228 195.077 294.722 194.977C295.213 194.875 295.717 194.874 296.235 194.973L295.507 197.118ZM294.292 190.089L304.277 193.475L303.561 195.586L293.576 192.2L294.292 190.089ZM297.713 180.001L307.698 183.387L307.079 185.21L299.322 187.423L299.297 187.496L305.582 189.627L304.866 191.738L294.881 188.353L295.509 186.5L303.25 184.319L303.28 184.232L297 182.102L297.713 180.001ZM301.136 169.905L311.121 173.291L310.503 175.115L302.745 177.328L302.721 177.401L309.005 179.532L308.289 181.643L298.304 178.257L298.933 176.404L306.674 174.224L306.703 174.136L300.424 172.007L301.136 169.905ZM311.713 171.547L301.728 168.161L304.009 161.433L305.75 162.023L304.184 166.64L306.563 167.447L308.012 163.176L309.752 163.766L308.304 168.037L310.688 168.846L312.26 164.209L314.001 164.799L311.713 171.547ZM314.563 163.141L304.578 159.755L305.914 155.815C306.17 155.061 306.523 154.464 306.974 154.022C307.422 153.576 307.939 153.297 308.525 153.183C309.108 153.066 309.73 153.119 310.389 153.343C311.052 153.568 311.574 153.904 311.955 154.352C312.333 154.799 312.556 155.337 312.626 155.966C312.696 156.591 312.601 157.288 312.341 158.055L311.447 160.692L309.75 160.117L310.529 157.821C310.666 157.418 310.724 157.064 310.704 156.76C310.684 156.456 310.585 156.202 310.408 155.997C310.232 155.788 309.98 155.629 309.652 155.517C309.321 155.405 309.018 155.377 308.746 155.433C308.474 155.486 308.234 155.627 308.026 155.857C307.815 156.083 307.641 156.399 307.503 156.805L307.02 158.229L315.279 161.03L314.563 163.141ZM311.848 156.208L317.233 155.267L316.443 157.597L311.076 158.484L311.848 156.208ZM312.342 146.302C311.935 146.208 311.573 146.272 311.255 146.494C310.937 146.716 310.692 147.08 310.52 147.587C310.403 147.932 310.353 148.239 310.37 148.509C310.384 148.779 310.454 149.005 310.58 149.189C310.707 149.37 310.878 149.497 311.093 149.57C311.269 149.637 311.438 149.652 311.599 149.616C311.761 149.577 311.915 149.501 312.062 149.387C312.206 149.273 312.346 149.132 312.483 148.965C312.616 148.796 312.744 148.611 312.867 148.41L313.385 147.586C313.631 147.183 313.896 146.827 314.182 146.519C314.468 146.21 314.775 145.962 315.103 145.776C315.43 145.59 315.78 145.478 316.151 145.441C316.524 145.401 316.918 145.45 317.335 145.587C317.945 145.798 318.422 146.133 318.766 146.594C319.108 147.051 319.304 147.61 319.355 148.273C319.404 148.931 319.29 149.666 319.015 150.478C318.741 151.284 318.38 151.945 317.93 152.459C317.481 152.97 316.958 153.311 316.36 153.481C315.76 153.647 315.098 153.617 314.374 153.39L315.067 151.347C315.41 151.438 315.722 151.436 316.003 151.344C316.283 151.246 316.528 151.074 316.739 150.826C316.947 150.575 317.113 150.267 317.237 149.903C317.358 149.545 317.411 149.217 317.396 148.919C317.383 148.617 317.308 148.361 317.172 148.152C317.037 147.943 316.849 147.798 316.608 147.716C316.384 147.64 316.173 147.643 315.975 147.724C315.778 147.803 315.583 147.95 315.39 148.167C315.198 148.381 314.996 148.655 314.785 148.99L314.143 149.984C313.653 150.757 313.107 151.313 312.506 151.653C311.906 151.992 311.237 152.036 310.5 151.782C309.894 151.581 309.421 151.241 309.079 150.762C308.739 150.281 308.539 149.711 308.479 149.053C308.42 148.395 308.513 147.702 308.76 146.974C309.011 146.233 309.358 145.629 309.798 145.162C310.24 144.693 310.74 144.38 311.296 144.224C311.853 144.069 312.43 144.087 313.028 144.279L312.342 146.302Z" fill="black"/>
</svg>
