<svg width="368" height="386" viewBox="0 0 368 386" fill="none" xmlns="http://www.w3.org/2000/svg">
<rect x="228.533" y="382.441" width="60.2184" height="5.54749" transform="rotate(-109.753 228.533 382.441)" fill="white"/>
<path d="M16.4461 183.335C22.5641 177.805 32.8576 169.409 40.2414 169.009C68.3704 167.489 100.447 200.463 129.43 189.027C155.785 178.628 166.129 128.244 190.881 104.684C203.772 92.4146 229.145 97.6866 244.443 97.7819L257.038 321.821C224.739 321.62 194.165 333.092 170.861 354.158L16.4461 183.335Z" fill="#EADAFF"/>
<path d="M91.5417 189.702C43.9601 180.516 12.8349 134.496 22.0216 86.9141C31.2083 39.3325 77.2281 8.20732 124.81 17.394C172.391 26.5808 203.517 72.6006 194.33 120.182C185.143 167.764 139.123 198.889 91.5417 189.702ZM119.979 42.4169C86.2167 35.8984 53.563 57.9835 47.0445 91.7454C40.526 125.507 62.6111 158.161 96.3729 164.679C130.135 171.198 162.788 149.113 169.307 115.351C175.825 81.5891 153.74 48.9354 119.979 42.4169Z" fill="#AC6CFF"/>
<circle cx="108.175" cy="103.547" r="51.9849" transform="rotate(100.928 108.175 103.547)" fill="white"/>
<path d="M120.562 122.85C117.465 124.643 114.399 125.707 111.363 126.043C108.334 126.358 105.576 125.979 103.092 124.907C100.613 123.813 98.6362 122.041 97.1621 119.591L106.203 114.356C106.859 115.361 107.726 116.078 108.804 116.505C109.888 116.911 111.08 117.025 112.379 116.845C113.677 116.665 114.983 116.195 116.297 115.435C117.665 114.642 118.735 113.7 119.506 112.608C120.276 111.516 120.71 110.369 120.809 109.168C120.907 107.967 120.632 106.806 119.984 105.686C119.327 104.553 118.429 103.735 117.289 103.232C116.155 102.707 114.856 102.536 113.393 102.719C111.943 102.893 110.417 103.445 108.813 104.373L104.852 106.666L101.035 100.072L104.995 97.7789C106.35 96.9946 107.41 96.0672 108.175 94.9969C108.953 93.9186 109.393 92.7967 109.493 91.631C109.586 90.4516 109.308 89.302 108.659 88.1822C108.043 87.1177 107.247 86.3326 106.271 85.8269C105.301 85.2994 104.228 85.0716 103.052 85.1436C101.889 85.2076 100.706 85.5878 99.5035 86.2841C98.287 86.9884 97.3021 87.8539 96.5491 88.8805C95.788 89.8934 95.3354 90.9768 95.1913 92.1307C95.0472 93.2847 95.2666 94.4129 95.8494 95.5152L87.2436 100.497C85.8684 98.0264 85.318 95.4656 85.5923 92.8149C85.8667 90.1643 86.8472 87.6493 88.5338 85.2701C90.2262 82.869 92.524 80.8281 95.4272 79.1473C98.358 77.4506 101.231 76.4982 104.045 76.2901C106.859 76.0821 109.399 76.5314 111.664 77.6381C113.935 78.723 115.712 80.3892 116.995 82.6368C118.385 85.0067 118.794 87.4187 118.221 89.8729C117.662 92.3191 116.318 94.4448 114.188 96.25L114.38 96.5817C117.737 95.1739 120.743 94.8825 123.399 95.7076C126.06 96.5109 128.149 98.2368 129.663 100.885C131.078 103.297 131.624 105.851 131.303 108.547C130.995 111.236 129.923 113.831 128.086 116.334C126.25 118.837 123.742 121.009 120.562 122.85Z" fill="black"/>
<path d="M101.841 222.506L99.7913 223.333L99.2622 213.024L101.727 212.029L108.499 219.818L106.449 220.645L101.365 214.58L101.294 214.609L101.841 222.506ZM100.277 219.001L105.119 217.046L105.722 218.539L100.88 220.494L100.277 219.001ZM115.674 216.921L112.467 218.216L108.815 209.168L112.048 207.863C112.958 207.495 113.815 207.36 114.618 207.457C115.42 207.551 116.134 207.864 116.759 208.396C117.388 208.927 117.892 209.662 118.271 210.601C118.652 211.544 118.8 212.426 118.718 213.247C118.638 214.067 118.339 214.792 117.823 215.422C117.31 216.05 116.593 216.55 115.674 216.921ZM113.718 215.805L114.933 215.314C115.499 215.086 115.934 214.794 116.239 214.438C116.546 214.077 116.711 213.646 116.734 213.144C116.759 212.637 116.635 212.046 116.363 211.372C116.093 210.703 115.774 210.197 115.405 209.852C115.039 209.507 114.623 209.312 114.157 209.267C113.69 209.223 113.174 209.314 112.608 209.543L111.389 210.035L113.718 215.805ZM121.518 214.562L117.866 205.514L123.962 203.053L124.599 204.63L120.415 206.319L121.285 208.475L125.155 206.913L125.792 208.49L121.922 210.052L122.794 212.213L126.996 210.516L127.632 212.094L121.518 214.562ZM129.135 211.487L125.483 202.439L131.579 199.978L132.216 201.555L128.033 203.244L128.903 205.4L132.773 203.838L133.41 205.415L129.54 206.977L130.412 209.137L134.613 207.441L135.25 209.018L129.135 211.487ZM136.753 208.412L133.1 199.364L136.67 197.923C137.356 197.646 137.994 197.541 138.582 197.608C139.17 197.672 139.684 197.884 140.124 198.245C140.566 198.601 140.908 199.079 141.15 199.68C141.393 200.281 141.477 200.863 141.404 201.427C141.33 201.991 141.099 202.501 140.71 202.956C140.325 203.409 139.785 203.776 139.09 204.057L136.814 204.975L136.196 203.442L138.161 202.649C138.53 202.5 138.807 202.314 138.995 202.091C139.184 201.864 139.292 201.614 139.318 201.339C139.346 201.061 139.3 200.773 139.18 200.475C139.059 200.175 138.892 199.937 138.681 199.762C138.472 199.583 138.222 199.48 137.93 199.454C137.637 199.425 137.306 199.485 136.935 199.635L135.645 200.156L138.666 207.639L136.753 208.412ZM150.894 202.703L147.687 203.998L144.034 194.95L147.268 193.644C148.178 193.277 149.035 193.142 149.838 193.239C150.64 193.333 151.353 193.646 151.979 194.178C152.608 194.709 153.112 195.444 153.491 196.383C153.871 197.326 154.02 198.207 153.937 199.029C153.857 199.849 153.559 200.574 153.043 201.203C152.529 201.832 151.813 202.332 150.894 202.703ZM148.938 201.586L150.153 201.096C150.718 200.868 151.154 200.575 151.459 200.219C151.765 199.859 151.93 199.428 151.954 198.925C151.978 198.419 151.855 197.828 151.583 197.154C151.313 196.485 150.993 195.978 150.625 195.634C150.259 195.288 149.843 195.093 149.376 195.049C148.91 195.004 148.394 195.096 147.828 195.324L146.609 195.817L148.938 201.586ZM154.998 190.524L158.651 199.571L156.738 200.344L153.085 191.296L154.998 190.524ZM158.207 189.229L163.169 195.22L163.252 195.186L162.669 187.427L164.789 186.571L165.323 196.878L162.858 197.873L156.082 190.086L158.207 189.229ZM169.531 195.179L165.878 186.132L171.975 183.67L172.611 185.248L168.428 186.937L169.298 189.092L173.168 187.53L173.805 189.107L169.935 190.67L170.807 192.83L175.008 191.134L175.645 192.711L169.531 195.179ZM178.288 181.122L181.94 190.169L180.027 190.942L176.375 181.894L178.288 181.122ZM187.429 177.431L191.082 186.479L189.43 187.146L183.194 183.041L183.128 183.067L185.427 188.762L183.514 189.534L179.862 180.486L181.54 179.809L187.743 183.922L187.822 183.89L185.525 178.2L187.429 177.431ZM189.302 178.51L188.665 176.932L196.096 173.933L196.733 175.51L193.963 176.628L196.978 184.099L195.088 184.862L192.072 177.391L189.302 178.51ZM207.047 174.773C207.445 175.759 207.597 176.674 207.503 177.517C207.411 178.359 207.118 179.093 206.623 179.717C206.13 180.337 205.485 180.808 204.687 181.131C203.883 181.455 203.087 181.564 202.301 181.457C201.514 181.35 200.796 181.025 200.145 180.482C199.495 179.94 198.971 179.177 198.574 178.193C198.175 177.207 198.022 176.293 198.114 175.451C198.206 174.609 198.498 173.878 198.991 173.257C199.482 172.634 200.13 172.16 200.934 171.836C201.732 171.513 202.525 171.406 203.311 171.513C204.1 171.616 204.819 171.939 205.469 172.481C206.123 173.022 206.649 173.786 207.047 174.773ZM205.108 175.556C204.85 174.917 204.536 174.416 204.168 174.055C203.802 173.692 203.401 173.467 202.965 173.379C202.529 173.291 202.08 173.341 201.617 173.528C201.155 173.714 200.797 173.991 200.544 174.356C200.291 174.722 200.157 175.163 200.143 175.679C200.132 176.194 200.255 176.771 200.513 177.411C200.771 178.05 201.083 178.551 201.449 178.913C201.817 179.275 202.22 179.499 202.656 179.587C203.092 179.675 203.541 179.625 204.004 179.439C204.466 179.252 204.824 178.976 205.077 178.61C205.33 178.244 205.462 177.803 205.473 177.289C205.488 176.772 205.366 176.195 205.108 175.556ZM121.785 234.944L118.132 225.896L121.702 224.455C122.388 224.178 123.026 224.073 123.614 224.141C124.202 224.205 124.716 224.417 125.156 224.777C125.597 225.133 125.94 225.612 126.182 226.212C126.425 226.813 126.509 227.396 126.435 227.96C126.362 228.524 126.131 229.033 125.742 229.488C125.357 229.942 124.817 230.309 124.121 230.589L121.846 231.508L121.227 229.975L123.193 229.181C123.562 229.033 123.839 228.847 124.027 228.624C124.216 228.397 124.324 228.146 124.35 227.872C124.378 227.593 124.332 227.305 124.212 227.008C124.091 226.707 123.924 226.47 123.713 226.295C123.504 226.115 123.253 226.013 122.962 225.986C122.669 225.957 122.338 226.018 121.966 226.167L120.676 226.688L123.698 234.172L121.785 234.944ZM129.839 231.692L126.187 222.645L129.756 221.204C130.44 220.928 131.072 220.815 131.654 220.864C132.237 220.909 132.746 221.103 133.178 221.446C133.613 221.784 133.951 222.252 134.192 222.85C134.435 223.451 134.514 224.02 134.43 224.558C134.344 225.092 134.102 225.574 133.702 226.002C133.306 226.429 132.761 226.783 132.066 227.064L129.676 228.029L129.055 226.491L131.136 225.651C131.501 225.504 131.784 225.331 131.985 225.134C132.186 224.936 132.305 224.713 132.342 224.465C132.382 224.216 132.342 223.943 132.222 223.646C132.101 223.345 131.938 223.116 131.734 222.959C131.533 222.8 131.289 222.717 131.002 222.71C130.716 222.698 130.389 222.767 130.021 222.916L128.731 223.436L131.752 230.92L129.839 231.692ZM133.063 225.603L136.974 228.812L134.862 229.665L131 226.435L133.063 225.603ZM144.492 220.516C144.89 221.503 145.042 222.418 144.947 223.261C144.855 224.103 144.562 224.836 144.068 225.46C143.575 226.081 142.929 226.552 142.131 226.874C141.327 227.199 140.532 227.307 139.745 227.2C138.959 227.093 138.24 226.768 137.59 226.226C136.939 225.684 136.415 224.921 136.018 223.937C135.62 222.95 135.467 222.036 135.558 221.194C135.65 220.352 135.942 219.621 136.435 219.001C136.927 218.378 137.575 217.904 138.379 217.579C139.177 217.257 139.969 217.149 140.756 217.257C141.544 217.36 142.263 217.682 142.914 218.225C143.567 218.766 144.093 219.53 144.492 220.516ZM142.552 221.299C142.294 220.66 141.981 220.16 141.612 219.798C141.247 219.435 140.846 219.21 140.41 219.123C139.973 219.035 139.524 219.084 139.062 219.271C138.599 219.458 138.242 219.734 137.989 220.1C137.736 220.466 137.602 220.907 137.588 221.423C137.576 221.938 137.7 222.515 137.958 223.154C138.216 223.793 138.527 224.294 138.893 224.657C139.262 225.018 139.664 225.243 140.1 225.331C140.536 225.418 140.986 225.369 141.448 225.182C141.91 224.995 142.268 224.719 142.521 224.353C142.774 223.987 142.906 223.547 142.918 223.032C142.932 222.516 142.81 221.938 142.552 221.299ZM143.961 217.303L143.325 215.726L150.755 212.726L151.392 214.304L148.622 215.422L151.638 222.892L149.747 223.656L146.731 216.185L143.961 217.303ZM155.632 221.28L151.979 212.232L158.076 209.771L158.712 211.348L154.529 213.037L155.399 215.193L159.269 213.631L159.906 215.208L156.036 216.77L156.908 218.931L161.109 217.235L161.746 218.812L155.632 221.28ZM168.858 209.102L166.923 209.883C166.787 209.647 166.625 209.454 166.437 209.304C166.249 209.15 166.041 209.039 165.814 208.969C165.588 208.9 165.348 208.874 165.094 208.89C164.843 208.906 164.589 208.966 164.329 209.071C163.861 209.26 163.5 209.541 163.247 209.914C162.992 210.284 162.858 210.728 162.845 211.247C162.83 211.763 162.95 212.335 163.203 212.962C163.464 213.607 163.778 214.111 164.147 214.472C164.518 214.833 164.923 215.055 165.361 215.138C165.799 215.222 166.246 215.171 166.702 214.987C166.959 214.884 167.182 214.754 167.373 214.598C167.566 214.441 167.722 214.264 167.841 214.065C167.958 213.864 168.035 213.646 168.07 213.412C168.109 213.177 168.102 212.93 168.049 212.671L169.987 211.899C170.105 212.334 170.141 212.785 170.097 213.252C170.054 213.714 169.926 214.165 169.713 214.604C169.501 215.039 169.2 215.438 168.809 215.801C168.419 216.16 167.935 216.457 167.355 216.691C166.548 217.017 165.752 217.126 164.969 217.018C164.188 216.908 163.474 216.581 162.826 216.038C162.182 215.493 161.661 214.729 161.264 213.745C160.865 212.759 160.712 211.844 160.804 211.002C160.895 210.161 161.186 209.43 161.676 208.811C162.165 208.189 162.807 207.717 163.602 207.396C164.126 207.185 164.642 207.062 165.149 207.029C165.659 206.994 166.145 207.048 166.607 207.19C167.067 207.33 167.489 207.559 167.871 207.877C168.256 208.195 168.585 208.603 168.858 209.102ZM169.243 207.097L168.607 205.52L176.037 202.52L176.674 204.097L173.904 205.216L176.92 212.686L175.029 213.449L172.013 205.979L169.243 207.097ZM179.174 201.254L182.827 210.302L180.914 211.074L177.261 202.026L179.174 201.254ZM188.316 197.563L191.968 206.611L190.316 207.278L184.081 203.173L184.014 203.199L186.313 208.894L184.4 209.666L180.748 200.619L182.427 199.941L188.629 204.054L188.709 204.022L186.411 198.332L188.316 197.563ZM197.076 197.428C196.927 197.238 196.764 197.083 196.585 196.963C196.406 196.841 196.212 196.755 196.003 196.705C195.797 196.652 195.578 196.635 195.347 196.657C195.118 196.677 194.881 196.737 194.633 196.837C194.171 197.024 193.811 197.303 193.553 197.674C193.298 198.044 193.162 198.487 193.145 199.005C193.127 199.519 193.245 200.091 193.499 200.722C193.754 201.352 194.066 201.849 194.435 202.214C194.805 202.578 195.212 202.806 195.657 202.897C196.1 202.986 196.56 202.933 197.037 202.741C197.47 202.566 197.809 202.34 198.053 202.063C198.3 201.782 198.447 201.468 198.494 201.12C198.545 200.77 198.493 200.403 198.337 200.017L198.749 199.918L196.416 200.859L195.835 199.419L199.621 197.891L200.081 199.03C200.402 199.826 200.51 200.577 200.405 201.284C200.299 201.988 200.014 202.613 199.549 203.16C199.084 203.704 198.471 204.13 197.711 204.436C196.863 204.779 196.043 204.893 195.25 204.778C194.455 204.66 193.739 204.328 193.1 203.78C192.463 203.229 191.952 202.477 191.567 201.522C191.271 200.789 191.113 200.092 191.093 199.432C191.075 198.768 191.178 198.158 191.402 197.602C191.626 197.046 191.952 196.559 192.38 196.143C192.808 195.727 193.321 195.399 193.919 195.157C194.432 194.95 194.939 194.833 195.442 194.805C195.943 194.774 196.419 194.825 196.87 194.958C197.324 195.09 197.735 195.299 198.104 195.585C198.472 195.868 198.777 196.221 199.02 196.643L197.076 197.428ZM137.544 242.234L135.609 243.015C135.472 242.779 135.31 242.586 135.123 242.435C134.934 242.282 134.727 242.17 134.5 242.101C134.273 242.031 134.033 242.005 133.78 242.022C133.529 242.037 133.274 242.097 133.015 242.202C132.547 242.391 132.186 242.672 131.932 243.045C131.677 243.415 131.543 243.86 131.53 244.379C131.516 244.895 131.635 245.467 131.889 246.094C132.149 246.739 132.464 247.242 132.832 247.604C133.204 247.964 133.608 248.186 134.046 248.27C134.484 248.353 134.931 248.303 135.388 248.118C135.644 248.015 135.868 247.885 136.058 247.73C136.252 247.573 136.408 247.395 136.526 247.197C136.643 246.995 136.72 246.777 136.756 246.544C136.795 246.309 136.787 246.062 136.734 245.802L138.673 245.03C138.79 245.466 138.827 245.917 138.782 246.383C138.739 246.846 138.611 247.297 138.398 247.736C138.187 248.17 137.885 248.569 137.494 248.933C137.105 249.292 136.62 249.589 136.04 249.823C135.233 250.149 134.438 250.257 133.654 250.149C132.873 250.039 132.159 249.713 131.512 249.169C130.867 248.625 130.346 247.861 129.949 246.877C129.551 245.89 129.398 244.976 129.489 244.134C129.581 243.292 129.872 242.562 130.362 241.942C130.85 241.32 131.492 240.849 132.288 240.528C132.812 240.316 133.328 240.194 133.835 240.16C134.345 240.126 134.831 240.18 135.292 240.322C135.753 240.461 136.174 240.69 136.556 241.009C136.941 241.326 137.27 241.734 137.544 242.234ZM147.777 239.68C148.176 240.666 148.327 241.581 148.233 242.424C148.141 243.266 147.848 243.999 147.353 244.624C146.86 245.244 146.215 245.715 145.417 246.038C144.613 246.362 143.817 246.471 143.031 246.364C142.244 246.256 141.526 245.932 140.875 245.389C140.225 244.847 139.701 244.084 139.304 243.1C138.906 242.114 138.752 241.199 138.844 240.358C138.936 239.516 139.228 238.784 139.721 238.164C140.212 237.541 140.86 237.067 141.664 236.743C142.463 236.42 143.255 236.313 144.041 236.42C144.83 236.523 145.549 236.846 146.2 237.388C146.853 237.929 147.379 238.693 147.777 239.68ZM145.838 240.463C145.58 239.824 145.267 239.323 144.898 238.962C144.532 238.599 144.131 238.374 143.695 238.286C143.259 238.198 142.81 238.248 142.347 238.435C141.885 238.621 141.527 238.897 141.274 239.263C141.021 239.629 140.888 240.07 140.873 240.586C140.862 241.101 140.985 241.678 141.243 242.317C141.501 242.957 141.813 243.457 142.179 243.82C142.547 244.182 142.95 244.406 143.386 244.494C143.822 244.582 144.271 244.532 144.734 244.346C145.196 244.159 145.554 243.883 145.807 243.517C146.06 243.151 146.192 242.71 146.203 242.195C146.218 241.679 146.096 241.102 145.838 240.463ZM147.368 234.584L149.727 233.631L154.673 238.704L154.779 238.662L154.816 231.577L157.175 230.625L160.828 239.672L158.973 240.421L156.595 234.532L156.52 234.563L156.538 241.353L155.275 241.863L150.565 236.941L150.49 236.971L152.876 242.882L151.021 243.631L147.368 234.584ZM162.404 239.036L158.752 229.988L162.321 228.547C163.007 228.27 163.645 228.165 164.234 228.232C164.821 228.297 165.335 228.509 165.775 228.869C166.217 229.225 166.559 229.703 166.802 230.304C167.044 230.905 167.128 231.487 167.055 232.051C166.981 232.616 166.75 233.125 166.362 233.58C165.976 234.033 165.436 234.4 164.741 234.681L162.466 235.6L161.847 234.067L163.813 233.273C164.181 233.124 164.459 232.939 164.646 232.716C164.835 232.489 164.943 232.238 164.969 231.963C164.997 231.685 164.951 231.397 164.831 231.1C164.71 230.799 164.544 230.561 164.333 230.386C164.123 230.207 163.873 230.104 163.581 230.078C163.289 230.049 162.957 230.109 162.586 230.259L161.296 230.78L164.317 238.264L162.404 239.036ZM170.459 235.784L166.806 226.737L168.719 225.964L171.735 233.435L175.614 231.869L176.251 233.446L170.459 235.784ZM177.517 232.935L173.865 223.887L179.961 221.426L180.598 223.003L176.414 224.692L177.285 226.848L181.155 225.286L181.791 226.863L177.921 228.425L178.794 230.585L182.995 228.889L183.632 230.466L177.517 232.935ZM183.276 220.088L186.345 222.435L186.416 222.406L187.004 218.583L189.165 217.71L188.23 223.349L192.879 226.733L190.679 227.621L187.577 225.282L187.506 225.311L186.897 229.148L184.706 230.033L185.712 224.366L181.107 220.963L183.276 220.088ZM133.347 263.76C133.168 263.418 132.904 263.202 132.557 263.113C132.209 263.024 131.805 263.072 131.346 263.258C131.034 263.384 130.788 263.534 130.609 263.71C130.428 263.882 130.311 264.068 130.258 264.267C130.208 264.465 130.223 264.662 130.301 264.856C130.361 265.021 130.451 265.148 130.574 265.239C130.699 265.329 130.846 265.391 131.014 265.426C131.181 265.458 131.365 265.471 131.565 265.466C131.763 265.458 131.97 265.436 132.185 265.4L133.077 265.267C133.507 265.196 133.917 265.167 134.306 265.181C134.695 265.195 135.054 265.261 135.383 265.379C135.711 265.496 136 265.674 136.25 265.912C136.504 266.149 136.708 266.455 136.863 266.831C137.083 267.386 137.136 267.923 137.02 268.443C136.906 268.958 136.632 269.433 136.198 269.869C135.766 270.3 135.182 270.664 134.446 270.962C133.715 271.256 133.034 271.401 132.402 271.396C131.772 271.39 131.217 271.229 130.737 270.912C130.258 270.592 129.88 270.109 129.603 269.464L131.454 268.717C131.597 269.012 131.786 269.23 132.021 269.371C132.258 269.509 132.527 269.577 132.828 269.575C133.13 269.569 133.446 269.5 133.776 269.367C134.1 269.236 134.363 269.075 134.563 268.885C134.766 268.693 134.901 268.486 134.965 268.265C135.03 268.044 135.019 267.824 134.931 267.606C134.848 267.403 134.719 267.256 134.543 267.167C134.369 267.076 134.148 267.028 133.879 267.024C133.613 267.018 133.299 267.042 132.937 267.096L131.852 267.246C131.014 267.369 130.294 267.322 129.693 267.105C129.092 266.889 128.658 266.446 128.391 265.776C128.167 265.23 128.12 264.692 128.249 264.164C128.381 263.634 128.66 263.15 129.086 262.711C129.511 262.272 130.054 261.919 130.714 261.653C131.385 261.382 132.018 261.26 132.611 261.288C133.207 261.314 133.728 261.476 134.173 261.772C134.618 262.069 134.954 262.485 135.18 263.02L133.347 263.76ZM135.01 260.062L137.153 259.198L140.789 262.261L140.877 262.225L141.367 257.496L143.51 256.631L142.571 263.813L143.863 267.011L141.963 267.778L140.672 264.579L135.01 260.062ZM150.514 256.83C150.334 256.488 150.071 256.272 149.723 256.183C149.376 256.094 148.972 256.142 148.513 256.328C148.2 256.454 147.955 256.604 147.775 256.779C147.595 256.952 147.478 257.137 147.425 257.337C147.375 257.535 147.389 257.732 147.467 257.926C147.527 258.09 147.618 258.218 147.74 258.309C147.866 258.399 148.012 258.461 148.181 258.496C148.348 258.528 148.531 258.541 148.731 258.536C148.93 258.528 149.137 258.506 149.352 258.47L150.243 258.337C150.674 258.266 151.083 258.237 151.473 258.251C151.862 258.265 152.221 258.331 152.549 258.449C152.877 258.566 153.167 258.744 153.417 258.982C153.67 259.219 153.874 259.525 154.029 259.901C154.25 260.456 154.302 260.993 154.187 261.512C154.073 262.028 153.799 262.503 153.365 262.939C152.933 263.37 152.349 263.734 151.612 264.031C150.882 264.326 150.2 264.471 149.568 264.466C148.939 264.46 148.384 264.299 147.903 263.982C147.425 263.662 147.047 263.179 146.769 262.534L148.62 261.787C148.763 262.082 148.952 262.3 149.188 262.441C149.424 262.579 149.693 262.647 149.994 262.645C150.297 262.639 150.613 262.57 150.943 262.437C151.267 262.306 151.529 262.145 151.729 261.955C151.933 261.763 152.067 261.556 152.132 261.335C152.197 261.114 152.185 260.894 152.097 260.676C152.015 260.473 151.886 260.326 151.709 260.237C151.535 260.146 151.314 260.098 151.045 260.094C150.779 260.088 150.465 260.112 150.103 260.166L149.018 260.316C148.18 260.438 147.461 260.391 146.86 260.175C146.259 259.959 145.825 259.516 145.558 258.846C145.334 258.299 145.286 257.762 145.415 257.234C145.548 256.704 145.827 256.22 146.252 255.781C146.678 255.342 147.22 254.989 147.88 254.723C148.552 254.452 149.184 254.33 149.778 254.358C150.374 254.384 150.895 254.546 151.34 254.842C151.785 255.139 152.12 255.554 152.347 256.09L150.514 256.83ZM152.999 254.635L152.362 253.057L159.793 250.058L160.43 251.635L157.66 252.753L160.676 260.224L158.785 260.987L155.769 253.516L152.999 254.635ZM164.669 258.611L161.017 249.564L167.113 247.102L167.75 248.68L163.566 250.369L164.437 252.524L168.307 250.962L168.943 252.539L165.073 254.102L165.945 256.262L170.147 254.566L170.783 256.143L164.669 258.611ZM168.634 246.489L170.993 245.536L175.939 250.609L176.045 250.566L176.082 243.482L178.442 242.529L182.094 251.577L180.239 252.326L177.861 246.437L177.786 246.467L177.804 253.257L176.541 253.767L171.831 248.846L171.756 248.876L174.142 254.787L172.287 255.536L168.634 246.489ZM185.976 242.514C185.797 242.172 185.534 241.956 185.186 241.867C184.838 241.778 184.435 241.826 183.975 242.011C183.663 242.137 183.417 242.288 183.238 242.463C183.057 242.635 182.941 242.821 182.888 243.021C182.838 243.219 182.852 243.415 182.93 243.61C182.99 243.774 183.081 243.902 183.203 243.993C183.328 244.083 183.475 244.145 183.643 244.18C183.81 244.212 183.994 244.225 184.194 244.22C184.392 244.211 184.599 244.19 184.815 244.154L185.706 244.02C186.136 243.949 186.546 243.921 186.935 243.935C187.325 243.949 187.684 244.015 188.012 244.132C188.34 244.25 188.629 244.428 188.88 244.666C189.133 244.903 189.337 245.209 189.492 245.585C189.713 246.14 189.765 246.677 189.649 247.196C189.535 247.711 189.262 248.187 188.828 248.622C188.396 249.054 187.811 249.418 187.075 249.715C186.345 250.01 185.663 250.155 185.031 250.15C184.402 250.144 183.847 249.982 183.366 249.666C182.887 249.345 182.509 248.863 182.232 248.218L184.083 247.47C184.226 247.765 184.415 247.984 184.65 248.125C184.887 248.262 185.156 248.33 185.457 248.329C185.759 248.323 186.076 248.254 186.406 248.12C186.73 247.99 186.992 247.829 187.192 247.638C187.396 247.447 187.53 247.24 187.595 247.019C187.659 246.797 187.648 246.578 187.56 246.36C187.478 246.156 187.348 246.01 187.172 245.92C186.998 245.829 186.777 245.782 186.508 245.777C186.242 245.772 185.928 245.796 185.566 245.849L184.481 246C183.643 246.122 182.924 246.075 182.323 245.859C181.721 245.643 181.287 245.199 181.02 244.53C180.796 243.983 180.749 243.446 180.878 242.917C181.01 242.388 181.289 241.904 181.715 241.465C182.141 241.026 182.683 240.673 183.343 240.407C184.014 240.136 184.647 240.014 185.24 240.041C185.837 240.068 186.357 240.229 186.802 240.526C187.248 240.822 187.583 241.238 187.81 241.774L185.976 242.514ZM196.261 245.858L194.211 246.685L193.682 236.377L196.147 235.382L202.919 243.17L200.869 243.998L195.784 237.932L195.714 237.961L196.261 245.858ZM194.697 242.353L199.539 240.398L200.142 241.892L195.3 243.846L194.697 242.353ZM207.923 230.628L211.575 239.675L209.923 240.342L203.688 236.237L203.622 236.264L205.92 241.958L204.008 242.73L200.355 233.683L202.034 233.005L208.236 237.119L208.316 237.087L206.019 231.396L207.923 230.628ZM216.363 237.743L213.156 239.037L209.503 229.99L212.737 228.684C213.647 228.317 214.504 228.182 215.307 228.279C216.108 228.373 216.822 228.686 217.448 229.218C218.077 229.748 218.581 230.483 218.96 231.423C219.34 232.365 219.489 233.247 219.406 234.068C219.326 234.889 219.028 235.613 218.512 236.243C217.998 236.872 217.282 237.372 216.363 237.743ZM214.407 236.626L215.622 236.136C216.187 235.907 216.623 235.615 216.927 235.259C217.234 234.899 217.399 234.468 217.422 233.965C217.447 233.458 217.324 232.868 217.051 232.193C216.781 231.525 216.462 231.018 216.094 230.674C215.728 230.328 215.312 230.133 214.845 230.089C214.379 230.044 213.863 230.136 213.297 230.364L212.078 230.856L214.407 236.626ZM132.199 292.209L130.149 293.037L129.62 282.728L132.085 281.733L138.857 289.522L136.807 290.349L131.722 284.284L131.652 284.313L132.199 292.209ZM130.635 288.705L135.477 286.75L136.08 288.243L131.238 290.198L130.635 288.705ZM139.946 289.082L136.293 280.034L139.863 278.593C140.546 278.318 141.178 278.204 141.76 278.254C142.343 278.299 142.852 278.493 143.284 278.836C143.719 279.174 144.057 279.642 144.298 280.24C144.541 280.841 144.62 281.41 144.536 281.947C144.45 282.482 144.208 282.964 143.809 283.392C143.412 283.819 142.867 284.173 142.172 284.453L139.782 285.418L139.161 283.881L141.242 283.041C141.607 282.893 141.89 282.721 142.091 282.523C142.292 282.326 142.411 282.103 142.448 281.855C142.488 281.606 142.448 281.333 142.328 281.035C142.207 280.735 142.044 280.506 141.84 280.349C141.639 280.19 141.395 280.107 141.108 280.1C140.822 280.088 140.495 280.157 140.127 280.305L138.837 280.826L141.858 288.31L139.946 289.082ZM143.169 282.992L147.08 286.202L144.969 287.054L141.106 283.825L143.169 282.992ZM153.719 276.683L151.784 277.465C151.647 277.229 151.485 277.035 151.298 276.885C151.109 276.732 150.902 276.62 150.675 276.551C150.448 276.481 150.208 276.455 149.955 276.472C149.704 276.487 149.449 276.547 149.19 276.652C148.722 276.841 148.361 277.122 148.107 277.495C147.852 277.865 147.718 278.309 147.705 278.829C147.691 279.345 147.81 279.916 148.064 280.544C148.324 281.189 148.639 281.692 149.007 282.054C149.379 282.414 149.783 282.636 150.221 282.719C150.659 282.803 151.106 282.753 151.563 282.568C151.819 282.465 152.043 282.335 152.233 282.18C152.427 282.023 152.583 281.845 152.701 281.646C152.819 281.445 152.895 281.227 152.931 280.994C152.97 280.759 152.962 280.512 152.909 280.252L154.848 279.48C154.965 279.915 155.002 280.367 154.957 280.833C154.915 281.296 154.787 281.746 154.573 282.185C154.362 282.62 154.06 283.019 153.669 283.383C153.28 283.742 152.795 284.039 152.215 284.273C151.408 284.599 150.613 284.707 149.829 284.599C149.049 284.489 148.334 284.163 147.687 283.619C147.042 283.075 146.521 282.31 146.124 281.327C145.726 280.34 145.573 279.426 145.664 278.584C145.756 277.742 146.047 277.011 146.537 276.392C147.025 275.77 147.667 275.299 148.463 274.978C148.987 274.766 149.503 274.644 150.01 274.61C150.52 274.575 151.006 274.629 151.467 274.772C151.928 274.911 152.349 275.14 152.731 275.459C153.116 275.776 153.445 276.184 153.719 276.683ZM157.464 282.01L153.812 272.962L155.725 272.19L157.232 275.923L161.115 274.355L159.608 270.622L161.516 269.852L165.169 278.899L163.26 279.67L161.752 275.932L157.868 277.5L159.377 281.238L157.464 282.01ZM165.006 268.443L168.659 277.491L166.746 278.263L163.094 269.215L165.006 268.443ZM166.872 269.524L166.236 267.947L173.666 264.947L174.303 266.524L171.533 267.642L174.549 275.113L172.658 275.876L169.642 268.406L166.872 269.524ZM178.543 273.5L174.89 264.453L180.987 261.992L181.623 263.569L177.44 265.258L178.31 267.414L182.18 265.851L182.817 267.428L178.947 268.991L179.819 271.151L184.02 269.455L184.657 271.032L178.543 273.5ZM191.769 261.322L189.834 262.104C189.698 261.868 189.536 261.674 189.348 261.524C189.16 261.371 188.952 261.259 188.725 261.19C188.499 261.12 188.259 261.094 188.005 261.111C187.754 261.126 187.5 261.186 187.24 261.291C186.772 261.48 186.411 261.761 186.158 262.134C185.903 262.504 185.769 262.949 185.756 263.468C185.741 263.984 185.861 264.555 186.114 265.183C186.375 265.828 186.689 266.331 187.058 266.693C187.429 267.053 187.834 267.275 188.272 267.358C188.71 267.442 189.157 267.392 189.613 267.207C189.87 267.104 190.093 266.974 190.284 266.819C190.477 266.662 190.633 266.484 190.752 266.285C190.869 266.084 190.946 265.866 190.981 265.633C191.02 265.398 191.013 265.151 190.96 264.891L192.898 264.119C193.016 264.554 193.052 265.006 193.008 265.472C192.965 265.935 192.837 266.385 192.624 266.824C192.412 267.259 192.111 267.658 191.72 268.022C191.331 268.381 190.846 268.678 190.266 268.912C189.459 269.238 188.663 269.346 187.88 269.238C187.099 269.128 186.385 268.802 185.737 268.258C185.093 267.714 184.572 266.949 184.175 265.966C183.776 264.979 183.623 264.065 183.715 263.223C183.807 262.381 184.097 261.65 184.587 261.031C185.076 260.409 185.718 259.938 186.513 259.617C187.037 259.405 187.553 259.283 188.06 259.249C188.57 259.214 189.056 259.268 189.518 259.411C189.978 259.55 190.4 259.779 190.782 260.098C191.167 260.415 191.496 260.823 191.769 261.322ZM192.154 259.317L191.518 257.74L198.948 254.74L199.585 256.318L196.815 257.436L199.831 264.906L197.94 265.67L194.924 258.199L192.154 259.317ZM205.761 251.99L207.674 251.218L210.046 257.094C210.312 257.754 210.387 258.394 210.272 259.016C210.16 259.637 209.878 260.2 209.427 260.704C208.975 261.205 208.375 261.606 207.627 261.908C206.876 262.211 206.164 262.339 205.491 262.293C204.817 262.243 204.223 262.034 203.712 261.665C203.2 261.296 202.81 260.782 202.544 260.122L200.172 254.246L202.085 253.474L204.391 259.186C204.53 259.531 204.729 259.807 204.987 260.014C205.249 260.221 205.549 260.344 205.887 260.386C206.226 260.427 206.579 260.374 206.948 260.225C207.319 260.075 207.61 259.868 207.822 259.605C208.037 259.34 208.166 259.043 208.208 258.714C208.253 258.384 208.206 258.047 208.067 257.703L205.761 251.99ZM212.9 259.63L209.247 250.583L212.817 249.142C213.5 248.866 214.133 248.753 214.714 248.802C215.298 248.847 215.806 249.041 216.239 249.384C216.673 249.722 217.011 250.19 217.253 250.788C217.495 251.389 217.574 251.958 217.49 252.496C217.404 253.03 217.162 253.512 216.763 253.94C216.367 254.367 215.821 254.721 215.126 255.002L212.736 255.967L212.115 254.429L214.196 253.589C214.561 253.442 214.845 253.269 215.046 253.072C215.247 252.874 215.366 252.651 215.403 252.403C215.443 252.154 215.403 251.881 215.282 251.584C215.161 251.283 214.999 251.054 214.795 250.897C214.594 250.738 214.349 250.655 214.062 250.648C213.777 250.636 213.45 250.705 213.082 250.854L211.792 251.374L214.813 258.858L212.9 259.63ZM216.124 253.541L220.035 256.75L217.923 257.603L214.061 254.373L216.124 253.541ZM221.064 256.335L217.411 247.287L223.508 244.826L224.145 246.403L219.961 248.092L220.831 250.248L224.701 248.685L225.338 250.263L221.468 251.825L222.34 253.985L226.542 252.289L227.178 253.866L221.064 256.335ZM230.988 244.832C230.808 244.49 230.545 244.275 230.197 244.186C229.85 244.096 229.446 244.145 228.986 244.33C228.674 244.456 228.429 244.607 228.249 244.782C228.069 244.954 227.952 245.14 227.899 245.339C227.849 245.538 227.863 245.734 227.941 245.929C228.001 246.093 228.092 246.221 228.214 246.312C228.34 246.401 228.486 246.464 228.655 246.499C228.822 246.531 229.005 246.544 229.205 246.539C229.404 246.53 229.611 246.508 229.826 246.473L230.717 246.339C231.147 246.268 231.557 246.24 231.947 246.254C232.336 246.268 232.695 246.334 233.023 246.451C233.351 246.569 233.641 246.746 233.891 246.985C234.144 247.221 234.348 247.528 234.503 247.904C234.724 248.458 234.776 248.996 234.661 249.515C234.547 250.03 234.273 250.506 233.839 250.941C233.407 251.372 232.823 251.737 232.086 252.034C231.356 252.329 230.674 252.474 230.042 252.469C229.413 252.462 228.858 252.301 228.377 251.985C227.899 251.664 227.521 251.181 227.243 250.537L229.094 249.789C229.237 250.084 229.426 250.302 229.662 250.444C229.898 250.581 230.167 250.649 230.468 250.647C230.771 250.642 231.087 250.572 231.417 250.439C231.741 250.308 232.003 250.148 232.203 249.957C232.407 249.765 232.541 249.559 232.606 249.337C232.671 249.116 232.659 248.896 232.571 248.678C232.489 248.475 232.36 248.329 232.183 248.239C232.009 248.148 231.788 248.101 231.519 248.096C231.253 248.091 230.939 248.115 230.577 248.168L229.492 248.318C228.654 248.441 227.935 248.394 227.334 248.178C226.733 247.961 226.299 247.518 226.032 246.849C225.808 246.302 225.76 245.764 225.889 245.236C226.022 244.707 226.301 244.222 226.726 243.784C227.152 243.345 227.694 242.992 228.354 242.726C229.026 242.454 229.658 242.333 230.252 242.36C230.848 242.387 231.369 242.548 231.814 242.845C232.259 243.141 232.594 243.557 232.821 244.092L230.988 244.832Z" fill="black"/>
</svg>
