<svg width="290" height="437" viewBox="0 0 290 437" fill="none" xmlns="http://www.w3.org/2000/svg">
<rect x="53.0757" y="419.99" width="60.2184" height="5.54749" transform="rotate(-69.2629 53.0757 419.99)" fill="white"/>
<path d="M20.8088 129.723C29.2767 129.45 42.9207 129.706 48.9754 134.324C72.0409 151.921 75.3048 199.362 105.622 209.708C133.19 219.116 174.742 186.29 209.788 184.248C228.04 183.184 244.436 204.296 256.367 214.593L117.537 399.711C92.3449 377.971 60.7569 366.59 28.5017 367.633L20.8088 129.723Z" fill="#EADAFF"/>
<path d="M78.372 187.752C47.9984 149.991 53.9866 94.7576 91.747 64.384C129.507 34.0104 184.741 39.9986 215.115 77.7591C245.488 115.519 239.5 170.753 201.74 201.127C163.979 231.5 108.746 225.512 78.372 187.752ZM195.257 93.7323C173.705 66.9392 134.513 62.6902 107.72 84.242C80.9271 105.794 76.6782 144.985 98.2299 171.778C119.782 198.571 158.973 202.82 185.766 181.269C212.559 159.717 216.808 120.526 195.257 93.7323Z" fill="#AC6CFF"/>
<circle cx="146.746" cy="132.755" r="51.9849" transform="rotate(141.188 146.746 132.755)" fill="white"/>
<path d="M120.702 133.666L124.889 126.649L159.022 109.433L165.071 113.043L159.275 122.755L155.695 120.618L134.13 131.55L133.934 131.88L158.933 146.799L154.672 153.939L120.702 133.666ZM136.507 153.144L142.205 143.596L144.223 140.588L161.82 111.103L170.174 116.088L145.025 158.227L136.507 153.144Z" fill="black"/>
<path d="M53.9344 231.686L56.4637 232.52L57.3829 237.923L57.4872 237.957L61.4389 234.16L63.9683 234.994L57.7964 240.615L56.5518 244.39L54.3093 243.651L55.5539 239.875L53.9344 231.686ZM72.6107 243.764C72.2267 244.928 71.6793 245.846 70.9685 246.518C70.2611 247.19 69.4573 247.617 68.5573 247.799C67.6619 247.978 66.7431 247.912 65.8009 247.601C64.8517 247.288 64.071 246.792 63.4586 246.112C62.8463 245.432 62.4558 244.612 62.287 243.65C62.1183 242.689 62.2253 241.627 62.6081 240.466C62.9921 239.302 63.5377 238.383 64.2451 237.71C64.9525 237.038 65.7539 236.612 66.6494 236.433C67.5459 236.251 68.4688 236.316 69.4179 236.629C70.3601 236.939 71.1374 237.434 71.7497 238.114C72.3667 238.792 72.7595 239.611 72.9283 240.573C73.1005 241.535 72.9946 242.599 72.6107 243.764ZM70.3213 243.009C70.57 242.254 70.6667 241.581 70.6115 240.988C70.5597 240.397 70.3746 239.9 70.0561 239.499C69.7375 239.097 69.3054 238.806 68.7595 238.626C68.2137 238.446 67.6932 238.423 67.1982 238.557C66.7032 238.69 66.2573 238.979 65.8605 239.422C65.4672 239.867 65.1463 240.467 64.8975 241.221C64.6488 241.975 64.5504 242.648 64.6021 243.24C64.6573 243.832 64.8442 244.329 65.1627 244.731C65.4813 245.133 65.9134 245.424 66.4593 245.604C67.0051 245.784 67.5256 245.807 68.0206 245.673C68.5156 245.54 68.9598 245.251 69.3531 244.806C69.7498 244.362 70.0725 243.763 70.3213 243.009ZM82.6409 241.149L84.8991 241.894L82.6126 248.83C82.3559 249.609 81.9452 250.229 81.3807 250.69C80.8196 251.153 80.1532 251.438 79.3814 251.546C78.6107 251.65 77.7839 251.557 76.9008 251.266C76.0142 250.974 75.2922 250.557 74.7347 250.014C74.1784 249.469 73.8123 248.843 73.6363 248.137C73.4603 247.432 73.5006 246.69 73.7574 245.911L76.0438 238.975L78.302 239.719L76.0791 246.462C75.945 246.869 75.9145 247.26 75.9875 247.635C76.064 248.011 76.2358 248.343 76.5031 248.631C76.7703 248.92 77.1212 249.136 77.5558 249.279C77.9938 249.424 78.4043 249.459 78.7873 249.384C79.1737 249.311 79.5077 249.146 79.7893 248.888C80.0744 248.631 80.284 248.299 80.4181 247.893L82.6409 241.149ZM89.0392 255.1L89.504 243.412L91.9707 244.225L91.2923 252.229L91.381 252.258L95.7778 245.48L97.8899 246.176L97.3836 254.254L97.4775 254.285L101.697 247.431L104.164 248.244L97.5868 257.917L95.386 257.192L95.6541 249.539L95.5706 249.511L91.24 255.825L89.0392 255.1ZM107.63 249.387L104.11 260.068L101.851 259.323L105.372 248.643L107.63 249.387ZM105.967 260.68L109.488 250L111.746 250.744L108.839 259.563L113.418 261.072L112.804 262.934L105.967 260.68ZM114.3 263.427L117.821 252.746L120.079 253.491L117.172 262.309L121.751 263.819L121.137 265.681L114.3 263.427ZM126.031 267.294L129.552 256.614L131.81 257.358L128.903 266.177L133.482 267.686L132.868 269.548L126.031 267.294ZM134.364 270.041L137.884 259.36L145.081 261.733L144.468 263.595L139.529 261.967L138.69 264.511L143.258 266.017L142.645 267.879L138.076 266.373L137.236 268.923L142.195 270.558L141.581 272.42L134.364 270.041ZM145.197 273.612L142.777 272.814L149.985 263.349L152.895 264.308L153.056 276.203L150.636 275.405L150.677 266.283L150.594 266.256L145.197 273.612ZM146.429 269.364L152.145 271.248L151.564 273.011L145.848 271.127L146.429 269.364ZM154.341 276.626L157.862 265.946L162.076 267.335C162.883 267.601 163.523 267.972 163.998 268.449C164.478 268.923 164.781 269.472 164.907 270.095C165.037 270.716 164.986 271.38 164.754 272.086C164.52 272.795 164.166 273.355 163.691 273.765C163.218 274.172 162.646 274.415 161.976 274.495C161.31 274.576 160.566 274.481 159.746 274.21L156.925 273.28L157.523 271.466L159.979 272.275C160.41 272.417 160.788 272.476 161.112 272.452C161.436 272.428 161.706 272.32 161.923 272.13C162.144 271.94 162.312 271.67 162.428 271.319C162.545 270.964 162.572 270.642 162.51 270.352C162.451 270.062 162.298 269.808 162.05 269.587C161.808 269.365 161.469 269.182 161.035 269.038L159.512 268.536L156.6 277.371L154.341 276.626ZM161.712 273.667L162.764 279.403L160.271 278.581L159.276 272.865L161.712 273.667ZM176.433 272.068L172.912 282.748L170.962 282.105L168.531 273.851L168.453 273.826L166.237 280.548L163.979 279.803L167.5 269.123L169.481 269.776L171.877 278.013L171.971 278.044L174.185 271.327L176.433 272.068ZM49.494 265.228L53.0148 254.548L55.2729 255.292L52.3659 264.111L56.9447 265.62L56.331 267.482L49.494 265.228ZM57.8264 267.975L61.3472 257.295L68.5441 259.667L67.9303 261.529L62.9916 259.901L62.1527 262.446L66.7211 263.952L66.1074 265.813L61.5389 264.307L60.6983 266.858L65.6578 268.493L65.0441 270.354L57.8264 267.975ZM72.2689 260.895L72.1754 269.861L72.2745 269.893L77.5362 262.631L80.0394 263.456L72.8368 272.923L69.9267 271.964L69.7605 260.068L72.2689 260.895ZM77.8041 274.561L81.325 263.88L88.5218 266.253L87.9081 268.114L82.9694 266.486L82.1304 269.031L86.6988 270.537L86.0851 272.399L81.5167 270.893L80.676 273.443L85.6356 275.078L85.0218 276.94L77.8041 274.561ZM86.7963 277.525L90.3171 266.844L92.5752 267.589L89.6682 276.408L94.247 277.917L93.6333 279.779L86.7963 277.525ZM96.7947 279.445C96.4505 279.331 96.1951 279.112 96.0285 278.787C95.8653 278.464 95.8411 278.128 95.9557 277.781C96.068 277.44 96.2859 277.188 96.6095 277.025C96.9366 276.863 97.2723 276.839 97.6164 276.952C97.9502 277.062 98.2021 277.28 98.3722 277.606C98.5423 277.932 98.5712 278.265 98.4589 278.606C98.3833 278.835 98.2548 279.026 98.0736 279.178C97.897 279.328 97.6959 279.43 97.4703 279.482C97.2459 279.532 97.0207 279.519 96.7947 279.445ZM98.5224 274.204C98.1782 274.09 97.9228 273.871 97.7562 273.546C97.5931 273.223 97.5688 272.887 97.6834 272.539C97.7957 272.199 98.0131 271.948 98.3356 271.789C98.6626 271.627 98.9983 271.603 99.3425 271.716C99.6762 271.826 99.9282 272.044 100.098 272.37C100.27 272.692 100.299 273.024 100.187 273.365C100.11 273.598 99.9808 273.79 99.7996 273.942C99.623 274.092 99.4225 274.192 99.198 274.241C98.9736 274.291 98.7484 274.278 98.5224 274.204ZM106.423 272.154L109.207 273.072L109.783 281.217L109.908 281.258L115.215 275.052L118 275.97L114.479 286.651L112.289 285.929L114.581 278.977L114.492 278.948L109.454 284.936L107.962 284.444L107.481 276.608L107.392 276.578L105.092 283.556L102.902 282.834L106.423 272.154ZM122.119 277.328L118.598 288.008L116.34 287.264L119.861 276.583L122.119 277.328ZM124.242 289.869L120.456 288.621L123.977 277.94L127.794 279.199C128.868 279.553 129.723 280.071 130.357 280.755C130.993 281.434 131.388 282.241 131.542 283.175C131.701 284.11 131.597 285.132 131.231 286.241C130.865 287.353 130.339 288.24 129.655 288.901C128.974 289.563 128.172 289.979 127.249 290.149C126.329 290.32 125.327 290.226 124.242 289.869ZM123.352 287.43L124.786 287.903C125.453 288.123 126.054 288.19 126.587 288.104C127.125 288.015 127.592 287.758 127.986 287.333C128.385 286.906 128.716 286.294 128.978 285.498C129.239 284.709 129.335 284.025 129.267 283.448C129.202 282.872 128.981 282.39 128.604 282.004C128.226 281.617 127.704 281.314 127.036 281.094L125.597 280.619L123.352 287.43ZM134.926 293.391L131.14 292.143L134.661 281.462L138.479 282.721C139.553 283.075 140.407 283.594 141.041 284.277C141.677 284.956 142.072 285.763 142.227 286.697C142.385 287.632 142.281 288.654 141.916 289.763C141.549 290.875 141.024 291.762 140.339 292.423C139.658 293.085 138.856 293.501 137.933 293.671C137.013 293.842 136.011 293.748 134.926 293.391ZM134.036 290.952L135.47 291.425C136.138 291.645 136.738 291.712 137.272 291.626C137.81 291.537 138.276 291.28 138.67 290.855C139.07 290.428 139.4 289.816 139.663 289.02C139.923 288.231 140.019 287.548 139.951 286.97C139.887 286.394 139.666 285.912 139.288 285.526C138.911 285.139 138.388 284.836 137.721 284.616L136.281 284.141L134.036 290.952ZM141.825 295.665L145.346 284.984L147.604 285.729L144.697 294.547L149.275 296.057L148.662 297.919L141.825 295.665ZM150.157 298.412L153.678 287.731L160.875 290.104L160.261 291.965L155.322 290.337L154.483 292.882L159.052 294.388L158.438 296.25L153.87 294.744L153.029 297.294L157.989 298.929L157.375 300.791L150.157 298.412ZM76.3161 297.235L79.8369 286.554L82.095 287.299L79.1879 296.117L83.7668 297.627L83.1531 299.488L76.3161 297.235ZM84.6485 299.981L88.1693 289.301L95.3661 291.673L94.7524 293.535L89.8137 291.907L88.9748 294.452L93.5432 295.958L92.9295 297.82L88.361 296.314L87.5204 298.864L92.4799 300.499L91.8662 302.361L84.6485 299.981ZM99.091 292.901L98.9975 301.867L99.0966 301.9L104.358 294.638L106.862 295.463L99.6589 304.93L96.7488 303.97L96.5826 292.074L99.091 292.901ZM104.626 306.567L108.147 295.887L115.344 298.259L114.73 300.121L109.791 298.493L108.953 301.038L113.521 302.544L112.907 304.405L108.339 302.899L107.498 305.45L112.458 307.085L111.844 308.946L104.626 306.567ZM113.618 309.531L117.139 298.851L119.397 299.595L116.49 308.414L121.069 309.923L120.455 311.785L113.618 309.531Z" fill="black"/>
</svg>
