<svg width="358" height="371" viewBox="0 0 358 371" fill="none" xmlns="http://www.w3.org/2000/svg">
<rect x="2" y="253.164" width="60.2184" height="5.54749" transform="rotate(-28.9671 2 253.164)" fill="white"/>
<path d="M175.643 15.4568C181.969 20.7476 191.704 29.787 193.058 37.1233C198.217 65.0713 169.359 102.2 184.553 129.502C198.369 154.328 250.135 157.055 276.917 178.281C290.864 189.336 288.868 215.553 290.75 230.891L68.1369 277.456C64.1625 245.069 48.7268 216.18 24.6292 196.027L175.643 15.4568Z" fill="#EADAFF"/>
<path d="M177.276 90.6667C179.766 42.2704 221.018 5.05652 269.415 7.54717C317.811 10.0378 355.025 51.2899 352.534 99.6862C350.043 148.082 308.791 185.296 260.395 182.806C211.999 180.315 174.785 139.063 177.276 90.6667ZM327.083 98.3763C328.85 64.0364 302.445 34.7658 268.105 32.9985C233.765 31.2312 204.494 57.6366 202.727 91.9765C200.96 126.316 227.365 155.587 261.705 157.354C296.045 159.122 325.316 132.716 327.083 98.3763Z" fill="#AC6CFF"/>
<circle cx="264.909" cy="95.1786" r="51.9849" transform="rotate(-177.054 264.909 95.1786)" fill="white"/>
<path d="M240.674 111.753C238.821 108.918 237.692 106.05 237.285 103.148C236.886 100.26 237.18 97.5692 238.164 95.0751C239.149 92.581 240.807 90.534 243.14 88.9342L248.644 97.3595C247.113 98.4927 246.26 100.004 246.082 101.895C245.905 103.785 246.376 105.586 247.494 107.298C248.385 108.662 249.472 109.669 250.756 110.319C252.061 110.974 253.447 111.241 254.915 111.122C256.405 111.007 257.859 110.487 259.276 109.561C260.721 108.618 261.79 107.48 262.485 106.148C263.188 104.83 263.498 103.435 263.414 101.964C263.331 100.492 262.846 99.0628 261.959 97.6766C261.173 96.473 260.161 95.4644 258.924 94.6509C257.695 93.8508 256.447 93.416 255.181 93.3466L251.52 84.7191L274.456 72.512L290.863 97.6275L283.762 102.267L272.033 84.3125L261.048 89.972L261.205 90.2127C262.693 90.2709 264.247 90.8105 265.868 91.8314C267.489 92.8523 268.89 94.2654 270.069 96.0709C271.685 98.545 272.545 101.132 272.648 103.831C272.752 106.53 272.154 109.105 270.855 111.557C269.569 113.999 267.605 116.074 264.961 117.782C262.202 119.604 259.322 120.569 256.321 120.679C253.343 120.793 250.483 120.095 247.741 118.585C245.021 117.08 242.665 114.803 240.674 111.753Z" fill="black"/>
<path d="M136.788 102.734L138.203 104.991L135.462 109.736L135.521 109.829L140.986 109.428L142.401 111.685L134.062 112.072L130.694 114.185L129.44 112.184L132.808 110.072L136.788 102.734ZM143.457 123.952C142.418 124.603 141.411 124.961 140.435 125.024C139.461 125.09 138.57 124.906 137.761 124.471C136.958 124.037 136.292 123.4 135.765 122.56C135.234 121.713 134.95 120.833 134.913 119.918C134.875 119.004 135.098 118.123 135.582 117.275C136.066 116.428 136.825 115.679 137.861 115.029C138.9 114.378 139.907 114.019 140.881 113.952C141.854 113.886 142.743 114.07 143.547 114.504C144.353 114.935 145.022 115.575 145.553 116.421C146.08 117.262 146.362 118.139 146.4 119.053C146.443 119.969 146.222 120.85 145.738 121.698C145.256 122.549 144.496 123.3 143.457 123.952ZM142.176 121.91C142.849 121.487 143.354 121.031 143.689 120.539C144.027 120.051 144.201 119.551 144.213 119.038C144.224 118.525 144.077 118.026 143.771 117.539C143.466 117.052 143.08 116.702 142.614 116.489C142.147 116.276 141.62 116.213 141.031 116.301C140.445 116.393 139.815 116.649 139.142 117.071C138.469 117.494 137.964 117.949 137.626 118.437C137.291 118.928 137.117 119.43 137.106 119.943C137.095 120.456 137.242 120.955 137.547 121.442C137.852 121.929 138.238 122.279 138.705 122.492C139.171 122.705 139.697 122.766 140.284 122.675C140.873 122.587 141.503 122.332 142.176 121.91ZM152.847 128.341L154.11 130.355L147.923 134.236C147.229 134.671 146.517 134.887 145.788 134.882C145.06 134.88 144.365 134.674 143.702 134.264C143.042 133.853 142.465 133.253 141.971 132.466C141.475 131.675 141.186 130.893 141.103 130.119C141.023 129.344 141.14 128.629 141.455 127.973C141.77 127.318 142.275 126.772 142.969 126.337L149.156 122.456L150.42 124.471L144.405 128.243C144.042 128.471 143.769 128.752 143.586 129.087C143.405 129.425 143.325 129.791 143.347 130.183C143.368 130.576 143.501 130.966 143.744 131.354C143.989 131.745 144.282 132.034 144.625 132.221C144.969 132.411 145.331 132.497 145.713 132.478C146.096 132.463 146.469 132.341 146.832 132.113L152.847 128.341ZM148.869 143.164L156.687 134.463L158.067 136.663L152.436 142.392L152.485 142.471L160.196 140.059L161.378 141.943L155.832 147.839L155.885 147.923L163.508 145.339L164.888 147.54L153.651 150.789L152.42 148.826L157.511 143.105L157.464 143.03L150.1 145.127L148.869 143.164ZM166.827 150.632L157.3 156.607L156.037 154.593L165.564 148.618L166.827 150.632ZM158.339 158.265L167.866 152.289L169.13 154.304L161.263 159.237L163.825 163.322L162.164 164.363L158.339 158.265ZM163.001 165.697L172.528 159.722L173.791 161.736L165.925 166.67L168.486 170.754L166.825 171.796L163.001 165.697ZM169.564 176.162L179.091 170.187L180.354 172.201L172.488 177.135L175.049 181.219L173.388 182.261L169.564 176.162ZM174.225 183.595L183.752 177.619L187.778 184.039L186.118 185.081L183.355 180.675L181.085 182.099L183.64 186.174L181.98 187.216L179.424 183.141L177.149 184.567L179.924 188.991L178.263 190.033L174.225 183.595ZM180.285 193.258L178.932 191.099L190.522 188.413L192.15 191.009L184.682 200.268L183.328 198.11L189.182 191.114L189.135 191.039L180.285 193.258ZM183.946 190.774L187.143 195.873L185.571 196.859L182.373 191.76L183.946 190.774ZM185.401 201.415L194.928 195.44L197.286 199.199C197.737 199.918 197.993 200.613 198.055 201.283C198.122 201.954 198.004 202.57 197.703 203.131C197.407 203.692 196.945 204.17 196.315 204.565C195.682 204.962 195.053 205.167 194.425 205.18C193.802 205.191 193.206 205.013 192.639 204.647C192.075 204.284 191.563 203.737 191.104 203.005L189.525 200.488L191.144 199.473L192.518 201.664C192.76 202.048 193.013 202.335 193.278 202.523C193.543 202.711 193.819 202.801 194.108 202.793C194.399 202.788 194.701 202.687 195.014 202.49C195.33 202.292 195.557 202.061 195.694 201.798C195.834 201.538 195.878 201.244 195.829 200.916C195.784 200.59 195.64 200.233 195.397 199.846L194.545 198.487L186.664 203.429L185.401 201.415ZM192.964 203.841L190.113 208.928L188.718 206.704L191.601 201.669L192.964 203.841ZM205.318 212.006L195.79 217.981L194.699 216.241L198.096 208.335L198.052 208.266L192.056 212.026L190.793 210.012L200.32 204.037L201.429 205.805L198.016 213.675L198.068 213.758L204.06 210.001L205.318 212.006ZM112.912 127.238L122.439 121.263L123.703 123.277L115.836 128.21L118.398 132.295L116.737 133.336L112.912 127.238ZM117.573 134.67L127.101 128.695L131.127 135.115L129.466 136.157L126.703 131.751L124.433 133.175L126.989 137.25L125.328 138.292L122.772 134.217L120.498 135.643L123.272 140.067L121.611 141.109L117.573 134.67ZM133.211 138.438L127.416 145.28L127.472 145.369L136.157 143.136L137.558 145.369L125.971 148.06L124.343 145.464L131.807 136.2L133.211 138.438ZM128.75 152.491L138.277 146.516L142.303 152.936L140.642 153.977L137.879 149.572L135.609 150.996L138.165 155.071L136.504 156.112L133.949 152.037L131.674 153.464L134.448 157.888L132.788 158.929L128.75 152.491ZM133.78 160.512L143.307 154.537L144.571 156.551L136.704 161.485L139.266 165.569L137.605 166.611L133.78 160.512ZM140.252 168.372C140.059 168.065 140.003 167.733 140.082 167.377C140.163 167.023 140.358 166.749 140.668 166.555C140.972 166.364 141.301 166.309 141.654 166.39C142.009 166.474 142.283 166.67 142.476 166.977C142.662 167.275 142.717 167.603 142.64 167.963C142.563 168.322 142.373 168.597 142.069 168.788C141.864 168.916 141.643 168.981 141.407 168.983C141.175 168.985 140.955 168.935 140.748 168.832C140.544 168.727 140.378 168.573 140.252 168.372ZM144.927 165.44C144.735 165.132 144.678 164.801 144.757 164.444C144.838 164.091 145.033 163.817 145.343 163.623C145.647 163.432 145.974 163.378 146.325 163.461C146.68 163.545 146.954 163.741 147.146 164.048C147.333 164.346 147.388 164.674 147.311 165.034C147.237 165.391 147.048 165.665 146.744 165.856C146.536 165.986 146.314 166.052 146.077 166.054C145.845 166.056 145.627 166.005 145.423 165.9C145.219 165.795 145.054 165.641 144.927 165.44ZM152.317 168.904L153.875 171.388L149.12 178.026L149.19 178.138L157.236 176.747L158.794 179.231L149.267 185.206L148.042 183.252L154.243 179.363L154.193 179.284L146.492 180.678L145.658 179.348L150.289 173.008L150.24 172.929L144.016 176.832L142.79 174.879L152.317 168.904ZM161.098 182.905L151.571 188.88L150.308 186.866L159.835 180.891L161.098 182.905ZM154.729 193.915L152.61 190.537L162.138 184.562L164.273 187.967C164.874 188.926 165.201 189.87 165.253 190.801C165.309 191.73 165.098 192.603 164.621 193.421C164.146 194.241 163.414 194.962 162.425 195.582C161.432 196.205 160.462 196.552 159.513 196.624C158.567 196.699 157.684 196.508 156.865 196.049C156.047 195.594 155.335 194.882 154.729 193.915ZM155.6 191.469L156.402 192.748C156.775 193.344 157.195 193.779 157.661 194.053C158.131 194.328 158.654 194.428 159.229 194.352C159.809 194.278 160.454 194.018 161.165 193.573C161.869 193.131 162.379 192.667 162.695 192.179C163.013 191.694 163.15 191.182 163.106 190.644C163.062 190.105 162.854 189.538 162.48 188.943L161.675 187.659L155.6 191.469ZM160.706 203.445L158.588 200.068L168.115 194.093L170.251 197.498C170.852 198.456 171.178 199.401 171.23 200.332C171.286 201.261 171.075 202.134 170.598 202.951C170.124 203.772 169.391 204.493 168.402 205.113C167.41 205.736 166.439 206.083 165.49 206.155C164.544 206.23 163.661 206.038 162.842 205.58C162.025 205.124 161.313 204.413 160.706 203.445ZM161.577 201L162.379 202.279C162.753 202.875 163.172 203.309 163.638 203.583C164.109 203.858 164.631 203.958 165.206 203.883C165.786 203.809 166.432 203.549 167.142 203.104C167.846 202.662 168.356 202.197 168.672 201.709C168.99 201.225 169.128 200.713 169.084 200.174C169.04 199.636 168.831 199.069 168.458 198.474L167.652 197.19L161.577 201ZM164.565 209.599L174.092 203.624L175.355 205.638L167.489 210.571L170.051 214.656L168.39 215.697L164.565 209.599ZM169.226 217.031L178.754 211.056L182.78 217.476L181.119 218.518L178.356 214.112L176.086 215.536L178.642 219.611L176.981 220.653L174.425 216.577L172.15 218.004L174.925 222.428L173.264 223.47L169.226 217.031ZM113.133 168.996L122.66 163.021L123.923 165.036L116.057 169.969L118.618 174.054L116.957 175.095L113.133 168.996ZM117.794 176.429L127.321 170.454L131.347 176.874L129.687 177.915L126.924 173.51L124.654 174.934L127.209 179.009L125.549 180.05L122.993 175.975L120.718 177.402L123.493 181.826L121.832 182.867L117.794 176.429ZM133.431 180.196L127.637 187.039L127.692 187.127L136.378 184.895L137.778 187.128L126.191 189.819L124.563 187.223L132.028 177.959L133.431 180.196ZM128.97 194.25L138.497 188.275L142.524 194.694L140.863 195.736L138.1 191.33L135.83 192.754L138.385 196.829L136.725 197.871L134.169 193.796L131.894 195.222L134.669 199.646L133.008 200.688L128.97 194.25ZM134.001 202.271L143.528 196.296L144.791 198.31L136.925 203.244L139.486 207.328L137.826 208.37L134.001 202.271Z" fill="black"/>
</svg>
