<svg width="454" height="341" viewBox="0 0 454 341" fill="none" xmlns="http://www.w3.org/2000/svg">
<rect x="13.8047" y="111.316" width="60.2184" height="5.54749" transform="rotate(7.13743 13.8047 111.316)" fill="white"/>
<path d="M295.889 30.4414C297.456 38.5382 299.311 51.6918 295.799 58.2236C282.42 83.1067 237.276 93.5598 231.989 124.295C227.181 152.243 265.164 187.119 272.526 220.489C276.36 237.868 254.204 268.964 246.134 282.019L51.0071 165.048C68.0465 137.481 74.133 105.365 68.1628 74.5236L295.889 30.4414Z" fill="#EADAFF"/>
<path d="M249.694 89.8008C282.173 53.8354 337.659 51.0092 373.624 83.4883C409.59 115.967 412.416 171.453 379.937 207.418C347.457 243.384 291.972 246.21 256.007 213.731C220.041 181.252 217.215 125.766 249.694 89.8008ZM361.023 190.338C384.068 164.818 382.063 125.448 356.544 102.402C331.024 79.3565 291.654 81.3619 268.608 106.881C245.563 132.401 247.568 171.771 273.087 194.817C298.607 217.862 337.977 215.857 361.023 190.338Z" fill="#AC6CFF"/>
<circle cx="315.452" cy="148.507" r="51.9849" transform="rotate(-137.916 315.452 148.507)" fill="white"/>
<path d="M289.766 146.155C290.421 143.718 291.448 141.468 292.846 139.407C294.241 137.362 296.077 135.679 298.354 134.36C300.632 133.041 303.399 132.247 306.657 131.977C309.911 131.723 313.709 132.165 318.051 133.302C322.034 134.362 325.476 135.751 328.378 137.469C331.292 139.206 333.625 141.205 335.378 143.464C337.127 145.739 338.264 148.208 338.788 150.872C339.328 153.539 339.213 156.341 338.444 159.277C337.614 162.445 336.264 165.08 334.392 167.183C332.536 169.289 330.364 170.801 327.878 171.718C325.388 172.651 322.797 172.93 320.104 172.555L322.697 162.658C324.451 162.705 325.962 162.233 327.228 161.244C328.495 160.255 329.367 158.848 329.845 157.025C330.654 153.934 329.925 151.233 327.657 148.922C325.385 146.626 321.943 144.857 317.331 143.616L317.246 143.941C318.466 145.02 319.412 146.292 320.086 147.756C320.77 149.24 321.173 150.823 321.294 152.506C321.426 154.209 321.265 155.925 320.812 157.656C320.075 160.468 318.755 162.798 316.851 164.644C314.963 166.494 312.701 167.751 310.067 168.415C307.433 169.079 304.632 169.023 301.665 168.246C298.451 167.404 295.788 165.905 293.678 163.751C291.563 161.612 290.145 159.019 289.423 155.973C288.713 152.947 288.827 149.674 289.766 146.155ZM297.659 148.173C297.254 149.718 297.263 151.199 297.685 152.614C298.107 154.029 298.86 155.25 299.945 156.277C301.03 157.304 302.361 158.025 303.937 158.437C305.513 158.85 307.018 158.873 308.452 158.505C309.882 158.153 311.125 157.472 312.183 156.461C313.24 155.45 313.971 154.172 314.376 152.626C314.68 151.467 314.745 150.337 314.571 149.234C314.393 148.148 314.015 147.132 313.437 146.188C312.855 145.259 312.108 144.453 311.198 143.768C310.302 143.088 309.283 142.598 308.14 142.299C306.61 141.898 305.12 141.879 303.671 142.243C302.218 142.622 300.954 143.315 299.881 144.321C298.805 145.344 298.064 146.628 297.659 148.173Z" fill="black"/>
<path d="M209.69 81.5416L209.28 84.0585L204.307 85.7355L204.29 85.8393L208.472 89.0094L208.062 91.5263L201.823 86.5291L198.066 85.9163L198.43 83.6848L202.187 84.2976L209.69 81.5416ZM201.059 101.012C199.9 100.823 198.95 100.442 198.209 99.87C197.467 99.3015 196.943 98.6052 196.637 97.781C196.334 96.9608 196.258 96.0819 196.411 95.1443C196.565 94.1998 196.918 93.3872 197.47 92.7064C198.021 92.0256 198.739 91.5336 199.623 91.2302C200.507 90.9269 201.527 90.8695 202.683 91.0579C203.842 91.247 204.792 91.6257 205.534 92.1943C206.276 92.7628 206.798 93.4571 207.102 94.2773C207.408 95.098 207.484 95.9807 207.33 96.9252C207.177 97.8627 206.825 98.6719 206.274 99.3527C205.725 100.038 205.009 100.532 204.125 100.835C203.24 101.142 202.218 101.201 201.059 101.012ZM201.431 98.7333C202.181 98.8558 202.833 98.8466 203.385 98.7058C203.937 98.5684 204.379 98.3191 204.711 97.9578C205.044 97.5964 205.254 97.1442 205.343 96.601C205.431 96.0578 205.375 95.5621 205.175 95.1139C204.975 94.6656 204.635 94.287 204.156 93.9781C203.677 93.6726 203.062 93.4586 202.311 93.3362C201.56 93.2137 200.909 93.2212 200.357 93.3585C199.805 93.4993 199.363 93.7504 199.031 94.1117C198.698 94.4731 198.488 94.9253 198.399 95.4685C198.31 96.0117 198.366 96.5074 198.567 96.9556C198.767 97.4039 199.107 97.7807 199.586 98.0862C200.065 98.3952 200.68 98.6109 201.431 98.7333ZM205.031 110.108L204.665 112.355L197.762 111.229C196.988 111.103 196.34 110.807 195.819 110.342C195.297 109.88 194.928 109.293 194.71 108.579C194.496 107.866 194.461 107.07 194.604 106.191C194.748 105.309 195.035 104.563 195.465 103.955C195.898 103.347 196.435 102.907 197.076 102.635C197.717 102.364 198.425 102.291 199.2 102.417L206.102 103.543L205.735 105.79L199.025 104.696C198.62 104.63 198.246 104.659 197.903 104.784C197.558 104.913 197.27 105.125 197.037 105.421C196.804 105.717 196.652 106.081 196.582 106.513C196.511 106.949 196.539 107.343 196.666 107.694C196.793 108.048 197 108.34 197.286 108.567C197.571 108.799 197.916 108.947 198.321 109.013L205.031 110.108ZM192.793 118.245L203.917 116.937L203.517 119.392L195.845 119.947L195.831 120.035L202.899 123.18L202.556 125.282L194.84 126.011L194.825 126.104L201.938 129.07L201.538 131.525L191.406 126.751L191.763 124.561L199.042 123.67L199.055 123.587L192.436 120.435L192.793 118.245ZM200.975 134.975L190.347 133.241L190.714 130.994L201.342 132.728L200.975 134.975ZM190.046 135.09L200.674 136.824L200.307 139.071L191.532 137.64L190.789 142.196L188.936 141.894L190.046 135.09ZM188.693 143.382L199.322 145.115L198.955 147.362L190.18 145.931L189.436 150.488L187.584 150.185L188.693 143.382ZM186.789 155.056L197.418 156.789L197.051 159.036L188.276 157.605L187.532 162.162L185.68 161.859L186.789 155.056ZM185.437 163.348L196.065 165.081L194.897 172.243L193.045 171.94L193.846 167.026L191.314 166.613L190.572 171.159L188.719 170.857L189.461 166.311L186.923 165.897L186.118 170.832L184.266 170.53L185.437 163.348ZM183.679 174.128L184.072 171.72L194.101 177.122L193.629 180.018L182.403 181.948L182.796 179.54L191.43 178.215L191.443 178.132L183.679 174.128ZM187.881 174.658L186.953 180.346L185.199 180.06L186.127 174.372L187.881 174.658ZM182.195 183.228L192.823 184.961L192.139 189.154C192.008 189.957 191.753 190.618 191.373 191.139C190.996 191.664 190.523 192.032 189.952 192.244C189.384 192.461 188.748 192.512 188.046 192.397C187.34 192.282 186.758 192.031 186.299 191.643C185.843 191.256 185.528 190.752 185.352 190.13C185.176 189.512 185.155 188.795 185.288 187.978L185.746 185.171L187.552 185.465L187.153 187.909C187.083 188.338 187.084 188.704 187.155 189.007C187.226 189.31 187.368 189.55 187.581 189.727C187.793 189.907 188.074 190.026 188.424 190.083C188.776 190.14 189.086 190.118 189.351 190.015C189.616 189.916 189.834 189.734 190.005 189.467C190.179 189.204 190.302 188.856 190.372 188.424L190.619 186.908L181.828 185.475L182.195 183.228ZM186.095 189.756L180.828 191.609L181.232 189.128L186.491 187.333L186.095 189.756ZM189.809 203.441L179.181 201.708L179.497 199.767L186.941 196.234L186.953 196.156L180.264 195.065L180.631 192.818L191.259 194.551L190.937 196.523L183.505 200.021L183.49 200.114L190.174 201.204L189.809 203.441ZM172.251 113.735L182.879 115.469L182.513 117.716L173.737 116.284L172.994 120.841L171.141 120.539L172.251 113.735ZM170.899 122.027L181.527 123.76L180.359 130.922L178.506 130.62L179.308 125.705L176.775 125.292L176.034 129.838L174.181 129.536L174.923 124.99L172.385 124.576L171.58 129.511L169.727 129.209L170.899 122.027ZM179.754 134.629L171.26 135.88L171.244 135.979L178.9 139.87L178.493 142.361L168.463 136.964L168.935 134.068L180.162 132.132L179.754 134.629ZM167.656 141.907L178.285 143.64L177.117 150.802L175.264 150.5L176.066 145.585L173.533 145.172L172.792 149.718L170.939 149.416L171.68 144.87L169.143 144.456L168.338 149.391L166.485 149.089L167.656 141.907ZM166.197 150.855L176.825 152.588L176.459 154.835L167.683 153.404L166.94 157.961L165.087 157.659L166.197 150.855ZM165.876 160.599C165.932 160.256 166.101 159.982 166.383 159.776C166.665 159.573 166.979 159.5 167.324 159.556C167.664 159.612 167.934 159.78 168.137 160.062C168.339 160.347 168.412 160.661 168.356 161.003C168.302 161.335 168.134 161.606 167.851 161.816C167.568 162.026 167.257 162.103 166.918 162.047C166.69 162.01 166.49 161.917 166.319 161.769C166.151 161.624 166.025 161.449 165.941 161.243C165.861 161.039 165.839 160.824 165.876 160.599ZM171.091 161.449C171.147 161.107 171.316 160.833 171.599 160.626C171.88 160.424 172.194 160.351 172.54 160.407C172.879 160.462 173.148 160.631 173.347 160.912C173.55 161.197 173.623 161.511 173.567 161.853C173.513 162.185 173.344 162.456 173.061 162.666C172.782 162.876 172.473 162.953 172.134 162.898C171.902 162.86 171.701 162.767 171.529 162.618C171.361 162.474 171.237 162.299 171.157 162.094C171.076 161.889 171.055 161.674 171.091 161.449ZM157.893 71.3064L158.286 68.8985L168.316 74.3009L167.844 77.1967L156.618 79.1271L157.011 76.7192L165.644 75.3942L165.658 75.3112L157.893 71.3064ZM162.096 71.8373L161.168 77.5251L159.414 77.239L160.342 71.5512L162.096 71.8373ZM155.795 84.174L156.409 80.4064L167.038 82.1398L166.418 85.9386C166.244 87.0076 165.881 87.8932 165.329 88.5953C164.782 89.298 164.078 89.7923 163.218 90.0783C162.357 90.3677 161.375 90.4224 160.271 90.2424C159.164 90.0618 158.247 89.6973 157.519 89.1489C156.791 88.604 156.278 87.9076 155.98 87.0597C155.68 86.2153 155.619 85.2534 155.795 84.174ZM157.968 82.9675L157.735 84.3946C157.627 85.0589 157.654 85.6368 157.815 86.1284C157.979 86.624 158.292 87.0266 158.753 87.3362C159.217 87.6498 159.845 87.8713 160.637 88.0005C161.422 88.1286 162.083 88.1173 162.619 87.9668C163.154 87.8197 163.577 87.5387 163.886 87.1239C164.195 86.709 164.404 86.1695 164.512 85.5052L164.746 84.0729L157.968 82.9675ZM165.088 94.0927L156.594 95.3446L156.578 95.4432L164.233 99.3342L163.827 101.825L153.796 96.4279L154.269 93.5321L165.495 91.5965L165.088 94.0927ZM152.922 101.79L153.314 99.3821L163.344 104.785L162.872 107.68L151.646 109.611L152.039 107.203L160.673 105.878L160.686 105.795L152.922 101.79ZM157.124 102.321L156.196 108.009L154.442 107.723L155.37 102.035L157.124 102.321ZM160.616 121.513L149.988 119.78L150.304 117.839L157.748 114.306L157.761 114.228L151.071 113.137L151.438 110.89L162.066 112.623L161.744 114.595L154.312 118.093L154.297 118.186L160.981 119.276L160.616 121.513ZM155.063 132.14L155.434 129.867C155.734 129.874 156.009 129.832 156.259 129.741C156.511 129.651 156.735 129.519 156.931 129.344C157.126 129.17 157.288 128.959 157.418 128.71C157.547 128.465 157.636 128.19 157.685 127.885C157.775 127.335 157.717 126.834 157.51 126.381C157.307 125.929 156.964 125.548 156.482 125.238C156.003 124.929 155.395 124.715 154.658 124.594C153.9 124.471 153.245 124.48 152.693 124.62C152.14 124.765 151.699 125.019 151.37 125.385C151.04 125.75 150.832 126.201 150.744 126.737C150.695 127.038 150.69 127.323 150.727 127.592C150.765 127.865 150.843 128.114 150.963 128.339C151.086 128.565 151.247 128.762 151.447 128.93C151.646 129.101 151.884 129.235 152.159 129.333L151.778 131.605C151.3 131.466 150.853 131.243 150.438 130.933C150.026 130.628 149.674 130.249 149.382 129.797C149.093 129.348 148.889 128.836 148.77 128.259C148.654 127.686 148.652 127.058 148.763 126.377C148.917 125.429 149.27 124.616 149.821 123.939C150.371 123.265 151.088 122.778 151.972 122.478C152.855 122.182 153.874 122.128 155.03 122.316C156.189 122.505 157.139 122.884 157.881 123.453C158.623 124.021 159.146 124.714 159.449 125.53C159.757 126.348 159.834 127.223 159.682 128.157C159.581 128.773 159.402 129.33 159.143 129.828C158.883 130.329 158.554 130.756 158.156 131.111C157.76 131.465 157.303 131.732 156.784 131.91C156.264 132.091 155.691 132.168 155.063 132.14ZM147.893 132.625L158.521 134.359L157.353 141.52L155.5 141.218L156.302 136.304L153.769 135.891L153.028 140.437L151.175 140.135L151.917 135.588L149.379 135.175L148.574 140.11L146.721 139.808L147.893 132.625ZM145.819 145.341L146.433 141.573L157.062 143.307L156.442 147.106C156.268 148.175 155.905 149.06 155.353 149.762C154.806 150.465 154.102 150.959 153.242 151.245C152.381 151.535 151.399 151.589 150.295 151.409C149.188 151.229 148.271 150.864 147.543 150.316C146.815 149.771 146.302 149.075 146.004 148.227C145.704 147.382 145.643 146.421 145.819 145.341ZM147.992 144.135L147.759 145.562C147.651 146.226 147.678 146.804 147.839 147.295C148.003 147.791 148.316 148.194 148.777 148.503C149.241 148.817 149.869 149.038 150.661 149.168C151.446 149.296 152.107 149.284 152.643 149.134C153.178 148.987 153.601 148.706 153.91 148.291C154.219 147.876 154.428 147.337 154.536 146.672L154.77 145.24L147.992 144.135ZM144.148 155.588L154.776 157.321L154.409 159.568L145.634 158.137L144.891 162.694L143.038 162.391L144.148 155.588ZM142.795 163.88L153.424 165.613L152.256 172.775L150.403 172.472L151.204 167.558L148.672 167.145L147.93 171.691L146.078 171.389L146.819 166.843L144.282 166.429L143.477 171.364L141.624 171.062L142.795 163.88ZM151.651 176.481L143.157 177.733L143.141 177.832L150.796 181.723L150.39 184.214L140.359 178.817L140.831 175.921L152.058 173.985L151.651 176.481ZM139.553 183.76L150.181 185.493L149.013 192.655L147.161 192.352L147.962 187.438L145.43 187.025L144.688 191.571L142.835 191.269L143.577 186.723L141.039 186.309L140.234 191.244L138.382 190.942L139.553 183.76ZM138.094 192.708L148.722 194.441L148.355 196.688L139.58 195.257L138.837 199.813L136.984 199.511L138.094 192.708Z" fill="black"/>
</svg>
