<svg width="117" height="117" viewBox="0 0 117 117" fill="none" xmlns="http://www.w3.org/2000/svg">
<rect x="16.2128" y="17.4578" width="82.3012" height="82.3012" rx="13.3012" fill="black"/>
<rect x="58.8799" width="82.3029" height="82.3012" rx="13.3012" transform="rotate(45.6776 58.8799 0)" fill="#9747FF"/>
<path d="M43.4527 81V74.5105L58.6156 60.4709C59.9052 59.2229 60.9867 58.0997 61.8603 57.1013C62.7478 56.1029 63.4203 55.1254 63.8779 54.1686C64.3355 53.1979 64.5643 52.151 64.5643 51.0279C64.5643 49.7799 64.28 48.7052 63.7115 47.8039C63.143 46.8887 62.3664 46.1885 61.3819 45.7032C60.3974 45.204 59.2812 44.9544 58.0332 44.9544C56.7298 44.9544 55.5927 45.2179 54.6221 45.7448C53.6514 46.2717 52.9027 47.0274 52.3757 48.0119C51.8488 48.9964 51.5853 50.1681 51.5853 51.527H43.0367C43.0367 48.7399 43.6677 46.3202 44.9295 44.268C46.1913 42.2158 47.9593 40.6281 50.2334 39.5049C52.5075 38.3817 55.1282 37.8201 58.0956 37.8201C61.1462 37.8201 63.8016 38.3609 66.0618 39.4425C68.3359 40.5102 70.1039 41.9939 71.3657 43.8936C72.6276 45.7933 73.2585 47.9703 73.2585 50.4247C73.2585 52.0332 72.9395 53.6209 72.3017 55.1878C71.6777 56.7547 70.5615 58.4949 68.953 60.4085C67.3445 62.3081 65.0773 64.5892 62.1515 67.2515L55.9325 73.3458V73.637H73.8201V81H43.4527Z" fill="white"/>
</svg>
