<svg width="83" height="340" viewBox="0 0 83 340" fill="none" xmlns="http://www.w3.org/2000/svg">
<ellipse cx="155" cy="170" rx="155" ry="170" transform="matrix(-1 0 0 1 310 0)" fill="#A287C6"/>
<ellipse cx="119.231" cy="130.769" rx="119.231" ry="130.769" transform="matrix(-1 0 0 1 274.23 39.231)" fill="#460E73"/>
<ellipse cx="119.231" cy="130.769" rx="119.231" ry="130.769" transform="matrix(-1 0 0 1 274.23 39.231)" fill="#460E73"/>
<ellipse cx="119.231" cy="130.769" rx="119.231" ry="130.769" transform="matrix(-1 0 0 1 274.23 39.231)" fill="#460E73"/>
<ellipse cx="119.231" cy="130.769" rx="119.231" ry="130.769" transform="matrix(-1 0 0 1 274.23 39.231)" fill="#460E73"/>
<ellipse cx="119.231" cy="130.769" rx="119.231" ry="130.769" transform="matrix(-1 0 0 1 274.23 39.231)" fill="#835CB6"/>
<ellipse cx="89.4231" cy="98.0769" rx="89.4231" ry="98.0769" transform="matrix(-1 0 0 1 244.423 71.9229)" fill="#764CAE"/>
</svg>
