<svg width="200" height="115" viewBox="0 0 200 115" fill="none" xmlns="http://www.w3.org/2000/svg">
<mask id="path-1-inside-1_375_1834" fill="white">
<path d="M200 115H150V99H50V115H0V0H50V16H150V0H200V115Z"/>
</mask>
<path d="M200 115H150V99H50V115H0V0H50V16H150V0H200V115Z" fill="#AC6CFF"/>
<path d="M200 115V120H205V115H200ZM150 115H145V120H150V115ZM150 99H155V94H150V99ZM50 99V94H45V99H50ZM50 115V120H55V115H50ZM0 115H-5V120H0V115ZM0 0V-5H-5V0H0ZM50 0H55V-5H50V0ZM50 16H45V21H50V16ZM150 16V21H155V16H150ZM150 0V-5H145V0H150ZM200 0H205V-5H200V0ZM200 115V110H150V115V120H200V115ZM150 115H155V99H150H145V115H150ZM150 99V94H50V99V104H150V99ZM50 99H45V115H50H55V99H50ZM50 115V110H0V115V120H50V115ZM0 115H5V0H0H-5V115H0ZM0 0V5H50V0V-5H0V0ZM50 0H45V16H50H55V0H50ZM50 16V21H150V16V11H50V16ZM150 16H155V0H150H145V16H150ZM150 0V5H200V0V-5H150V0ZM200 0H195V115H200H205V0H200Z" fill="#EADAFF" mask="url(#path-1-inside-1_375_1834)"/>
</svg>
