<svg width="85" height="111" viewBox="0 0 85 111" fill="none" xmlns="http://www.w3.org/2000/svg">
<path d="M72.8616 95.8335C76.3478 91.6963 79.7967 87.7278 83.6352 83.16C85.0796 85.538 84.4145 88.1557 82.9304 90.2154C78.4781 96.3946 73.8531 102.58 68.7848 108.445C65.8983 111.808 62.5569 111.421 61.5093 108.025C59.6707 102.396 58.2149 96.5859 56.5863 90.7823C56.4883 90.4508 56.3227 90.038 56.465 89.782C56.8617 88.7639 57.4988 87.8214 58.0681 86.7974C58.8568 87.1052 60.0655 87.0639 60.3665 87.6395C61.4725 89.6106 62.3008 91.6749 63.2341 93.6519C63.7684 94.7217 64.1301 95.7975 65.7377 96.6633C66.2535 94.7204 66.8742 92.6902 67.3899 90.7473C76.2767 50.5993 57.3701 17.1782 20.4351 7.14215C15.6587 5.88264 10.6653 5.21649 5.74651 4.21297C4.02681 3.85331 2.41211 3.40634 0.692414 3.04668C0.699426 2.62791 0.879106 2.20323 0.886119 1.78446C2.03416 1.24294 3.36189 0.276729 4.46559 0.322657C8.15935 0.279933 11.8531 0.237209 15.4349 0.700553C51.117 5.17121 75.1968 32.6395 75.2028 69.3861C75.1886 76.4178 73.8233 83.747 73.0134 90.8897C72.85 92.402 72.4463 93.8388 72.1103 95.357C72.1406 95.6071 72.4486 95.7639 72.8616 95.8335Z" fill="white"/>
</svg>
