<svg width="116" height="116" viewBox="0 0 116 116" fill="none" xmlns="http://www.w3.org/2000/svg">
<path d="M11.0062 97.2371C8.11509 91.9457 5.22394 86.8509 2.04376 81.0106C-0.174616 83.4215 -0.079086 86.4876 1.07721 89.076C4.54611 96.8411 8.20782 104.644 12.4481 112.169C14.8574 116.48 18.7142 116.655 20.7401 113.027C24.213 107.031 27.3002 100.762 30.5804 94.5317C30.7733 94.1767 31.0627 93.7426 30.9664 93.4286C30.7739 92.2109 30.2921 91.0341 29.9068 89.7782C28.9425 89.9802 27.5927 89.7126 27.1104 90.3051C25.3743 92.32 23.9273 94.4906 22.384 96.5438C21.5159 97.6495 20.8406 98.7935 18.8156 99.4733C18.7198 97.1935 18.5277 94.7963 18.4319 92.5165C18.4455 45.7297 48.0566 11.5931 92.1222 7.0588C97.8111 6.51556 103.596 6.67948 109.382 6.45023C111.406 6.36017 113.335 6.1527 115.36 6.06263C115.456 5.59029 115.36 5.07972 115.457 4.60738C114.3 3.78826 113.047 2.45858 111.793 2.30839C107.647 1.58478 103.502 0.861177 99.3555 0.72732C58.0879 -0.769615 24.1402 25.7248 14.9682 67.0589C13.2303 74.9714 12.9386 83.4654 12.0684 91.6481C11.8751 93.3792 11.971 95.0692 11.9705 96.8385C11.874 97.1142 11.4883 97.2344 11.0062 97.2371Z" fill="white"/>
</svg>
