<svg width="24" height="29" viewBox="0 0 24 29" fill="none" xmlns="http://www.w3.org/2000/svg">
<path d="M17.7964 14.6C19.4231 14.9467 20.7297 15.76 21.7164 17.04C22.7031 18.2933 23.1964 19.7333 23.1964 21.36C23.1964 23.7067 22.3697 25.5733 20.7164 26.96C19.0897 28.32 16.8097 29 13.8764 29H0.796406V0.919999H13.4364C16.2897 0.919999 18.5164 1.57333 20.1164 2.88C21.7431 4.18667 22.5564 5.96 22.5564 8.2C22.5564 9.85333 22.1164 11.2267 21.2364 12.32C20.3831 13.4133 19.2364 14.1733 17.7964 14.6ZM7.63641 12.28H12.1164C13.2364 12.28 14.0897 12.04 14.6764 11.56C15.2897 11.0533 15.5964 10.32 15.5964 9.36C15.5964 8.4 15.2897 7.66667 14.6764 7.16C14.0897 6.65333 13.2364 6.4 12.1164 6.4H7.63641V12.28ZM12.6764 23.48C13.8231 23.48 14.7031 23.2267 15.3164 22.72C15.9564 22.1867 16.2764 21.4267 16.2764 20.44C16.2764 19.4533 15.9431 18.68 15.2764 18.12C14.6364 17.56 13.7431 17.28 12.5964 17.28H7.63641V23.48H12.6764Z" fill="#AB6FF3"/>
</svg>
