<svg width="390" height="358" viewBox="0 0 390 358" fill="none" xmlns="http://www.w3.org/2000/svg">
<path d="M284.866 99H51.1343L18 134.172L51.1343 167H284.866L318 134.172L284.866 99Z" fill="url(#paint0_linear_1_104)"/>
<path d="M340.866 192H107.134L74 227.172L107.134 260H340.866L374 227.172L340.866 192Z" fill="url(#paint1_linear_1_104)"/>
<path d="M283.866 285.5H50.1343L17 320.672L50.1343 353.5H283.866L317 320.672L283.866 285.5Z" fill="url(#paint2_linear_1_104)"/>
<path d="M332.761 6H91.2388L57 41.1724L91.2388 74H332.761L367 41.1724L332.761 6Z" fill="url(#paint3_linear_1_104)"/>
<line x1="373" y1="41.5" x2="390" y2="41.5" stroke="#AC6CFF" stroke-width="3"/>
<path d="M379 227.5H390" stroke="#AC6CFF" stroke-width="3"/>
<path d="M334 2L374 41.5L335 78" stroke="#AC6CFF" stroke-width="3"/>
<line x1="388.5" y1="136" x2="388.5" y2="40" stroke="#AC6CFF" stroke-width="3"/>
<line x1="388.5" y1="322" x2="388.5" y2="226" stroke="#AC6CFF" stroke-width="3"/>
<line x1="322" y1="320.5" x2="390" y2="320.5" stroke="#AC6CFF" stroke-width="3"/>
<path d="M15 134.5H0" stroke="#AC6CFF" stroke-width="3"/>
<path d="M49.075 95L13.0001 134.5L49.0751 171" stroke="#AC6CFF" stroke-width="3"/>
<path d="M344 189.5L380.075 227.5L344 263" stroke="#AC6CFF" stroke-width="3"/>
<path d="M287 283L323.075 321L287 356.5" stroke="#AC6CFF" stroke-width="3"/>
<line y1="-1.5" x2="96" y2="-1.5" transform="matrix(0 -1 -1 0 0 229)" stroke="#AC6CFF" stroke-width="3"/>
<line y1="-1.5" x2="68" y2="-1.5" transform="matrix(-1 0 0 1 68 229)" stroke="#AC6CFF" stroke-width="3"/>
<path d="M105 188.5L67 227.5L105 264.5" stroke="#AC6CFF" stroke-width="3"/>
<path d="M90 2L52 41L90 78" stroke="#AC6CFF" stroke-width="3"/>
<defs>
<linearGradient id="paint0_linear_1_104" x1="18" y1="133" x2="318" y2="133" gradientUnits="userSpaceOnUse">
<stop stop-color="#F18E2B"/>
<stop offset="1" stop-color="#9D5D1C"/>
</linearGradient>
<linearGradient id="paint1_linear_1_104" x1="74" y1="226" x2="374" y2="226" gradientUnits="userSpaceOnUse">
<stop offset="0.524038" stop-color="#88B213"/>
<stop offset="1" stop-color="#E9F5BE"/>
</linearGradient>
<linearGradient id="paint2_linear_1_104" x1="17" y1="319.5" x2="317" y2="319.5" gradientUnits="userSpaceOnUse">
<stop stop-color="#1C71A7"/>
<stop offset="1" stop-color="#0C2F46"/>
</linearGradient>
<linearGradient id="paint3_linear_1_104" x1="57" y1="40" x2="367" y2="40" gradientUnits="userSpaceOnUse">
<stop stop-color="#0A555E"/>
<stop offset="1" stop-color="#1498A8"/>
</linearGradient>
</defs>
</svg>
