<svg width="948" height="567" viewBox="0 0 948 567" fill="none" xmlns="http://www.w3.org/2000/svg">
<g clip-path="url(#clip0_37_61)">
<path d="M307.865 471.395C301.404 474.933 295.19 478.477 288.057 482.368C291.259 485.281 295.118 485.252 298.298 483.852C307.837 479.65 317.41 475.203 326.589 470.006C331.85 467.055 331.789 462.125 327.066 459.421C319.253 454.793 311.123 450.651 303.027 446.262C302.566 446.005 301.997 445.621 301.608 445.735C300.087 445.944 298.638 446.524 297.082 446.979C297.407 448.219 297.168 449.938 297.951 450.574C300.618 452.857 303.46 454.775 306.162 456.813C307.619 457.958 309.111 458.857 310.116 461.469C307.248 461.522 304.239 461.695 301.372 461.748C242.374 460.299 197.171 421.36 188.242 364.83C187.142 357.533 186.927 350.134 186.217 342.724C185.955 340.13 185.553 337.655 185.292 335.061C184.69 334.923 184.053 335.031 183.45 334.893C182.502 336.348 180.916 337.911 180.818 339.511C180.208 344.794 179.597 350.077 179.731 355.379C180.851 408.145 216.733 452.399 269.523 465.401C279.627 467.867 290.359 468.501 300.74 469.865C302.937 470.165 305.061 470.094 307.292 470.149C307.647 470.281 307.827 470.778 307.865 471.395Z" fill="black"/>
</g>
<g clip-path="url(#clip1_37_61)">
<path d="M745.797 360.393C748.106 369.19 750.493 377.695 753.026 387.4C757.36 384.52 758.429 379.927 757.692 375.706C755.482 363.043 752.993 350.262 749.513 337.711C747.549 330.526 741.743 329.036 737.22 333.79C729.555 341.605 722.369 349.95 714.905 358.176C714.47 358.643 713.857 359.197 713.88 359.695C713.691 361.568 713.959 363.473 714.049 365.465C715.598 365.472 717.548 366.301 718.517 365.573C721.96 363.128 725.024 360.359 728.188 357.796C729.949 356.427 731.431 354.94 734.785 354.574C734.028 357.998 733.371 361.627 732.615 365.05C714.068 434.676 655.438 476.035 586.51 468.728C577.628 467.722 568.879 465.633 559.974 464.129C556.854 463.617 553.834 463.311 550.713 462.799C550.379 463.471 550.324 464.262 549.99 464.934C551.428 466.522 552.81 468.901 554.66 469.524C560.69 471.923 566.719 474.322 572.983 475.844C635.26 491.234 697.47 462.632 727.811 404.042C733.592 392.82 737.4 380.272 741.965 368.372C742.945 365.857 743.469 363.312 744.17 360.679C744.426 360.299 745.061 360.243 745.797 360.393Z" fill="black"/>
</g>
<path d="M63.1786 55V18.4286H87.3929V24.8036H70.9107V33.5179H85.7857V39.8929H70.9107V55H63.1786ZM100.058 18.4286V55H92.4509V18.4286H100.058ZM118.652 55.5357C115.83 55.5357 113.402 54.9643 111.366 53.8214C109.342 52.6667 107.783 51.0357 106.687 48.9286C105.592 46.8095 105.045 44.3036 105.045 41.4107C105.045 38.5893 105.592 36.1131 106.687 33.9821C107.783 31.8512 109.324 30.1905 111.312 29C113.312 27.8095 115.658 27.2143 118.348 27.2143C120.158 27.2143 121.842 27.506 123.402 28.0893C124.973 28.6607 126.342 29.5238 127.509 30.6786C128.687 31.8333 129.604 33.2857 130.259 35.0357C130.914 36.7738 131.241 38.8095 131.241 41.1429V43.2321H108.08V38.5179H124.08C124.08 37.4226 123.842 36.4524 123.366 35.6071C122.89 34.7619 122.229 34.1012 121.384 33.625C120.551 33.1369 119.58 32.8929 118.473 32.8929C117.318 32.8929 116.295 33.1607 115.402 33.6964C114.521 34.2202 113.83 34.9286 113.33 35.8214C112.83 36.7024 112.574 37.6845 112.562 38.7679V43.25C112.562 44.6071 112.812 45.7798 113.312 46.7679C113.824 47.756 114.545 48.5179 115.473 49.0536C116.402 49.5893 117.503 49.8571 118.777 49.8571C119.622 49.8571 120.396 49.7381 121.098 49.5C121.801 49.2619 122.402 48.9048 122.902 48.4286C123.402 47.9524 123.783 47.369 124.045 46.6786L131.08 47.1429C130.723 48.8333 129.991 50.3095 128.884 51.5714C127.789 52.8214 126.372 53.7976 124.634 54.5C122.908 55.1905 120.914 55.5357 118.652 55.5357ZM142.071 27.5714L147.107 37.1607L152.268 27.5714H160.071L152.125 41.2857L160.286 55H152.518L147.107 45.5179L141.786 55H133.929L142.071 41.2857L134.214 27.5714H142.071ZM164.589 55V27.5714H172.196V55H164.589ZM168.411 24.0357C167.28 24.0357 166.31 23.6607 165.5 22.9107C164.702 22.1488 164.304 21.2381 164.304 20.1786C164.304 19.131 164.702 18.2321 165.5 17.4821C166.31 16.7202 167.28 16.3393 168.411 16.3393C169.542 16.3393 170.506 16.7202 171.304 17.4821C172.113 18.2321 172.518 19.131 172.518 20.1786C172.518 21.2381 172.113 22.1488 171.304 22.9107C170.506 23.6607 169.542 24.0357 168.411 24.0357ZM178.433 55V18.4286H186.04V32.1786H186.272C186.606 31.4405 187.088 30.6905 187.719 29.9286C188.362 29.1548 189.195 28.5119 190.219 28C191.254 27.4762 192.54 27.2143 194.076 27.2143C196.076 27.2143 197.921 27.7381 199.612 28.7857C201.302 29.8214 202.653 31.3869 203.665 33.4821C204.677 35.5655 205.183 38.1786 205.183 41.3214C205.183 44.381 204.689 46.9643 203.701 49.0714C202.725 51.1667 201.391 52.756 199.701 53.8393C198.022 54.9107 196.141 55.4464 194.058 55.4464C192.582 55.4464 191.326 55.2024 190.29 54.7143C189.266 54.2262 188.427 53.6131 187.772 52.875C187.118 52.125 186.618 51.369 186.272 50.6071H185.933V55H178.433ZM185.879 41.2857C185.879 42.9167 186.106 44.3393 186.558 45.5536C187.01 46.7679 187.665 47.7143 188.522 48.3929C189.379 49.0595 190.421 49.3929 191.647 49.3929C192.885 49.3929 193.933 49.0536 194.79 48.375C195.647 47.6845 196.296 46.7321 196.737 45.5179C197.189 44.2917 197.415 42.881 197.415 41.2857C197.415 39.7024 197.195 38.3095 196.754 37.1071C196.314 35.9048 195.665 34.9643 194.808 34.2857C193.951 33.6071 192.897 33.2679 191.647 33.2679C190.409 33.2679 189.362 33.5952 188.504 34.25C187.659 34.9048 187.01 35.8333 186.558 37.0357C186.106 38.2381 185.879 39.6548 185.879 41.2857ZM217.866 18.4286V55H210.259V18.4286H217.866ZM236.46 55.5357C233.638 55.5357 231.21 54.9643 229.174 53.8214C227.15 52.6667 225.591 51.0357 224.496 48.9286C223.4 46.8095 222.853 44.3036 222.853 41.4107C222.853 38.5893 223.4 36.1131 224.496 33.9821C225.591 31.8512 227.132 30.1905 229.121 29C231.121 27.8095 233.466 27.2143 236.156 27.2143C237.966 27.2143 239.65 27.506 241.21 28.0893C242.781 28.6607 244.15 29.5238 245.317 30.6786C246.496 31.8333 247.412 33.2857 248.067 35.0357C248.722 36.7738 249.049 38.8095 249.049 41.1429V43.2321H225.888V38.5179H241.888C241.888 37.4226 241.65 36.4524 241.174 35.6071C240.698 34.7619 240.037 34.1012 239.192 33.625C238.359 33.1369 237.388 32.8929 236.281 32.8929C235.126 32.8929 234.103 33.1607 233.21 33.6964C232.329 34.2202 231.638 34.9286 231.138 35.8214C230.638 36.7024 230.382 37.6845 230.371 38.7679V43.25C230.371 44.6071 230.621 45.7798 231.121 46.7679C231.632 47.756 232.353 48.5179 233.281 49.0536C234.21 49.5893 235.311 49.8571 236.585 49.8571C237.43 49.8571 238.204 49.7381 238.906 49.5C239.609 49.2619 240.21 48.9048 240.71 48.4286C241.21 47.9524 241.591 47.369 241.853 46.6786L248.888 47.1429C248.531 48.8333 247.799 50.3095 246.692 51.5714C245.597 52.8214 244.18 53.7976 242.442 54.5C240.716 55.1905 238.722 55.5357 236.46 55.5357ZM298.063 31.2321H290.241C290.098 30.2202 289.807 29.3214 289.366 28.5357C288.926 27.7381 288.36 27.0595 287.67 26.5C286.979 25.9405 286.182 25.5119 285.277 25.2143C284.384 24.9167 283.414 24.7679 282.366 24.7679C280.473 24.7679 278.824 25.2381 277.42 26.1786C276.015 27.1071 274.926 28.4643 274.152 30.25C273.378 32.0238 272.991 34.1786 272.991 36.7143C272.991 39.3214 273.378 41.5119 274.152 43.2857C274.938 45.0595 276.033 46.3988 277.438 47.3036C278.842 48.2083 280.467 48.6607 282.313 48.6607C283.348 48.6607 284.307 48.5238 285.188 48.25C286.08 47.9762 286.872 47.5774 287.563 47.0536C288.253 46.5179 288.824 45.869 289.277 45.1071C289.741 44.3452 290.063 43.4762 290.241 42.5L298.063 42.5357C297.86 44.2143 297.354 45.8333 296.545 47.3929C295.747 48.9405 294.67 50.3274 293.313 51.5536C291.967 52.7679 290.36 53.7321 288.491 54.4464C286.634 55.1488 284.533 55.5 282.188 55.5C278.926 55.5 276.009 54.7619 273.438 53.2857C270.878 51.8095 268.854 49.6726 267.366 46.875C265.89 44.0774 265.152 40.6905 265.152 36.7143C265.152 32.7262 265.902 29.3333 267.402 26.5357C268.902 23.7381 270.938 21.6071 273.509 20.1429C276.08 18.6667 278.973 17.9286 282.188 17.9286C284.307 17.9286 286.271 18.2262 288.08 18.8214C289.902 19.4167 291.515 20.2857 292.92 21.4286C294.324 22.5595 295.467 23.9464 296.348 25.5893C297.241 27.2321 297.813 29.1131 298.063 31.2321ZM311.286 55.5179C309.536 55.5179 307.976 55.2143 306.607 54.6071C305.238 53.9881 304.155 53.0774 303.357 51.875C302.571 50.6607 302.179 49.1488 302.179 47.3393C302.179 45.8155 302.458 44.5357 303.018 43.5C303.577 42.4643 304.339 41.631 305.304 41C306.268 40.369 307.363 39.8929 308.589 39.5714C309.827 39.25 311.125 39.0238 312.482 38.8929C314.077 38.7262 315.363 38.5714 316.339 38.4286C317.315 38.2738 318.024 38.0476 318.464 37.75C318.905 37.4524 319.125 37.0119 319.125 36.4286V36.3214C319.125 35.1905 318.768 34.3155 318.054 33.6964C317.351 33.0774 316.351 32.7679 315.054 32.7679C313.685 32.7679 312.595 33.0714 311.786 33.6786C310.976 34.2738 310.44 35.0238 310.179 35.9286L303.143 35.3571C303.5 33.6905 304.202 32.25 305.25 31.0357C306.298 29.8095 307.649 28.869 309.304 28.2143C310.97 27.5476 312.899 27.2143 315.089 27.2143C316.613 27.2143 318.071 27.3929 319.464 27.75C320.869 28.1071 322.113 28.6607 323.196 29.4107C324.292 30.1607 325.155 31.125 325.786 32.3036C326.417 33.4702 326.732 34.869 326.732 36.5V55H319.518V51.1964H319.304C318.863 52.0536 318.274 52.8095 317.536 53.4643C316.798 54.1071 315.911 54.6131 314.875 54.9821C313.839 55.3393 312.643 55.5179 311.286 55.5179ZM313.464 50.2679C314.583 50.2679 315.571 50.0476 316.429 49.6071C317.286 49.1548 317.958 48.5476 318.446 47.7857C318.935 47.0238 319.179 46.1607 319.179 45.1964V42.2857C318.94 42.4405 318.613 42.5833 318.196 42.7143C317.792 42.8333 317.333 42.9464 316.821 43.0536C316.31 43.1488 315.798 43.2381 315.286 43.3214C314.774 43.3929 314.31 43.4583 313.893 43.5179C313 43.6488 312.22 43.8571 311.554 44.1429C310.887 44.4286 310.369 44.8155 310 45.3036C309.631 45.7798 309.446 46.375 309.446 47.0893C309.446 48.125 309.821 48.9167 310.571 49.4643C311.333 50 312.298 50.2679 313.464 50.2679ZM332.634 55V27.5714H340.009V32.3571H340.295C340.795 30.6548 341.634 29.369 342.812 28.5C343.991 27.619 345.348 27.1786 346.884 27.1786C347.265 27.1786 347.676 27.2024 348.116 27.25C348.557 27.2976 348.943 27.3631 349.277 27.4464V34.1964C348.92 34.0893 348.426 33.994 347.795 33.9107C347.164 33.8274 346.586 33.7857 346.062 33.7857C344.943 33.7857 343.943 34.0298 343.062 34.5179C342.193 34.994 341.503 35.6607 340.991 36.5179C340.491 37.375 340.241 38.3631 340.241 39.4821V55H332.634ZM364.433 55.5357C361.612 55.5357 359.183 54.9643 357.147 53.8214C355.123 52.6667 353.564 51.0357 352.469 48.9286C351.373 46.8095 350.826 44.3036 350.826 41.4107C350.826 38.5893 351.373 36.1131 352.469 33.9821C353.564 31.8512 355.106 30.1905 357.094 29C359.094 27.8095 361.439 27.2143 364.129 27.2143C365.939 27.2143 367.623 27.506 369.183 28.0893C370.754 28.6607 372.123 29.5238 373.29 30.6786C374.469 31.8333 375.385 33.2857 376.04 35.0357C376.695 36.7738 377.022 38.8095 377.022 41.1429V43.2321H353.862V38.5179H369.862C369.862 37.4226 369.623 36.4524 369.147 35.6071C368.671 34.7619 368.01 34.1012 367.165 33.625C366.332 33.1369 365.362 32.8929 364.254 32.8929C363.1 32.8929 362.076 33.1607 361.183 33.6964C360.302 34.2202 359.612 34.9286 359.112 35.8214C358.612 36.7024 358.356 37.6845 358.344 38.7679V43.25C358.344 44.6071 358.594 45.7798 359.094 46.7679C359.606 47.756 360.326 48.5179 361.254 49.0536C362.183 49.5893 363.284 49.8571 364.558 49.8571C365.403 49.8571 366.177 49.7381 366.879 49.5C367.582 49.2619 368.183 48.9048 368.683 48.4286C369.183 47.9524 369.564 47.369 369.826 46.6786L376.862 47.1429C376.504 48.8333 375.772 50.3095 374.665 51.5714C373.57 52.8214 372.153 53.7976 370.415 54.5C368.689 55.1905 366.695 55.5357 364.433 55.5357ZM394.487 55.5357C391.665 55.5357 389.237 54.9643 387.201 53.8214C385.177 52.6667 383.618 51.0357 382.522 48.9286C381.427 46.8095 380.879 44.3036 380.879 41.4107C380.879 38.5893 381.427 36.1131 382.522 33.9821C383.618 31.8512 385.159 30.1905 387.147 29C389.147 27.8095 391.493 27.2143 394.183 27.2143C395.993 27.2143 397.677 27.506 399.237 28.0893C400.808 28.6607 402.177 29.5238 403.344 30.6786C404.522 31.8333 405.439 33.2857 406.094 35.0357C406.749 36.7738 407.076 38.8095 407.076 41.1429V43.2321H383.915V38.5179H399.915C399.915 37.4226 399.677 36.4524 399.201 35.6071C398.725 34.7619 398.064 34.1012 397.219 33.625C396.385 33.1369 395.415 32.8929 394.308 32.8929C393.153 32.8929 392.129 33.1607 391.237 33.6964C390.356 34.2202 389.665 34.9286 389.165 35.8214C388.665 36.7024 388.409 37.6845 388.397 38.7679V43.25C388.397 44.6071 388.647 45.7798 389.147 46.7679C389.659 47.756 390.379 48.5179 391.308 49.0536C392.237 49.5893 393.338 49.8571 394.612 49.8571C395.457 49.8571 396.231 49.7381 396.933 49.5C397.635 49.2619 398.237 48.9048 398.737 48.4286C399.237 47.9524 399.618 47.369 399.879 46.6786L406.915 47.1429C406.558 48.8333 405.826 50.3095 404.719 51.5714C403.624 52.8214 402.207 53.7976 400.469 54.5C398.743 55.1905 396.749 55.5357 394.487 55.5357ZM412.04 55V27.5714H419.415V32.3571H419.701C420.201 30.6548 421.04 29.369 422.219 28.5C423.397 27.619 424.754 27.1786 426.29 27.1786C426.671 27.1786 427.082 27.2024 427.522 27.25C427.963 27.2976 428.35 27.3631 428.683 27.4464V34.1964C428.326 34.0893 427.832 33.994 427.201 33.9107C426.57 33.8274 425.993 33.7857 425.469 33.7857C424.35 33.7857 423.35 34.0298 422.469 34.5179C421.6 34.994 420.909 35.6607 420.397 36.5179C419.897 37.375 419.647 38.3631 419.647 39.4821V55H412.04ZM464.237 28.9464C464.094 27.506 463.481 26.3869 462.397 25.5893C461.314 24.7917 459.844 24.3929 457.987 24.3929C456.725 24.3929 455.659 24.5714 454.79 24.9286C453.921 25.2738 453.254 25.756 452.79 26.375C452.338 26.994 452.112 27.6964 452.112 28.4821C452.088 29.1369 452.225 29.7083 452.522 30.1964C452.832 30.6845 453.254 31.1071 453.79 31.4643C454.326 31.8095 454.945 32.1131 455.647 32.375C456.35 32.625 457.1 32.8393 457.897 33.0179L461.183 33.8036C462.778 34.1607 464.243 34.6369 465.576 35.2321C466.909 35.8274 468.064 36.5595 469.04 37.4286C470.016 38.2976 470.772 39.3214 471.308 40.5C471.856 41.6786 472.135 43.0298 472.147 44.5536C472.135 46.7917 471.564 48.7321 470.433 50.375C469.314 52.006 467.695 53.2738 465.576 54.1786C463.469 55.0714 460.927 55.5179 457.951 55.5179C454.999 55.5179 452.427 55.0655 450.237 54.1607C448.058 53.256 446.356 51.9167 445.129 50.1429C443.915 48.3571 443.278 46.1488 443.219 43.5179H450.701C450.784 44.744 451.135 45.7679 451.754 46.5893C452.385 47.3988 453.225 48.0119 454.272 48.4286C455.332 48.8333 456.528 49.0357 457.862 49.0357C459.171 49.0357 460.308 48.8452 461.272 48.4643C462.249 48.0833 463.004 47.5536 463.54 46.875C464.076 46.1964 464.344 45.4167 464.344 44.5357C464.344 43.7143 464.1 43.0238 463.612 42.4643C463.135 41.9048 462.433 41.4286 461.504 41.0357C460.588 40.6429 459.463 40.2857 458.129 39.9643L454.147 38.9643C451.064 38.2143 448.629 37.0417 446.844 35.4464C445.058 33.8512 444.171 31.7024 444.183 29C444.171 26.7857 444.76 24.8512 445.951 23.1964C447.153 21.5417 448.802 20.25 450.897 19.3214C452.993 18.3929 455.374 17.9286 458.04 17.9286C460.754 17.9286 463.124 18.3929 465.147 19.3214C467.183 20.25 468.766 21.5417 469.897 23.1964C471.028 24.8512 471.612 26.7679 471.647 28.9464H464.237ZM494.795 43.3214V27.5714H502.402V55H495.098V50.0179H494.813C494.193 51.625 493.164 52.9167 491.723 53.8929C490.295 54.869 488.551 55.3571 486.491 55.3571C484.658 55.3571 483.045 54.9405 481.652 54.1071C480.259 53.2738 479.17 52.0893 478.384 50.5536C477.61 49.0179 477.217 47.1786 477.205 45.0357V27.5714H484.813V43.6786C484.824 45.2976 485.259 46.5774 486.116 47.5179C486.973 48.4583 488.122 48.9286 489.563 48.9286C490.479 48.9286 491.336 48.7202 492.134 48.3036C492.932 47.875 493.574 47.244 494.063 46.4107C494.563 45.5774 494.807 44.5476 494.795 43.3214ZM508.487 65.2857V27.5714H515.987V32.1786H516.326C516.659 31.4405 517.141 30.6905 517.772 29.9286C518.415 29.1548 519.249 28.5119 520.272 28C521.308 27.4762 522.594 27.2143 524.129 27.2143C526.129 27.2143 527.975 27.7381 529.665 28.7857C531.356 29.8214 532.707 31.3869 533.719 33.4821C534.731 35.5655 535.237 38.1786 535.237 41.3214C535.237 44.381 534.743 46.9643 533.754 49.0714C532.778 51.1667 531.445 52.756 529.754 53.8393C528.076 54.9107 526.195 55.4464 524.112 55.4464C522.635 55.4464 521.379 55.2024 520.344 54.7143C519.32 54.2262 518.481 53.6131 517.826 52.875C517.171 52.125 516.671 51.369 516.326 50.6071H516.094V65.2857H508.487ZM515.933 41.2857C515.933 42.9167 516.159 44.3393 516.612 45.5536C517.064 46.7679 517.719 47.7143 518.576 48.3929C519.433 49.0595 520.475 49.3929 521.701 49.3929C522.939 49.3929 523.987 49.0536 524.844 48.375C525.701 47.6845 526.35 46.7321 526.79 45.5179C527.243 44.2917 527.469 42.881 527.469 41.2857C527.469 39.7024 527.249 38.3095 526.808 37.1071C526.368 35.9048 525.719 34.9643 524.862 34.2857C524.004 33.6071 522.951 33.2679 521.701 33.2679C520.463 33.2679 519.415 33.5952 518.558 34.25C517.713 34.9048 517.064 35.8333 516.612 37.0357C516.159 38.2381 515.933 39.6548 515.933 41.2857ZM540.308 65.2857V27.5714H547.808V32.1786H548.147C548.481 31.4405 548.963 30.6905 549.594 29.9286C550.237 29.1548 551.07 28.5119 552.094 28C553.129 27.4762 554.415 27.2143 555.951 27.2143C557.951 27.2143 559.796 27.7381 561.487 28.7857C563.177 29.8214 564.528 31.3869 565.54 33.4821C566.552 35.5655 567.058 38.1786 567.058 41.3214C567.058 44.381 566.564 46.9643 565.576 49.0714C564.6 51.1667 563.266 52.756 561.576 53.8393C559.897 54.9107 558.016 55.4464 555.933 55.4464C554.457 55.4464 553.201 55.2024 552.165 54.7143C551.141 54.2262 550.302 53.6131 549.647 52.875C548.993 52.125 548.493 51.369 548.147 50.6071H547.915V65.2857H540.308ZM547.754 41.2857C547.754 42.9167 547.981 44.3393 548.433 45.5536C548.885 46.7679 549.54 47.7143 550.397 48.3929C551.254 49.0595 552.296 49.3929 553.522 49.3929C554.76 49.3929 555.808 49.0536 556.665 48.375C557.522 47.6845 558.171 46.7321 558.612 45.5179C559.064 44.2917 559.29 42.881 559.29 41.2857C559.29 39.7024 559.07 38.3095 558.629 37.1071C558.189 35.9048 557.54 34.9643 556.683 34.2857C555.826 33.6071 554.772 33.2679 553.522 33.2679C552.284 33.2679 551.237 33.5952 550.379 34.25C549.534 34.9048 548.885 35.8333 548.433 37.0357C547.981 38.2381 547.754 39.6548 547.754 41.2857ZM584.522 55.5357C581.749 55.5357 579.35 54.9464 577.326 53.7679C575.314 52.5774 573.76 50.9226 572.665 48.8036C571.57 46.6726 571.022 44.2024 571.022 41.3929C571.022 38.5595 571.57 36.0833 572.665 33.9643C573.76 31.8333 575.314 30.1786 577.326 29C579.35 27.8095 581.749 27.2143 584.522 27.2143C587.296 27.2143 589.689 27.8095 591.701 29C593.725 30.1786 595.284 31.8333 596.379 33.9643C597.475 36.0833 598.022 38.5595 598.022 41.3929C598.022 44.2024 597.475 46.6726 596.379 48.8036C595.284 50.9226 593.725 52.5774 591.701 53.7679C589.689 54.9464 587.296 55.5357 584.522 55.5357ZM584.558 49.6429C585.82 49.6429 586.874 49.2857 587.719 48.5714C588.564 47.8452 589.201 46.8571 589.629 45.6071C590.07 44.3571 590.29 42.9345 590.29 41.3393C590.29 39.744 590.07 38.3214 589.629 37.0714C589.201 35.8214 588.564 34.8333 587.719 34.1071C586.874 33.381 585.82 33.0179 584.558 33.0179C583.284 33.0179 582.213 33.381 581.344 34.1071C580.487 34.8333 579.838 35.8214 579.397 37.0714C578.969 38.3214 578.754 39.744 578.754 41.3393C578.754 42.9345 578.969 44.3571 579.397 45.6071C579.838 46.8571 580.487 47.8452 581.344 48.5714C582.213 49.2857 583.284 49.6429 584.558 49.6429ZM602.969 55V27.5714H610.344V32.3571H610.629C611.129 30.6548 611.969 29.369 613.147 28.5C614.326 27.619 615.683 27.1786 617.219 27.1786C617.6 27.1786 618.01 27.2024 618.451 27.25C618.891 27.2976 619.278 27.3631 619.612 27.4464V34.1964C619.254 34.0893 618.76 33.994 618.129 33.9107C617.499 33.8274 616.921 33.7857 616.397 33.7857C615.278 33.7857 614.278 34.0298 613.397 34.5179C612.528 34.994 611.838 35.6607 611.326 36.5179C610.826 37.375 610.576 38.3631 610.576 39.4821V55H602.969ZM639.509 27.5714V33.2857H622.991V27.5714H639.509ZM626.741 21H634.348V46.5714C634.348 47.2738 634.455 47.8214 634.67 48.2143C634.884 48.5952 635.182 48.8631 635.562 49.0179C635.955 49.1726 636.408 49.25 636.92 49.25C637.277 49.25 637.634 49.2202 637.991 49.1607C638.348 49.0893 638.622 49.0357 638.812 49L640.009 54.6607C639.628 54.7798 639.092 54.9167 638.402 55.0714C637.711 55.2381 636.872 55.3393 635.884 55.375C634.051 55.4464 632.443 55.2024 631.062 54.6429C629.693 54.0833 628.628 53.2143 627.866 52.0357C627.104 50.8571 626.729 49.369 626.741 47.5714V21Z" fill="white"/>
<rect x="63" y="72" width="391" height="7" fill="#AC6CFF"/>
<circle cx="786.5" cy="235.5" r="103.5" fill="#AC6CFF"/>
<circle cx="155.5" cy="231.5" r="103.5" fill="#AC6CFF"/>
<circle cx="437.5" cy="452.5" r="103.5" fill="#AC6CFF"/>
<path d="M76.3143 231V212.091H83.4052C84.8578 212.091 86.0766 212.362 87.0614 212.903C88.0524 213.445 88.8003 214.19 89.305 215.138C89.8159 216.08 90.0714 217.151 90.0714 218.351C90.0714 219.563 89.8159 220.641 89.305 221.582C88.7942 222.524 88.0401 223.266 87.043 223.808C86.0458 224.343 84.8178 224.611 83.359 224.611H78.6594V221.795H82.8974C83.7468 221.795 84.4424 221.647 84.984 221.352C85.5257 221.056 85.9258 220.65 86.1843 220.133C86.449 219.616 86.5813 219.022 86.5813 218.351C86.5813 217.68 86.449 217.089 86.1843 216.578C85.9258 216.067 85.5226 215.67 84.9748 215.387C84.4331 215.098 83.7345 214.953 82.8789 214.953H79.7397V231H76.3143ZM98.9743 231.277C97.5524 231.277 96.3244 230.982 95.2903 230.391C94.2624 229.794 93.4714 228.95 92.9174 227.861C92.3635 226.765 92.0865 225.476 92.0865 223.992C92.0865 222.533 92.3635 221.253 92.9174 220.151C93.4776 219.043 94.2593 218.182 95.2626 217.566C96.2659 216.944 97.4447 216.634 98.7988 216.634C99.6729 216.634 100.498 216.775 101.273 217.058C102.055 217.335 102.744 217.766 103.341 218.351C103.945 218.936 104.419 219.68 104.763 220.585C105.108 221.484 105.28 222.555 105.28 223.798V224.823H93.6561V222.57H102.077C102.07 221.93 101.932 221.361 101.661 220.862C101.39 220.357 101.012 219.96 100.525 219.671C100.045 219.382 99.4851 219.237 98.845 219.237C98.1618 219.237 97.5616 219.403 97.0446 219.736C96.5275 220.062 96.1243 220.493 95.835 221.028C95.5519 221.558 95.4073 222.139 95.4011 222.773V224.74C95.4011 225.565 95.5519 226.273 95.8535 226.864C96.1551 227.448 96.5768 227.898 97.1184 228.212C97.6601 228.519 98.2941 228.673 99.0204 228.673C99.5067 228.673 99.9468 228.606 100.341 228.47C100.735 228.329 101.076 228.122 101.366 227.852C101.655 227.581 101.873 227.245 102.021 226.845L105.142 227.196C104.945 228.021 104.569 228.741 104.015 229.357C103.468 229.966 102.766 230.44 101.91 230.778C101.055 231.111 100.076 231.277 98.9743 231.277ZM108.108 231V216.818H111.349V219.182H111.496C111.755 218.363 112.198 217.732 112.826 217.289C113.46 216.84 114.183 216.615 114.996 216.615C115.18 216.615 115.387 216.624 115.614 216.643C115.848 216.655 116.042 216.677 116.196 216.707V219.782C116.054 219.733 115.83 219.69 115.522 219.653C115.22 219.61 114.928 219.588 114.645 219.588C114.036 219.588 113.488 219.72 113.001 219.985C112.521 220.244 112.143 220.604 111.866 221.065C111.589 221.527 111.45 222.059 111.45 222.663V231H108.108ZM129.625 220.567L126.578 220.899C126.492 220.591 126.342 220.302 126.126 220.031C125.917 219.76 125.634 219.542 125.277 219.376C124.92 219.21 124.483 219.126 123.966 219.126C123.27 219.126 122.685 219.277 122.211 219.579C121.743 219.88 121.513 220.271 121.519 220.751C121.513 221.164 121.663 221.499 121.971 221.758C122.285 222.016 122.802 222.229 123.522 222.395L125.941 222.912C127.283 223.201 128.28 223.66 128.933 224.288C129.592 224.915 129.924 225.737 129.93 226.753C129.924 227.645 129.662 228.433 129.145 229.116C128.634 229.794 127.923 230.323 127.012 230.705C126.101 231.086 125.055 231.277 123.873 231.277C122.137 231.277 120.74 230.914 119.681 230.188C118.623 229.455 117.992 228.436 117.789 227.131L121.048 226.817C121.196 227.458 121.51 227.941 121.99 228.267C122.47 228.593 123.095 228.756 123.864 228.756C124.658 228.756 125.295 228.593 125.775 228.267C126.261 227.941 126.505 227.538 126.505 227.058C126.505 226.651 126.348 226.316 126.034 226.051C125.726 225.786 125.246 225.583 124.593 225.442L122.174 224.934C120.814 224.651 119.808 224.174 119.155 223.503C118.503 222.826 118.18 221.97 118.186 220.936C118.18 220.062 118.417 219.305 118.897 218.665C119.383 218.018 120.057 217.52 120.919 217.169C121.787 216.812 122.787 216.634 123.919 216.634C125.581 216.634 126.889 216.987 127.843 217.695C128.804 218.403 129.398 219.36 129.625 220.567ZM138.872 231.277C137.487 231.277 136.287 230.972 135.271 230.363C134.256 229.754 133.468 228.901 132.908 227.805C132.354 226.71 132.077 225.429 132.077 223.964C132.077 222.5 132.354 221.216 132.908 220.114C133.468 219.013 134.256 218.157 135.271 217.548C136.287 216.938 137.487 216.634 138.872 216.634C140.257 216.634 141.457 216.938 142.473 217.548C143.489 218.157 144.273 219.013 144.827 220.114C145.388 221.216 145.668 222.5 145.668 223.964C145.668 225.429 145.388 226.71 144.827 227.805C144.273 228.901 143.489 229.754 142.473 230.363C141.457 230.972 140.257 231.277 138.872 231.277ZM138.891 228.599C139.642 228.599 140.269 228.393 140.774 227.981C141.279 227.562 141.654 227.002 141.901 226.3C142.153 225.599 142.279 224.817 142.279 223.955C142.279 223.087 142.153 222.303 141.901 221.601C141.654 220.893 141.279 220.33 140.774 219.911C140.269 219.493 139.642 219.283 138.891 219.283C138.121 219.283 137.481 219.493 136.97 219.911C136.465 220.33 136.087 220.893 135.835 221.601C135.588 222.303 135.465 223.087 135.465 223.955C135.465 224.817 135.588 225.599 135.835 226.3C136.087 227.002 136.465 227.562 136.97 227.981C137.481 228.393 138.121 228.599 138.891 228.599ZM151.847 222.69V231H148.504V216.818H151.699V219.228H151.865C152.191 218.434 152.712 217.803 153.426 217.335C154.146 216.867 155.035 216.634 156.094 216.634C157.073 216.634 157.925 216.843 158.651 217.261C159.384 217.68 159.95 218.286 160.35 219.08C160.757 219.874 160.957 220.838 160.95 221.97V231H157.608V222.487C157.608 221.539 157.362 220.798 156.869 220.262C156.383 219.727 155.709 219.459 154.847 219.459C154.263 219.459 153.743 219.588 153.287 219.847C152.838 220.099 152.484 220.465 152.225 220.945C151.973 221.425 151.847 222.007 151.847 222.69ZM168.429 231.286C167.53 231.286 166.721 231.126 166.001 230.806C165.287 230.48 164.721 230 164.302 229.366C163.89 228.732 163.683 227.95 163.683 227.021C163.683 226.22 163.831 225.559 164.127 225.036C164.422 224.512 164.825 224.094 165.336 223.78C165.847 223.466 166.423 223.229 167.063 223.069C167.709 222.903 168.377 222.783 169.066 222.709C169.897 222.623 170.571 222.546 171.088 222.478C171.605 222.404 171.981 222.293 172.215 222.146C172.455 221.992 172.575 221.755 172.575 221.435V221.379C172.575 220.684 172.369 220.145 171.956 219.763C171.544 219.382 170.95 219.191 170.174 219.191C169.356 219.191 168.706 219.37 168.226 219.727C167.752 220.084 167.432 220.505 167.266 220.991L164.145 220.548C164.391 219.687 164.798 218.966 165.364 218.388C165.93 217.803 166.623 217.366 167.441 217.077C168.26 216.781 169.165 216.634 170.156 216.634C170.839 216.634 171.519 216.714 172.196 216.874C172.873 217.034 173.492 217.298 174.052 217.668C174.612 218.031 175.061 218.526 175.4 219.154C175.745 219.782 175.917 220.567 175.917 221.509V231H172.704V229.052H172.593C172.39 229.446 172.104 229.815 171.735 230.16C171.371 230.498 170.913 230.772 170.359 230.982C169.811 231.185 169.168 231.286 168.429 231.286ZM169.297 228.83C169.968 228.83 170.55 228.698 171.042 228.433C171.535 228.162 171.913 227.805 172.178 227.362C172.449 226.919 172.584 226.436 172.584 225.913V224.241C172.479 224.328 172.301 224.408 172.048 224.482C171.802 224.555 171.525 224.62 171.218 224.675C170.91 224.731 170.605 224.78 170.303 224.823C170.002 224.866 169.74 224.903 169.519 224.934C169.02 225.002 168.574 225.112 168.18 225.266C167.786 225.42 167.475 225.636 167.247 225.913C167.02 226.183 166.906 226.534 166.906 226.965C166.906 227.581 167.13 228.045 167.58 228.359C168.029 228.673 168.602 228.83 169.297 228.83ZM182.62 212.091V231H179.278V212.091H182.62ZM186.057 231V216.818H189.4V231H186.057ZM187.738 214.805C187.208 214.805 186.753 214.63 186.371 214.279C185.989 213.922 185.799 213.494 185.799 212.996C185.799 212.491 185.989 212.063 186.371 211.712C186.753 211.355 187.208 211.177 187.738 211.177C188.273 211.177 188.729 211.355 189.104 211.712C189.486 212.063 189.676 212.491 189.676 212.996C189.676 213.494 189.486 213.922 189.104 214.279C188.729 214.63 188.273 214.805 187.738 214.805ZM192.652 231V228.876L199.964 219.708V219.588H192.892V216.818H204.055V219.099L197.093 228.11V228.23H204.295V231H192.652ZM213.308 231.277C211.886 231.277 210.658 230.982 209.624 230.391C208.596 229.794 207.805 228.95 207.251 227.861C206.697 226.765 206.42 225.476 206.42 223.992C206.42 222.533 206.697 221.253 207.251 220.151C207.812 219.043 208.593 218.182 209.597 217.566C210.6 216.944 211.779 216.634 213.133 216.634C214.007 216.634 214.832 216.775 215.607 217.058C216.389 217.335 217.078 217.766 217.675 218.351C218.279 218.936 218.753 219.68 219.097 220.585C219.442 221.484 219.614 222.555 219.614 223.798V224.823H207.99V222.57H216.411C216.404 221.93 216.266 221.361 215.995 220.862C215.724 220.357 215.346 219.96 214.859 219.671C214.379 219.382 213.819 219.237 213.179 219.237C212.496 219.237 211.896 219.403 211.379 219.736C210.862 220.062 210.458 220.493 210.169 221.028C209.886 221.558 209.741 222.139 209.735 222.773V224.74C209.735 225.565 209.886 226.273 210.188 226.864C210.489 227.448 210.911 227.898 211.452 228.212C211.994 228.519 212.628 228.673 213.354 228.673C213.841 228.673 214.281 228.606 214.675 228.47C215.069 228.329 215.41 228.122 215.7 227.852C215.989 227.581 216.207 227.245 216.355 226.845L219.476 227.196C219.279 228.021 218.903 228.741 218.349 229.357C217.802 229.966 217.1 230.44 216.244 230.778C215.389 231.111 214.41 231.277 213.308 231.277ZM227.705 231.249C226.591 231.249 225.593 230.963 224.713 230.391C223.833 229.818 223.137 228.987 222.627 227.898C222.116 226.808 221.86 225.485 221.86 223.928C221.86 222.352 222.119 221.022 222.636 219.939C223.159 218.849 223.864 218.028 224.75 217.474C225.637 216.914 226.624 216.634 227.714 216.634C228.545 216.634 229.228 216.775 229.764 217.058C230.299 217.335 230.724 217.671 231.038 218.065C231.352 218.452 231.595 218.819 231.767 219.163H231.906V212.091H235.257V231H231.97V228.766H231.767C231.595 229.11 231.346 229.477 231.019 229.864C230.693 230.246 230.262 230.572 229.727 230.843C229.191 231.114 228.517 231.249 227.705 231.249ZM228.637 228.507C229.345 228.507 229.948 228.316 230.447 227.935C230.945 227.547 231.324 227.008 231.583 226.319C231.841 225.629 231.97 224.826 231.97 223.909C231.97 222.992 231.841 222.195 231.583 221.518C231.33 220.841 230.955 220.314 230.456 219.939C229.964 219.563 229.357 219.376 228.637 219.376C227.892 219.376 227.271 219.57 226.772 219.957C226.274 220.345 225.898 220.881 225.646 221.564C225.393 222.247 225.267 223.029 225.267 223.909C225.267 224.795 225.393 225.586 225.646 226.282C225.904 226.971 226.283 227.516 226.781 227.916C227.286 228.31 227.905 228.507 228.637 228.507ZM109.114 269.277C107.699 269.277 106.483 268.966 105.467 268.344C104.458 267.723 103.679 266.864 103.131 265.768C102.59 264.667 102.319 263.399 102.319 261.964C102.319 260.524 102.596 259.253 103.15 258.151C103.704 257.043 104.486 256.182 105.495 255.566C106.511 254.944 107.711 254.634 109.096 254.634C110.247 254.634 111.266 254.846 112.152 255.271C113.045 255.689 113.755 256.283 114.285 257.053C114.814 257.816 115.116 258.708 115.19 259.73H111.995C111.866 259.047 111.558 258.478 111.072 258.022C110.592 257.56 109.948 257.33 109.142 257.33C108.459 257.33 107.859 257.514 107.342 257.884C106.825 258.247 106.421 258.77 106.132 259.453C105.849 260.136 105.707 260.955 105.707 261.909C105.707 262.875 105.849 263.706 106.132 264.402C106.415 265.091 106.812 265.624 107.323 265.999C107.84 266.369 108.446 266.553 109.142 266.553C109.634 266.553 110.075 266.461 110.462 266.276C110.856 266.085 111.186 265.812 111.45 265.455C111.715 265.098 111.897 264.664 111.995 264.153H115.19C115.11 265.156 114.814 266.045 114.303 266.821C113.792 267.59 113.097 268.194 112.217 268.631C111.336 269.062 110.302 269.277 109.114 269.277ZM124.12 269.277C122.735 269.277 121.535 268.972 120.519 268.363C119.504 267.754 118.716 266.901 118.156 265.805C117.602 264.71 117.325 263.429 117.325 261.964C117.325 260.5 117.602 259.216 118.156 258.114C118.716 257.013 119.504 256.157 120.519 255.548C121.535 254.938 122.735 254.634 124.12 254.634C125.505 254.634 126.705 254.938 127.721 255.548C128.737 256.157 129.521 257.013 130.075 258.114C130.636 259.216 130.916 260.5 130.916 261.964C130.916 263.429 130.636 264.71 130.075 265.805C129.521 266.901 128.737 267.754 127.721 268.363C126.705 268.972 125.505 269.277 124.12 269.277ZM124.139 266.599C124.89 266.599 125.517 266.393 126.022 265.981C126.527 265.562 126.902 265.002 127.149 264.3C127.401 263.599 127.527 262.817 127.527 261.955C127.527 261.087 127.401 260.303 127.149 259.601C126.902 258.893 126.527 258.33 126.022 257.911C125.517 257.493 124.89 257.283 124.139 257.283C123.369 257.283 122.729 257.493 122.218 257.911C121.713 258.33 121.335 258.893 121.083 259.601C120.836 260.303 120.713 261.087 120.713 261.955C120.713 262.817 120.836 263.599 121.083 264.3C121.335 265.002 121.713 265.562 122.218 265.981C122.729 266.393 123.369 266.599 124.139 266.599ZM137.833 269.286C136.935 269.286 136.125 269.126 135.405 268.806C134.691 268.48 134.125 268 133.706 267.366C133.294 266.732 133.088 265.95 133.088 265.021C133.088 264.22 133.235 263.559 133.531 263.036C133.826 262.512 134.23 262.094 134.74 261.78C135.251 261.466 135.827 261.229 136.467 261.069C137.113 260.903 137.781 260.783 138.471 260.709C139.301 260.623 139.975 260.546 140.493 260.478C141.01 260.404 141.385 260.293 141.619 260.146C141.859 259.992 141.979 259.755 141.979 259.435V259.379C141.979 258.684 141.773 258.145 141.36 257.763C140.948 257.382 140.354 257.191 139.578 257.191C138.76 257.191 138.11 257.37 137.63 257.727C137.156 258.084 136.836 258.505 136.67 258.991L133.549 258.548C133.796 257.687 134.202 256.966 134.768 256.388C135.334 255.803 136.027 255.366 136.846 255.077C137.664 254.781 138.569 254.634 139.56 254.634C140.243 254.634 140.923 254.714 141.6 254.874C142.278 255.034 142.896 255.298 143.456 255.668C144.016 256.031 144.466 256.526 144.804 257.154C145.149 257.782 145.321 258.567 145.321 259.509V269H142.108V267.052H141.998C141.794 267.446 141.508 267.815 141.139 268.16C140.776 268.498 140.317 268.772 139.763 268.982C139.215 269.185 138.572 269.286 137.833 269.286ZM138.701 266.83C139.372 266.83 139.954 266.698 140.446 266.433C140.939 266.162 141.317 265.805 141.582 265.362C141.853 264.919 141.988 264.436 141.988 263.913V262.241C141.884 262.328 141.705 262.408 141.453 262.482C141.207 262.555 140.93 262.62 140.622 262.675C140.314 262.731 140.009 262.78 139.708 262.823C139.406 262.866 139.145 262.903 138.923 262.934C138.424 263.002 137.978 263.112 137.584 263.266C137.19 263.42 136.879 263.636 136.652 263.913C136.424 264.183 136.31 264.534 136.31 264.965C136.31 265.581 136.535 266.045 136.984 266.359C137.433 266.673 138.006 266.83 138.701 266.83ZM154.868 269.277C153.453 269.277 152.237 268.966 151.221 268.344C150.212 267.723 149.433 266.864 148.885 265.768C148.344 264.667 148.073 263.399 148.073 261.964C148.073 260.524 148.35 259.253 148.904 258.151C149.458 257.043 150.239 256.182 151.249 255.566C152.265 254.944 153.465 254.634 154.85 254.634C156.001 254.634 157.02 254.846 157.906 255.271C158.798 255.689 159.509 256.283 160.039 257.053C160.568 257.816 160.87 258.708 160.944 259.73H157.749C157.62 259.047 157.312 258.478 156.826 258.022C156.346 257.56 155.702 257.33 154.896 257.33C154.213 257.33 153.613 257.514 153.096 257.884C152.578 258.247 152.175 258.77 151.886 259.453C151.603 260.136 151.461 260.955 151.461 261.909C151.461 262.875 151.603 263.706 151.886 264.402C152.169 265.091 152.566 265.624 153.077 265.999C153.594 266.369 154.2 266.553 154.896 266.553C155.388 266.553 155.828 266.461 156.216 266.276C156.61 266.085 156.94 265.812 157.204 265.455C157.469 265.098 157.65 264.664 157.749 264.153H160.944C160.864 265.156 160.568 266.045 160.057 266.821C159.546 267.59 158.851 268.194 157.971 268.631C157.09 269.062 156.056 269.277 154.868 269.277ZM167.03 260.69V269H163.688V250.091H166.956V257.228H167.123C167.455 256.428 167.969 255.797 168.665 255.335C169.366 254.867 170.259 254.634 171.342 254.634C172.327 254.634 173.186 254.84 173.918 255.252C174.651 255.665 175.217 256.268 175.617 257.062C176.023 257.856 176.226 258.825 176.226 259.97V269H172.884V260.487C172.884 259.533 172.638 258.791 172.145 258.262C171.659 257.727 170.976 257.459 170.096 257.459C169.505 257.459 168.975 257.588 168.508 257.847C168.046 258.099 167.683 258.465 167.418 258.945C167.16 259.425 167.03 260.007 167.03 260.69ZM179.633 269V254.818H182.976V269H179.633ZM181.314 252.805C180.784 252.805 180.329 252.63 179.947 252.279C179.566 251.922 179.375 251.494 179.375 250.996C179.375 250.491 179.566 250.063 179.947 249.712C180.329 249.355 180.784 249.177 181.314 249.177C181.849 249.177 182.305 249.355 182.68 249.712C183.062 250.063 183.253 250.491 183.253 250.996C183.253 251.494 183.062 251.922 182.68 252.279C182.305 252.63 181.849 252.805 181.314 252.805ZM189.755 260.69V269H186.413V254.818H189.607V257.228H189.773C190.1 256.434 190.62 255.803 191.334 255.335C192.054 254.867 192.943 254.634 194.002 254.634C194.981 254.634 195.833 254.843 196.56 255.261C197.292 255.68 197.858 256.286 198.259 257.08C198.665 257.874 198.865 258.838 198.859 259.97V269H195.516V260.487C195.516 259.539 195.27 258.798 194.778 258.262C194.291 257.727 193.617 257.459 192.756 257.459C192.171 257.459 191.651 257.588 191.195 257.847C190.746 258.099 190.392 258.465 190.134 258.945C189.881 259.425 189.755 260.007 189.755 260.69ZM208.424 274.614C207.224 274.614 206.193 274.451 205.331 274.124C204.469 273.804 203.777 273.373 203.254 272.832C202.73 272.29 202.367 271.69 202.164 271.031L205.174 270.302C205.309 270.579 205.506 270.853 205.765 271.124C206.023 271.401 206.371 271.628 206.808 271.807C207.251 271.991 207.808 272.084 208.479 272.084C209.427 272.084 210.212 271.853 210.834 271.391C211.455 270.936 211.766 270.185 211.766 269.138V266.452H211.6C211.428 266.796 211.175 267.15 210.843 267.513C210.517 267.877 210.083 268.181 209.541 268.428C209.006 268.674 208.332 268.797 207.519 268.797C206.43 268.797 205.442 268.541 204.555 268.031C203.675 267.513 202.973 266.744 202.45 265.722C201.933 264.694 201.675 263.408 201.675 261.863C201.675 260.306 201.933 258.991 202.45 257.92C202.973 256.843 203.678 256.028 204.565 255.474C205.451 254.914 206.439 254.634 207.528 254.634C208.359 254.634 209.043 254.775 209.578 255.058C210.12 255.335 210.551 255.671 210.871 256.065C211.191 256.452 211.434 256.819 211.6 257.163H211.785V254.818H215.081V269.231C215.081 270.443 214.792 271.447 214.213 272.241C213.634 273.035 212.844 273.629 211.84 274.023C210.837 274.417 209.698 274.614 208.424 274.614ZM208.452 266.175C209.16 266.175 209.763 266.002 210.261 265.658C210.76 265.313 211.138 264.817 211.397 264.171C211.656 263.525 211.785 262.749 211.785 261.844C211.785 260.952 211.656 260.17 211.397 259.499C211.145 258.828 210.769 258.308 210.271 257.939C209.778 257.563 209.172 257.376 208.452 257.376C207.707 257.376 207.085 257.57 206.587 257.957C206.088 258.345 205.713 258.878 205.46 259.555C205.208 260.226 205.082 260.989 205.082 261.844C205.082 262.712 205.208 263.473 205.46 264.125C205.719 264.771 206.097 265.276 206.596 265.639C207.101 265.996 207.719 266.175 208.452 266.175Z" fill="white"/>
<path d="M348.657 436.047H351.971L356.411 446.882H356.586L361.025 436.047H364.34V451H361.741V440.727H361.602L357.469 450.956H355.527L351.395 440.705H351.256V451H348.657V436.047ZM372.065 451.219C370.97 451.219 370.02 450.978 369.217 450.496C368.414 450.014 367.791 449.34 367.348 448.474C366.91 447.607 366.691 446.595 366.691 445.436C366.691 444.278 366.91 443.263 367.348 442.392C367.791 441.52 368.414 440.844 369.217 440.362C370.02 439.88 370.97 439.639 372.065 439.639C373.16 439.639 374.109 439.88 374.912 440.362C375.715 440.844 376.336 441.52 376.774 442.392C377.217 443.263 377.439 444.278 377.439 445.436C377.439 446.595 377.217 447.607 376.774 448.474C376.336 449.34 375.715 450.014 374.912 450.496C374.109 450.978 373.16 451.219 372.065 451.219ZM372.079 449.102C372.673 449.102 373.17 448.939 373.569 448.612C373.968 448.281 374.265 447.839 374.46 447.284C374.659 446.729 374.759 446.111 374.759 445.429C374.759 444.743 374.659 444.122 374.46 443.567C374.265 443.007 373.968 442.562 373.569 442.231C373.17 441.9 372.673 441.735 372.079 441.735C371.471 441.735 370.965 441.9 370.561 442.231C370.162 442.562 369.862 443.007 369.663 443.567C369.468 444.122 369.371 444.743 369.371 445.429C369.371 446.111 369.468 446.729 369.663 447.284C369.862 447.839 370.162 448.281 370.561 448.612C370.965 448.939 371.471 449.102 372.079 449.102ZM384.574 451.219C383.454 451.219 382.493 450.973 381.69 450.482C380.892 449.99 380.276 449.311 379.843 448.445C379.414 447.573 379.2 446.57 379.2 445.436C379.2 444.297 379.419 443.292 379.857 442.421C380.295 441.545 380.913 440.863 381.712 440.377C382.515 439.885 383.464 439.639 384.559 439.639C385.47 439.639 386.275 439.807 386.976 440.143C387.682 440.474 388.244 440.944 388.663 441.552C389.081 442.156 389.32 442.861 389.378 443.669H386.852C386.75 443.129 386.506 442.679 386.122 442.319C385.742 441.954 385.233 441.771 384.596 441.771C384.055 441.771 383.581 441.917 383.172 442.209C382.763 442.496 382.444 442.91 382.216 443.45C381.992 443.991 381.88 444.638 381.88 445.393C381.88 446.157 381.992 446.814 382.216 447.364C382.439 447.909 382.753 448.33 383.157 448.627C383.566 448.919 384.046 449.065 384.596 449.065C384.985 449.065 385.333 448.992 385.64 448.846C385.951 448.695 386.212 448.479 386.421 448.196C386.63 447.914 386.774 447.571 386.852 447.167H389.378C389.315 447.96 389.081 448.664 388.677 449.277C388.273 449.885 387.723 450.362 387.027 450.708C386.331 451.049 385.513 451.219 384.574 451.219ZM393.958 447.481L393.951 444.29H394.374L398.405 439.785H401.493L396.535 445.305H395.988L393.958 447.481ZM391.549 451V436.047H394.192V451H391.549ZM398.587 451L394.936 445.896L396.718 444.034L401.749 451H398.587ZM408.354 451V439.785H410.998V451H408.354ZM409.683 438.193C409.265 438.193 408.904 438.055 408.603 437.777C408.301 437.495 408.15 437.157 408.15 436.762C408.15 436.363 408.301 436.025 408.603 435.747C408.904 435.465 409.265 435.324 409.683 435.324C410.107 435.324 410.467 435.465 410.764 435.747C411.066 436.025 411.217 436.363 411.217 436.762C411.217 437.157 411.066 437.495 410.764 437.777C410.467 438.055 410.107 438.193 409.683 438.193ZM416.359 444.429V451H413.715V439.785H416.242V441.691H416.373C416.631 441.063 417.042 440.564 417.607 440.194C418.177 439.824 418.88 439.639 419.717 439.639C420.491 439.639 421.165 439.805 421.74 440.136C422.319 440.467 422.767 440.946 423.083 441.574C423.404 442.202 423.563 442.964 423.558 443.859V451H420.915V444.268C420.915 443.519 420.72 442.932 420.331 442.509C419.946 442.085 419.413 441.873 418.732 441.873C418.269 441.873 417.858 441.976 417.498 442.18C417.142 442.38 416.862 442.669 416.658 443.049C416.458 443.428 416.359 443.888 416.359 444.429ZM431.845 439.785V441.829H425.398V439.785H431.845ZM426.989 437.098H429.632V447.627C429.632 447.982 429.686 448.255 429.793 448.445C429.905 448.629 430.051 448.756 430.231 448.824C430.411 448.892 430.611 448.926 430.83 448.926C430.995 448.926 431.146 448.914 431.283 448.89C431.424 448.866 431.531 448.844 431.604 448.824L432.049 450.89C431.908 450.939 431.706 450.993 431.443 451.051C431.185 451.11 430.869 451.144 430.494 451.153C429.832 451.173 429.236 451.073 428.705 450.854C428.175 450.63 427.754 450.284 427.442 449.817C427.135 449.35 426.985 448.766 426.989 448.065V437.098ZM438.9 451.219C437.775 451.219 436.804 450.985 435.987 450.518C435.174 450.046 434.548 449.379 434.11 448.518C433.672 447.651 433.453 446.631 433.453 445.458C433.453 444.305 433.672 443.292 434.11 442.421C434.553 441.545 435.171 440.863 435.965 440.377C436.758 439.885 437.69 439.639 438.761 439.639C439.452 439.639 440.104 439.751 440.718 439.975C441.336 440.194 441.881 440.535 442.353 440.997C442.83 441.46 443.205 442.049 443.478 442.764C443.75 443.475 443.887 444.322 443.887 445.305V446.115H434.694V444.334H441.353C441.348 443.828 441.239 443.377 441.024 442.983C440.81 442.584 440.511 442.27 440.126 442.041C439.747 441.812 439.304 441.698 438.798 441.698C438.257 441.698 437.783 441.829 437.374 442.092C436.965 442.35 436.646 442.691 436.417 443.115C436.193 443.533 436.079 443.993 436.074 444.494V446.05C436.074 446.702 436.193 447.262 436.432 447.729C436.67 448.191 437.004 448.547 437.432 448.795C437.861 449.038 438.362 449.16 438.936 449.16C439.321 449.16 439.669 449.107 439.98 448.999C440.292 448.887 440.562 448.724 440.791 448.51C441.02 448.296 441.192 448.031 441.309 447.714L443.777 447.992C443.621 448.644 443.324 449.214 442.886 449.7C442.453 450.182 441.898 450.557 441.222 450.825C440.545 451.088 439.771 451.219 438.9 451.219ZM446.123 451V439.785H448.685V441.654H448.802C449.007 441.007 449.357 440.508 449.854 440.157C450.355 439.802 450.927 439.624 451.569 439.624C451.715 439.624 451.879 439.632 452.059 439.646C452.244 439.656 452.397 439.673 452.519 439.697V442.129C452.407 442.09 452.229 442.056 451.986 442.027C451.747 441.993 451.516 441.976 451.292 441.976C450.81 441.976 450.377 442.08 449.992 442.289C449.613 442.494 449.313 442.779 449.094 443.144C448.875 443.509 448.766 443.93 448.766 444.407V451H446.123ZM464.633 439.785L460.64 451H457.719L453.725 439.785H456.544L459.121 448.116H459.238L461.822 439.785H464.633ZM466.462 451V439.785H469.106V451H466.462ZM467.791 438.193C467.373 438.193 467.012 438.055 466.711 437.777C466.409 437.495 466.258 437.157 466.258 436.762C466.258 436.363 466.409 436.025 466.711 435.747C467.012 435.465 467.373 435.324 467.791 435.324C468.215 435.324 468.575 435.465 468.872 435.747C469.174 436.025 469.325 436.363 469.325 436.762C469.325 437.157 469.174 437.495 468.872 437.777C468.575 438.055 468.215 438.193 467.791 438.193ZM476.788 451.219C475.664 451.219 474.693 450.985 473.875 450.518C473.062 450.046 472.437 449.379 471.999 448.518C471.561 447.651 471.342 446.631 471.342 445.458C471.342 444.305 471.561 443.292 471.999 442.421C472.442 441.545 473.06 440.863 473.853 440.377C474.647 439.885 475.579 439.639 476.65 439.639C477.341 439.639 477.993 439.751 478.606 439.975C479.225 440.194 479.77 440.535 480.242 440.997C480.719 441.46 481.094 442.049 481.366 442.764C481.639 443.475 481.775 444.322 481.775 445.305V446.115H472.583V444.334H479.242C479.237 443.828 479.127 443.377 478.913 442.983C478.699 442.584 478.4 442.27 478.015 442.041C477.635 441.812 477.192 441.698 476.686 441.698C476.146 441.698 475.671 441.829 475.262 442.092C474.854 442.35 474.535 442.691 474.306 443.115C474.082 443.533 473.968 443.993 473.963 444.494V446.05C473.963 446.702 474.082 447.262 474.321 447.729C474.559 448.191 474.892 448.547 475.321 448.795C475.749 449.038 476.251 449.16 476.825 449.16C477.209 449.16 477.557 449.107 477.869 448.999C478.181 448.887 478.451 448.724 478.679 448.51C478.908 448.296 479.081 448.031 479.198 447.714L481.666 447.992C481.51 448.644 481.213 449.214 480.775 449.7C480.342 450.182 479.787 450.557 479.11 450.825C478.434 451.088 477.66 451.219 476.788 451.219ZM486.266 451L483.097 439.785H485.791L487.762 447.671H487.865L489.88 439.785H492.545L494.56 447.627H494.669L496.612 439.785H499.313L496.137 451H493.384L491.282 443.421H491.128L489.026 451H486.266ZM510.022 442.749L507.613 443.012C507.545 442.769 507.426 442.54 507.255 442.326C507.09 442.112 506.866 441.939 506.583 441.808C506.301 441.676 505.956 441.61 505.547 441.61C504.997 441.61 504.534 441.73 504.159 441.968C503.789 442.207 503.607 442.516 503.612 442.895C503.607 443.222 503.726 443.487 503.97 443.691C504.218 443.896 504.627 444.064 505.196 444.195L507.109 444.604C508.17 444.833 508.959 445.195 509.475 445.692C509.996 446.188 510.259 446.838 510.263 447.641C510.259 448.347 510.052 448.97 509.643 449.511C509.239 450.046 508.677 450.465 507.956 450.766C507.236 451.068 506.408 451.219 505.474 451.219C504.101 451.219 502.996 450.932 502.159 450.357C501.322 449.778 500.823 448.973 500.662 447.941L503.239 447.692C503.356 448.199 503.605 448.581 503.984 448.839C504.364 449.097 504.858 449.226 505.466 449.226C506.094 449.226 506.598 449.097 506.978 448.839C507.362 448.581 507.555 448.262 507.555 447.882C507.555 447.561 507.43 447.296 507.182 447.086C506.939 446.877 506.559 446.717 506.043 446.605L504.13 446.203C503.054 445.979 502.259 445.602 501.743 445.071C501.227 444.536 500.971 443.859 500.976 443.042C500.971 442.35 501.159 441.752 501.538 441.245C501.923 440.734 502.456 440.34 503.137 440.063C503.824 439.78 504.615 439.639 505.51 439.639C506.824 439.639 507.859 439.919 508.613 440.479C509.373 441.038 509.842 441.795 510.022 442.749ZM522.011 451.219C520.989 451.219 520.111 451.034 519.375 450.664C518.64 450.294 518.073 449.795 517.674 449.167C517.28 448.535 517.083 447.821 517.083 447.028C517.083 446.429 517.205 445.899 517.448 445.436C517.696 444.974 518.037 444.546 518.47 444.151C518.908 443.757 519.414 443.365 519.989 442.976L522.639 441.172C523.029 440.919 523.323 440.652 523.523 440.369C523.727 440.087 523.829 439.756 523.829 439.376C523.829 439.055 523.693 438.751 523.42 438.464C523.153 438.176 522.783 438.033 522.311 438.033C521.994 438.033 521.714 438.108 521.471 438.259C521.232 438.405 521.045 438.597 520.909 438.836C520.777 439.074 520.712 439.328 520.712 439.595C520.712 439.921 520.802 440.252 520.982 440.588C521.167 440.924 521.405 441.272 521.697 441.632C521.994 441.993 522.311 442.375 522.647 442.779L529.663 451H526.801L520.975 444.327C520.541 443.82 520.123 443.321 519.719 442.83C519.32 442.338 518.991 441.827 518.733 441.296C518.48 440.761 518.353 440.182 518.353 439.559C518.353 438.853 518.516 438.223 518.842 437.668C519.169 437.108 519.624 436.667 520.208 436.346C520.797 436.025 521.486 435.864 522.274 435.864C523.063 435.864 523.739 436.02 524.304 436.332C524.869 436.643 525.304 437.057 525.611 437.573C525.918 438.089 526.071 438.651 526.071 439.259C526.071 439.965 525.896 440.598 525.545 441.158C525.195 441.713 524.708 442.216 524.085 442.669L521.062 444.881C520.566 445.242 520.21 445.607 519.996 445.977C519.782 446.342 519.675 446.653 519.675 446.911C519.675 447.306 519.775 447.663 519.974 447.985C520.174 448.306 520.454 448.564 520.814 448.758C521.179 448.948 521.605 449.043 522.092 449.043C522.627 449.043 523.155 448.924 523.676 448.685C524.197 448.442 524.671 448.096 525.1 447.649C525.528 447.201 525.869 446.665 526.122 446.042C526.375 445.414 526.502 444.718 526.502 443.954H528.772C528.772 444.898 528.668 445.721 528.458 446.422C528.249 447.118 527.979 447.707 527.648 448.189C527.317 448.666 526.966 449.048 526.597 449.335C526.48 449.418 526.368 449.501 526.261 449.584C526.154 449.666 526.042 449.749 525.925 449.832C525.399 450.309 524.783 450.659 524.078 450.883C523.377 451.107 522.688 451.219 522.011 451.219ZM387.277 483L384.108 471.785H386.803L388.774 479.671H388.876L390.891 471.785H393.556L395.572 479.627H395.681L397.623 471.785H400.325L397.149 483H394.396L392.293 475.421H392.14L390.037 483H387.277ZM406.741 483.219C405.646 483.219 404.696 482.978 403.893 482.496C403.09 482.014 402.467 481.34 402.024 480.474C401.586 479.607 401.367 478.595 401.367 477.436C401.367 476.278 401.586 475.263 402.024 474.392C402.467 473.52 403.09 472.844 403.893 472.362C404.696 471.88 405.646 471.639 406.741 471.639C407.836 471.639 408.785 471.88 409.588 472.362C410.392 472.844 411.012 473.52 411.45 474.392C411.893 475.263 412.115 476.278 412.115 477.436C412.115 478.595 411.893 479.607 411.45 480.474C411.012 481.34 410.392 482.014 409.588 482.496C408.785 482.978 407.836 483.219 406.741 483.219ZM406.755 481.102C407.349 481.102 407.846 480.939 408.245 480.612C408.644 480.281 408.941 479.839 409.136 479.284C409.335 478.729 409.435 478.111 409.435 477.429C409.435 476.743 409.335 476.122 409.136 475.567C408.941 475.007 408.644 474.562 408.245 474.231C407.846 473.9 407.349 473.735 406.755 473.735C406.147 473.735 405.641 473.9 405.237 474.231C404.838 474.562 404.538 475.007 404.339 475.567C404.144 476.122 404.047 476.743 404.047 477.429C404.047 478.111 404.144 478.729 404.339 479.284C404.538 479.839 404.838 480.281 405.237 480.612C405.641 480.939 406.147 481.102 406.755 481.102ZM414.358 483V471.785H416.921V473.654H417.038C417.242 473.007 417.593 472.508 418.089 472.157C418.59 471.802 419.162 471.624 419.805 471.624C419.951 471.624 420.114 471.632 420.294 471.646C420.479 471.656 420.632 471.673 420.754 471.697V474.129C420.642 474.09 420.464 474.056 420.221 474.027C419.983 473.993 419.751 473.976 419.527 473.976C419.045 473.976 418.612 474.08 418.228 474.289C417.848 474.494 417.549 474.779 417.33 475.144C417.111 475.509 417.001 475.93 417.001 476.407V483H414.358ZM424.919 479.481L424.912 476.29H425.336L429.366 471.785H432.454L427.497 477.305H426.949L424.919 479.481ZM422.51 483V468.047H425.153V483H422.51ZM429.549 483L425.898 477.896L427.679 476.034L432.71 483H429.549ZM443.08 474.749L440.67 475.012C440.602 474.769 440.483 474.54 440.313 474.326C440.147 474.112 439.923 473.939 439.641 473.808C439.359 473.676 439.013 473.61 438.604 473.61C438.054 473.61 437.592 473.73 437.217 473.968C436.847 474.207 436.664 474.516 436.669 474.895C436.664 475.222 436.784 475.487 437.027 475.691C437.275 475.896 437.684 476.064 438.254 476.195L440.167 476.604C441.228 476.833 442.016 477.195 442.532 477.692C443.053 478.188 443.316 478.838 443.321 479.641C443.316 480.347 443.109 480.97 442.7 481.511C442.296 482.046 441.734 482.465 441.013 482.766C440.293 483.068 439.466 483.219 438.531 483.219C437.158 483.219 436.053 482.932 435.216 482.357C434.379 481.778 433.88 480.973 433.719 479.941L436.297 479.692C436.414 480.199 436.662 480.581 437.042 480.839C437.421 481.097 437.915 481.226 438.524 481.226C439.152 481.226 439.655 481.097 440.035 480.839C440.42 480.581 440.612 480.262 440.612 479.882C440.612 479.561 440.488 479.296 440.24 479.086C439.996 478.877 439.617 478.717 439.101 478.605L437.188 478.203C436.112 477.979 435.316 477.602 434.8 477.071C434.284 476.536 434.029 475.859 434.033 475.042C434.029 474.35 434.216 473.752 434.596 473.245C434.98 472.734 435.513 472.34 436.195 472.063C436.881 471.78 437.672 471.639 438.568 471.639C439.882 471.639 440.916 471.919 441.671 472.479C442.43 473.038 442.9 473.795 443.08 474.749ZM448.143 476.429V483H445.5V468.047H448.085V473.691H448.216C448.479 473.058 448.886 472.559 449.436 472.194C449.991 471.824 450.696 471.639 451.553 471.639C452.332 471.639 453.011 471.802 453.59 472.128C454.169 472.454 454.617 472.931 454.934 473.559C455.255 474.187 455.415 474.954 455.415 475.859V483H452.772V476.268C452.772 475.514 452.578 474.927 452.188 474.509C451.804 474.085 451.263 473.873 450.567 473.873C450.1 473.873 449.681 473.976 449.312 474.18C448.946 474.38 448.659 474.669 448.45 475.049C448.246 475.428 448.143 475.888 448.143 476.429ZM463.002 483.219C461.906 483.219 460.957 482.978 460.154 482.496C459.351 482.014 458.728 481.34 458.285 480.474C457.847 479.607 457.628 478.595 457.628 477.436C457.628 476.278 457.847 475.263 458.285 474.392C458.728 473.52 459.351 472.844 460.154 472.362C460.957 471.88 461.906 471.639 463.002 471.639C464.097 471.639 465.046 471.88 465.849 472.362C466.652 472.844 467.273 473.52 467.711 474.392C468.154 475.263 468.375 476.278 468.375 477.436C468.375 478.595 468.154 479.607 467.711 480.474C467.273 481.34 466.652 482.014 465.849 482.496C465.046 482.978 464.097 483.219 463.002 483.219ZM463.016 481.102C463.61 481.102 464.107 480.939 464.506 480.612C464.905 480.281 465.202 479.839 465.396 479.284C465.596 478.729 465.696 478.111 465.696 477.429C465.696 476.743 465.596 476.122 465.396 475.567C465.202 475.007 464.905 474.562 464.506 474.231C464.107 473.9 463.61 473.735 463.016 473.735C462.408 473.735 461.902 473.9 461.498 474.231C461.098 474.562 460.799 475.007 460.599 475.567C460.405 476.122 460.307 476.743 460.307 477.429C460.307 478.111 460.405 478.729 460.599 479.284C460.799 479.839 461.098 480.281 461.498 480.612C461.902 480.939 462.408 481.102 463.016 481.102ZM470.619 487.206V471.785H473.218V473.64H473.371C473.508 473.367 473.7 473.077 473.948 472.771C474.196 472.459 474.532 472.194 474.956 471.975C475.379 471.751 475.92 471.639 476.577 471.639C477.443 471.639 478.224 471.861 478.92 472.303C479.621 472.742 480.176 473.391 480.585 474.253C480.999 475.11 481.206 476.161 481.206 477.407C481.206 478.639 481.004 479.685 480.6 480.547C480.196 481.408 479.646 482.065 478.95 482.518C478.254 482.971 477.465 483.197 476.584 483.197C475.941 483.197 475.408 483.09 474.985 482.876C474.561 482.662 474.221 482.404 473.963 482.102C473.71 481.795 473.513 481.506 473.371 481.233H473.262V487.206H470.619ZM473.211 477.393C473.211 478.118 473.313 478.753 473.517 479.298C473.727 479.843 474.026 480.269 474.415 480.576C474.81 480.878 475.287 481.029 475.847 481.029C476.431 481.029 476.92 480.873 477.314 480.561C477.708 480.245 478.005 479.814 478.205 479.269C478.409 478.719 478.512 478.093 478.512 477.393C478.512 476.696 478.412 476.078 478.212 475.538C478.013 474.998 477.716 474.574 477.321 474.268C476.927 473.961 476.436 473.808 475.847 473.808C475.282 473.808 474.802 473.956 474.408 474.253C474.014 474.55 473.715 474.966 473.51 475.501C473.311 476.037 473.211 476.667 473.211 477.393ZM492.333 474.749L489.924 475.012C489.855 474.769 489.736 474.54 489.566 474.326C489.4 474.112 489.176 473.939 488.894 473.808C488.612 473.676 488.266 473.61 487.857 473.61C487.307 473.61 486.845 473.73 486.47 473.968C486.1 474.207 485.918 474.516 485.922 474.895C485.918 475.222 486.037 475.487 486.28 475.691C486.528 475.896 486.937 476.064 487.507 476.195L489.42 476.604C490.481 476.833 491.269 477.195 491.785 477.692C492.306 478.188 492.569 478.838 492.574 479.641C492.569 480.347 492.362 480.97 491.953 481.511C491.549 482.046 490.987 482.465 490.267 482.766C489.546 483.068 488.719 483.219 487.784 483.219C486.412 483.219 485.307 482.932 484.469 482.357C483.632 481.778 483.133 480.973 482.973 479.941L485.55 479.692C485.667 480.199 485.915 480.581 486.295 480.839C486.674 481.097 487.169 481.226 487.777 481.226C488.405 481.226 488.909 481.097 489.288 480.839C489.673 480.581 489.865 480.262 489.865 479.882C489.865 479.561 489.741 479.296 489.493 479.086C489.249 478.877 488.87 478.717 488.354 478.605L486.441 478.203C485.365 477.979 484.569 477.602 484.053 477.071C483.537 476.536 483.282 475.859 483.287 475.042C483.282 474.35 483.469 473.752 483.849 473.245C484.233 472.734 484.766 472.34 485.448 472.063C486.134 471.78 486.925 471.639 487.821 471.639C489.135 471.639 490.169 471.919 490.924 472.479C491.683 473.038 492.153 473.795 492.333 474.749Z" fill="white"/>
<path d="M705.218 228H699.622V211.484H705.331C706.971 211.484 708.38 211.815 709.557 212.476C710.74 213.132 711.648 214.076 712.283 215.307C712.917 216.538 713.234 218.011 713.234 219.726C713.234 221.446 712.914 222.925 712.275 224.161C711.64 225.398 710.724 226.347 709.525 227.008C708.331 227.669 706.896 228 705.218 228ZM702.614 225.411H705.073C706.224 225.411 707.183 225.202 707.952 224.782C708.721 224.358 709.299 223.726 709.686 222.887C710.073 222.043 710.267 220.989 710.267 219.726C710.267 218.463 710.073 217.414 709.686 216.581C709.299 215.742 708.726 215.116 707.968 214.702C707.216 214.283 706.28 214.073 705.162 214.073H702.614V225.411ZM715.948 228V215.613H718.867V228H715.948ZM717.416 213.855C716.953 213.855 716.555 213.702 716.222 213.396C715.889 213.084 715.722 212.71 715.722 212.275C715.722 211.834 715.889 211.46 716.222 211.154C716.555 210.842 716.953 210.686 717.416 210.686C717.883 210.686 718.281 210.842 718.609 211.154C718.942 211.46 719.109 211.834 719.109 212.275C719.109 212.71 718.942 213.084 718.609 213.396C718.281 213.702 717.883 213.855 717.416 213.855ZM721.869 228V215.613H724.7V217.678H724.829C725.054 216.963 725.442 216.412 725.99 216.025C726.544 215.632 727.175 215.436 727.885 215.436C728.046 215.436 728.226 215.444 728.425 215.46C728.63 215.471 728.799 215.49 728.933 215.517V218.202C728.81 218.159 728.613 218.121 728.345 218.089C728.081 218.051 727.826 218.033 727.579 218.033C727.046 218.033 726.568 218.148 726.143 218.379C725.724 218.605 725.393 218.92 725.151 219.323C724.909 219.726 724.788 220.191 724.788 220.718V228H721.869ZM735.846 228.242C734.605 228.242 733.532 227.984 732.629 227.468C731.731 226.946 731.04 226.21 730.556 225.258C730.072 224.301 729.831 223.175 729.831 221.879C729.831 220.605 730.072 219.487 730.556 218.525C731.046 217.557 731.728 216.804 732.605 216.267C733.481 215.724 734.51 215.452 735.693 215.452C736.457 215.452 737.177 215.576 737.854 215.823C738.537 216.065 739.139 216.441 739.661 216.952C740.188 217.463 740.602 218.113 740.903 218.904C741.204 219.688 741.354 220.624 741.354 221.71V222.605H731.201V220.637H738.556C738.551 220.078 738.43 219.581 738.193 219.145C737.957 218.705 737.626 218.358 737.201 218.105C736.782 217.853 736.293 217.726 735.734 217.726C735.137 217.726 734.613 217.871 734.161 218.162C733.709 218.447 733.357 218.823 733.105 219.291C732.857 219.753 732.731 220.261 732.726 220.815V222.532C732.726 223.253 732.857 223.871 733.121 224.387C733.384 224.898 733.752 225.29 734.226 225.565C734.699 225.833 735.252 225.968 735.887 225.968C736.311 225.968 736.696 225.909 737.04 225.79C737.384 225.667 737.682 225.487 737.935 225.25C738.188 225.014 738.379 224.721 738.508 224.371L741.233 224.678C741.061 225.398 740.733 226.027 740.249 226.565C739.771 227.097 739.158 227.511 738.411 227.806C737.664 228.097 736.809 228.242 735.846 228.242ZM749.227 228.242C747.99 228.242 746.929 227.97 746.042 227.427C745.16 226.884 744.48 226.134 744.001 225.178C743.528 224.215 743.292 223.108 743.292 221.855C743.292 220.597 743.534 219.487 744.018 218.525C744.501 217.557 745.184 216.804 746.066 216.267C746.953 215.724 748.001 215.452 749.211 215.452C750.216 215.452 751.106 215.638 751.88 216.008C752.66 216.374 753.281 216.893 753.743 217.565C754.205 218.232 754.469 219.011 754.533 219.904H751.743C751.63 219.307 751.361 218.809 750.937 218.412C750.517 218.008 749.955 217.807 749.251 217.807C748.654 217.807 748.13 217.968 747.679 218.291C747.227 218.608 746.875 219.065 746.622 219.662C746.375 220.258 746.251 220.973 746.251 221.807C746.251 222.651 746.375 223.377 746.622 223.984C746.87 224.586 747.216 225.051 747.663 225.379C748.114 225.702 748.644 225.863 749.251 225.863C749.681 225.863 750.066 225.782 750.404 225.621C750.748 225.454 751.036 225.215 751.267 224.903C751.498 224.592 751.657 224.213 751.743 223.766H754.533C754.463 224.643 754.205 225.419 753.759 226.097C753.313 226.769 752.705 227.296 751.937 227.677C751.168 228.054 750.265 228.242 749.227 228.242ZM763.116 215.613V217.871H755.995V215.613H763.116ZM757.753 212.646H760.672V224.274C760.672 224.667 760.731 224.968 760.85 225.178C760.973 225.382 761.135 225.522 761.333 225.597C761.532 225.672 761.753 225.71 761.995 225.71C762.177 225.71 762.344 225.696 762.495 225.669C762.651 225.643 762.769 225.618 762.849 225.597L763.341 227.879C763.186 227.933 762.962 227.992 762.672 228.056C762.387 228.121 762.038 228.159 761.624 228.169C760.893 228.191 760.234 228.081 759.648 227.839C759.062 227.591 758.597 227.21 758.253 226.694C757.914 226.177 757.748 225.532 757.753 224.758V212.646ZM774.754 228.25C773.969 228.25 773.262 228.11 772.633 227.831C772.01 227.546 771.515 227.126 771.15 226.573C770.789 226.019 770.609 225.336 770.609 224.524C770.609 223.825 770.738 223.247 770.996 222.791C771.254 222.334 771.607 221.968 772.053 221.694C772.499 221.42 773.002 221.213 773.561 221.073C774.125 220.928 774.709 220.823 775.311 220.758C776.037 220.683 776.625 220.616 777.077 220.557C777.528 220.492 777.856 220.395 778.061 220.266C778.27 220.132 778.375 219.925 778.375 219.645V219.597C778.375 218.99 778.195 218.519 777.835 218.186C777.475 217.853 776.956 217.686 776.278 217.686C775.563 217.686 774.996 217.842 774.577 218.154C774.163 218.465 773.883 218.834 773.738 219.258L771.013 218.871C771.228 218.119 771.582 217.49 772.077 216.984C772.572 216.474 773.176 216.092 773.891 215.839C774.606 215.581 775.397 215.452 776.262 215.452C776.859 215.452 777.453 215.522 778.045 215.662C778.636 215.802 779.176 216.033 779.665 216.355C780.155 216.672 780.547 217.105 780.843 217.654C781.144 218.202 781.294 218.887 781.294 219.71V228H778.488V226.298H778.391C778.214 226.643 777.964 226.965 777.641 227.266C777.324 227.562 776.924 227.801 776.44 227.984C775.961 228.161 775.399 228.25 774.754 228.25ZM775.512 226.105C776.098 226.105 776.606 225.989 777.036 225.758C777.467 225.522 777.797 225.21 778.028 224.823C778.265 224.436 778.383 224.014 778.383 223.557V222.097C778.292 222.172 778.136 222.242 777.915 222.307C777.7 222.371 777.459 222.428 777.19 222.476C776.921 222.524 776.655 222.567 776.391 222.605C776.128 222.643 775.899 222.675 775.706 222.702C775.27 222.761 774.881 222.858 774.537 222.992C774.192 223.127 773.921 223.315 773.722 223.557C773.523 223.793 773.424 224.1 773.424 224.476C773.424 225.014 773.62 225.419 774.012 225.694C774.405 225.968 774.905 226.105 775.512 226.105ZM789.633 228.242C788.396 228.242 787.335 227.97 786.447 227.427C785.566 226.884 784.886 226.134 784.407 225.178C783.934 224.215 783.698 223.108 783.698 221.855C783.698 220.597 783.939 219.487 784.423 218.525C784.907 217.557 785.59 216.804 786.472 216.267C787.359 215.724 788.407 215.452 789.617 215.452C790.622 215.452 791.512 215.638 792.286 216.008C793.065 216.374 793.686 216.893 794.149 217.565C794.611 218.232 794.875 219.011 794.939 219.904H792.149C792.036 219.307 791.767 218.809 791.342 218.412C790.923 218.008 790.361 217.807 789.657 217.807C789.06 217.807 788.536 217.968 788.084 218.291C787.633 218.608 787.281 219.065 787.028 219.662C786.781 220.258 786.657 220.973 786.657 221.807C786.657 222.651 786.781 223.377 787.028 223.984C787.275 224.586 787.622 225.051 788.068 225.379C788.52 225.702 789.049 225.863 789.657 225.863C790.087 225.863 790.471 225.782 790.81 225.621C791.154 225.454 791.442 225.215 791.673 224.903C791.904 224.592 792.063 224.213 792.149 223.766H794.939C794.869 224.643 794.611 225.419 794.165 226.097C793.719 226.769 793.111 227.296 792.342 227.677C791.574 228.054 790.67 228.242 789.633 228.242ZM802.739 228.242C801.503 228.242 800.441 227.97 799.554 227.427C798.672 226.884 797.992 226.134 797.514 225.178C797.04 224.215 796.804 223.108 796.804 221.855C796.804 220.597 797.046 219.487 797.53 218.525C798.014 217.557 798.696 216.804 799.578 216.267C800.465 215.724 801.513 215.452 802.723 215.452C803.728 215.452 804.618 215.638 805.392 216.008C806.172 216.374 806.793 216.893 807.255 217.565C807.718 218.232 807.981 219.011 808.045 219.904H805.255C805.142 219.307 804.874 218.809 804.449 218.412C804.029 218.008 803.468 217.807 802.763 217.807C802.167 217.807 801.642 217.968 801.191 218.291C800.739 218.608 800.387 219.065 800.134 219.662C799.887 220.258 799.763 220.973 799.763 221.807C799.763 222.651 799.887 223.377 800.134 223.984C800.382 224.586 800.729 225.051 801.175 225.379C801.626 225.702 802.156 225.863 802.763 225.863C803.193 225.863 803.578 225.782 803.917 225.621C804.261 225.454 804.548 225.215 804.779 224.903C805.011 224.592 805.169 224.213 805.255 223.766H808.045C807.976 224.643 807.718 225.419 807.271 226.097C806.825 226.769 806.218 227.296 805.449 227.677C804.68 228.054 803.777 228.242 802.739 228.242ZM815.926 228.242C814.684 228.242 813.612 227.984 812.709 227.468C811.811 226.946 811.12 226.21 810.636 225.258C810.152 224.301 809.91 223.175 809.91 221.879C809.91 220.605 810.152 219.487 810.636 218.525C811.125 217.557 811.808 216.804 812.684 216.267C813.561 215.724 814.59 215.452 815.773 215.452C816.536 215.452 817.257 215.576 817.934 215.823C818.617 216.065 819.219 216.441 819.741 216.952C820.267 217.463 820.681 218.113 820.982 218.904C821.284 219.688 821.434 220.624 821.434 221.71V222.605H811.281V220.637H818.636C818.63 220.078 818.509 219.581 818.273 219.145C818.036 218.705 817.706 218.358 817.281 218.105C816.862 217.853 816.372 217.726 815.813 217.726C815.217 217.726 814.692 217.871 814.241 218.162C813.789 218.447 813.437 218.823 813.184 219.291C812.937 219.753 812.811 220.261 812.805 220.815V222.532C812.805 223.253 812.937 223.871 813.201 224.387C813.464 224.898 813.832 225.29 814.305 225.565C814.778 225.833 815.332 225.968 815.967 225.968C816.391 225.968 816.776 225.909 817.12 225.79C817.464 225.667 817.762 225.487 818.015 225.25C818.268 225.014 818.458 224.721 818.587 224.371L821.313 224.678C821.141 225.398 820.813 226.027 820.329 226.565C819.851 227.097 819.238 227.511 818.491 227.806C817.743 228.097 816.889 228.242 815.926 228.242ZM833.694 218.887L831.033 219.178C830.957 218.909 830.826 218.656 830.637 218.42C830.455 218.183 830.207 217.992 829.895 217.847C829.584 217.702 829.202 217.629 828.75 217.629C828.143 217.629 827.632 217.761 827.218 218.025C826.81 218.288 826.608 218.629 826.613 219.049C826.608 219.409 826.74 219.702 827.008 219.928C827.283 220.154 827.734 220.339 828.363 220.484L830.476 220.936C831.648 221.188 832.519 221.589 833.089 222.137C833.664 222.686 833.954 223.403 833.96 224.29C833.954 225.07 833.726 225.758 833.274 226.355C832.828 226.946 832.207 227.409 831.412 227.742C830.616 228.075 829.702 228.242 828.67 228.242C827.154 228.242 825.933 227.925 825.009 227.29C824.084 226.651 823.533 225.761 823.355 224.621L826.202 224.347C826.331 224.906 826.605 225.328 827.025 225.613C827.444 225.898 827.99 226.04 828.662 226.04C829.355 226.04 829.912 225.898 830.331 225.613C830.756 225.328 830.968 224.976 830.968 224.557C830.968 224.202 830.831 223.909 830.557 223.678C830.288 223.446 829.869 223.269 829.299 223.145L827.186 222.702C825.998 222.455 825.119 222.038 824.549 221.452C823.979 220.86 823.697 220.113 823.702 219.21C823.697 218.447 823.904 217.785 824.323 217.226C824.748 216.662 825.336 216.226 826.089 215.92C826.847 215.608 827.721 215.452 828.71 215.452C830.162 215.452 831.304 215.761 832.137 216.379C832.976 216.998 833.495 217.834 833.694 218.887ZM846.157 218.887L843.496 219.178C843.421 218.909 843.289 218.656 843.101 218.42C842.918 218.183 842.671 217.992 842.359 217.847C842.047 217.702 841.665 217.629 841.214 217.629C840.606 217.629 840.095 217.761 839.681 218.025C839.273 218.288 839.071 218.629 839.077 219.049C839.071 219.409 839.203 219.702 839.472 219.928C839.746 220.154 840.198 220.339 840.827 220.484L842.939 220.936C844.111 221.188 844.982 221.589 845.552 222.137C846.127 222.686 846.418 223.403 846.423 224.29C846.418 225.07 846.189 225.758 845.738 226.355C845.291 226.946 844.67 227.409 843.875 227.742C843.079 228.075 842.165 228.242 841.133 228.242C839.617 228.242 838.397 227.925 837.472 227.29C836.547 226.651 835.996 225.761 835.819 224.621L838.665 224.347C838.794 224.906 839.069 225.328 839.488 225.613C839.907 225.898 840.453 226.04 841.125 226.04C841.818 226.04 842.375 225.898 842.794 225.613C843.219 225.328 843.431 224.976 843.431 224.557C843.431 224.202 843.294 223.909 843.02 223.678C842.751 223.446 842.332 223.269 841.762 223.145L839.649 222.702C838.461 222.455 837.582 222.038 837.012 221.452C836.442 220.86 836.16 220.113 836.165 219.21C836.16 218.447 836.367 217.785 836.786 217.226C837.211 216.662 837.8 216.226 838.552 215.92C839.31 215.608 840.184 215.452 841.173 215.452C842.625 215.452 843.767 215.761 844.601 216.379C845.439 216.998 845.958 217.834 846.157 218.887ZM860.648 215.613V217.871H853.528V215.613H860.648ZM855.286 212.646H858.205V224.274C858.205 224.667 858.264 224.968 858.382 225.178C858.506 225.382 858.667 225.522 858.866 225.597C859.065 225.672 859.286 225.71 859.527 225.71C859.71 225.71 859.877 225.696 860.027 225.669C860.183 225.643 860.302 225.618 860.382 225.597L860.874 227.879C860.718 227.933 860.495 227.992 860.205 228.056C859.92 228.121 859.57 228.159 859.157 228.169C858.425 228.191 857.767 228.081 857.181 227.839C856.595 227.591 856.13 227.21 855.786 226.694C855.447 226.177 855.28 225.532 855.286 224.758V212.646ZM868.36 228.242C867.15 228.242 866.102 227.976 865.215 227.444C864.328 226.911 863.64 226.167 863.15 225.21C862.666 224.253 862.425 223.135 862.425 221.855C862.425 220.576 862.666 219.455 863.15 218.492C863.64 217.53 864.328 216.783 865.215 216.25C866.102 215.718 867.15 215.452 868.36 215.452C869.569 215.452 870.618 215.718 871.505 216.25C872.392 216.783 873.077 217.53 873.561 218.492C874.05 219.455 874.295 220.576 874.295 221.855C874.295 223.135 874.05 224.253 873.561 225.21C873.077 226.167 872.392 226.911 871.505 227.444C870.618 227.976 869.569 228.242 868.36 228.242ZM868.376 225.903C869.032 225.903 869.58 225.723 870.021 225.363C870.462 224.997 870.79 224.508 871.005 223.895C871.225 223.282 871.336 222.6 871.336 221.847C871.336 221.089 871.225 220.403 871.005 219.791C870.79 219.172 870.462 218.68 870.021 218.315C869.58 217.949 869.032 217.766 868.376 217.766C867.704 217.766 867.145 217.949 866.699 218.315C866.258 218.68 865.927 219.172 865.707 219.791C865.492 220.403 865.384 221.089 865.384 221.847C865.384 222.6 865.492 223.282 865.707 223.895C865.927 224.508 866.258 224.997 866.699 225.363C867.145 225.723 867.704 225.903 868.376 225.903ZM716.347 260V247.613H719.266V260H716.347ZM717.815 245.855C717.352 245.855 716.955 245.702 716.621 245.396C716.288 245.084 716.121 244.71 716.121 244.275C716.121 243.834 716.288 243.46 716.621 243.154C716.955 242.842 717.352 242.686 717.815 242.686C718.283 242.686 718.68 242.842 719.008 243.154C719.342 243.46 719.508 243.834 719.508 244.275C719.508 244.71 719.342 245.084 719.008 245.396C718.68 245.702 718.283 245.855 717.815 245.855ZM725.188 252.742V260H722.268V247.613H725.059V249.718H725.204C725.489 249.025 725.943 248.474 726.567 248.065C727.196 247.656 727.972 247.452 728.897 247.452C729.752 247.452 730.496 247.635 731.131 248C731.771 248.366 732.265 248.896 732.615 249.589C732.97 250.283 733.144 251.124 733.139 252.113V260H730.22V252.565C730.22 251.737 730.005 251.089 729.574 250.621C729.15 250.154 728.561 249.92 727.808 249.92C727.298 249.92 726.843 250.033 726.446 250.258C726.053 250.479 725.744 250.799 725.518 251.218C725.298 251.637 725.188 252.145 725.188 252.742ZM740.703 260.218C739.73 260.218 738.859 259.968 738.09 259.468C737.322 258.968 736.714 258.242 736.268 257.29C735.822 256.339 735.598 255.183 735.598 253.823C735.598 252.447 735.824 251.285 736.276 250.339C736.733 249.387 737.348 248.67 738.123 248.186C738.897 247.697 739.76 247.452 740.711 247.452C741.437 247.452 742.034 247.576 742.501 247.823C742.969 248.065 743.34 248.358 743.614 248.702C743.888 249.041 744.101 249.361 744.251 249.662H744.372V243.484H747.3V260H744.429V258.048H744.251C744.101 258.35 743.883 258.669 743.598 259.008C743.313 259.341 742.937 259.626 742.469 259.863C742.001 260.099 741.413 260.218 740.703 260.218ZM741.518 257.823C742.136 257.823 742.663 257.656 743.098 257.323C743.534 256.984 743.864 256.514 744.09 255.911C744.316 255.309 744.429 254.608 744.429 253.807C744.429 253.006 744.316 252.309 744.09 251.718C743.87 251.127 743.542 250.667 743.106 250.339C742.676 250.011 742.147 249.847 741.518 249.847C740.867 249.847 740.324 250.016 739.889 250.355C739.453 250.694 739.125 251.162 738.905 251.758C738.684 252.355 738.574 253.038 738.574 253.807C738.574 254.581 738.684 255.272 738.905 255.879C739.131 256.481 739.461 256.957 739.897 257.307C740.338 257.651 740.878 257.823 741.518 257.823ZM758.305 254.791V247.613H761.225V260H758.394V257.798H758.265C757.985 258.492 757.526 259.059 756.886 259.5C756.252 259.941 755.469 260.161 754.539 260.161C753.728 260.161 753.01 259.981 752.386 259.621C751.768 259.255 751.284 258.726 750.935 258.032C750.585 257.333 750.41 256.489 750.41 255.5V247.613H753.33V255.049C753.33 255.833 753.545 256.457 753.975 256.919C754.405 257.382 754.969 257.613 755.668 257.613C756.098 257.613 756.515 257.508 756.918 257.298C757.321 257.089 757.652 256.777 757.91 256.363C758.174 255.944 758.305 255.42 758.305 254.791ZM774.016 250.887L771.355 251.178C771.28 250.909 771.148 250.656 770.96 250.42C770.777 250.183 770.53 249.992 770.218 249.847C769.906 249.702 769.525 249.629 769.073 249.629C768.466 249.629 767.955 249.761 767.541 250.025C767.132 250.288 766.931 250.629 766.936 251.049C766.931 251.409 767.062 251.702 767.331 251.928C767.605 252.154 768.057 252.339 768.686 252.484L770.799 252.936C771.971 253.188 772.842 253.589 773.412 254.137C773.987 254.686 774.277 255.403 774.283 256.29C774.277 257.07 774.049 257.758 773.597 258.355C773.151 258.946 772.53 259.409 771.734 259.742C770.939 260.075 770.025 260.242 768.992 260.242C767.476 260.242 766.256 259.925 765.331 259.29C764.407 258.651 763.856 257.761 763.678 256.621L766.525 256.347C766.654 256.906 766.928 257.328 767.347 257.613C767.767 257.898 768.312 258.04 768.984 258.04C769.678 258.04 770.234 257.898 770.654 257.613C771.078 257.328 771.291 256.976 771.291 256.557C771.291 256.202 771.154 255.909 770.879 255.678C770.611 255.446 770.191 255.269 769.621 255.145L767.509 254.702C766.32 254.455 765.441 254.038 764.872 253.452C764.302 252.86 764.019 252.113 764.025 251.21C764.019 250.447 764.226 249.785 764.646 249.226C765.071 248.662 765.659 248.226 766.412 247.92C767.17 247.608 768.044 247.452 769.033 247.452C770.484 247.452 771.627 247.761 772.46 248.379C773.299 248.998 773.818 249.834 774.016 250.887ZM782.875 247.613V249.871H775.754V247.613H782.875ZM777.512 244.646H780.432V256.274C780.432 256.667 780.491 256.968 780.609 257.178C780.733 257.382 780.894 257.522 781.093 257.597C781.292 257.672 781.512 257.71 781.754 257.71C781.937 257.71 782.104 257.696 782.254 257.669C782.41 257.643 782.528 257.618 782.609 257.597L783.101 259.879C782.945 259.933 782.722 259.992 782.431 260.056C782.147 260.121 781.797 260.159 781.383 260.169C780.652 260.191 779.993 260.081 779.407 259.839C778.821 259.591 778.356 259.21 778.012 258.694C777.674 258.177 777.507 257.532 777.512 256.758V244.646ZM785.316 260V247.613H788.147V249.678H788.276C788.502 248.963 788.889 248.412 789.437 248.025C789.991 247.632 790.623 247.436 791.332 247.436C791.494 247.436 791.674 247.444 791.873 247.46C792.077 247.471 792.246 247.49 792.381 247.517V250.202C792.257 250.159 792.061 250.121 791.792 250.089C791.529 250.051 791.273 250.033 791.026 250.033C790.494 250.033 790.015 250.148 789.59 250.379C789.171 250.605 788.84 250.92 788.599 251.323C788.357 251.726 788.236 252.191 788.236 252.718V260H785.316ZM796.512 264.645C796.114 264.645 795.745 264.613 795.407 264.548C795.073 264.489 794.807 264.419 794.608 264.339L795.286 262.064C795.711 262.188 796.09 262.247 796.423 262.242C796.756 262.236 797.049 262.132 797.302 261.927C797.56 261.728 797.778 261.395 797.955 260.927L798.205 260.258L793.713 247.613H796.81L799.665 256.968H799.794L802.657 247.613H805.761L800.802 261.5C800.571 262.156 800.264 262.718 799.882 263.185C799.501 263.658 799.033 264.019 798.479 264.266C797.931 264.519 797.275 264.645 796.512 264.645ZM813.414 247.613H816.333V260.71C816.333 261.602 816.164 262.339 815.825 262.919C815.487 263.5 814.997 263.933 814.358 264.218C813.718 264.503 812.941 264.645 812.027 264.645C811.92 264.645 811.82 264.642 811.729 264.637C811.637 264.637 811.538 264.634 811.43 264.629V262.25C811.511 262.255 811.584 262.258 811.648 262.258C811.713 262.263 811.78 262.266 811.85 262.266C812.409 262.266 812.809 262.129 813.051 261.855C813.293 261.586 813.414 261.191 813.414 260.669V247.613ZM814.866 245.855C814.398 245.855 813.998 245.702 813.664 245.396C813.336 245.084 813.172 244.71 813.172 244.275C813.172 243.834 813.336 243.46 813.664 243.154C813.998 242.842 814.398 242.686 814.866 242.686C815.328 242.686 815.723 242.842 816.051 243.154C816.385 243.46 816.551 243.834 816.551 244.275C816.551 244.71 816.385 245.084 816.051 245.396C815.723 245.702 815.328 245.855 814.866 245.855ZM824.738 260.242C823.529 260.242 822.48 259.976 821.593 259.444C820.706 258.911 820.018 258.167 819.529 257.21C819.045 256.253 818.803 255.135 818.803 253.855C818.803 252.576 819.045 251.455 819.529 250.492C820.018 249.53 820.706 248.783 821.593 248.25C822.48 247.718 823.529 247.452 824.738 247.452C825.948 247.452 826.996 247.718 827.883 248.25C828.771 248.783 829.456 249.53 829.94 250.492C830.429 251.455 830.674 252.576 830.674 253.855C830.674 255.135 830.429 256.253 829.94 257.21C829.456 258.167 828.771 258.911 827.883 259.444C826.996 259.976 825.948 260.242 824.738 260.242ZM824.755 257.903C825.41 257.903 825.959 257.723 826.4 257.363C826.84 256.997 827.168 256.508 827.383 255.895C827.604 255.282 827.714 254.6 827.714 253.847C827.714 253.089 827.604 252.403 827.383 251.791C827.168 251.172 826.84 250.68 826.4 250.315C825.959 249.949 825.41 249.766 824.755 249.766C824.083 249.766 823.523 249.949 823.077 250.315C822.636 250.68 822.306 251.172 822.085 251.791C821.87 252.403 821.763 253.089 821.763 253.847C821.763 254.6 821.87 255.282 822.085 255.895C822.306 256.508 822.636 256.997 823.077 257.363C823.523 257.723 824.083 257.903 824.755 257.903ZM833.28 260V243.484H836.2V249.662H836.321C836.471 249.361 836.684 249.041 836.958 248.702C837.232 248.358 837.603 248.065 838.071 247.823C838.538 247.576 839.135 247.452 839.861 247.452C840.818 247.452 841.681 247.697 842.449 248.186C843.224 248.67 843.837 249.387 844.288 250.339C844.745 251.285 844.974 252.447 844.974 253.823C844.974 255.183 844.75 256.339 844.304 257.29C843.858 258.242 843.251 258.968 842.482 259.468C841.713 259.968 840.842 260.218 839.869 260.218C839.159 260.218 838.571 260.099 838.103 259.863C837.635 259.626 837.259 259.341 836.974 259.008C836.694 258.669 836.477 258.35 836.321 258.048H836.151V260H833.28ZM836.143 253.807C836.143 254.608 836.256 255.309 836.482 255.911C836.713 256.514 837.044 256.984 837.474 257.323C837.909 257.656 838.436 257.823 839.054 257.823C839.7 257.823 840.24 257.651 840.675 257.307C841.111 256.957 841.439 256.481 841.659 255.879C841.885 255.272 841.998 254.581 841.998 253.807C841.998 253.038 841.888 252.355 841.667 251.758C841.447 251.162 841.119 250.694 840.683 250.355C840.248 250.016 839.705 249.847 839.054 249.847C838.431 249.847 837.901 250.011 837.466 250.339C837.03 250.667 836.7 251.127 836.474 251.718C836.253 252.309 836.143 253.006 836.143 253.807ZM857.245 250.887L854.584 251.178C854.509 250.909 854.377 250.656 854.189 250.42C854.006 250.183 853.759 249.992 853.447 249.847C853.135 249.702 852.754 249.629 852.302 249.629C851.694 249.629 851.184 249.761 850.77 250.025C850.361 250.288 850.16 250.629 850.165 251.049C850.16 251.409 850.291 251.702 850.56 251.928C850.834 252.154 851.286 252.339 851.915 252.484L854.028 252.936C855.2 253.188 856.071 253.589 856.64 254.137C857.216 254.686 857.506 255.403 857.511 256.29C857.506 257.07 857.278 257.758 856.826 258.355C856.38 258.946 855.759 259.409 854.963 259.742C854.167 260.075 853.253 260.242 852.221 260.242C850.705 260.242 849.485 259.925 848.56 259.29C847.635 258.651 847.084 257.761 846.907 256.621L849.754 256.347C849.883 256.906 850.157 257.328 850.576 257.613C850.996 257.898 851.541 258.04 852.213 258.04C852.907 258.04 853.463 257.898 853.883 257.613C854.307 257.328 854.52 256.976 854.52 256.557C854.52 256.202 854.382 255.909 854.108 255.678C853.839 255.446 853.42 255.269 852.85 255.145L850.737 254.702C849.549 254.455 848.67 254.038 848.1 253.452C847.531 252.86 847.248 252.113 847.254 251.21C847.248 250.447 847.455 249.785 847.875 249.226C848.299 248.662 848.888 248.226 849.641 247.92C850.399 247.608 851.272 247.452 852.262 247.452C853.713 247.452 854.856 247.761 855.689 248.379C856.528 248.998 857.046 249.834 857.245 250.887Z" fill="white"/>
<path d="M864.74 58L860.319 70.8101L851.48 74.5799L860.319 78.348L864.74 89.6506L869.161 78.3463L878 74.5782L869.161 70.8118L864.74 58ZM835.16 67.9949L833.12 74.6582L827 76.324L833.12 77.9898L835.16 84.6531L837.2 77.9898L843.32 76.324L837.2 74.6582L835.16 67.9949Z" fill="white"/>
<path d="M37.74 136L33.3193 148.81L24.48 152.58L33.3193 156.348L37.74 167.651L42.1607 156.346L51 152.578L42.1607 148.812L37.74 136ZM8.16 145.995L6.12 152.658L0 154.324L6.12 155.99L8.16 162.653L10.2 155.99L16.32 154.324L10.2 152.658L8.16 145.995Z" fill="#AC6CFF"/>
<path d="M74.38 99L71.1728 107.229L64.76 109.651L71.1728 112.071L74.38 119.332L77.5872 112.07L84 109.65L77.5872 107.23L74.38 99ZM52.92 105.421L51.44 109.701L47 110.771L51.44 111.841L52.92 116.122L54.4 111.841L58.84 110.771L54.4 109.701L52.92 105.421Z" fill="#AC6CFF"/>
<path d="M915.258 122.162L919.034 112.801L926.545 110.056L919.047 107.289L915.314 99.0183L911.541 107.278L904.03 110.022L911.528 112.788L915.258 122.162ZM940.389 114.893L942.132 110.024L947.331 108.814L942.138 107.588L940.418 102.712L938.674 107.582L933.476 108.792L938.668 110.018L940.389 114.893Z" fill="white"/>
<defs>
<clipPath id="clip0_37_61">
<rect width="195.851" height="71.319" fill="white" transform="matrix(-0.647302 -0.762234 -0.762234 0.647302 332.627 465.152)"/>
</clipPath>
<clipPath id="clip1_37_61">
<rect width="235.367" height="88.1484" fill="white" transform="matrix(-0.898554 0.438862 0.438862 0.898554 745.537 329)"/>
</clipPath>
</defs>
</svg>
