<svg width="71" height="66" viewBox="0 0 71 66" fill="none" xmlns="http://www.w3.org/2000/svg">
<path d="M39.1937 15.0629C39.6151 15.4165 41.4547 16.9697 43.2659 18.5041C51.8203 25.6957 59.762 35.9696 64.5867 46.1184C66.2979 49.7168 66.8007 50.5652 66.6319 49.4612C66.4806 48.5159 67.3364 45.1912 67.8574 44.8396C68.1121 44.6416 68.6737 44.5373 69.1168 44.6115C69.7983 44.6971 69.9636 44.8805 70.1671 46.1176C71.0147 51.0153 70.6464 64.471 69.6478 64.6154C69.3754 64.6548 69.0584 64.8848 68.8891 65.1396C68.7197 65.3944 68.3851 65.4658 68.1574 65.3145C67.9298 65.1631 67.6628 65.1326 67.5612 65.2855C67.4766 65.4129 67.2496 65.4457 67.0504 65.3133C66.8797 65.1998 66.3458 65.1388 65.9088 65.179C65.1541 65.2651 64.875 65.006 61.0391 61.024C58.8105 58.698 55.386 55.3934 53.4379 53.6946C50.2879 50.903 46.1843 46.7064 46.0115 46.0405C45.8847 45.5522 47.1704 44.7906 48.5152 44.6192C50.7224 44.3232 52.4637 45.4071 58.7747 50.8505C59.4753 51.4631 60.0729 51.8603 60.1406 51.7584C60.1914 51.6819 59.4181 49.8824 58.3711 47.754C56.2593 43.3385 51.0502 35.0645 47.9697 31.1805C46.8116 29.7129 46.075 28.5989 46.3027 28.7502C46.6042 28.9139 46.6265 28.8185 46.3297 28.4009C45.7361 27.5656 44.9224 27.0614 45.4591 27.8589C45.8074 28.3843 45.7905 28.4097 45.2491 27.8663C44.8845 27.5505 44.48 27.1714 44.3377 27.0769C44.167 26.9634 44.337 26.8928 44.6493 26.9167C45.0978 26.9209 45.0294 26.8387 44.3756 26.5878C43.7672 26.3303 43.4196 25.9891 43.3212 25.5197C43.0853 24.7018 42.5555 24.2027 42.5806 24.8438C42.5759 25.0978 42.4282 25.0731 42.1376 24.7697C41.3393 23.8719 38.9637 21.7052 36.5319 19.6849C34.174 17.6769 23.9971 10.7659 22.8887 10.3965C22.5817 10.3027 20.9265 9.45969 19.2482 8.52788C15.2264 6.36897 11.9397 4.95582 8.109 3.80554C4.07372 2.59272 2.4606 2.36537 1.83808 2.86988C1.3402 3.31031 0.197206 2.80774 0.188971 2.14111C0.186142 1.40462 1.51114 0.522197 3.22986 0.158576C5.30017 -0.301937 10.2364 0.481252 14.6362 2.00982C20.2468 3.93905 28.1014 7.80061 33.5191 11.2546C36.1995 12.9626 38.7438 14.6904 39.1937 15.0629ZM42.0533 19.0939C41.9517 19.2468 45.3356 22.3039 45.5794 22.2456C45.6702 22.2325 45.1911 21.657 44.4221 20.9622C42.844 19.5093 42.1549 18.9411 42.0533 19.0939ZM47.0336 23.9468C52.6997 29.99 58.4182 37.868 61.7579 44.2015C63.2332 46.9819 63.5131 47.4251 63.1173 46.3539C62.0098 43.267 56.8006 34.993 52.8643 29.9893C50.9019 27.5096 47.1168 23.4511 46.2916 22.9026C45.9616 22.72 46.3153 23.1755 47.0336 23.9468ZM48.3728 31.1913C48.5158 31.47 48.9264 31.9633 49.2571 32.33C49.77 32.8546 49.7754 32.7847 49.2672 32.0061C48.6106 31.0187 47.8984 30.3618 48.3728 31.1913ZM50.1245 33.4942C50.2675 33.7729 50.4958 34.1083 50.6666 34.2218C50.8088 34.3164 50.8366 34.1512 50.6936 33.8725C50.5506 33.5938 50.2938 33.2394 50.1515 33.1449C49.9808 33.0314 49.9815 33.2155 50.1245 33.4942ZM51.2087 34.9494C51.3517 35.2281 51.58 35.5636 51.7508 35.677C51.8931 35.7716 51.9208 35.6064 51.7778 35.3277C51.6348 35.049 51.378 34.6947 51.2357 34.6001C51.065 34.4866 51.0657 34.6707 51.2087 34.9494ZM54.7663 40.3994C56.0688 42.5139 57.8009 45.6487 58.642 47.3463C59.4945 49.0884 60.2149 50.412 60.2657 50.3356C60.5705 49.877 53.585 37.3002 52.7197 36.6884C52.549 36.5749 53.4808 38.2594 54.7663 40.3994ZM56.5991 41.6543C56.5653 41.7053 56.7828 42.1804 57.1142 42.7313C57.8738 43.9341 58.0662 43.7681 57.3235 42.5398C56.7292 41.5204 56.7177 41.476 56.5991 41.6543ZM58.1544 44.5613C58.5556 45.5626 59.11 46.5187 59.2116 46.3659C59.2962 46.2385 58.1977 44.0024 57.9985 43.87C57.8962 43.8387 57.9768 44.1494 58.1544 44.5613ZM60.3979 50.754C60.364 50.8049 60.4562 51.1601 60.5938 51.5086C60.829 52.1424 60.8744 52.1359 60.7754 51.4824C60.6763 50.8289 60.5334 50.5502 60.3979 50.754Z" fill="#A33DFF"/>
</svg>
