<svg width="68" height="64" viewBox="0 0 68 64" fill="none" xmlns="http://www.w3.org/2000/svg">
<path d="M37.9186 13.8846C38.3232 14.2227 40.0887 15.7083 41.8269 17.1761C50.0375 24.0536 57.6022 34.0135 62.1347 43.9474C63.7424 47.4695 64.2181 48.2968 64.0716 47.205C63.9396 46.2703 64.8262 42.9393 65.3389 42.5734C65.59 42.3686 66.1383 42.2473 66.5684 42.307C67.2304 42.3707 67.3884 42.5477 67.5665 43.7707C68.3126 48.6113 67.7372 61.9953 66.7629 62.1702C66.4972 62.2179 66.1849 62.4565 66.016 62.7151C65.8471 62.9736 65.5202 63.0551 65.301 62.9119C65.0819 62.7687 64.8225 62.7468 64.7212 62.9019C64.6367 63.0312 64.4153 63.0709 64.2235 62.9456C64.0592 62.8382 63.5405 62.7944 63.1145 62.8481C62.3785 62.9574 62.111 62.7088 58.4415 58.8724C56.3097 56.631 53.0297 53.4548 51.1609 51.8279C48.1397 49.1529 44.2132 45.1116 44.0556 44.4553C43.9401 43.9741 45.2039 43.1767 46.5156 42.964C48.6687 42.6002 50.3462 43.6225 56.4013 48.8333C57.0734 49.42 57.6486 49.7959 57.7162 49.6925C57.7669 49.6149 57.0432 47.8509 56.0583 45.7687C54.074 41.4471 49.1369 33.3885 46.2011 29.6257C45.0976 28.2037 44.3985 27.1198 44.6177 27.263C44.9085 27.4162 44.9318 27.3207 44.6497 26.915C44.0853 26.1036 43.3014 25.6282 43.8109 26.4038C44.1415 26.915 44.1246 26.9408 43.6064 26.4177C43.2567 26.1154 42.869 25.7515 42.732 25.662C42.5677 25.5546 42.7343 25.479 43.0379 25.493C43.4744 25.483 43.4091 25.4035 42.7768 25.1747C42.1887 24.9381 41.8559 24.6099 41.7677 24.1465C41.5513 23.3411 41.0436 22.8618 41.0578 23.4982C41.0491 23.7507 40.9057 23.7308 40.6277 23.4385C39.8652 22.5713 37.5878 20.493 35.2533 18.5618C32.9905 16.6406 23.1961 10.0931 22.1232 9.76095C21.826 9.67741 20.2284 8.89177 18.6099 8.01862C14.7299 5.99984 11.5535 4.69902 7.84347 3.67659C3.93524 2.59846 2.36875 2.42335 1.75468 2.94435C1.26296 3.39774 0.158525 2.93431 0.161251 2.27207C0.170362 1.54022 1.47429 0.621521 3.15307 0.20599C5.17565 -0.316911 9.96779 0.305868 14.2258 1.6863C19.6557 3.42677 27.2389 7.01686 32.4567 10.2787C35.0381 11.8917 37.4867 13.5285 37.9186 13.8846ZM40.6371 17.8005C40.5358 17.9556 43.7802 20.8872 44.0185 20.8216C44.1071 20.8056 43.6501 20.2488 42.9127 19.5825C41.4001 18.1883 40.7385 17.6454 40.6371 17.8005ZM45.4065 22.4663C50.8243 28.2936 56.2635 35.9425 59.4122 42.1315C60.8034 44.8482 61.0687 45.2798 60.7007 44.2277C59.6724 41.1949 54.7354 33.1363 50.9845 28.2876C49.1144 25.8851 45.4956 21.9711 44.7011 21.452C44.3829 21.281 44.7198 21.7225 45.4065 22.4663ZM46.5933 29.6237C46.728 29.8962 47.1198 30.3735 47.4357 30.7275C47.9265 31.2327 47.9329 31.1631 47.4508 30.4053C46.8275 29.4448 46.145 28.8143 46.5933 29.6237ZM48.2612 31.8572C48.3959 32.1296 48.6128 32.4558 48.7771 32.5632C48.9141 32.6527 48.9438 32.4876 48.8091 32.2152C48.6744 31.9427 48.4301 31.5986 48.2932 31.5091C48.1288 31.4017 48.1265 31.5847 48.2612 31.8572ZM49.2931 33.2692C49.4278 33.5417 49.6447 33.8678 49.809 33.9752C49.946 34.0647 49.9757 33.8997 49.841 33.6272C49.7063 33.3547 49.462 33.0107 49.325 32.9212C49.1607 32.8138 49.1584 32.9967 49.2931 33.2692ZM52.6682 38.5733C53.9018 40.6337 55.5373 43.6944 56.3286 45.355C57.1304 47.0594 57.8102 48.3521 57.8609 48.2745C58.165 47.8092 51.5682 35.5305 50.7359 34.9497C50.5715 34.8423 51.4514 36.4871 52.6682 38.5733ZM54.4319 39.7627C54.3981 39.8144 54.6022 40.2797 54.9159 40.8167C55.6359 41.9881 55.8258 41.8171 55.1227 40.6198C54.5606 39.6254 54.5501 39.5817 54.4319 39.7627ZM55.8989 42.6026C56.2733 43.5851 56.7975 44.5178 56.8988 44.3627C56.9833 44.2334 55.95 42.0458 55.7583 41.9205C55.6592 41.8926 55.7327 42.1989 55.8989 42.6026ZM57.9828 48.6862C57.949 48.7379 58.0331 49.0879 58.1614 49.43C58.3801 50.0525 58.4244 50.0445 58.3385 49.3982C58.2527 48.7519 58.118 48.4794 57.9828 48.6862Z" fill="#A33DFF"/>
</svg>
