<svg width="83" height="64" viewBox="0 0 83 64" fill="none" xmlns="http://www.w3.org/2000/svg">
<path d="M63.3228 40.3366C62.8811 40.6812 60.9409 42.1819 59.0245 43.6574C50.0408 50.6478 37.2794 55.7443 24.7243 57.327C20.2729 57.8889 19.2216 58.1349 20.5813 58.3695C21.7457 58.5628 25.8174 60.8286 26.2407 61.5601C26.4798 61.9278 26.5984 62.61 26.4998 63.0877C26.383 63.8334 26.1548 63.9513 24.6309 63.7046C18.5971 62.7763 2.06561 57.1436 1.90508 55.9465C1.8613 55.62 1.58391 55.1686 1.27366 54.8764C0.96341 54.5842 0.881305 54.1741 1.07113 53.9726C1.26095 53.771 1.30295 53.4778 1.1168 53.3024C0.961674 53.1564 0.925189 52.8843 1.09129 52.7079C1.23365 52.5567 1.31765 51.9703 1.2757 51.4554C1.18268 50.5595 1.50573 50.3408 6.46474 47.4995C9.36129 45.8536 13.4807 43.22 15.6016 41.6518C19.0859 39.1332 24.3132 36.0691 25.1345 36.1295C25.7368 36.1738 26.651 37.9381 26.8389 39.5413C27.1655 42.1783 25.8038 43.7484 19.0068 48.8522C18.242 49.4156 17.7438 49.9447 17.8679 50.0616C17.9609 50.1492 20.1858 49.9625 22.8194 49.5903C28.282 48.8873 38.5393 46.139 43.365 44.123C45.1883 43.368 46.57 42.9577 46.3802 43.1593C46.1739 43.4404 46.2907 43.5029 46.809 43.3255C47.8457 42.9706 48.4791 42.236 47.4899 42.5404C46.8383 42.735 46.8073 42.7058 47.4844 42.2976C47.8786 42.0033 48.3514 41.6878 48.47 41.5618C48.6124 41.4107 48.6963 41.6323 48.6616 41.98C48.6488 42.4909 48.751 42.4445 49.0704 41.7945C49.3972 41.1989 49.8224 40.9339 50.401 41.0033C51.4103 41.0506 52.0327 40.6383 51.2442 40.4188C50.9322 40.315 50.965 40.1558 51.3428 39.9411C52.4598 39.3767 55.1629 37.501 57.6872 35.5045C60.195 33.5876 68.8612 24.6342 69.334 23.5106C69.4544 23.1962 70.5186 21.6311 71.6922 20.0741C74.4137 16.3141 76.2061 13.1054 77.6847 9.17329C79.2436 5.03154 79.5504 3.27612 78.9408 2.36929C78.408 1.62973 79.045 0.518179 79.8644 0.76697C80.7697 1.049 81.8318 2.905 82.2496 5.00998C82.7806 7.55429 81.7344 12.8921 79.7813 17.3281C77.3152 22.9926 72.4362 30.4732 68.0994 35.3268C65.9548 37.7283 63.7882 39.9667 63.3228 40.3366ZM58.3201 42.0432C58.1339 41.8679 54.3193 44.5508 54.3868 44.8521C54.4014 44.961 55.1169 44.6364 55.9838 44.0266C57.7962 42.7859 58.5062 42.2185 58.3201 42.0432ZM52.2714 45.855C44.7481 49.9895 34.9689 53.4733 27.1282 54.8367C23.686 55.4458 23.1366 55.594 24.4598 55.5566C28.2725 55.4865 38.5298 52.7383 44.7462 50.178C47.8271 48.8958 52.8792 46.1422 53.5673 45.4115C53.7973 45.1051 53.2315 45.3329 52.2714 45.855ZM43.3449 44.5795C43 44.635 42.3867 44.9132 41.9304 45.149C41.277 45.532 41.3628 45.5653 42.3283 45.286C43.5529 44.918 44.3725 44.3587 43.3449 44.5795ZM40.4849 45.6893C40.1399 45.7448 39.7238 45.8758 39.5814 46.027C39.4628 46.153 39.6654 46.2487 40.0103 46.1932C40.3553 46.1377 40.7951 45.9815 40.9138 45.8555C41.0561 45.7044 40.8298 45.6338 40.4849 45.6893ZM38.678 46.3647C38.333 46.4202 37.9169 46.5512 37.7745 46.7024C37.6559 46.8284 37.8585 46.9241 38.2034 46.8686C38.5484 46.8131 38.9882 46.6569 39.1069 46.5309C39.2492 46.3797 39.0229 46.3092 38.678 46.3647ZM31.9195 48.3195C29.2986 48.9889 25.4165 49.7542 23.3158 50.0578C21.1603 50.3574 19.5214 50.668 19.6144 50.7556C20.1729 51.2816 35.7486 48.1698 36.5152 47.418C36.6575 47.2668 34.5714 47.6792 31.9195 48.3195ZM30.3461 49.9279C30.2841 49.8695 29.6964 49.9341 29.0138 50.0994C27.5227 50.5017 27.7234 50.7858 29.2456 50.4128C30.5086 50.1284 30.5633 50.1325 30.3461 49.9279ZM26.747 50.5794C25.5096 50.6501 24.325 50.9132 24.5112 51.0885C24.6663 51.2346 27.4332 50.8453 27.5993 50.6689C27.6395 50.5641 27.2562 50.536 26.747 50.5794ZM19.0979 50.7446C19.0359 50.6862 18.5979 50.654 18.1671 50.6762C17.3842 50.6995 17.3915 50.7539 18.1963 50.8939C19.0012 51.0338 19.3461 50.9784 19.0979 50.7446Z" fill="#A33DFF"/>
</svg>
