<svg width="151" height="151" viewBox="0 0 151 151" fill="none" xmlns="http://www.w3.org/2000/svg">
<circle cx="75.5" cy="75.5" r="75.2843" fill="#C89DFF" stroke="black" stroke-width="0.431429"/>
<circle cx="75.5004" cy="76.7944" r="64.2829" fill="white" fill-opacity="0.94" stroke="black" stroke-width="0.862857"/>
<path d="M50.2054 37.0093H49.5216V37.0812L49.6655 40.2002H48.0581L48.202 37.2852L48.0581 31.923H50.6612C51.4289 31.923 52.0407 32.1309 52.4966 32.5468C52.9524 32.9626 53.1804 33.5144 53.1804 34.2022C53.1804 34.722 53.0444 35.1979 52.7725 35.6297C52.5086 36.0536 52.1487 36.3895 51.6929 36.6374L53.7802 39.5884L52.3286 40.3322L50.4573 36.9973C50.4013 37.0053 50.3173 37.0093 50.2054 37.0093ZM50.2294 33.1346H49.6415L49.5576 35.8457H50.3733C50.7732 35.8457 51.0811 35.7137 51.297 35.4498C51.5209 35.1859 51.6329 34.81 51.6329 34.3222C51.6329 33.5304 51.165 33.1346 50.2294 33.1346ZM57.1403 38.9766C57.3722 38.9766 57.6161 38.9166 57.872 38.7967C58.1279 38.6767 58.3279 38.5567 58.4718 38.4368L58.6877 38.2568L59.2395 38.9286C59.1596 39.0646 59.0356 39.2205 58.8677 39.3965C58.6997 39.5724 58.5278 39.7244 58.3518 39.8523C58.1839 39.9723 57.956 40.0842 57.6681 40.1882C57.3882 40.2842 57.0963 40.3322 56.7924 40.3322C56.1446 40.3322 55.6168 40.0882 55.2089 39.6004C54.801 39.1046 54.5971 38.4688 54.5971 37.693C54.5971 36.7174 54.881 35.8617 55.4488 35.1259C56.0166 34.3901 56.6804 34.0223 57.4402 34.0223C58.024 34.0223 58.4758 34.1862 58.7957 34.5141C59.1236 34.842 59.2875 35.3018 59.2875 35.8936C59.2875 36.2455 59.2276 36.6454 59.1076 37.0932L58.8677 37.3452L55.8687 37.6211C56.0046 38.5248 56.4285 38.9766 57.1403 38.9766ZM57.1403 35.2579C56.7884 35.2579 56.4925 35.4018 56.2525 35.6897C56.0126 35.9696 55.8727 36.3295 55.8327 36.7693L57.872 36.5174C57.896 36.3335 57.908 36.1815 57.908 36.0616C57.908 35.5258 57.6521 35.2579 57.1403 35.2579ZM61.7742 40.2002C61.3023 40.2002 60.9145 40.0522 60.6106 39.7563C60.3147 39.4524 60.1667 39.0486 60.1667 38.5448C60.1667 38.0329 60.3986 37.5931 60.8625 37.2252C61.3263 36.8493 61.8901 36.6614 62.5539 36.6614H63.3696V36.4575C63.3696 36.0656 63.2897 35.7977 63.1297 35.6537C62.9698 35.5098 62.6699 35.4378 62.23 35.4378C62.0461 35.4378 61.8262 35.4778 61.5702 35.5578C61.3223 35.6297 61.0424 35.7457 60.7305 35.9056L60.3826 34.958C60.7265 34.718 61.1424 34.5021 61.6302 34.3102C62.126 34.1182 62.5339 34.0223 62.8538 34.0223C64.1094 34.0223 64.7372 34.6301 64.7372 35.8457V38.1969C64.7372 38.6447 64.8771 39.1445 65.157 39.6964L63.8855 40.2362C63.6855 39.8523 63.5376 39.5084 63.4416 39.2045C63.0018 39.8683 62.4459 40.2002 61.7742 40.2002ZM62.278 38.9766C62.5979 38.9766 62.9618 38.8127 63.3696 38.4848V37.681C62.9458 37.5851 62.6019 37.5371 62.338 37.5371C61.8341 37.5371 61.5822 37.761 61.5822 38.2089C61.5822 38.4408 61.6462 38.6287 61.7742 38.7727C61.9021 38.9086 62.0701 38.9766 62.278 38.9766ZM68.0811 30.9153L67.9251 37.0812L68.0571 39.9003L66.4376 40.2002L66.5816 37.2852L66.4376 31.2152L68.0811 30.9153ZM69.2678 37.873L69.1718 36.7813L72.0029 36.2775L72.0989 37.3691L69.2678 37.873ZM80.1785 38.7007H80.3105L80.8743 36.6374L82.0259 31.851L83.3815 32.0669L82.0739 36.8293L81.2702 40.1042L79.0749 40.2602L78.3911 37.0572L77.9833 35.4738L77.6234 36.8293L76.8197 40.1042L74.6604 40.2602L73.9406 37.0572L72.693 32.1509L74.2525 31.851L75.2242 36.4814L75.764 38.7007H75.896L76.5317 36.4814L77.4075 33.2425L77.1315 32.1509L78.715 31.851L79.6627 36.4814L80.1785 38.7007ZM84.1588 37.693C84.1588 36.6694 84.4348 35.8017 84.9866 35.0899C85.5384 34.3781 86.1822 34.0223 86.9179 34.0223C87.6617 34.0223 88.2375 34.2622 88.6453 34.742C89.0612 35.2219 89.2691 35.8577 89.2691 36.6494C89.2691 37.705 89.0012 38.5847 88.4654 39.2885C87.9376 39.9843 87.2698 40.3322 86.4621 40.3322C85.7983 40.3322 85.2465 40.0842 84.8066 39.5884C84.3748 39.0846 84.1588 38.4528 84.1588 37.693ZM87.9256 37.2732C87.9256 36.1136 87.5297 35.5338 86.738 35.5338C85.9143 35.5338 85.5024 36.0776 85.5024 37.1652C85.5024 37.733 85.6184 38.1769 85.8503 38.4968C86.0822 38.8167 86.3861 38.9766 86.762 38.9766C87.1458 38.9766 87.4337 38.8327 87.6257 38.5448C87.8256 38.2488 87.9256 37.825 87.9256 37.2732ZM90.4138 34.4061L91.8653 34.0942C91.9373 34.71 91.9853 35.2938 92.0093 35.8457C92.737 34.718 93.4208 34.1542 94.0606 34.1542L93.9286 36.0256C93.4648 36.0256 93.0969 36.0696 92.825 36.1576C92.5611 36.2375 92.2892 36.4015 92.0093 36.6494V37.0812L92.1412 39.9003L90.5338 40.2002L90.6777 37.2852C90.6457 36.2135 90.5578 35.2539 90.4138 34.4061ZM96.705 30.9153L96.5491 37.0812L96.6811 39.9003L95.0616 40.2002L95.2055 37.2852L95.0616 31.2152L96.705 30.9153ZM101.503 39.0246C100.879 39.8083 100.339 40.2002 99.8831 40.2002C99.3153 40.2002 98.8475 39.9683 98.4796 39.5044C98.1197 39.0406 97.9398 38.4448 97.9398 37.717C97.9398 36.7174 98.2157 35.8736 98.7675 35.1859C99.3273 34.4981 100.011 34.1542 100.819 34.1542L101.491 34.2502V34.0223L101.347 31.2152L102.99 30.9153L102.834 37.0812V38.1369C102.834 38.6167 102.954 39.1685 103.194 39.7923L101.898 40.3322C101.667 39.8523 101.535 39.4165 101.503 39.0246ZM99.2833 37.0932C99.2833 37.6051 99.3753 38.0049 99.5592 38.2928C99.7512 38.5807 100.023 38.7247 100.375 38.7247C100.735 38.7247 101.107 38.5807 101.491 38.2928V35.7017C101.011 35.6057 100.655 35.5578 100.423 35.5578C100.063 35.5578 99.7832 35.6857 99.5832 35.9416C99.3833 36.1975 99.2833 36.5814 99.2833 37.0932ZM29.9156 53.2002L30.0595 50.2852L29.9156 44.923H34.4141L34.2821 46.2065H31.583L31.511 48.3298H33.9102L33.7783 49.6014H31.4631L31.4511 50.0812L31.535 51.9286H34.4381L34.3061 53.2002H29.9156ZM39.3347 53.3202L37.9071 51.1969L36.4316 53.3202L35.244 52.6604L37.1274 50.2252L35.34 48.0179L36.6716 47.1062L37.9791 49.1336L39.3946 47.0822L40.5583 47.802L38.7709 50.1292L40.6662 52.4085L39.3347 53.3202ZM44.9087 47.1422C45.4205 47.1422 45.8484 47.3662 46.1922 47.814C46.5441 48.2619 46.7201 48.8656 46.7201 49.6254C46.7201 50.689 46.4442 51.5527 45.8923 52.2165C45.3485 52.8723 44.6687 53.2002 43.853 53.2002C43.6851 53.2002 43.4971 53.1882 43.2892 53.1642L43.3492 55.4554L41.7057 55.7553L41.8617 50.2852H41.8737C41.8417 49.2135 41.7537 48.2539 41.6098 47.4061L43.0613 47.0942C43.1093 47.5181 43.1493 47.938 43.1812 48.3538C43.1972 48.3138 43.2772 48.2059 43.4212 48.0299C43.5731 47.846 43.793 47.6541 44.0809 47.4541C44.3689 47.2462 44.6448 47.1422 44.9087 47.1422ZM44.4408 48.7017C44.017 48.7017 43.6051 48.8177 43.2052 49.0496V50.0812L43.2532 51.7967C43.6851 51.8686 44.013 51.9046 44.2369 51.9046C45.0046 51.9046 45.3885 51.3728 45.3885 50.3092C45.3885 49.2375 45.0726 48.7017 44.4408 48.7017ZM47.5955 50.693C47.5955 49.6694 47.8714 48.8017 48.4232 48.0899C48.975 47.3781 49.6188 47.0223 50.3546 47.0223C51.0983 47.0223 51.6741 47.2622 52.082 47.742C52.4978 48.2219 52.7058 48.8577 52.7058 49.6494C52.7058 50.705 52.4379 51.5847 51.902 52.2885C51.3742 52.9843 50.7064 53.3322 49.8987 53.3322C49.2349 53.3322 48.6831 53.0842 48.2433 52.5884C47.8114 52.0846 47.5955 51.4528 47.5955 50.693ZM51.3622 50.2732C51.3622 49.1136 50.9664 48.5338 50.1746 48.5338C49.3509 48.5338 48.939 49.0776 48.939 50.1652C48.939 50.733 49.055 51.1769 49.2869 51.4968C49.5188 51.8167 49.8227 51.9766 50.1986 51.9766C50.5825 51.9766 50.8704 51.8327 51.0623 51.5448C51.2623 51.2488 51.3622 50.825 51.3622 50.2732ZM55.7938 52.0846C56.2097 52.0846 56.4176 51.9006 56.4176 51.5328C56.4176 51.4048 56.3256 51.2848 56.1417 51.1729C55.9657 51.0609 55.7458 50.949 55.4819 50.837C55.226 50.725 54.9661 50.6011 54.7022 50.4651C54.4463 50.3212 54.2263 50.1252 54.0424 49.8773C53.8664 49.6294 53.7785 49.3455 53.7785 49.0256C53.7785 48.4898 54.0144 48.0219 54.4862 47.6221C54.9581 47.2222 55.5019 47.0223 56.1177 47.0223C56.4056 47.0223 56.6855 47.0583 56.9574 47.1302C57.2373 47.1942 57.5052 47.2982 57.7611 47.4421L56.9574 48.9056C56.9014 48.8577 56.8295 48.7977 56.7415 48.7257C56.6535 48.6537 56.4856 48.5618 56.2377 48.4498C55.9977 48.3298 55.7818 48.2698 55.5899 48.2698C55.4059 48.2698 55.262 48.3138 55.158 48.4018C55.062 48.4818 55.0141 48.5977 55.0141 48.7497C55.0141 48.8936 55.15 49.0416 55.4219 49.1935C55.7018 49.3375 56.0057 49.4734 56.3336 49.6014C56.6615 49.7214 56.9614 49.9253 57.2333 50.2132C57.5132 50.4931 57.6532 50.829 57.6532 51.2209C57.6532 51.7807 57.4213 52.2725 56.9574 52.6964C56.5016 53.1202 55.9737 53.3322 55.3739 53.3322C54.9901 53.3322 54.6302 53.2482 54.2943 53.0802C53.9664 52.9123 53.7305 52.7443 53.5865 52.5764L53.3706 52.3245L54.3183 51.2209C54.3663 51.2848 54.4343 51.3648 54.5222 51.4608C54.6102 51.5567 54.7821 51.6847 55.0381 51.8446C55.302 52.0046 55.5539 52.0846 55.7938 52.0846ZM60.3829 53.2002C59.9511 53.2002 59.5992 53.0602 59.3273 52.7803C59.0634 52.4924 58.9314 52.1166 58.9314 51.6527L59.0034 50.2732L58.8714 47.3941L60.4789 47.0942L60.3229 50.741C60.3229 51.0849 60.3829 51.3368 60.5029 51.4968C60.6308 51.6567 60.8308 51.7367 61.1027 51.7367C61.3746 51.7367 61.7505 51.6007 62.2303 51.3288V50.6091L62.0983 47.4541L63.7178 47.1542L63.5738 50.1532L63.5858 51.1369C63.5858 51.6487 63.7178 52.1645 63.9817 52.6844L62.7341 53.2362C62.4702 52.7164 62.3103 52.3005 62.2543 51.9886C61.5345 52.7963 60.9107 53.2002 60.3829 53.2002ZM65.1665 47.4061L66.618 47.0942C66.69 47.71 66.738 48.2938 66.762 48.8457C67.4897 47.718 68.1735 47.1542 68.8133 47.1542L68.6813 49.0256C68.2175 49.0256 67.8496 49.0696 67.5777 49.1576C67.3138 49.2375 67.0419 49.4015 66.762 49.6494V50.0812L66.8939 52.9003L65.2865 53.2002L65.4304 50.2852C65.3984 49.2135 65.3105 48.2539 65.1665 47.4061ZM71.9736 51.9766C72.2055 51.9766 72.4494 51.9166 72.7053 51.7967C72.9612 51.6767 73.1612 51.5567 73.3051 51.4368L73.521 51.2568L74.0729 51.9286C73.9929 52.0646 73.8689 52.2205 73.701 52.3965C73.533 52.5724 73.3611 52.7244 73.1852 52.8523C73.0172 52.9723 72.7893 53.0842 72.5014 53.1882C72.2215 53.2842 71.9296 53.3322 71.6257 53.3322C70.9779 53.3322 70.4501 53.0882 70.0422 52.6004C69.6343 52.1046 69.4304 51.4688 69.4304 50.693C69.4304 49.7174 69.7143 48.8617 70.2821 48.1259C70.8499 47.3901 71.5137 47.0223 72.2735 47.0223C72.8573 47.0223 73.3091 47.1862 73.629 47.5141C73.9569 47.842 74.1208 48.3018 74.1208 48.8936C74.1208 49.2455 74.0609 49.6454 73.9409 50.0932L73.701 50.3452L70.702 50.6211C70.8379 51.5248 71.2618 51.9766 71.9736 51.9766ZM71.9736 48.2579C71.6217 48.2579 71.3258 48.4018 71.0859 48.6897C70.8459 48.9696 70.706 49.3295 70.666 49.7693L72.7053 49.5174C72.7293 49.3335 72.7413 49.1815 72.7413 49.0616C72.7413 48.5258 72.4854 48.2579 71.9736 48.2579ZM75.072 52.3965C75.072 52.1406 75.164 51.9166 75.3479 51.7247C75.5398 51.5248 75.7678 51.4248 76.0317 51.4248C76.5515 51.4248 76.8114 51.6887 76.8114 52.2165C76.8114 52.5204 76.7154 52.7723 76.5235 52.9723C76.3396 53.1722 76.1196 53.2722 75.8637 53.2722C75.6158 53.2722 75.4199 53.1922 75.2759 53.0323C75.14 52.8643 75.072 52.6524 75.072 52.3965ZM75.072 49.2415C75.072 48.9856 75.164 48.7617 75.3479 48.5697C75.5398 48.3698 75.7678 48.2698 76.0317 48.2698C76.5515 48.2698 76.8114 48.5338 76.8114 49.0616C76.8114 49.3655 76.7154 49.6174 76.5235 49.8173C76.3396 50.0173 76.1196 50.1172 75.8637 50.1172C75.6158 50.1172 75.4199 50.0373 75.2759 49.8773C75.14 49.7094 75.072 49.4974 75.072 49.2415Z" fill="#7C16FF"/>
<path d="M87.1924 51.7007H87.3244L87.8882 49.6374L89.0398 44.851L90.3953 45.0669L89.0878 49.8293L88.2841 53.1042L86.0888 53.2602L85.405 50.0572L84.9972 48.4738L84.6373 49.8293L83.8336 53.1042L81.6743 53.2602L80.9545 50.0572L79.7069 45.1509L81.2664 44.851L82.2381 49.4814L82.7779 51.7007H82.9099L83.5456 49.4814L84.4214 46.2425L84.1454 45.1509L85.7289 44.851L86.6766 49.4814L87.1924 51.7007ZM91.1727 50.693C91.1727 49.6694 91.4486 48.8017 92.0005 48.0899C92.5523 47.3781 93.1961 47.0223 93.9318 47.0223C94.6756 47.0223 95.2514 47.2622 95.6592 47.742C96.0751 48.2219 96.283 48.8577 96.283 49.6494C96.283 50.705 96.0151 51.5847 95.4793 52.2885C94.9515 52.9843 94.2837 53.3322 93.476 53.3322C92.8122 53.3322 92.2604 53.0842 91.8205 52.5884C91.3887 52.0846 91.1727 51.4528 91.1727 50.693ZM94.9395 50.2732C94.9395 49.1136 94.5436 48.5338 93.7519 48.5338C92.9282 48.5338 92.5163 49.0776 92.5163 50.1652C92.5163 50.733 92.6323 51.1769 92.8642 51.4968C93.0961 51.8167 93.4 51.9766 93.7759 51.9766C94.1597 51.9766 94.4476 51.8327 94.6396 51.5448C94.8395 51.2488 94.9395 50.825 94.9395 50.2732ZM97.4277 47.4061L98.8792 47.0942C98.9512 47.71 98.9992 48.2938 99.0232 48.8457C99.7509 47.718 100.435 47.1542 101.074 47.1542L100.943 49.0256C100.479 49.0256 100.111 49.0696 99.8389 49.1576C99.575 49.2375 99.3031 49.4015 99.0232 49.6494V50.0812L99.1551 52.9003L97.5477 53.2002L97.6916 50.2852C97.6596 49.2135 97.5717 48.2539 97.4277 47.4061ZM105.818 53.3202L103.563 49.9973V50.0812L103.695 52.9003L102.075 53.2002L102.219 50.2852L102.075 44.2152L103.719 43.9153L103.563 49.7094L105.962 47.0822L107.09 47.85L104.991 49.8173L107.186 52.4085L105.818 53.3202ZM109.834 50.693C109.834 49.6694 110.109 48.8017 110.661 48.0899C111.213 47.3781 111.857 47.0223 112.593 47.0223C113.336 47.0223 113.912 47.2622 114.32 47.742C114.736 48.2219 114.944 48.8577 114.944 49.6494C114.944 50.705 114.676 51.5847 114.14 52.2885C113.612 52.9843 112.944 53.3322 112.137 53.3322C111.473 53.3322 110.921 53.0842 110.481 52.5884C110.049 52.0846 109.834 51.4528 109.834 50.693ZM113.6 50.2732C113.6 49.1136 113.204 48.5338 112.413 48.5338C111.589 48.5338 111.177 49.0776 111.177 50.1652C111.177 50.733 111.293 51.1769 111.525 51.4968C111.757 51.8167 112.061 51.9766 112.437 51.9766C112.821 51.9766 113.108 51.8327 113.3 51.5448C113.5 51.2488 113.6 50.825 113.6 50.2732ZM119.699 50.1652C119.699 49.6134 119.651 49.2455 119.555 49.0616C119.459 48.8776 119.235 48.7857 118.884 48.7857C118.532 48.7857 118.132 48.9256 117.684 49.2055V50.0812L117.816 52.9003L116.208 53.2002L116.352 50.2852C116.32 49.2135 116.232 48.2539 116.088 47.4061L117.54 47.0942C117.596 47.5581 117.636 48.0099 117.66 48.4498C117.78 48.2898 117.916 48.1339 118.068 47.9819C118.22 47.822 118.46 47.6461 118.788 47.4541C119.115 47.2542 119.459 47.1542 119.819 47.1542C120.187 47.1542 120.495 47.2982 120.743 47.5861C120.991 47.866 121.115 48.2499 121.115 48.7377L121.043 50.0812L121.175 52.9603L119.555 53.2602L119.699 50.1652ZM46.5914 56.9153L46.4354 63.0812L46.5674 65.9003L44.9479 66.2002L45.0919 63.2852L44.9479 57.2152L46.5914 56.9153ZM49.8295 60.0942L49.6855 63.0812L49.8175 65.9003L48.21 66.2002L48.3539 63.2852L48.222 60.3941L49.8295 60.0942ZM48.138 58.3428C48.138 58.0709 48.242 57.831 48.4499 57.6231C48.6578 57.4071 48.8978 57.2992 49.1697 57.2992C49.4416 57.2992 49.6495 57.3752 49.7935 57.5271C49.9374 57.6711 50.0094 57.891 50.0094 58.1869C50.0094 58.4828 49.9054 58.7387 49.6975 58.9546C49.4976 59.1626 49.2616 59.2665 48.9897 59.2665C48.7258 59.2665 48.5179 59.1786 48.3659 59.0026C48.214 58.8267 48.138 58.6067 48.138 58.3428ZM53.4299 64.7007H53.5859L53.9817 63.0572L54.6295 60.0942L56.117 60.2742L55.2173 63.2492L54.4616 66.0562L52.4103 66.2362L51.7025 63.3212L50.8388 60.4061L52.4703 60.1062L52.9861 62.7454L53.4299 64.7007ZM59.3075 64.9766C59.5394 64.9766 59.7833 64.9166 60.0392 64.7967C60.2952 64.6767 60.4951 64.5567 60.639 64.4368L60.855 64.2568L61.4068 64.9286C61.3268 65.0646 61.2029 65.2205 61.0349 65.3965C60.867 65.5724 60.695 65.7244 60.5191 65.8523C60.3511 65.9723 60.1232 66.0842 59.8353 66.1882C59.5554 66.2842 59.2635 66.3322 58.9596 66.3322C58.3118 66.3322 57.784 66.0882 57.3761 65.6004C56.9683 65.1046 56.7643 64.4688 56.7643 63.693C56.7643 62.7174 57.0483 61.8617 57.6161 61.1259C58.1839 60.3901 58.8476 60.0223 59.6074 60.0223C60.1912 60.0223 60.643 60.1862 60.9629 60.5141C61.2908 60.842 61.4548 61.3018 61.4548 61.8936C61.4548 62.2455 61.3948 62.6454 61.2748 63.0932L61.0349 63.3452L58.0359 63.6211C58.1719 64.5248 58.5957 64.9766 59.3075 64.9766ZM59.3075 61.2579C58.9556 61.2579 58.6597 61.4018 58.4198 61.6897C58.1799 61.9696 58.0399 62.3295 57.9999 62.7693L60.0392 62.5174C60.0632 62.3335 60.0752 62.1815 60.0752 62.0616C60.0752 61.5258 59.8193 61.2579 59.3075 61.2579ZM68.0356 60.1422C68.5474 60.1422 68.9753 60.3662 69.3192 60.814C69.671 61.2619 69.847 61.8656 69.847 62.6254C69.847 63.689 69.5711 64.5527 69.0193 65.2165C68.4755 65.8723 67.7957 66.2002 66.98 66.2002C66.812 66.2002 66.6241 66.1882 66.4161 66.1642L66.4761 68.4554L64.8327 68.7553L64.9886 63.2852H65.0006C64.9686 62.2135 64.8807 61.2539 64.7367 60.4061L66.1882 60.0942C66.2362 60.5181 66.2762 60.938 66.3082 61.3538C66.3242 61.3138 66.4041 61.2059 66.5481 61.0299C66.7 60.846 66.92 60.6541 67.2079 60.4541C67.4958 60.2462 67.7717 60.1422 68.0356 60.1422ZM67.5678 61.7017C67.1439 61.7017 66.732 61.8177 66.3322 62.0496V63.0812L66.3802 64.7967C66.812 64.8686 67.1399 64.9046 67.3638 64.9046C68.1316 64.9046 68.5154 64.3728 68.5154 63.3092C68.5154 62.2375 68.1995 61.7017 67.5678 61.7017ZM70.9503 60.4061L72.4019 60.0942C72.4738 60.71 72.5218 61.2938 72.5458 61.8457C73.2736 60.718 73.9573 60.1542 74.5971 60.1542L74.4652 62.0256C74.0013 62.0256 73.6334 62.0696 73.3615 62.1576C73.0976 62.2375 72.8257 62.4015 72.5458 62.6494V63.0812L72.6778 65.9003L71.0703 66.2002L71.2143 63.2852C71.1823 62.2135 71.0943 61.2539 70.9503 60.4061ZM75.2382 63.693C75.2382 62.6694 75.5142 61.8017 76.066 61.0899C76.6178 60.3781 77.2616 60.0223 77.9973 60.0223C78.7411 60.0223 79.3169 60.2622 79.7247 60.742C80.1406 61.2219 80.3485 61.8577 80.3485 62.6494C80.3485 63.705 80.0806 64.5847 79.5448 65.2885C79.017 65.9843 78.3492 66.3322 77.5415 66.3322C76.8777 66.3322 76.3259 66.0842 75.886 65.5884C75.4542 65.0846 75.2382 64.4528 75.2382 63.693ZM79.005 63.2732C79.005 62.1136 78.6091 61.5338 77.8174 61.5338C76.9937 61.5338 76.5818 62.0776 76.5818 63.1652C76.5818 63.733 76.6978 64.1769 76.9297 64.4968C77.1616 64.8167 77.4655 64.9766 77.8414 64.9766C78.2252 64.9766 78.5131 64.8327 78.7051 64.5448C78.905 64.2488 79.005 63.825 79.005 63.2732ZM80.9654 68.8393C80.6375 68.8393 80.3096 68.8033 79.9817 68.7313L80.3536 67.3638C80.6255 67.4358 80.8774 67.4718 81.1093 67.4718C81.3493 67.4718 81.5212 67.3838 81.6252 67.2079C81.7291 67.0319 81.7811 66.716 81.7811 66.2602L81.7691 63.2852L81.6372 60.3941L83.2446 60.0942L83.1007 63.0812L83.2326 65.7923C83.2326 66.6241 83.0087 67.3398 82.5609 67.9396C82.113 68.5394 81.5812 68.8393 80.9654 68.8393ZM81.5532 58.3548C81.5532 58.0749 81.6572 57.831 81.8651 57.6231C82.073 57.4071 82.3129 57.2992 82.5848 57.2992C82.8647 57.2992 83.0727 57.3752 83.2086 57.5271C83.3526 57.6711 83.4246 57.891 83.4246 58.1869C83.4246 58.4748 83.3246 58.7267 83.1247 58.9426C82.9247 59.1586 82.6888 59.2665 82.4169 59.2665C82.153 59.2665 81.9411 59.1825 81.7811 59.0146C81.6292 58.8467 81.5532 58.6267 81.5532 58.3548ZM86.9882 64.9766C87.2201 64.9766 87.464 64.9166 87.72 64.7967C87.9759 64.6767 88.1758 64.5567 88.3198 64.4368L88.5357 64.2568L89.0875 64.9286C89.0075 65.0646 88.8836 65.2205 88.7156 65.3965C88.5477 65.5724 88.3757 65.7244 88.1998 65.8523C88.0319 65.9723 87.8039 66.0842 87.516 66.1882C87.2361 66.2842 86.9442 66.3322 86.6403 66.3322C85.9925 66.3322 85.4647 66.0882 85.0569 65.6004C84.649 65.1046 84.4451 64.4688 84.4451 63.693C84.4451 62.7174 84.729 61.8617 85.2968 61.1259C85.8646 60.3901 86.5284 60.0223 87.2881 60.0223C87.8719 60.0223 88.3238 60.1862 88.6437 60.5141C88.9715 60.842 89.1355 61.3018 89.1355 61.8936C89.1355 62.2455 89.0755 62.6454 88.9555 63.0932L88.7156 63.3452L85.7166 63.6211C85.8526 64.5248 86.2764 64.9766 86.9882 64.9766ZM86.9882 61.2579C86.6363 61.2579 86.3404 61.4018 86.1005 61.6897C85.8606 61.9696 85.7206 62.3295 85.6806 62.7693L87.72 62.5174C87.744 62.3335 87.7559 62.1815 87.7559 62.0616C87.7559 61.5258 87.5 61.2579 86.9882 61.2579ZM92.4858 61.5817C92.134 61.5817 91.862 61.7097 91.6701 61.9656C91.4782 62.2135 91.3822 62.5974 91.3822 63.1172C91.3822 63.6371 91.4782 64.0569 91.6701 64.3768C91.87 64.6887 92.1579 64.8446 92.5338 64.8446C92.7258 64.8446 92.9137 64.7847 93.0976 64.6647C93.2816 64.5448 93.4215 64.4248 93.5175 64.3048L93.6494 64.1129L94.2492 64.7367C94.2253 64.7767 94.1933 64.8327 94.1533 64.9046C94.1213 64.9766 94.0333 65.1046 93.8894 65.2885C93.7534 65.4724 93.6055 65.6364 93.4455 65.7803C93.2936 65.9163 93.0936 66.0442 92.8457 66.1642C92.5978 66.2762 92.3379 66.3322 92.066 66.3322C91.4662 66.3322 90.9783 66.0882 90.6025 65.6004C90.2266 65.1126 90.0387 64.4768 90.0387 63.693C90.0387 62.7174 90.3226 61.8617 90.8904 61.1259C91.4582 60.3901 92.122 60.0223 92.8817 60.0223C93.1136 60.0223 93.3455 60.0583 93.5775 60.1302C93.8094 60.1942 94.0453 60.2982 94.2852 60.4421L93.4455 61.9176C93.1576 61.6937 92.8377 61.5817 92.4858 61.5817ZM95.7459 60.3941V59.0866L97.3654 58.7747L97.2094 60.3941H98.661L98.529 61.3778H97.1615L97.1015 63.885C97.1015 64.2608 97.1375 64.5128 97.2094 64.6407C97.2814 64.7607 97.4134 64.8207 97.6053 64.8207C97.7972 64.8207 98.0532 64.7767 98.373 64.6887L98.445 65.5404C97.9172 65.9803 97.4534 66.2002 97.0535 66.2002C96.6536 66.2002 96.3257 66.0562 96.0698 65.7683C95.8139 65.4724 95.686 65.0886 95.686 64.6167L95.7579 63.2732L95.7459 61.3778H94.9182L95.0502 60.3941H95.7459ZM101.594 65.0846C102.009 65.0846 102.217 64.9006 102.217 64.5328C102.217 64.4048 102.125 64.2848 101.941 64.1729C101.766 64.0609 101.546 63.949 101.282 63.837C101.026 63.725 100.766 63.6011 100.502 63.4651C100.246 63.3212 100.026 63.1252 99.8422 62.8773C99.6662 62.6294 99.5783 62.3455 99.5783 62.0256C99.5783 61.4898 99.8142 61.0219 100.286 60.6221C100.758 60.2222 101.302 60.0223 101.917 60.0223C102.205 60.0223 102.485 60.0583 102.757 60.1302C103.037 60.1942 103.305 60.2982 103.561 60.4421L102.757 61.9056C102.701 61.8577 102.629 61.7977 102.541 61.7257C102.453 61.6537 102.285 61.5618 102.037 61.4498C101.798 61.3298 101.582 61.2698 101.39 61.2698C101.206 61.2698 101.062 61.3138 100.958 61.4018C100.862 61.4818 100.814 61.5977 100.814 61.7497C100.814 61.8936 100.95 62.0416 101.222 62.1935C101.502 62.3375 101.806 62.4734 102.133 62.6014C102.461 62.7214 102.761 62.9253 103.033 63.2132C103.313 63.4931 103.453 63.829 103.453 64.2209C103.453 64.7807 103.221 65.2725 102.757 65.6964C102.301 66.1202 101.774 66.3322 101.174 66.3322C100.79 66.3322 100.43 66.2482 100.094 66.0802C99.7662 65.9123 99.5303 65.7443 99.3863 65.5764L99.1704 65.3245L100.118 64.2209C100.166 64.2848 100.234 64.3648 100.322 64.4608C100.41 64.5567 100.582 64.6847 100.838 64.8446C101.102 65.0046 101.354 65.0846 101.594 65.0846ZM106.027 65.3965C106.027 66.0762 105.531 66.796 104.539 67.5557L104.047 67.1959C104.519 66.644 104.755 66.1682 104.755 65.7683C104.755 65.5204 104.651 65.2045 104.443 64.8207L105.619 64.3528C105.891 64.6967 106.027 65.0446 106.027 65.3965ZM37.5869 74.5817C37.235 74.5817 36.9631 74.7097 36.7712 74.9656C36.5792 75.2135 36.4833 75.5974 36.4833 76.1172C36.4833 76.6371 36.5792 77.0569 36.7712 77.3768C36.9711 77.6887 37.259 77.8446 37.6349 77.8446C37.8268 77.8446 38.0148 77.7847 38.1987 77.6647C38.3826 77.5448 38.5226 77.4248 38.6186 77.3048L38.7505 77.1129L39.3503 77.7367C39.3263 77.7767 39.2943 77.8327 39.2543 77.9046C39.2224 77.9766 39.1344 78.1046 38.9904 78.2885C38.8545 78.4724 38.7065 78.6364 38.5466 78.7803C38.3946 78.9163 38.1947 79.0442 37.9468 79.1642C37.6989 79.2762 37.439 79.3322 37.167 79.3322C36.5672 79.3322 36.0794 79.0882 35.7035 78.6004C35.3277 78.1126 35.1397 77.4768 35.1397 76.693C35.1397 75.7174 35.4236 74.8617 35.9914 74.1259C36.5593 73.3901 37.223 73.0223 37.9828 73.0223C38.2147 73.0223 38.4466 73.0583 38.6785 73.1302C38.9105 73.1942 39.1464 73.2982 39.3863 73.4421L38.5466 74.9176C38.2587 74.6937 37.9388 74.5817 37.5869 74.5817ZM40.0193 76.693C40.0193 75.6694 40.2952 74.8017 40.847 74.0899C41.3988 73.3781 42.0426 73.0223 42.7784 73.0223C43.5221 73.0223 44.0979 73.2622 44.5058 73.742C44.9216 74.2219 45.1296 74.8577 45.1296 75.6494C45.1296 76.705 44.8617 77.5847 44.3258 78.2885C43.798 78.9843 43.1302 79.3322 42.3225 79.3322C41.6587 79.3322 41.1069 79.0842 40.6671 78.5884C40.2352 78.0846 40.0193 77.4528 40.0193 76.693ZM43.786 76.2732C43.786 75.1136 43.3901 74.5338 42.5984 74.5338C41.7747 74.5338 41.3628 75.0776 41.3628 76.1652C41.3628 76.733 41.4788 77.1769 41.7107 77.4968C41.9426 77.8167 42.2465 77.9766 42.6224 77.9766C43.0063 77.9766 43.2942 77.8327 43.4861 77.5448C43.686 77.2488 43.786 76.825 43.786 76.2732ZM48.0496 69.9153L47.8937 76.0812L48.0257 78.9003L46.4062 79.2002L46.5501 76.2852L46.4062 70.2152L48.0496 69.9153ZM51.3237 69.9153L51.1678 76.0812L51.2997 78.9003L49.6803 79.2002L49.8242 76.2852L49.6803 70.2152L51.3237 69.9153ZM54.1539 79.2002C53.6821 79.2002 53.2942 79.0522 52.9903 78.7563C52.6944 78.4524 52.5465 78.0486 52.5465 77.5448C52.5465 77.0329 52.7784 76.5931 53.2422 76.2252C53.7061 75.8493 54.2699 75.6614 54.9336 75.6614H55.7494V75.4575C55.7494 75.0656 55.6694 74.7977 55.5095 74.6537C55.3495 74.5098 55.0496 74.4378 54.6098 74.4378C54.4258 74.4378 54.2059 74.4778 53.95 74.5578C53.7021 74.6297 53.4222 74.7457 53.1103 74.9056L52.7624 73.958C53.1063 73.718 53.5221 73.5021 54.01 73.3102C54.5058 73.1182 54.9137 73.0223 55.2335 73.0223C56.4891 73.0223 57.1169 73.6301 57.1169 74.8457V77.1969C57.1169 77.6447 57.2569 78.1445 57.5368 78.6964L56.2652 79.2362C56.0653 78.8523 55.9173 78.5084 55.8214 78.2045C55.3815 78.8683 54.8257 79.2002 54.1539 79.2002ZM54.6577 77.9766C54.9776 77.9766 55.3415 77.8127 55.7494 77.4848V76.681C55.3255 76.5851 54.9816 76.5371 54.7177 76.5371C54.2139 76.5371 53.962 76.761 53.962 77.2089C53.962 77.4408 54.026 77.6287 54.1539 77.7727C54.2819 77.9086 54.4498 77.9766 54.6577 77.9766ZM61.9963 73.1422C62.5321 73.1422 62.968 73.3741 63.3038 73.838C63.6397 74.3018 63.8077 74.8976 63.8077 75.6254C63.8077 76.673 63.5318 77.5328 62.98 78.2045C62.4361 78.8683 61.7284 79.2002 60.8567 79.2002C60.4568 79.2002 59.785 79.1362 58.8413 79.0083L58.9613 76.2852L58.8173 70.2152L60.4608 69.9153L60.3048 73.0103V74.3058C60.3928 74.1779 60.5008 74.0419 60.6287 73.898C60.7567 73.754 60.9566 73.5941 61.2285 73.4181C61.5004 73.2342 61.7564 73.1422 61.9963 73.1422ZM61.5284 74.7017C61.1606 74.7017 60.7527 74.8137 60.3048 75.0376V76.0812L60.3768 77.8446C60.7127 77.8846 61.0286 77.9046 61.3245 77.9046C62.0923 77.9046 62.4761 77.3728 62.4761 76.3092C62.4761 75.2375 62.1602 74.7017 61.5284 74.7017ZM64.6837 76.693C64.6837 75.6694 64.9596 74.8017 65.5114 74.0899C66.0632 73.3781 66.707 73.0223 67.4427 73.0223C68.1865 73.0223 68.7623 73.2622 69.1702 73.742C69.586 74.2219 69.7939 74.8577 69.7939 75.6494C69.7939 76.705 69.526 77.5847 68.9902 78.2885C68.4624 78.9843 67.7946 79.3322 66.9869 79.3322C66.3231 79.3322 65.7713 79.0842 65.3314 78.5884C64.8996 78.0846 64.6837 77.4528 64.6837 76.693ZM68.4504 76.2732C68.4504 75.1136 68.0545 74.5338 67.2628 74.5338C66.4391 74.5338 66.0272 75.0776 66.0272 76.1652C66.0272 76.733 66.1432 77.1769 66.3751 77.4968C66.607 77.8167 66.9109 77.9766 67.2868 77.9766C67.6707 77.9766 67.9586 77.8327 68.1505 77.5448C68.3504 77.2488 68.4504 76.825 68.4504 76.2732ZM70.9386 73.4061L72.3901 73.0942C72.4621 73.71 72.5101 74.2938 72.5341 74.8457C73.2618 73.718 73.9456 73.1542 74.5854 73.1542L74.4534 75.0256C73.9896 75.0256 73.6217 75.0696 73.3498 75.1576C73.0859 75.2375 72.814 75.4015 72.5341 75.6494V76.0812L72.666 78.9003L71.0586 79.2002L71.2025 76.2852C71.1705 75.2135 71.0826 74.2539 70.9386 73.4061ZM76.786 79.2002C76.3142 79.2002 75.9263 79.0522 75.6224 78.7563C75.3265 78.4524 75.1785 78.0486 75.1785 77.5448C75.1785 77.0329 75.4105 76.5931 75.8743 76.2252C76.3382 75.8493 76.902 75.6614 77.5657 75.6614H78.3815V75.4575C78.3815 75.0656 78.3015 74.7977 78.1416 74.6537C77.9816 74.5098 77.6817 74.4378 77.2419 74.4378C77.0579 74.4378 76.838 74.4778 76.5821 74.5578C76.3342 74.6297 76.0543 74.7457 75.7424 74.9056L75.3945 73.958C75.7384 73.718 76.1542 73.5021 76.6421 73.3102C77.1379 73.1182 77.5458 73.0223 77.8656 73.0223C79.1212 73.0223 79.749 73.6301 79.749 74.8457V77.1969C79.749 77.6447 79.889 78.1445 80.1689 78.6964L78.8973 79.2362C78.6974 78.8523 78.5494 78.5084 78.4534 78.2045C78.0136 78.8683 77.4578 79.2002 76.786 79.2002ZM77.2898 77.9766C77.6097 77.9766 77.9736 77.8127 78.3815 77.4848V76.681C77.9576 76.5851 77.6137 76.5371 77.3498 76.5371C76.846 76.5371 76.5941 76.761 76.5941 77.2089C76.5941 77.4408 76.6581 77.6287 76.786 77.7727C76.914 77.9086 77.0819 77.9766 77.2898 77.9766ZM81.9173 73.3941V72.0866L83.5367 71.7747L83.3808 73.3941H84.8323L84.7004 74.3778H83.3328L83.2728 76.885C83.2728 77.2608 83.3088 77.5128 83.3808 77.6407C83.4528 77.7607 83.5847 77.8207 83.7767 77.8207C83.9686 77.8207 84.2245 77.7767 84.5444 77.6887L84.6164 78.5404C84.0886 78.9803 83.6247 79.2002 83.2248 79.2002C82.825 79.2002 82.4971 79.0562 82.2412 78.7683C81.9853 78.4724 81.8573 78.0886 81.8573 77.6167L81.9293 76.2732L81.9173 74.3778H81.0896L81.2215 73.3941H81.9173ZM88.1128 77.9766C88.3448 77.9766 88.5887 77.9166 88.8446 77.7967C89.1005 77.6767 89.3004 77.5567 89.4444 77.4368L89.6603 77.2568L90.2121 77.9286C90.1322 78.0646 90.0082 78.2205 89.8403 78.3965C89.6723 78.5724 89.5004 78.7244 89.3244 78.8523C89.1565 78.9723 88.9286 79.0842 88.6407 79.1882C88.3608 79.2842 88.0689 79.3322 87.765 79.3322C87.1172 79.3322 86.5893 79.0882 86.1815 78.6004C85.7736 78.1046 85.5697 77.4688 85.5697 76.693C85.5697 75.7174 85.8536 74.8617 86.4214 74.1259C86.9892 73.3901 87.653 73.0223 88.4127 73.0223C88.9965 73.0223 89.4484 73.1862 89.7683 73.5141C90.0962 73.842 90.2601 74.3018 90.2601 74.8936C90.2601 75.2455 90.2001 75.6454 90.0802 76.0932L89.8403 76.3452L86.8413 76.6211C86.9772 77.5248 87.4011 77.9766 88.1128 77.9766ZM88.1128 74.2579C87.761 74.2579 87.4651 74.4018 87.2251 74.6897C86.9852 74.9696 86.8453 75.3295 86.8053 75.7693L88.8446 75.5174C88.8686 75.3335 88.8806 75.1815 88.8806 75.0616C88.8806 74.5258 88.6247 74.2579 88.1128 74.2579ZM98.9882 77.7007H99.1442L99.528 76.0572L100.152 73.0942L101.615 73.2742L100.74 76.2492L100.008 79.0562L98.0405 79.2362L97.3808 76.3212L97.3208 76.1292L96.517 79.0562L94.6097 79.2362L93.9139 76.3212L93.0862 73.4061L94.6577 73.1062L95.1495 75.7454L95.5814 77.7007H95.7373L96.769 74.2818L96.517 73.4061L98.0645 73.1062L98.5684 75.7454L98.9882 77.7007ZM104.26 73.0942L104.116 76.0812L104.248 78.9003L102.64 79.2002L102.784 76.2852L102.652 73.3941L104.26 73.0942ZM102.568 71.3428C102.568 71.0709 102.672 70.831 102.88 70.6231C103.088 70.4071 103.328 70.2992 103.6 70.2992C103.872 70.2992 104.08 70.3752 104.224 70.5271C104.368 70.6711 104.44 70.891 104.44 71.1869C104.44 71.4828 104.336 71.7387 104.128 71.9546C103.928 72.1626 103.692 72.2665 103.42 72.2665C103.156 72.2665 102.948 72.1786 102.796 72.0026C102.644 71.8267 102.568 71.6067 102.568 71.3428ZM106.289 73.3941V72.0866L107.908 71.7747L107.752 73.3941H109.204L109.072 74.3778H107.704L107.644 76.885C107.644 77.2608 107.68 77.5128 107.752 77.6407C107.824 77.7607 107.956 77.8207 108.148 77.8207C108.34 77.8207 108.596 77.7767 108.916 77.6887L108.988 78.5404C108.46 78.9803 107.996 79.2002 107.596 79.2002C107.196 79.2002 106.869 79.0562 106.613 78.7683C106.357 78.4724 106.229 78.0886 106.229 77.6167L106.301 76.2732L106.289 74.3778H105.461L105.593 73.3941H106.289ZM113.828 76.1652C113.828 75.6134 113.78 75.2455 113.684 75.0616C113.588 74.8776 113.364 74.7857 113.012 74.7857C112.66 74.7857 112.26 74.9256 111.813 75.2055V76.0812L111.945 78.9003L110.325 79.2002L110.469 76.2852L110.325 70.2152L111.969 69.9153L111.813 73.0223V74.4258C111.933 74.2659 112.068 74.1099 112.22 73.958C112.372 73.806 112.608 73.6341 112.928 73.4421C113.248 73.2502 113.588 73.1542 113.948 73.1542C114.316 73.1542 114.624 73.2982 114.872 73.5861C115.119 73.866 115.243 74.2499 115.243 74.7377L115.171 76.0812L115.303 78.9603L113.684 79.2602L113.828 76.1652ZM35.6932 86.0942L35.5492 89.0812L35.6812 91.9003L34.0737 92.2002L34.2177 89.2852L34.0857 86.3941L35.6932 86.0942ZM34.0017 84.3428C34.0017 84.0709 34.1057 83.831 34.3136 83.6231C34.5216 83.4071 34.7615 83.2992 35.0334 83.2992C35.3053 83.2992 35.5132 83.3752 35.6572 83.5271C35.8011 83.6711 35.8731 83.891 35.8731 84.1869C35.8731 84.4828 35.7692 84.7387 35.5612 84.9546C35.3613 85.1626 35.1254 85.2665 34.8535 85.2665C34.5896 85.2665 34.3816 85.1786 34.2297 85.0026C34.0777 84.8267 34.0017 84.6067 34.0017 84.3428ZM40.7332 89.1652C40.7332 88.6134 40.6852 88.2455 40.5892 88.0616C40.4933 87.8776 40.2693 87.7857 39.9175 87.7857C39.5656 87.7857 39.1657 87.9256 38.7179 88.2055V89.0812L38.8498 91.9003L37.2423 92.2002L37.3863 89.2852C37.3543 88.2135 37.2663 87.2539 37.1224 86.4061L38.5739 86.0942C38.6299 86.5581 38.6699 87.0099 38.6939 87.4498C38.8138 87.2898 38.9498 87.1339 39.1017 86.9819C39.2537 86.822 39.4936 86.6461 39.8215 86.4541C40.1494 86.2542 40.4933 86.1542 40.8531 86.1542C41.221 86.1542 41.5289 86.2982 41.7768 86.5861C42.0247 86.866 42.1487 87.2499 42.1487 87.7377L42.0767 89.0812L42.2087 91.9603L40.5892 92.2602L40.7332 89.1652ZM46.9403 91.0246C46.3166 91.8083 45.7767 92.2002 45.3209 92.2002C44.7531 92.2002 44.2852 91.9683 43.9174 91.5044C43.5575 91.0406 43.3775 90.4448 43.3775 89.717C43.3775 88.7174 43.6534 87.8736 44.2053 87.1859C44.7651 86.4981 45.4488 86.1542 46.2566 86.1542L46.9283 86.2502V86.0223L46.7844 83.2152L48.4278 82.9153L48.2719 89.0812V90.1369C48.2719 90.6167 48.3919 91.1685 48.6318 91.7923L47.3362 92.3322C47.1043 91.8523 46.9723 91.4165 46.9403 91.0246ZM44.7211 89.0932C44.7211 89.6051 44.8131 90.0049 44.997 90.2928C45.1889 90.5807 45.4608 90.7247 45.8127 90.7247C46.1726 90.7247 46.5445 90.5807 46.9283 90.2928V87.7017C46.4485 87.6057 46.0926 87.5578 45.8607 87.5578C45.5008 87.5578 45.2209 87.6857 45.021 87.9416C44.8211 88.1975 44.7211 88.5814 44.7211 89.0932ZM51.4743 92.2002C51.0424 92.2002 50.6905 92.0602 50.4186 91.7803C50.1547 91.4924 50.0228 91.1166 50.0228 90.6527L50.0947 89.2732L49.9628 86.3941L51.5702 86.0942L51.4143 89.741C51.4143 90.0849 51.4743 90.3368 51.5942 90.4968C51.7222 90.6567 51.9221 90.7367 52.194 90.7367C52.4659 90.7367 52.8418 90.6007 53.3216 90.3288V89.6091L53.1897 86.4541L54.8091 86.1542L54.6652 89.1532L54.6772 90.1369C54.6772 90.6487 54.8091 91.1645 55.0731 91.6844L53.8255 92.2362C53.5616 91.7164 53.4016 91.3005 53.3456 90.9886C52.6259 91.7963 52.0021 92.2002 51.4743 92.2002ZM58.2012 91.0846C58.6171 91.0846 58.825 90.9006 58.825 90.5328C58.825 90.4048 58.733 90.2848 58.5491 90.1729C58.3731 90.0609 58.1532 89.949 57.8893 89.837C57.6334 89.725 57.3735 89.6011 57.1096 89.4651C56.8536 89.3212 56.6337 89.1252 56.4498 88.8773C56.2738 88.6294 56.1859 88.3455 56.1859 88.0256C56.1859 87.4898 56.4218 87.0219 56.8936 86.6221C57.3655 86.2222 57.9093 86.0223 58.5251 86.0223C58.813 86.0223 59.0929 86.0583 59.3648 86.1302C59.6447 86.1942 59.9126 86.2982 60.1685 86.4421L59.3648 87.9056C59.3088 87.8577 59.2368 87.7977 59.1489 87.7257C59.0609 87.6537 58.893 87.5618 58.645 87.4498C58.4051 87.3298 58.1892 87.2698 57.9973 87.2698C57.8133 87.2698 57.6694 87.3138 57.5654 87.4018C57.4694 87.4818 57.4215 87.5977 57.4215 87.7497C57.4215 87.8936 57.5574 88.0416 57.8293 88.1935C58.1092 88.3375 58.4131 88.4734 58.741 88.6014C59.0689 88.7214 59.3688 88.9253 59.6407 89.2132C59.9206 89.4931 60.0606 89.829 60.0606 90.2209C60.0606 90.7807 59.8286 91.2725 59.3648 91.6964C58.909 92.1202 58.3811 92.3322 57.7813 92.3322C57.3975 92.3322 57.0376 92.2482 56.7017 92.0802C56.3738 91.9123 56.1379 91.7443 55.9939 91.5764L55.778 91.3245L56.7257 90.2209C56.7737 90.2848 56.8416 90.3648 56.9296 90.4608C57.0176 90.5567 57.1895 90.6847 57.4454 90.8446C57.7094 91.0046 57.9613 91.0846 58.2012 91.0846ZM61.8186 86.3941V85.0866L63.4381 84.7747L63.2821 86.3941H64.7337L64.6017 87.3778H63.2342L63.1742 89.885C63.1742 90.2608 63.2102 90.5128 63.2821 90.6407C63.3541 90.7607 63.4861 90.8207 63.678 90.8207C63.87 90.8207 64.1259 90.7767 64.4458 90.6887L64.5177 91.5404C63.9899 91.9803 63.5261 92.2002 63.1262 92.2002C62.7263 92.2002 62.3984 92.0562 62.1425 91.7683C61.8866 91.4724 61.7587 91.0886 61.7587 90.6167L61.8306 89.2732L61.8186 87.3778H60.9909L61.1229 86.3941H61.8186ZM65.723 86.4061L67.1745 86.0942C67.2464 86.71 67.2944 87.2938 67.3184 87.8457C68.0462 86.718 68.7299 86.1542 69.3697 86.1542L69.2378 88.0256C68.7739 88.0256 68.4061 88.0696 68.1341 88.1576C67.8702 88.2375 67.5983 88.4015 67.3184 88.6494V89.0812L67.4504 91.9003L65.8429 92.2002L65.9869 89.2852C65.9549 88.2135 65.8669 87.2539 65.723 86.4061ZM70.5387 94.5154L71.7743 91.7443L70.8866 89.3212L69.675 86.4061L71.2704 86.1062L72.0382 88.6614L72.434 89.873H72.59L72.8779 88.9973L73.7416 86.0942L75.2171 86.2742L73.0938 91.8523L72.0862 94.8393L70.5387 94.5154ZM80.4371 90.9766C80.669 90.9766 80.9129 90.9166 81.1688 90.7967C81.4247 90.6767 81.6247 90.5567 81.7686 90.4368L81.9845 90.2568L82.5363 90.9286C82.4564 91.0646 82.3324 91.2205 82.1645 91.3965C81.9965 91.5724 81.8246 91.7244 81.6486 91.8523C81.4807 91.9723 81.2528 92.0842 80.9649 92.1882C80.685 92.2842 80.3931 92.3322 80.0892 92.3322C79.4414 92.3322 78.9136 92.0882 78.5057 91.6004C78.0978 91.1046 77.8939 90.4688 77.8939 89.693C77.8939 88.7174 78.1778 87.8617 78.7456 87.1259C79.3134 86.3901 79.9772 86.0223 80.737 86.0223C81.3208 86.0223 81.7726 86.1862 82.0925 86.5141C82.4204 86.842 82.5843 87.3018 82.5843 87.8936C82.5843 88.2455 82.5244 88.6454 82.4044 89.0932L82.1645 89.3452L79.1655 89.6211C79.3014 90.5248 79.7253 90.9766 80.4371 90.9766ZM80.4371 87.2579C80.0852 87.2579 79.7893 87.4018 79.5493 87.6897C79.3094 87.9696 79.1695 88.3295 79.1295 88.7693L81.1688 88.5174C81.1928 88.3335 81.2048 88.1815 81.2048 88.0616C81.2048 87.5258 80.9489 87.2579 80.4371 87.2579ZM87.4102 92.3202L85.9827 90.1969L84.5072 92.3202L83.3195 91.6604L85.2029 89.2252L83.4155 87.0179L84.7471 86.1062L86.0546 88.1336L87.4702 86.0822L88.6338 86.802L86.8464 89.1292L88.7417 91.4085L87.4102 92.3202ZM92.9842 86.1422C93.496 86.1422 93.9239 86.3662 94.2678 86.814C94.6196 87.2619 94.7956 87.8656 94.7956 88.6254C94.7956 89.689 94.5197 90.5527 93.9679 91.2165C93.424 91.8723 92.7443 92.2002 91.9285 92.2002C91.7606 92.2002 91.5727 92.1882 91.3647 92.1642L91.4247 94.4554L89.7813 94.7553L89.9372 89.2852H89.9492C89.9172 88.2135 89.8292 87.2539 89.6853 86.4061L91.1368 86.0942C91.1848 86.5181 91.2248 86.938 91.2568 87.3538C91.2728 87.3138 91.3527 87.2059 91.4967 87.0299C91.6486 86.846 91.8686 86.6541 92.1565 86.4541C92.4444 86.2462 92.7203 86.1422 92.9842 86.1422ZM92.5163 87.7017C92.0925 87.7017 91.6806 87.8177 91.2808 88.0496V89.0812L91.3287 90.7967C91.7606 90.8686 92.0885 90.9046 92.3124 90.9046C93.0802 90.9046 93.464 90.3728 93.464 89.3092C93.464 88.2375 93.1481 87.7017 92.5163 87.7017ZM98.1902 90.9766C98.4221 90.9766 98.666 90.9166 98.9219 90.7967C99.1778 90.6767 99.3778 90.5567 99.5217 90.4368L99.7376 90.2568L100.289 90.9286C100.209 91.0646 100.086 91.2205 99.9176 91.3965C99.7496 91.5724 99.5777 91.7244 99.4017 91.8523C99.2338 91.9723 99.0059 92.0842 98.718 92.1882C98.4381 92.2842 98.1462 92.3322 97.8423 92.3322C97.1945 92.3322 96.6667 92.0882 96.2588 91.6004C95.8509 91.1046 95.647 90.4688 95.647 89.693C95.647 88.7174 95.9309 87.8617 96.4987 87.1259C97.0665 86.3901 97.7303 86.0223 98.4901 86.0223C99.0739 86.0223 99.5257 86.1862 99.8456 86.5141C100.173 86.842 100.337 87.3018 100.337 87.8936C100.337 88.2455 100.277 88.6454 100.157 89.0932L99.9176 89.3452L96.9186 89.6211C97.0545 90.5248 97.4784 90.9766 98.1902 90.9766ZM98.1902 87.2579C97.8383 87.2579 97.5424 87.4018 97.3025 87.6897C97.0625 87.9696 96.9226 88.3295 96.8826 88.7693L98.9219 88.5174C98.9459 88.3335 98.9579 88.1815 98.9579 88.0616C98.9579 87.5258 98.702 87.2579 98.1902 87.2579ZM101.493 86.4061L102.944 86.0942C103.016 86.71 103.064 87.2938 103.088 87.8457C103.816 86.718 104.5 86.1542 105.139 86.1542L105.007 88.0256C104.543 88.0256 104.176 88.0696 103.904 88.1576C103.64 88.2375 103.368 88.4015 103.088 88.6494V89.0812L103.22 91.9003L101.612 92.2002L101.756 89.2852C101.724 88.2135 101.636 87.2539 101.493 86.4061ZM106.608 86.3941V85.0866L108.228 84.7747L108.072 86.3941H109.523L109.391 87.3778H108.024L107.964 89.885C107.964 90.2608 108 90.5128 108.072 90.6407C108.144 90.7607 108.276 90.8207 108.468 90.8207C108.659 90.8207 108.915 90.7767 109.235 90.6887L109.307 91.5404C108.779 91.9803 108.316 92.2002 107.916 92.2002C107.516 92.2002 107.188 92.0562 106.932 91.7683C106.676 91.4724 106.548 91.0886 106.548 90.6167L106.62 89.2732L106.608 87.3778H105.78L105.912 86.3941H106.608ZM112.456 91.0846C112.872 91.0846 113.08 90.9006 113.08 90.5328C113.08 90.4048 112.988 90.2848 112.804 90.1729C112.628 90.0609 112.408 89.949 112.144 89.837C111.888 89.725 111.628 89.6011 111.364 89.4651C111.108 89.3212 110.888 89.1252 110.704 88.8773C110.528 88.6294 110.44 88.3455 110.44 88.0256C110.44 87.4898 110.676 87.0219 111.148 86.6221C111.62 86.2222 112.164 86.0223 112.78 86.0223C113.068 86.0223 113.348 86.0583 113.619 86.1302C113.899 86.1942 114.167 86.2982 114.423 86.4421L113.619 87.9056C113.563 87.8577 113.491 87.7977 113.403 87.7257C113.316 87.6537 113.148 87.5618 112.9 87.4498C112.66 87.3298 112.444 87.2698 112.252 87.2698C112.068 87.2698 111.924 87.3138 111.82 87.4018C111.724 87.4818 111.676 87.5977 111.676 87.7497C111.676 87.8936 111.812 88.0416 112.084 88.1935C112.364 88.3375 112.668 88.4734 112.996 88.6014C113.324 88.7214 113.623 88.9253 113.895 89.2132C114.175 89.4931 114.315 89.829 114.315 90.2209C114.315 90.7807 114.083 91.2725 113.619 91.6964C113.164 92.1202 112.636 92.3322 112.036 92.3322C111.652 92.3322 111.292 92.2482 110.956 92.0802C110.628 91.9123 110.393 91.7443 110.249 91.5764L110.033 91.3245L110.98 90.2209C111.028 90.2848 111.096 90.3648 111.184 90.4608C111.272 90.5567 111.444 90.6847 111.7 90.8446C111.964 91.0046 112.216 91.0846 112.456 91.0846ZM116.889 91.3965C116.889 92.0762 116.393 92.796 115.401 93.5557L114.91 93.1959C115.381 92.644 115.617 92.1682 115.617 91.7683C115.617 91.5204 115.513 91.2045 115.306 90.8207L116.481 90.3528C116.753 90.6967 116.889 91.0446 116.889 91.3965ZM28.2449 105.2C27.7731 105.2 27.3852 105.052 27.0813 104.756C26.7854 104.452 26.6375 104.049 26.6375 103.545C26.6375 103.033 26.8694 102.593 27.3332 102.225C27.7971 101.849 28.3609 101.661 29.0247 101.661H29.8404V101.457C29.8404 101.066 29.7604 100.798 29.6005 100.654C29.4405 100.51 29.1406 100.438 28.7008 100.438C28.5169 100.438 28.2969 100.478 28.041 100.558C27.7931 100.63 27.5132 100.746 27.2013 100.906L26.8534 99.958C27.1973 99.718 27.6132 99.5021 28.101 99.3102C28.5968 99.1182 29.0047 99.0223 29.3246 99.0223C30.5802 99.0223 31.2079 99.6301 31.2079 100.846V103.197C31.2079 103.645 31.3479 104.145 31.6278 104.696L30.3562 105.236C30.1563 104.852 30.0084 104.508 29.9124 104.205C29.4725 104.868 28.9167 105.2 28.2449 105.2ZM28.7488 103.977C29.0687 103.977 29.4325 103.813 29.8404 103.485V102.681C29.4166 102.585 29.0727 102.537 28.8088 102.537C28.3049 102.537 28.053 102.761 28.053 103.209C28.053 103.441 28.117 103.629 28.2449 103.773C28.3729 103.909 28.5408 103.977 28.7488 103.977ZM36.3872 102.165C36.3872 101.613 36.3392 101.246 36.2433 101.062C36.1473 100.878 35.9234 100.786 35.5715 100.786C35.2196 100.786 34.8197 100.926 34.3719 101.206V102.081L34.5038 104.9L32.8964 105.2L33.0403 102.285C33.0083 101.214 32.9204 100.254 32.7764 99.4061L34.2279 99.0942C34.2839 99.5581 34.3239 100.01 34.3479 100.45C34.4679 100.29 34.6038 100.134 34.7558 99.9819C34.9077 99.822 35.1476 99.6461 35.4755 99.4541C35.8034 99.2542 36.1473 99.1542 36.5072 99.1542C36.875 99.1542 37.1829 99.2982 37.4309 99.5861C37.6788 99.866 37.8027 100.25 37.8027 100.738L37.7308 102.081L37.8627 104.96L36.2433 105.26L36.3872 102.165ZM42.5944 104.025C41.9706 104.808 41.4308 105.2 40.9749 105.2C40.4071 105.2 39.9393 104.968 39.5714 104.504C39.2115 104.041 39.0316 103.445 39.0316 102.717C39.0316 101.717 39.3075 100.874 39.8593 100.186C40.4191 99.4981 41.1029 99.1542 41.9106 99.1542L42.5824 99.2502V99.0223L42.4384 96.2152L44.0819 95.9153L43.9259 102.081V103.137C43.9259 103.617 44.0459 104.169 44.2858 104.792L42.9902 105.332C42.7583 104.852 42.6264 104.416 42.5944 104.025ZM40.3751 102.093C40.3751 102.605 40.4671 103.005 40.651 103.293C40.843 103.581 41.1149 103.725 41.4668 103.725C41.8266 103.725 42.1985 103.581 42.5824 103.293V100.702C42.1025 100.606 41.7467 100.558 41.5147 100.558C41.1549 100.558 40.875 100.686 40.675 100.942C40.4751 101.198 40.3751 101.581 40.3751 102.093ZM47.3598 106.388C47.3598 105.684 48.0156 105.132 49.3271 104.732C49.0152 104.572 48.8593 104.364 48.8593 104.109C48.8593 104.005 48.8993 103.901 48.9792 103.797C49.0592 103.693 49.1752 103.585 49.3271 103.473V103.377C48.7513 103.377 48.2915 103.217 47.9476 102.897C47.6117 102.577 47.4438 102.149 47.4438 101.613C47.4438 100.918 47.7277 100.314 48.2955 99.802C48.8633 99.2822 49.5351 99.0223 50.3108 99.0223C50.5107 99.0223 50.8026 99.0623 51.1865 99.1422C51.5704 99.2222 51.9462 99.2622 52.3141 99.2622H53.2378L53.1179 100.306L52.2182 100.198C52.2981 100.43 52.3381 100.694 52.3381 100.99C52.3381 101.286 52.2661 101.581 52.1222 101.877C51.9862 102.165 51.8183 102.397 51.6184 102.573C51.4264 102.749 51.2305 102.905 51.0306 103.041C50.8386 103.169 50.6707 103.285 50.5267 103.389C50.3908 103.485 50.3228 103.573 50.3228 103.653C50.3228 103.805 50.4827 103.937 50.8026 104.049C51.6503 104.392 52.2222 104.684 52.5181 104.924C52.8219 105.164 52.9739 105.46 52.9739 105.812C52.9739 106.404 52.674 106.888 52.0742 107.264C51.4824 107.647 50.7746 107.839 49.9509 107.839C49.1272 107.839 48.4874 107.707 48.0316 107.443C47.5837 107.18 47.3598 106.828 47.3598 106.388ZM50.9826 101.349C50.9826 100.958 50.8946 100.67 50.7187 100.486C50.5427 100.302 50.2668 100.21 49.8909 100.21C49.1632 100.21 48.7993 100.57 48.7993 101.29C48.7993 102.001 49.1872 102.357 49.9629 102.357C50.6427 102.357 50.9826 102.021 50.9826 101.349ZM51.4144 105.992C51.4144 105.848 51.3384 105.712 51.1865 105.584C51.0345 105.464 50.7626 105.32 50.3708 105.152C49.787 105.312 49.3831 105.46 49.1592 105.596C48.9433 105.732 48.8353 105.9 48.8353 106.1C48.8353 106.3 48.9433 106.46 49.1592 106.58C49.3831 106.708 49.691 106.772 50.0829 106.772C50.4747 106.772 50.7946 106.7 51.0425 106.556C51.2905 106.412 51.4144 106.224 51.4144 105.992ZM55.3109 105.2C54.839 105.2 54.4512 105.052 54.1473 104.756C53.8514 104.452 53.7034 104.049 53.7034 103.545C53.7034 103.033 53.9353 102.593 54.3992 102.225C54.863 101.849 55.4268 101.661 56.0906 101.661H56.9063V101.457C56.9063 101.066 56.8264 100.798 56.6664 100.654C56.5065 100.51 56.2066 100.438 55.7667 100.438C55.5828 100.438 55.3628 100.478 55.1069 100.558C54.859 100.63 54.5791 100.746 54.2672 100.906L53.9193 99.958C54.2632 99.718 54.6791 99.5021 55.1669 99.3102C55.6627 99.1182 56.0706 99.0223 56.3905 99.0223C57.6461 99.0223 58.2739 99.6301 58.2739 100.846V103.197C58.2739 103.645 58.4138 104.145 58.6937 104.696L57.4222 105.236C57.2222 104.852 57.0743 104.508 56.9783 104.205C56.5385 104.868 55.9826 105.2 55.3109 105.2ZM55.8147 103.977C56.1346 103.977 56.4985 103.813 56.9063 103.485V102.681C56.4825 102.585 56.1386 102.537 55.8747 102.537C55.3708 102.537 55.1189 102.761 55.1189 103.209C55.1189 103.441 55.1829 103.629 55.3109 103.773C55.4388 103.909 55.6068 103.977 55.8147 103.977ZM61.5818 99.0942L61.4378 102.081L61.5698 104.9L59.9623 105.2L60.1063 102.285L59.9743 99.3941L61.5818 99.0942ZM59.8903 97.3428C59.8903 97.0709 59.9943 96.831 60.2022 96.6231C60.4102 96.4071 60.6501 96.2992 60.922 96.2992C61.1939 96.2992 61.4018 96.3752 61.5458 96.5271C61.6897 96.6711 61.7617 96.891 61.7617 97.1869C61.7617 97.4828 61.6577 97.7387 61.4498 97.9546C61.2499 98.1626 61.014 98.2665 60.742 98.2665C60.4781 98.2665 60.2702 98.1786 60.1183 98.0026C59.9663 97.8267 59.8903 97.6067 59.8903 97.3428ZM66.6218 102.165C66.6218 101.613 66.5738 101.246 66.4778 101.062C66.3818 100.878 66.1579 100.786 65.806 100.786C65.4542 100.786 65.0543 100.926 64.6064 101.206V102.081L64.7384 104.9L63.1309 105.2L63.2749 102.285C63.2429 101.214 63.1549 100.254 63.011 99.4061L64.4625 99.0942C64.5185 99.5581 64.5585 100.01 64.5824 100.45C64.7024 100.29 64.8384 100.134 64.9903 99.9819C65.1423 99.822 65.3822 99.6461 65.7101 99.4541C66.038 99.2542 66.3818 99.1542 66.7417 99.1542C67.1096 99.1542 67.4175 99.2982 67.6654 99.5861C67.9133 99.866 68.0373 100.25 68.0373 100.738L67.9653 102.081L68.0973 104.96L66.4778 105.26L66.6218 102.165ZM73.9121 103.977C74.144 103.977 74.388 103.917 74.6439 103.797C74.8998 103.677 75.0997 103.557 75.2437 103.437L75.4596 103.257L76.0114 103.929C75.9314 104.065 75.8075 104.221 75.6395 104.396C75.4716 104.572 75.2997 104.724 75.1237 104.852C74.9558 104.972 74.7279 105.084 74.4399 105.188C74.16 105.284 73.8681 105.332 73.5642 105.332C72.9165 105.332 72.3886 105.088 71.9808 104.6C71.5729 104.105 71.369 103.469 71.369 102.693C71.369 101.717 71.6529 100.862 72.2207 100.126C72.7885 99.3901 73.4523 99.0223 74.212 99.0223C74.7958 99.0223 75.2477 99.1862 75.5676 99.5141C75.8955 99.842 76.0594 100.302 76.0594 100.894C76.0594 101.246 75.9994 101.645 75.8795 102.093L75.6395 102.345L72.6406 102.621C72.7765 103.525 73.2004 103.977 73.9121 103.977ZM73.9121 100.258C73.5602 100.258 73.2643 100.402 73.0244 100.69C72.7845 100.97 72.6446 101.329 72.6046 101.769L74.6439 101.517C74.6679 101.333 74.6799 101.182 74.6799 101.062C74.6799 100.526 74.424 100.258 73.9121 100.258ZM80.8853 105.32L79.4577 103.197L77.9822 105.32L76.7946 104.66L78.678 102.225L76.8906 100.018L78.2221 99.1062L79.5297 101.134L80.9452 99.0822L82.1088 99.802L80.3214 102.129L82.2168 104.408L80.8853 105.32ZM86.4593 99.1422C86.9711 99.1422 87.3989 99.3662 87.7428 99.814C88.0947 100.262 88.2707 100.866 88.2707 101.625C88.2707 102.689 87.9947 103.553 87.4429 104.217C86.8991 104.872 86.2193 105.2 85.4036 105.2C85.2357 105.2 85.0477 105.188 84.8398 105.164L84.8998 107.455L83.2563 107.755L83.4123 102.285H83.4243C83.3923 101.214 83.3043 100.254 83.1604 99.4061L84.6119 99.0942C84.6599 99.5181 84.6999 99.938 84.7318 100.354C84.7478 100.314 84.8278 100.206 84.9718 100.03C85.1237 99.846 85.3436 99.6541 85.6315 99.4541C85.9194 99.2462 86.1954 99.1422 86.4593 99.1422ZM85.9914 100.702C85.5676 100.702 85.1557 100.818 84.7558 101.05V102.081L84.8038 103.797C85.2357 103.869 85.5636 103.905 85.7875 103.905C86.5552 103.905 86.9391 103.373 86.9391 102.309C86.9391 101.238 86.6232 100.702 85.9914 100.702ZM91.6652 103.977C91.8972 103.977 92.1411 103.917 92.397 103.797C92.6529 103.677 92.8528 103.557 92.9968 103.437L93.2127 103.257L93.7645 103.929C93.6846 104.065 93.5606 104.221 93.3927 104.396C93.2247 104.572 93.0528 104.724 92.8768 104.852C92.7089 104.972 92.481 105.084 92.1931 105.188C91.9132 105.284 91.6212 105.332 91.3174 105.332C90.6696 105.332 90.1417 105.088 89.7339 104.6C89.326 104.105 89.1221 103.469 89.1221 102.693C89.1221 101.717 89.406 100.862 89.9738 100.126C90.5416 99.3901 91.2054 99.0223 91.9651 99.0223C92.5489 99.0223 93.0008 99.1862 93.3207 99.5141C93.6486 99.842 93.8125 100.302 93.8125 100.894C93.8125 101.246 93.7525 101.645 93.6326 102.093L93.3927 102.345L90.3937 102.621C90.5296 103.525 90.9535 103.977 91.6652 103.977ZM91.6652 100.258C91.3134 100.258 91.0175 100.402 90.7775 100.69C90.5376 100.97 90.3977 101.329 90.3577 101.769L92.397 101.517C92.421 101.333 92.433 101.182 92.433 101.062C92.433 100.526 92.1771 100.258 91.6652 100.258ZM94.9676 99.4061L96.4191 99.0942C96.4911 99.71 96.5391 100.294 96.5631 100.846C97.2908 99.718 97.9746 99.1542 98.6144 99.1542L98.4824 101.026C98.0186 101.026 97.6507 101.07 97.3788 101.158C97.1149 101.238 96.843 101.401 96.5631 101.649V102.081L96.695 104.9L95.0876 105.2L95.2315 102.285C95.1995 101.214 95.1115 100.254 94.9676 99.4061ZM101.223 99.0942L101.079 102.081L101.211 104.9L99.6034 105.2L99.7473 102.285L99.6154 99.3941L101.223 99.0942ZM99.5314 97.3428C99.5314 97.0709 99.6354 96.831 99.8433 96.6231C100.051 96.4071 100.291 96.2992 100.563 96.2992C100.835 96.2992 101.043 96.3752 101.187 96.5271C101.331 96.6711 101.403 96.891 101.403 97.1869C101.403 97.4828 101.299 97.7387 101.091 97.9546C100.891 98.1626 100.655 98.2665 100.383 98.2665C100.119 98.2665 99.9113 98.1786 99.7593 98.0026C99.6074 97.8267 99.5314 97.6067 99.5314 97.3428ZM104.943 103.977C105.175 103.977 105.419 103.917 105.675 103.797C105.931 103.677 106.131 103.557 106.275 103.437L106.491 103.257L107.043 103.929C106.963 104.065 106.839 104.221 106.671 104.396C106.503 104.572 106.331 104.724 106.155 104.852C105.987 104.972 105.759 105.084 105.471 105.188C105.191 105.284 104.899 105.332 104.595 105.332C103.948 105.332 103.42 105.088 103.012 104.6C102.604 104.105 102.4 103.469 102.4 102.693C102.4 101.717 102.684 100.862 103.252 100.126C103.82 99.3901 104.483 99.0223 105.243 99.0223C105.827 99.0223 106.279 99.1862 106.599 99.5141C106.927 99.842 107.091 100.302 107.091 100.894C107.091 101.246 107.031 101.645 106.911 102.093L106.671 102.345L103.672 102.621C103.808 103.525 104.232 103.977 104.943 103.977ZM104.943 100.258C104.591 100.258 104.296 100.402 104.056 100.69C103.816 100.97 103.676 101.329 103.636 101.769L105.675 101.517C105.699 101.333 105.711 101.182 105.711 101.062C105.711 100.526 105.455 100.258 104.943 100.258ZM111.856 102.165C111.856 101.613 111.808 101.246 111.712 101.062C111.617 100.878 111.393 100.786 111.041 100.786C110.689 100.786 110.289 100.926 109.841 101.206V102.081L109.973 104.9L108.366 105.2L108.51 102.285C108.478 101.214 108.39 100.254 108.246 99.4061L109.697 99.0942C109.753 99.5581 109.793 100.01 109.817 100.45C109.937 100.29 110.073 100.134 110.225 99.9819C110.377 99.822 110.617 99.6461 110.945 99.4541C111.273 99.2542 111.617 99.1542 111.976 99.1542C112.344 99.1542 112.652 99.2982 112.9 99.5861C113.148 99.866 113.272 100.25 113.272 100.738L113.2 102.081L113.332 104.96L111.712 105.26L111.856 102.165ZM116.96 100.582C116.608 100.582 116.336 100.71 116.144 100.966C115.952 101.214 115.856 101.597 115.856 102.117C115.856 102.637 115.952 103.057 116.144 103.377C116.344 103.689 116.632 103.845 117.008 103.845C117.2 103.845 117.388 103.785 117.572 103.665C117.756 103.545 117.896 103.425 117.992 103.305L118.124 103.113L118.723 103.737C118.699 103.777 118.667 103.833 118.627 103.905C118.595 103.977 118.507 104.105 118.364 104.289C118.228 104.472 118.08 104.636 117.92 104.78C117.768 104.916 117.568 105.044 117.32 105.164C117.072 105.276 116.812 105.332 116.54 105.332C115.94 105.332 115.452 105.088 115.077 104.6C114.701 104.113 114.513 103.477 114.513 102.693C114.513 101.717 114.797 100.862 115.365 100.126C115.932 99.3901 116.596 99.0223 117.356 99.0223C117.588 99.0223 117.82 99.0583 118.052 99.1302C118.284 99.1942 118.519 99.2982 118.759 99.4421L117.92 100.918C117.632 100.694 117.312 100.582 116.96 100.582ZM121.911 103.977C122.143 103.977 122.387 103.917 122.643 103.797C122.899 103.677 123.099 103.557 123.243 103.437L123.459 103.257L124.011 103.929C123.931 104.065 123.807 104.221 123.639 104.396C123.471 104.572 123.299 104.724 123.123 104.852C122.955 104.972 122.727 105.084 122.439 105.188C122.159 105.284 121.868 105.332 121.564 105.332C120.916 105.332 120.388 105.088 119.98 104.6C119.572 104.105 119.368 103.469 119.368 102.693C119.368 101.717 119.652 100.862 120.22 100.126C120.788 99.3901 121.452 99.0223 122.211 99.0223C122.795 99.0223 123.247 99.1862 123.567 99.5141C123.895 99.842 124.059 100.302 124.059 100.894C124.059 101.246 123.999 101.645 123.879 102.093L123.639 102.345L120.64 102.621C120.776 103.525 121.2 103.977 121.911 103.977ZM121.911 100.258C121.56 100.258 121.264 100.402 121.024 100.69C120.784 100.97 120.644 101.329 120.604 101.769L122.643 101.517C122.667 101.333 122.679 101.182 122.679 101.062C122.679 100.526 122.423 100.258 121.911 100.258ZM45.8955 110.391C45.5996 110.319 45.3317 110.283 45.0918 110.283C44.8519 110.283 44.6759 110.355 44.564 110.499C44.46 110.643 44.408 110.895 44.408 111.255L44.396 112.394H45.6916L45.5596 113.378H44.396L44.384 115.081L44.516 117.9L42.8965 118.2L43.0405 115.285L42.9925 113.378H42.2008L42.3327 112.394H42.9685L42.9565 111.482C42.9565 110.771 43.1764 110.167 43.6163 109.671C44.0561 109.167 44.592 108.915 45.2237 108.915C45.5596 108.915 45.9075 108.951 46.2674 109.023L45.8955 110.391ZM46.4322 112.406L47.8837 112.094C47.9556 112.71 48.0036 113.294 48.0276 113.846C48.7554 112.718 49.4391 112.154 50.0789 112.154L49.947 114.026C49.4831 114.026 49.1153 114.07 48.8433 114.158C48.5794 114.238 48.3075 114.401 48.0276 114.649V115.081L48.1596 117.9L46.5521 118.2L46.6961 115.285C46.6641 114.214 46.5761 113.254 46.4322 112.406ZM50.7201 115.693C50.7201 114.669 50.996 113.802 51.5478 113.09C52.0996 112.378 52.7434 112.022 53.4791 112.022C54.2229 112.022 54.7987 112.262 55.2066 112.742C55.6224 113.222 55.8303 113.858 55.8303 114.649C55.8303 115.705 55.5624 116.585 55.0266 117.289C54.4988 117.984 53.831 118.332 53.0233 118.332C52.3595 118.332 51.8077 118.084 51.3678 117.588C50.936 117.085 50.7201 116.453 50.7201 115.693ZM54.4868 115.273C54.4868 114.114 54.0909 113.534 53.2992 113.534C52.4755 113.534 52.0636 114.078 52.0636 115.165C52.0636 115.733 52.1796 116.177 52.4115 116.497C52.6434 116.817 52.9473 116.977 53.3232 116.977C53.7071 116.977 53.995 116.833 54.1869 116.545C54.3868 116.249 54.4868 115.825 54.4868 115.273ZM60.5858 115.165C60.5858 114.613 60.5378 114.246 60.4419 114.062C60.3459 113.878 60.122 113.786 59.7701 113.786C59.4182 113.786 59.0183 113.926 58.5705 114.206V115.081L58.7024 117.9L57.095 118.2L57.2389 115.285C57.2069 114.214 57.119 113.254 56.975 112.406L58.4265 112.094C58.4825 112.558 58.5225 113.01 58.5465 113.45C58.6665 113.29 58.8024 113.134 58.9544 112.982C59.1063 112.822 59.3462 112.646 59.6741 112.454C60.002 112.254 60.3339 112.154 60.6698 112.154C61.0057 112.154 61.2896 112.262 61.5215 112.478C61.7534 112.694 61.9014 112.99 61.9654 113.366C62.6291 112.558 63.3009 112.154 63.9807 112.154C64.4045 112.154 64.7404 112.298 64.9883 112.586C65.2363 112.866 65.3602 113.25 65.3602 113.738L65.2882 115.081L65.4202 117.96L63.8007 118.26L63.9447 115.165C63.9447 114.613 63.8967 114.246 63.8007 114.062C63.7048 113.878 63.4848 113.786 63.141 113.786C62.7971 113.786 62.4092 113.918 61.9773 114.182L61.9294 115.081L62.0613 117.96L60.4419 118.26L60.5858 115.165ZM72.2343 117.025C71.6105 117.808 71.0707 118.2 70.6148 118.2C70.047 118.2 69.5792 117.968 69.2113 117.504C68.8514 117.041 68.6715 116.445 68.6715 115.717C68.6715 114.717 68.9474 113.874 69.4992 113.186C70.059 112.498 70.7428 112.154 71.5505 112.154L72.2223 112.25V112.022L72.0783 109.215L73.7218 108.915L73.5658 115.081V116.137C73.5658 116.617 73.6858 117.169 73.9257 117.792L72.6301 118.332C72.3982 117.852 72.2663 117.416 72.2343 117.025ZM70.015 115.093C70.015 115.605 70.107 116.005 70.2909 116.293C70.4829 116.581 70.7548 116.725 71.1067 116.725C71.4665 116.725 71.8384 116.581 72.2223 116.293V113.702C71.7424 113.606 71.3866 113.558 71.1546 113.558C70.7948 113.558 70.5149 113.686 70.3149 113.942C70.115 114.198 70.015 114.581 70.015 115.093ZM76.5283 118.2C76.0564 118.2 75.6686 118.052 75.3647 117.756C75.0688 117.452 74.9208 117.049 74.9208 116.545C74.9208 116.033 75.1527 115.593 75.6166 115.225C76.0804 114.849 76.6442 114.661 77.308 114.661H78.1237V114.457C78.1237 114.066 78.0438 113.798 77.8838 113.654C77.7239 113.51 77.424 113.438 76.9841 113.438C76.8002 113.438 76.5803 113.478 76.3243 113.558C76.0764 113.63 75.7965 113.746 75.4846 113.906L75.1367 112.958C75.4806 112.718 75.8965 112.502 76.3843 112.31C76.8802 112.118 77.288 112.022 77.6079 112.022C78.8635 112.022 79.4913 112.63 79.4913 113.846V116.197C79.4913 116.645 79.6312 117.145 79.9111 117.696L78.6396 118.236C78.4396 117.852 78.2917 117.508 78.1957 117.205C77.7559 117.868 77.2001 118.2 76.5283 118.2ZM77.0321 116.977C77.352 116.977 77.7159 116.813 78.1237 116.485V115.681C77.6999 115.585 77.356 115.537 77.0921 115.537C76.5883 115.537 76.3363 115.761 76.3363 116.209C76.3363 116.441 76.4003 116.629 76.5283 116.773C76.6562 116.909 76.8242 116.977 77.0321 116.977ZM81.3597 120.515L82.5952 117.744L81.7075 115.321L80.4959 112.406L82.0914 112.106L82.8592 114.661L83.255 115.873H83.411L83.6989 114.997L84.5626 112.094L86.0381 112.274L83.9148 117.852L82.9071 120.839L81.3597 120.515ZM88.7389 115.693C88.7389 114.669 89.0148 113.802 89.5666 113.09C90.1184 112.378 90.7622 112.022 91.4979 112.022C92.2417 112.022 92.8175 112.262 93.2254 112.742C93.6412 113.222 93.8492 113.858 93.8492 114.649C93.8492 115.705 93.5812 116.585 93.0454 117.289C92.5176 117.984 91.8498 118.332 91.0421 118.332C90.3783 118.332 89.8265 118.084 89.3867 117.588C88.9548 117.085 88.7389 116.453 88.7389 115.693ZM92.5056 115.273C92.5056 114.114 92.1097 113.534 91.318 113.534C90.4943 113.534 90.0824 114.078 90.0824 115.165C90.0824 115.733 90.1984 116.177 90.4303 116.497C90.6622 116.817 90.9661 116.977 91.342 116.977C91.7259 116.977 92.0138 116.833 92.2057 116.545C92.4056 116.249 92.5056 115.825 92.5056 115.273ZM98.6046 115.165C98.6046 114.613 98.5566 114.246 98.4607 114.062C98.3647 113.878 98.1408 113.786 97.7889 113.786C97.437 113.786 97.0371 113.926 96.5893 114.206V115.081L96.7213 117.9L95.1138 118.2L95.2577 115.285C95.2258 114.214 95.1378 113.254 94.9938 112.406L96.4453 112.094C96.5013 112.558 96.5413 113.01 96.5653 113.45C96.6853 113.29 96.8212 113.134 96.9732 112.982C97.1251 112.822 97.365 112.646 97.6929 112.454C98.0208 112.254 98.3647 112.154 98.7246 112.154C99.0925 112.154 99.4004 112.298 99.6483 112.586C99.8962 112.866 100.02 113.25 100.02 113.738L99.9482 115.081L100.08 117.96L98.4607 118.26L98.6046 115.165ZM103.804 116.977C104.036 116.977 104.28 116.917 104.536 116.797C104.792 116.677 104.992 116.557 105.136 116.437L105.352 116.257L105.903 116.929C105.823 117.065 105.699 117.221 105.532 117.396C105.364 117.572 105.192 117.724 105.016 117.852C104.848 117.972 104.62 118.084 104.332 118.188C104.052 118.284 103.76 118.332 103.456 118.332C102.808 118.332 102.281 118.088 101.873 117.6C101.465 117.105 101.261 116.469 101.261 115.693C101.261 114.717 101.545 113.862 102.113 113.126C102.681 112.39 103.344 112.022 104.104 112.022C104.688 112.022 105.14 112.186 105.46 112.514C105.787 112.842 105.951 113.302 105.951 113.894C105.951 114.246 105.891 114.645 105.771 115.093L105.532 115.345L102.533 115.621C102.669 116.525 103.092 116.977 103.804 116.977ZM103.804 113.258C103.452 113.258 103.156 113.402 102.916 113.69C102.677 113.97 102.537 114.329 102.497 114.769L104.536 114.517C104.56 114.333 104.572 114.182 104.572 114.062C104.572 113.526 104.316 113.258 103.804 113.258ZM106.903 117.396C106.903 117.141 106.995 116.917 107.178 116.725C107.37 116.525 107.598 116.425 107.862 116.425C108.382 116.425 108.642 116.689 108.642 117.217C108.642 117.52 108.546 117.772 108.354 117.972C108.17 118.172 107.95 118.272 107.694 118.272C107.446 118.272 107.25 118.192 107.106 118.032C106.971 117.864 106.903 117.652 106.903 117.396Z" fill="black"/>
</svg>
