<svg width="150" height="150" viewBox="0 0 150 150" fill="none" xmlns="http://www.w3.org/2000/svg">
<circle cx="75" cy="75" r="75" fill="#B87AFF"/>
<circle cx="74.5718" cy="76.2857" r="63.8571" fill="white" stroke="black" stroke-width="0.857143"/>
<path d="M33.0583 41.3056H30.1428L30.0606 43.8242H32.675L32.5245 45.2751H30.0196L30.0059 45.7268L30.1701 49.2856H28.2538L28.4181 45.9595L28.2538 39.841H33.2089L33.0583 41.3056ZM36.157 38.6912L35.9791 45.7268L36.1296 48.9434L34.2818 49.2856L34.446 45.9595L34.2818 39.0334L36.157 38.6912ZM40.4814 47.8895C40.7461 47.8895 41.0244 47.821 41.3164 47.6842C41.6084 47.5473 41.8365 47.4104 42.0008 47.2735L42.2472 47.0682L42.8768 47.8347C42.7856 47.9899 42.6441 48.1678 42.4525 48.3686C42.2608 48.5693 42.0647 48.7427 41.8639 48.8887C41.6723 49.0256 41.4122 49.1533 41.0837 49.272C40.7643 49.3815 40.4312 49.4362 40.0845 49.4362C39.3453 49.4362 38.7431 49.1579 38.2777 48.6012C37.8123 48.0355 37.5796 47.31 37.5796 46.4249C37.5796 45.3116 37.9035 44.3352 38.5514 43.4957C39.1993 42.6561 39.9567 42.2364 40.8236 42.2364C41.4898 42.2364 42.0053 42.4234 42.3704 42.7976C42.7445 43.1717 42.9316 43.6964 42.9316 44.3717C42.9316 44.7732 42.8631 45.2295 42.7262 45.7405L42.4525 46.0279L39.0305 46.3427C39.1856 47.3739 39.6693 47.8895 40.4814 47.8895ZM40.4814 43.6462C40.0799 43.6462 39.7423 43.8105 39.4685 44.139C39.1948 44.4584 39.0351 44.869 38.9894 45.3709L41.3164 45.0835C41.3438 44.8736 41.3574 44.7002 41.3574 44.5633C41.3574 43.9519 41.0654 43.6462 40.4814 43.6462ZM48.4381 49.4225L46.8092 46.9998L45.1256 49.4225L43.7705 48.6697L45.9195 45.891L43.88 43.3725L45.3993 42.3322L46.8913 44.6454L48.5065 42.3048L49.8342 43.1261L47.7947 45.7815L49.9574 48.3822L48.4381 49.4225ZM52.9777 42.3185L52.8135 45.7268L52.964 48.9434L51.1299 49.2856L51.2941 45.9595L51.1436 42.6607L52.9777 42.3185ZM51.0477 40.3201C51.0477 40.0098 51.1664 39.736 51.4036 39.4988C51.6409 39.2524 51.9146 39.1292 52.2249 39.1292C52.5352 39.1292 52.7724 39.2159 52.9367 39.3893C53.1009 39.5535 53.1831 39.8045 53.1831 40.1421C53.1831 40.4798 53.0644 40.7718 52.8272 41.0181C52.599 41.2554 52.3298 41.374 52.0196 41.374C51.7184 41.374 51.4812 41.2737 51.3078 41.0729C51.1344 40.8721 51.0477 40.6212 51.0477 40.3201ZM58.3864 42.3732C58.9978 42.3732 59.4951 42.6379 59.8784 43.1671C60.2616 43.6964 60.4533 44.3762 60.4533 45.2066C60.4533 46.4021 60.1384 47.383 59.5088 48.1495C58.8883 48.9069 58.0807 49.2856 57.086 49.2856C56.6298 49.2856 55.8632 49.2126 54.7865 49.0666L54.9233 45.9595L54.7591 39.0334L56.6343 38.6912L56.4564 42.2227V43.701C56.5568 43.555 56.68 43.3998 56.826 43.2356C56.972 43.0713 57.2001 42.8888 57.5104 42.6881C57.8206 42.4782 58.1126 42.3732 58.3864 42.3732ZM57.8526 44.1527C57.4328 44.1527 56.9674 44.2804 56.4564 44.5359V45.7268L56.5385 47.7389C56.9218 47.7845 57.2822 47.8074 57.6199 47.8074C58.4959 47.8074 58.9339 47.2005 58.9339 45.9869C58.9339 44.7641 58.5735 44.1527 57.8526 44.1527ZM63.7387 38.6912L63.5607 45.7268L63.7113 48.9434L61.8634 49.2856L62.0277 45.9595L61.8634 39.0334L63.7387 38.6912ZM68.0631 47.8895C68.3277 47.8895 68.6061 47.821 68.8981 47.6842C69.1901 47.5473 69.4182 47.4104 69.5825 47.2735L69.8288 47.0682L70.4585 47.8347C70.3672 47.9899 70.2258 48.1678 70.0342 48.3686C69.8425 48.5693 69.6463 48.7427 69.4456 48.8887C69.2539 49.0256 68.9939 49.1533 68.6654 49.272C68.346 49.3815 68.0129 49.4362 67.6661 49.4362C66.927 49.4362 66.3247 49.1579 65.8593 48.6012C65.394 48.0355 65.1613 47.31 65.1613 46.4249C65.1613 45.3116 65.4852 44.3352 66.1331 43.4957C66.781 42.6561 67.5384 42.2364 68.4053 42.2364C69.0714 42.2364 69.587 42.4234 69.952 42.7976C70.3262 43.1717 70.5132 43.6964 70.5132 44.3717C70.5132 44.7732 70.4448 45.2295 70.3079 45.7405L70.0342 46.0279L66.6122 46.3427C66.7673 47.3739 67.2509 47.8895 68.0631 47.8895ZM68.0631 43.6462C67.6616 43.6462 67.3239 43.8105 67.0502 44.139C66.7764 44.4584 66.6167 44.869 66.5711 45.3709L68.8981 45.0835C68.9254 44.8736 68.9391 44.7002 68.9391 44.5633C68.9391 43.9519 68.6471 43.6462 68.0631 43.6462ZM74.6687 49.2856L74.8329 45.9595L74.6687 40.1147L76.6124 39.7725L76.4207 45.7268L76.5166 47.9442L79.3226 47.7252L79.172 49.2856H74.6687ZM82.9332 47.8895C83.1978 47.8895 83.4762 47.821 83.7682 47.6842C84.0602 47.5473 84.2883 47.4104 84.4526 47.2735L84.6989 47.0682L85.3286 47.8347C85.2373 47.9899 85.0959 48.1678 84.9043 48.3686C84.7126 48.5693 84.5164 48.7427 84.3157 48.8887C84.124 49.0256 83.864 49.1533 83.5355 49.272C83.2161 49.3815 82.883 49.4362 82.5362 49.4362C81.7971 49.4362 81.1948 49.1579 80.7294 48.6012C80.2641 48.0355 80.0314 47.31 80.0314 46.4249C80.0314 45.3116 80.3553 44.3352 81.0032 43.4957C81.6511 42.6561 82.4085 42.2364 83.2754 42.2364C83.9415 42.2364 84.4571 42.4234 84.8221 42.7976C85.1963 43.1717 85.3833 43.6964 85.3833 44.3717C85.3833 44.7732 85.3149 45.2295 85.178 45.7405L84.9043 46.0279L81.4823 46.3427C81.6374 47.3739 82.121 47.8895 82.9332 47.8895ZM82.9332 43.6462C82.5317 43.6462 82.1941 43.8105 81.9203 44.139C81.6465 44.4584 81.4868 44.869 81.4412 45.3709L83.7682 45.0835C83.7955 44.8736 83.8092 44.7002 83.8092 44.5633C83.8092 43.9519 83.5172 43.6462 82.9332 43.6462ZM88.2207 49.2856C87.6823 49.2856 87.2397 49.1168 86.893 48.7792C86.5553 48.4324 86.3865 47.9716 86.3865 47.3967C86.3865 46.8127 86.6511 46.3108 87.1804 45.891C87.7097 45.4622 88.353 45.2477 89.1104 45.2477H90.0412V45.015C90.0412 44.5679 89.9499 44.2622 89.7674 44.0979C89.5849 43.9337 89.2427 43.8515 88.7408 43.8515C88.5309 43.8515 88.28 43.8972 87.988 43.9884C87.7051 44.0706 87.3857 44.2029 87.0298 44.3854L86.6329 43.304C87.0253 43.0303 87.4998 42.7839 88.0564 42.5649C88.6222 42.3459 89.0876 42.2364 89.4526 42.2364C90.8853 42.2364 91.6016 42.9299 91.6016 44.3169V46.9998C91.6016 47.5108 91.7613 48.0811 92.0807 48.7108L90.6298 49.3267C90.4016 48.8887 90.2328 48.4963 90.1233 48.1495C89.6214 48.9069 88.9872 49.2856 88.2207 49.2856ZM88.7956 47.8895C89.1606 47.8895 89.5758 47.7024 90.0412 47.3283V46.4112C89.5575 46.3017 89.1652 46.2469 88.864 46.2469C88.2891 46.2469 88.0017 46.5024 88.0017 47.0135C88.0017 47.2781 88.0747 47.4925 88.2207 47.6568C88.3667 47.8119 88.5583 47.8895 88.7956 47.8895ZM93.3913 42.6744L95.0475 42.3185C95.1297 43.0211 95.1844 43.6873 95.2118 44.3169C96.0422 43.0303 96.8224 42.3869 97.5524 42.3869L97.4019 44.5223C96.8726 44.5223 96.4528 44.5724 96.1426 44.6728C95.8414 44.7641 95.5312 44.9511 95.2118 45.234V45.7268L95.3624 48.9434L93.5282 49.2856L93.6924 45.9595C93.6559 44.7367 93.5555 43.6417 93.3913 42.6744ZM102.664 45.8226C102.664 45.193 102.609 44.7732 102.5 44.5633C102.39 44.3534 102.135 44.2485 101.733 44.2485C101.332 44.2485 100.876 44.4082 100.365 44.7276V45.7268L100.515 48.9434L98.6809 49.2856L98.8452 45.9595C98.8087 44.7367 98.7083 43.6417 98.544 42.6744L100.2 42.3185C100.264 42.8478 100.31 43.3633 100.337 43.8652C100.474 43.6827 100.629 43.5048 100.803 43.3314C100.976 43.1489 101.25 42.9481 101.624 42.7291C101.998 42.501 102.39 42.3869 102.801 42.3869C103.221 42.3869 103.572 42.5512 103.855 42.8797C104.138 43.1991 104.279 43.6371 104.279 44.1937L104.197 45.7268L104.348 49.0119L102.5 49.3541L102.664 45.8226ZM107.967 42.3185L107.803 45.7268L107.954 48.9434L106.119 49.2856L106.284 45.9595L106.133 42.6607L107.967 42.3185ZM106.037 40.3201C106.037 40.0098 106.156 39.736 106.393 39.4988C106.63 39.2524 106.904 39.1292 107.214 39.1292C107.525 39.1292 107.762 39.2159 107.926 39.3893C108.091 39.5535 108.173 39.8045 108.173 40.1421C108.173 40.4798 108.054 40.7718 107.817 41.0181C107.589 41.2554 107.319 41.374 107.009 41.374C106.708 41.374 106.471 41.2737 106.297 41.0729C106.124 40.8721 106.037 40.6212 106.037 40.3201ZM113.718 45.8226C113.718 45.193 113.663 44.7732 113.554 44.5633C113.444 44.3534 113.189 44.2485 112.787 44.2485C112.386 44.2485 111.93 44.4082 111.419 44.7276V45.7268L111.569 48.9434L109.735 49.2856L109.899 45.9595C109.863 44.7367 109.762 43.6417 109.598 42.6744L111.254 42.3185C111.318 42.8478 111.364 43.3633 111.391 43.8652C111.528 43.6827 111.683 43.5048 111.857 43.3314C112.03 43.1489 112.304 42.9481 112.678 42.7291C113.052 42.501 113.444 42.3869 113.855 42.3869C114.275 42.3869 114.626 42.5512 114.909 42.8797C115.192 43.1991 115.333 43.6371 115.333 44.1937L115.251 45.7268L115.402 49.0119L113.554 49.3541L113.718 45.8226ZM116.708 50.6407C116.708 49.8377 117.456 49.2081 118.953 48.7518C118.597 48.5693 118.419 48.3321 118.419 48.04C118.419 47.9214 118.465 47.8028 118.556 47.6842C118.647 47.5655 118.78 47.4423 118.953 47.3146V47.2051C118.296 47.2051 117.771 47.0226 117.379 46.6576C116.996 46.2926 116.804 45.8044 116.804 45.193C116.804 44.3991 117.128 43.7101 117.776 43.1261C118.424 42.5329 119.19 42.2364 120.075 42.2364C120.303 42.2364 120.637 42.282 121.075 42.3732C121.513 42.4645 121.941 42.5101 122.361 42.5101H123.415L123.278 43.701L122.252 43.5778C122.343 43.8424 122.389 44.1436 122.389 44.4812C122.389 44.8188 122.306 45.1565 122.142 45.4941C121.987 45.8226 121.795 46.0872 121.567 46.288C121.348 46.4887 121.125 46.6667 120.897 46.8218C120.678 46.9678 120.486 47.1001 120.322 47.2188C120.167 47.3283 120.089 47.4287 120.089 47.5199C120.089 47.6933 120.272 47.8439 120.637 47.9716C121.604 48.364 122.256 48.6971 122.594 48.9708C122.941 49.2446 123.114 49.5822 123.114 49.9837C123.114 50.659 122.772 51.2111 122.087 51.64C121.412 52.078 120.605 52.297 119.665 52.297C118.725 52.297 117.995 52.1464 117.475 51.8453C116.964 51.5442 116.708 51.1426 116.708 50.6407ZM120.842 44.8918C120.842 44.4447 120.741 44.1162 120.541 43.9063C120.34 43.6964 120.025 43.5915 119.596 43.5915C118.766 43.5915 118.351 44.0021 118.351 44.8234C118.351 45.6355 118.793 46.0416 119.678 46.0416C120.454 46.0416 120.842 45.6583 120.842 44.8918ZM121.335 50.189C121.335 50.0248 121.248 49.8697 121.075 49.7237C120.901 49.5868 120.591 49.4225 120.144 49.2309C119.478 49.4134 119.017 49.5822 118.761 49.7373C118.515 49.8925 118.392 50.0841 118.392 50.3122C118.392 50.5404 118.515 50.7229 118.761 50.8598C119.017 51.0058 119.368 51.0788 119.815 51.0788C120.262 51.0788 120.627 50.9966 120.91 50.8324C121.193 50.6681 121.335 50.4537 121.335 50.189ZM30.7063 54.841C31.5823 54.841 32.2804 55.0919 32.8005 55.5938C33.3207 56.0866 33.5807 56.7664 33.5807 57.6333C33.5807 58.5002 33.2522 59.2439 32.5952 59.8644C31.9382 60.4758 31.1352 60.7815 30.1861 60.7815H29.4059L29.5702 64.2856H27.736L27.9003 60.9595L27.736 54.841H30.7063ZM30.2135 56.2235H29.5428L29.447 59.4538H30.3778C30.834 59.4538 31.1854 59.3032 31.4317 59.0021C31.6872 58.701 31.815 58.2721 31.815 57.7154C31.815 56.7208 31.2812 56.2235 30.2135 56.2235ZM36.0417 64.2856C35.5033 64.2856 35.0607 64.1168 34.7139 63.7792C34.3763 63.4324 34.2075 62.9716 34.2075 62.3967C34.2075 61.8127 34.4721 61.3108 35.0014 60.891C35.5307 60.4622 36.174 60.2477 36.9314 60.2477H37.8622V60.015C37.8622 59.5679 37.7709 59.2622 37.5884 59.0979C37.4059 58.9337 37.0637 58.8515 36.5618 58.8515C36.3519 58.8515 36.101 58.8972 35.809 58.9884C35.5261 59.0706 35.2067 59.2029 34.8508 59.3854L34.4539 58.304C34.8463 58.0303 35.3208 57.7839 35.8774 57.5649C36.4432 57.3459 36.9086 57.2364 37.2736 57.2364C38.7063 57.2364 39.4226 57.9299 39.4226 59.3169V61.9998C39.4226 62.5108 39.5823 63.0811 39.9017 63.7108L38.4507 64.3267C38.2226 63.8887 38.0538 63.4963 37.9443 63.1495C37.4424 63.9069 36.8082 64.2856 36.0417 64.2856ZM36.6166 62.8895C36.9816 62.8895 37.3968 62.7024 37.8622 62.3283V61.4112C37.3785 61.3017 36.9861 61.2469 36.685 61.2469C36.1101 61.2469 35.8227 61.5024 35.8227 62.0135C35.8227 62.2781 35.8957 62.4925 36.0417 62.6568C36.1877 62.8119 36.3793 62.8895 36.6166 62.8895ZM41.8967 57.6607V56.1687L43.7445 55.8128L43.5666 57.6607H45.2228L45.0723 58.7831H43.5118L43.4434 61.6439C43.4434 62.0728 43.4845 62.3602 43.5666 62.5062C43.6487 62.6431 43.7993 62.7115 44.0183 62.7115C44.2373 62.7115 44.5293 62.6613 44.8943 62.561L44.9765 63.5328C44.3742 64.0347 43.8449 64.2856 43.3887 64.2856C42.9324 64.2856 42.5583 64.1214 42.2662 63.7929C41.9742 63.4552 41.8282 63.0172 41.8282 62.4788L41.9104 60.9458L41.8967 58.7831H40.9522L41.1028 57.6607H41.8967ZM50.4991 60.8226C50.4991 60.193 50.4443 59.7732 50.3348 59.5633C50.2253 59.3534 49.9698 59.2485 49.5683 59.2485C49.1668 59.2485 48.7105 59.4082 48.1995 59.7276V60.7268L48.3501 63.9434L46.5022 64.2856L46.6665 60.9595L46.5022 54.0334L48.3775 53.6912L48.1995 57.2364V58.8379C48.3364 58.6554 48.4915 58.4774 48.6649 58.304C48.8383 58.1306 49.1075 57.9345 49.4725 57.7154C49.8375 57.4964 50.2253 57.3869 50.636 57.3869C51.0557 57.3869 51.4071 57.5512 51.6899 57.8797C51.9728 58.1991 52.1143 58.6371 52.1143 59.1937L52.0321 60.7268L52.1827 64.0119L50.3348 64.3541L50.4991 60.8226ZM53.5842 63.3686C53.5842 63.0765 53.6892 62.821 53.8991 62.602C54.1181 62.3739 54.3781 62.2598 54.6793 62.2598C55.2724 62.2598 55.569 62.561 55.569 63.1632C55.569 63.51 55.4595 63.7974 55.2405 64.0256C55.0306 64.2537 54.7796 64.3678 54.4876 64.3678C54.2047 64.3678 53.9812 64.2765 53.8169 64.094C53.6618 63.9024 53.5842 63.6606 53.5842 63.3686ZM53.5842 59.7686C53.5842 59.4766 53.6892 59.2211 53.8991 59.0021C54.1181 58.774 54.3781 58.6599 54.6793 58.6599C55.2724 58.6599 55.569 58.961 55.569 59.5633C55.569 59.9101 55.4595 60.1975 55.2405 60.4257C55.0306 60.6538 54.7796 60.7679 54.4876 60.7679C54.2047 60.7679 53.9812 60.6766 53.8169 60.4941C53.6618 60.3025 53.5842 60.0606 53.5842 59.7686Z" fill="#AC6CFF"/>
<path d="M59.7352 64.2856L59.8995 60.9595L59.7352 54.841H64.8682L64.7176 56.3056H61.6379L61.5557 58.7284H64.2933L64.1427 60.1793H61.501L61.4873 60.7268L61.5831 62.8347H64.8956L64.745 64.2856H59.7352ZM70.4828 64.4225L68.8539 61.9998L67.1703 64.4225L65.8152 63.6697L67.9642 60.891L65.9247 58.3725L67.4441 57.3322L68.9361 59.6454L70.5513 57.3048L71.879 58.1261L69.8395 60.7815L72.0022 63.3822L70.4828 64.4225ZM75.0225 57.3185L74.8582 60.7268L75.0088 63.9434L73.1746 64.2856L73.3389 60.9595L73.1883 57.6607L75.0225 57.3185ZM73.0925 55.3201C73.0925 55.0098 73.2111 54.736 73.4484 54.4988C73.6856 54.2524 73.9594 54.1292 74.2697 54.1292C74.5799 54.1292 74.8172 54.2159 74.9814 54.3893C75.1457 54.5535 75.2278 54.8045 75.2278 55.1421C75.2278 55.4798 75.1092 55.7718 74.8719 56.0181C74.6438 56.2554 74.3746 56.374 74.0643 56.374C73.7632 56.374 73.5259 56.2737 73.3526 56.0729C73.1792 55.8721 73.0925 55.6212 73.0925 55.3201ZM77.3377 57.6607V56.1687L79.1855 55.8128L79.0076 57.6607H80.6638L80.5133 58.7831H78.9528L78.8844 61.6439C78.8844 62.0728 78.9255 62.3602 79.0076 62.5062C79.0897 62.6431 79.2403 62.7115 79.4593 62.7115C79.6783 62.7115 79.9703 62.6613 80.3353 62.561L80.4175 63.5328C79.8152 64.0347 79.2859 64.2856 78.8297 64.2856C78.3734 64.2856 77.9993 64.1214 77.7072 63.7929C77.4152 63.4552 77.2692 63.0172 77.2692 62.4788L77.3514 60.9458L77.3377 58.7831H76.3932L76.5438 57.6607H77.3377ZM90.4338 62.5747H90.6117L91.0498 60.6994L91.7615 57.3185L93.4314 57.5238L92.4322 60.9184L91.5973 64.1214L89.3524 64.3267L88.5996 61.0005L88.5312 60.7815L87.6141 64.1214L85.4377 64.3267L84.6438 61.0005L83.6993 57.6744L85.4925 57.3322L86.0537 60.3435L86.5464 62.5747H86.7244L87.9015 58.6736L87.6141 57.6744L89.3798 57.3322L89.9547 60.3435L90.4338 62.5747ZM98.6116 60.8226C98.6116 60.193 98.5568 59.7732 98.4473 59.5633C98.3378 59.3534 98.0823 59.2485 97.6808 59.2485C97.2793 59.2485 96.823 59.4082 96.312 59.7276V60.7268L96.4626 63.9434L94.6147 64.2856L94.779 60.9595L94.6147 54.0334L96.4899 53.6912L96.312 57.2364V58.8379C96.4489 58.6554 96.604 58.4774 96.7774 58.304C96.9508 58.1306 97.22 57.9345 97.585 57.7154C97.95 57.4964 98.3378 57.3869 98.7484 57.3869C99.1682 57.3869 99.5195 57.5512 99.8024 57.8797C100.085 58.1991 100.227 58.6371 100.227 59.1937L100.145 60.7268L100.295 64.0119L98.4473 64.3541L98.6116 60.8226ZM104.544 62.8895C104.808 62.8895 105.087 62.821 105.379 62.6842C105.671 62.5473 105.899 62.4104 106.063 62.2735L106.31 62.0682L106.939 62.8347C106.848 62.9899 106.706 63.1678 106.515 63.3686C106.323 63.5693 106.127 63.7427 105.926 63.8887C105.735 64.0256 105.475 64.1533 105.146 64.272C104.827 64.3815 104.494 64.4362 104.147 64.4362C103.408 64.4362 102.805 64.1579 102.34 63.6012C101.875 63.0355 101.642 62.31 101.642 61.4249C101.642 60.3116 101.966 59.3352 102.614 58.4957C103.262 57.6561 104.019 57.2364 104.886 57.2364C105.552 57.2364 106.068 57.4234 106.433 57.7976C106.807 58.1717 106.994 58.6964 106.994 59.3717C106.994 59.7732 106.925 60.2295 106.789 60.7405L106.515 61.0279L103.093 61.3427C103.248 62.3739 103.732 62.8895 104.544 62.8895ZM104.544 58.6462C104.142 58.6462 103.805 58.8105 103.531 59.139C103.257 59.4584 103.097 59.869 103.052 60.3709L105.379 60.0835C105.406 59.8736 105.42 59.7002 105.42 59.5633C105.42 58.9519 105.128 58.6462 104.544 58.6462ZM112.432 60.8226C112.432 60.193 112.377 59.7732 112.268 59.5633C112.158 59.3534 111.903 59.2485 111.501 59.2485C111.1 59.2485 110.643 59.4082 110.132 59.7276V60.7268L110.283 63.9434L108.449 64.2856L108.613 60.9595C108.577 59.7367 108.476 58.6417 108.312 57.6744L109.968 57.3185C110.032 57.8478 110.078 58.3633 110.105 58.8652C110.242 58.6827 110.397 58.5048 110.57 58.3314C110.744 58.1489 111.018 57.9481 111.392 57.7291C111.766 57.501 112.158 57.3869 112.569 57.3869C112.989 57.3869 113.34 57.5512 113.623 57.8797C113.906 58.1991 114.047 58.6371 114.047 59.1937L113.965 60.7268L114.116 64.0119L112.268 64.3541L112.432 60.8226ZM120.121 57.3185L119.957 60.7268L120.107 63.9434L118.273 64.2856L118.437 60.9595L118.287 57.6607L120.121 57.3185ZM118.191 55.3201C118.191 55.0098 118.31 54.736 118.547 54.4988C118.784 54.2524 119.058 54.1292 119.368 54.1292C119.678 54.1292 119.916 54.2159 120.08 54.3893C120.244 54.5535 120.326 54.8045 120.326 55.1421C120.326 55.4798 120.208 55.7718 119.97 56.0181C119.742 56.2554 119.473 56.374 119.163 56.374C118.862 56.374 118.624 56.2737 118.451 56.0729C118.278 55.8721 118.191 55.6212 118.191 55.3201ZM122.436 57.6607V56.1687L124.284 55.8128L124.106 57.6607H125.762L125.612 58.7831H124.051L123.983 61.6439C123.983 62.0728 124.024 62.3602 124.106 62.5062C124.188 62.6431 124.339 62.7115 124.558 62.7115C124.777 62.7115 125.069 62.6613 125.434 62.561L125.516 63.5328C124.914 64.0347 124.384 64.2856 123.928 64.2856C123.472 64.2856 123.098 64.1214 122.806 63.7929C122.514 63.4552 122.368 63.0172 122.368 62.4788L122.45 60.9458L122.436 58.7831H121.492L121.642 57.6607H122.436ZM35.3439 75.8226C35.3439 75.193 35.2892 74.7732 35.1797 74.5633C35.0702 74.3534 34.8146 74.2485 34.4131 74.2485C34.0116 74.2485 33.5554 74.4082 33.0443 74.7276V75.7268L33.1949 78.9434L31.3607 79.2856L31.525 75.9595C31.4885 74.7367 31.3881 73.6417 31.2238 72.6744L32.8801 72.3185C32.944 72.8478 32.9896 73.3633 33.017 73.8652C33.1538 73.6827 33.309 73.5048 33.4824 73.3314C33.6557 73.1489 33.9295 72.9481 34.3036 72.7291C34.6778 72.501 35.0565 72.3869 35.4397 72.3869C35.823 72.3869 36.1469 72.5101 36.4116 72.7565C36.6762 73.0029 36.845 73.3405 36.918 73.7694C37.6754 72.8478 38.4419 72.3869 39.2176 72.3869C39.7012 72.3869 40.0845 72.5512 40.3674 72.8797C40.6503 73.1991 40.7917 73.6371 40.7917 74.1937L40.7096 75.7268L40.8601 79.0119L39.0123 79.3541L39.1765 75.8226C39.1765 75.193 39.1218 74.7732 39.0123 74.5633C38.9028 74.3534 38.6518 74.2485 38.2594 74.2485C37.867 74.2485 37.4245 74.3991 36.9317 74.7002L36.877 75.7268L37.0275 79.0119L35.1797 79.3541L35.3439 75.8226ZM44.0047 79.2856C43.4663 79.2856 43.0238 79.1168 42.677 78.7792C42.3394 78.4324 42.1705 77.9716 42.1705 77.3967C42.1705 76.8127 42.4352 76.3108 42.9644 75.891C43.4937 75.4622 44.137 75.2477 44.8944 75.2477H45.8252V75.015C45.8252 74.5679 45.734 74.2622 45.5515 74.0979C45.369 73.9337 45.0268 73.8515 44.5249 73.8515C44.315 73.8515 44.064 73.8972 43.772 73.9884C43.4891 74.0706 43.1698 74.2029 42.8139 74.3854L42.4169 73.304C42.8093 73.0303 43.2838 72.7839 43.8405 72.5649C44.4062 72.3459 44.8716 72.2364 45.2366 72.2364C46.6693 72.2364 47.3856 72.9299 47.3856 74.3169V76.9998C47.3856 77.5108 47.5453 78.0811 47.8647 78.7108L46.4138 79.3267C46.1857 78.8887 46.0168 78.4963 45.9073 78.1495C45.4055 78.9069 44.7712 79.2856 44.0047 79.2856ZM44.5796 77.8895C44.9446 77.8895 45.3598 77.7024 45.8252 77.3283V76.4112C45.3416 76.3017 44.9492 76.2469 44.6481 76.2469C44.0732 76.2469 43.7857 76.5024 43.7857 77.0135C43.7857 77.2781 43.8587 77.4925 44.0047 77.6568C44.1507 77.8119 44.3424 77.8895 44.5796 77.8895ZM53.5965 79.4225L51.0232 75.631V75.7268L51.1738 78.9434L49.3259 79.2856L49.4902 75.9595L49.3259 69.0334L51.2011 68.6912L51.0232 75.3025L53.7608 72.3048L55.0474 73.1808L52.6521 75.4257L55.1569 78.3822L53.5965 79.4225ZM58.6668 77.8895C58.9315 77.8895 59.2098 77.821 59.5018 77.6842C59.7938 77.5473 60.0219 77.4104 60.1862 77.2735L60.4326 77.0682L61.0622 77.8347C60.971 77.9899 60.8295 78.1678 60.6379 78.3686C60.4463 78.5693 60.2501 78.7427 60.0493 78.8887C59.8577 79.0256 59.5976 79.1533 59.2691 79.272C58.9497 79.3815 58.6166 79.4362 58.2699 79.4362C57.5307 79.4362 56.9285 79.1579 56.4631 78.6012C55.9977 78.0355 55.765 77.31 55.765 76.4249C55.765 75.3116 56.0889 74.3352 56.7368 73.4957C57.3847 72.6561 58.1421 72.2364 59.009 72.2364C59.6752 72.2364 60.1907 72.4234 60.5558 72.7976C60.9299 73.1717 61.117 73.6964 61.117 74.3717C61.117 74.7732 61.0485 75.2295 60.9116 75.7405L60.6379 76.0279L57.2159 76.3427C57.371 77.3739 57.8547 77.8895 58.6668 77.8895ZM58.6668 73.6462C58.2653 73.6462 57.9277 73.8105 57.6539 74.139C57.3802 74.4584 57.2205 74.869 57.1748 75.3709L59.5018 75.0835C59.5292 74.8736 59.5429 74.7002 59.5429 74.5633C59.5429 73.9519 59.2508 73.6462 58.6668 73.6462ZM64.6524 78.0127C65.1269 78.0127 65.3642 77.8028 65.3642 77.383C65.3642 77.237 65.2592 77.1001 65.0493 76.9724C64.8486 76.8446 64.5976 76.7169 64.2965 76.5891C64.0045 76.4614 63.7079 76.3199 63.4068 76.1648C63.1148 76.0005 62.8638 75.777 62.654 75.4941C62.4532 75.2112 62.3528 74.8873 62.3528 74.5223C62.3528 73.9109 62.622 73.377 63.1604 72.9208C63.6988 72.4645 64.3193 72.2364 65.022 72.2364C65.3505 72.2364 65.6699 72.2774 65.9801 72.3596C66.2995 72.4326 66.6052 72.5512 66.8972 72.7154L65.9801 74.3854C65.9163 74.3306 65.8341 74.2622 65.7337 74.1801C65.6334 74.0979 65.4417 73.993 65.1589 73.8652C64.8851 73.7284 64.6387 73.6599 64.4197 73.6599C64.2098 73.6599 64.0456 73.7101 63.9269 73.8105C63.8174 73.9017 63.7627 74.034 63.7627 74.2074C63.7627 74.3717 63.9178 74.5405 64.2281 74.7139C64.5475 74.8781 64.8942 75.0333 65.2684 75.1793C65.6425 75.3162 65.9847 75.5488 66.2949 75.8774C66.6143 76.1967 66.774 76.58 66.774 77.0271C66.774 77.6659 66.5094 78.2271 65.9801 78.7108C65.46 79.1944 64.8577 79.4362 64.1733 79.4362C63.7353 79.4362 63.3247 79.3404 62.9414 79.1488C62.5673 78.9571 62.2981 78.7655 62.1338 78.5739L61.8874 78.2864L62.9688 77.0271C63.0235 77.1001 63.1011 77.1914 63.2015 77.3009C63.3019 77.4104 63.4981 77.5564 63.7901 77.7389C64.0912 77.9214 64.3786 78.0127 64.6524 78.0127ZM72.6989 78.0127C73.1734 78.0127 73.4106 77.8028 73.4106 77.383C73.4106 77.237 73.3057 77.1001 73.0958 76.9724C72.8951 76.8446 72.6441 76.7169 72.343 76.5891C72.051 76.4614 71.7544 76.3199 71.4533 76.1648C71.1613 76.0005 70.9103 75.777 70.7004 75.4941C70.4997 75.2112 70.3993 74.8873 70.3993 74.5223C70.3993 73.9109 70.6685 73.377 71.2069 72.9208C71.7453 72.4645 72.3658 72.2364 73.0684 72.2364C73.3969 72.2364 73.7163 72.2774 74.0266 72.3596C74.346 72.4326 74.6517 72.5512 74.9437 72.7154L74.0266 74.3854C73.9627 74.3306 73.8806 74.2622 73.7802 74.1801C73.6798 74.0979 73.4882 73.993 73.2053 73.8652C72.9316 73.7284 72.6852 73.6599 72.4662 73.6599C72.2563 73.6599 72.092 73.7101 71.9734 73.8105C71.8639 73.9017 71.8091 74.034 71.8091 74.2074C71.8091 74.3717 71.9643 74.5405 72.2745 74.7139C72.5939 74.8781 72.9407 75.0333 73.3148 75.1793C73.689 75.3162 74.0312 75.5488 74.3414 75.8774C74.6608 76.1967 74.8205 76.58 74.8205 77.0271C74.8205 77.6659 74.5559 78.2271 74.0266 78.7108C73.5064 79.1944 72.9042 79.4362 72.2198 79.4362C71.7818 79.4362 71.3711 79.3404 70.9879 79.1488C70.6137 78.9571 70.3445 78.7655 70.1803 78.5739L69.9339 78.2864L71.0152 77.0271C71.07 77.1001 71.1476 77.1914 71.2479 77.3009C71.3483 77.4104 71.5445 77.5564 71.8365 77.7389C72.1377 77.9214 72.4251 78.0127 72.6989 78.0127ZM78.7565 77.8895C79.0211 77.8895 79.2995 77.821 79.5915 77.6842C79.8835 77.5473 80.1116 77.4104 80.2759 77.2735L80.5223 77.0682L81.1519 77.8347C81.0606 77.9899 80.9192 78.1678 80.7276 78.3686C80.5359 78.5693 80.3397 78.7427 80.139 78.8887C79.9474 79.0256 79.6873 79.1533 79.3588 79.272C79.0394 79.3815 78.7063 79.4362 78.3596 79.4362C77.6204 79.4362 77.0181 79.1579 76.5528 78.6012C76.0874 78.0355 75.8547 77.31 75.8547 76.4249C75.8547 75.3116 76.1786 74.3352 76.8265 73.4957C77.4744 72.6561 78.2318 72.2364 79.0987 72.2364C79.7649 72.2364 80.2804 72.4234 80.6454 72.7976C81.0196 73.1717 81.2066 73.6964 81.2066 74.3717C81.2066 74.7732 81.1382 75.2295 81.0013 75.7405L80.7276 76.0279L77.3056 76.3427C77.4607 77.3739 77.9444 77.8895 78.7565 77.8895ZM78.7565 73.6462C78.355 73.6462 78.0174 73.8105 77.7436 74.139C77.4698 74.4584 77.3102 74.869 77.2645 75.3709L79.5915 75.0835C79.6188 74.8736 79.6325 74.7002 79.6325 74.5633C79.6325 73.9519 79.3405 73.6462 78.7565 73.6462ZM86.6447 75.8226C86.6447 75.193 86.59 74.7732 86.4804 74.5633C86.3709 74.3534 86.1154 74.2485 85.7139 74.2485C85.3124 74.2485 84.8561 74.4082 84.3451 74.7276V75.7268L84.4957 78.9434L82.6615 79.2856L82.8258 75.9595C82.7893 74.7367 82.6889 73.6417 82.5246 72.6744L84.1809 72.3185C84.2448 72.8478 84.2904 73.3633 84.3178 73.8652C84.4546 73.6827 84.6098 73.5048 84.7831 73.3314C84.9565 73.1489 85.2303 72.9481 85.6044 72.7291C85.9786 72.501 86.3709 72.3869 86.7816 72.3869C87.2013 72.3869 87.5527 72.5512 87.8356 72.8797C88.1184 73.1991 88.2599 73.6371 88.2599 74.1937L88.1777 75.7268L88.3283 79.0119L86.4804 79.3541L86.6447 75.8226ZM92.1806 78.0127C92.6551 78.0127 92.8924 77.8028 92.8924 77.383C92.8924 77.237 92.7874 77.1001 92.5776 76.9724C92.3768 76.8446 92.1259 76.7169 91.8247 76.5891C91.5327 76.4614 91.2361 76.3199 90.935 76.1648C90.643 76.0005 90.3921 75.777 90.1822 75.4941C89.9814 75.2112 89.881 74.8873 89.881 74.5223C89.881 73.9109 90.1502 73.377 90.6886 72.9208C91.227 72.4645 91.8475 72.2364 92.5502 72.2364C92.8787 72.2364 93.1981 72.2774 93.5083 72.3596C93.8277 72.4326 94.1334 72.5512 94.4254 72.7154L93.5083 74.3854C93.4445 74.3306 93.3623 74.2622 93.262 74.1801C93.1616 74.0979 92.9699 73.993 92.6871 73.8652C92.4133 73.7284 92.1669 73.6599 91.9479 73.6599C91.738 73.6599 91.5738 73.7101 91.4552 73.8105C91.3457 73.9017 91.2909 74.034 91.2909 74.2074C91.2909 74.3717 91.446 74.5405 91.7563 74.7139C92.0757 74.8781 92.4224 75.0333 92.7966 75.1793C93.1707 75.3162 93.5129 75.5488 93.8232 75.8774C94.1425 76.1967 94.3022 76.58 94.3022 77.0271C94.3022 77.6659 94.0376 78.2271 93.5083 78.7108C92.9882 79.1944 92.3859 79.4362 91.7015 79.4362C91.2635 79.4362 90.8529 79.3404 90.4696 79.1488C90.0955 78.9571 89.8263 78.7655 89.662 78.5739L89.4157 78.2864L90.497 77.0271C90.5518 77.1001 90.6293 77.1914 90.7297 77.3009C90.8301 77.4104 91.0263 77.5564 91.3183 77.7389C91.6194 77.9214 91.9069 78.0127 92.1806 78.0127ZM98.2383 77.8895C98.5029 77.8895 98.7812 77.821 99.0732 77.6842C99.3652 77.5473 99.5934 77.4104 99.7576 77.2735L100.004 77.0682L100.634 77.8347C100.542 77.9899 100.401 78.1678 100.209 78.3686C100.018 78.5693 99.8215 78.7427 99.6207 78.8887C99.4291 79.0256 99.169 79.1533 98.8405 79.272C98.5211 79.3815 98.1881 79.4362 97.8413 79.4362C97.1022 79.4362 96.4999 79.1579 96.0345 78.6012C95.5691 78.0355 95.3364 77.31 95.3364 76.4249C95.3364 75.3116 95.6604 74.3352 96.3083 73.4957C96.9562 72.6561 97.7135 72.2364 98.5805 72.2364C99.2466 72.2364 99.7622 72.4234 100.127 72.7976C100.501 73.1717 100.688 73.6964 100.688 74.3717C100.688 74.7732 100.62 75.2295 100.483 75.7405L100.209 76.0279L96.7873 76.3427C96.9425 77.3739 97.4261 77.8895 98.2383 77.8895ZM98.2383 73.6462C97.8367 73.6462 97.4991 73.8105 97.2253 74.139C96.9516 74.4584 96.7919 74.869 96.7463 75.3709L99.0732 75.0835C99.1006 74.8736 99.1143 74.7002 99.1143 74.5633C99.1143 73.9519 98.8223 73.6462 98.2383 73.6462ZM108.197 70.3748C107.86 70.2927 107.554 70.2516 107.28 70.2516C107.007 70.2516 106.806 70.3338 106.678 70.498C106.559 70.6623 106.5 70.9497 106.5 71.3603L106.486 72.6607H107.965L107.814 73.7831H106.486L106.473 75.7268L106.623 78.9434L104.775 79.2856L104.94 75.9595L104.885 73.7831H103.982L104.132 72.6607H104.858L104.844 71.6204C104.844 70.8083 105.095 70.1193 105.597 69.5535C106.099 68.9786 106.71 68.6912 107.431 68.6912C107.814 68.6912 108.211 68.7323 108.622 68.8144L108.197 70.3748ZM108.55 76.4249C108.55 75.2568 108.864 74.2667 109.494 73.4546C110.124 72.6424 110.858 72.2364 111.698 72.2364C112.547 72.2364 113.204 72.5101 113.669 73.0576C114.143 73.6052 114.381 74.3306 114.381 75.234C114.381 76.4386 114.075 77.4423 113.464 78.2454C112.861 79.0393 112.099 79.4362 111.178 79.4362C110.42 79.4362 109.791 79.1533 109.289 78.5876C108.796 78.0127 108.55 77.2918 108.55 76.4249ZM112.848 75.9458C112.848 74.6226 112.396 73.961 111.493 73.961C110.553 73.961 110.083 74.5816 110.083 75.8226C110.083 76.4705 110.215 76.977 110.48 77.342C110.744 77.707 111.091 77.8895 111.52 77.8895C111.958 77.8895 112.286 77.7252 112.505 77.3967C112.734 77.0591 112.848 76.5754 112.848 75.9458ZM115.687 72.6744L117.343 72.3185C117.425 73.0211 117.48 73.6873 117.507 74.3169C118.338 73.0303 119.118 72.3869 119.848 72.3869L119.697 74.5223C119.168 74.5223 118.748 74.5724 118.438 74.6728C118.137 74.7641 117.827 74.9511 117.507 75.234V75.7268L117.658 78.9434L115.824 79.2856L115.988 75.9595C115.951 74.7367 115.851 73.6417 115.687 72.6744ZM30.4199 96.9274L31.8298 93.7655L30.8169 91.0005L29.4344 87.6744L31.2549 87.3322L32.1309 90.2477L32.5826 91.6302H32.7606L33.0891 90.631L34.0746 87.3185L35.7582 87.5238L33.3355 93.8887L32.1857 97.297L30.4199 96.9274ZM36.4542 91.4249C36.4542 90.2568 36.769 89.2667 37.3986 88.4546C38.0283 87.6424 38.7629 87.2364 39.6024 87.2364C40.451 87.2364 41.1081 87.5101 41.5735 88.0576C42.048 88.6052 42.2852 89.3306 42.2852 90.234C42.2852 91.4386 41.9795 92.4423 41.3681 93.2454C40.7659 94.0393 40.0039 94.4362 39.0823 94.4362C38.3249 94.4362 37.6952 94.1533 37.1933 93.5876C36.7006 93.0127 36.4542 92.2918 36.4542 91.4249ZM40.7522 90.9458C40.7522 89.6226 40.3005 88.961 39.3971 88.961C38.4572 88.961 37.9872 89.5816 37.9872 90.8226C37.9872 91.4705 38.1195 91.977 38.3842 92.342C38.6488 92.707 38.9956 92.8895 39.4245 92.8895C39.8625 92.8895 40.191 92.7252 40.41 92.3967C40.6381 92.0591 40.7522 91.5754 40.7522 90.9458ZM45.3845 94.2856C44.8917 94.2856 44.4902 94.126 44.1799 93.8066C43.8788 93.4781 43.7282 93.0492 43.7282 92.5199L43.8104 90.9458L43.6598 87.6607L45.494 87.3185L45.316 91.4796C45.316 91.872 45.3845 92.1595 45.5213 92.342C45.6674 92.5245 45.8955 92.6157 46.2057 92.6157C46.516 92.6157 46.9449 92.4606 47.4924 92.1503V91.3291L47.3418 87.7291L49.1897 87.3869L49.0255 90.8089L49.0391 91.9313C49.0391 92.5153 49.1897 93.1039 49.4908 93.6971L48.0673 94.3267C47.7662 93.7336 47.5837 93.2591 47.5198 92.9032C46.6985 93.8248 45.9867 94.2856 45.3845 94.2856ZM52.9 95.6407C52.9 94.8377 53.6483 94.2081 55.1448 93.7518C54.7889 93.5693 54.611 93.3321 54.611 93.04C54.611 92.9214 54.6566 92.8028 54.7479 92.6842C54.8391 92.5655 54.9714 92.4423 55.1448 92.3146V92.2051C54.4878 92.2051 53.9631 92.0226 53.5707 91.6576C53.1874 91.2926 52.9958 90.8044 52.9958 90.193C52.9958 89.3991 53.3198 88.7101 53.9676 88.1261C54.6155 87.5329 55.3821 87.2364 56.2672 87.2364C56.4953 87.2364 56.8284 87.282 57.2664 87.3732C57.7044 87.4645 58.1333 87.5101 58.5531 87.5101H59.6071L59.4702 88.701L58.4436 88.5778C58.5348 88.8424 58.5805 89.1436 58.5805 89.4812C58.5805 89.8188 58.4983 90.1565 58.3341 90.4941C58.179 90.8226 57.9873 91.0872 57.7592 91.288C57.5402 91.4887 57.3166 91.6667 57.0885 91.8218C56.8695 91.9678 56.6779 92.1001 56.5136 92.2188C56.3585 92.3283 56.2809 92.4287 56.2809 92.5199C56.2809 92.6933 56.4634 92.8439 56.8284 92.9716C57.7957 93.364 58.4482 93.6971 58.7858 93.9708C59.1326 94.2446 59.3059 94.5822 59.3059 94.9837C59.3059 95.659 58.9637 96.2111 58.2793 96.64C57.6041 97.078 56.7965 97.297 55.8566 97.297C54.9167 97.297 54.1867 97.1464 53.6665 96.8453C53.1555 96.5442 52.9 96.1426 52.9 95.6407ZM57.0337 89.8918C57.0337 89.4447 56.9334 89.1162 56.7326 88.9063C56.5318 88.6964 56.217 88.5915 55.7881 88.5915C54.9577 88.5915 54.5425 89.0021 54.5425 89.8234C54.5425 90.6355 54.9851 91.0416 55.8703 91.0416C56.6459 91.0416 57.0337 90.6583 57.0337 89.8918ZM57.5265 95.189C57.5265 95.0248 57.4398 94.8697 57.2664 94.7237C57.0931 94.5868 56.7828 94.4225 56.3357 94.2309C55.6695 94.4134 55.2087 94.5822 54.9532 94.7373C54.7068 94.8925 54.5836 95.0841 54.5836 95.3122C54.5836 95.5404 54.7068 95.7229 54.9532 95.8598C55.2087 96.0058 55.56 96.0788 56.0071 96.0788C56.4543 96.0788 56.8193 95.9966 57.1022 95.8324C57.3851 95.6681 57.5265 95.4537 57.5265 95.189ZM63.0675 92.8895C63.3322 92.8895 63.6105 92.821 63.9025 92.6842C64.1945 92.5473 64.4226 92.4104 64.5869 92.2735L64.8333 92.0682L65.4629 92.8347C65.3717 92.9899 65.2302 93.1678 65.0386 93.3686C64.847 93.5693 64.6508 93.7427 64.45 93.8887C64.2584 94.0256 63.9983 94.1533 63.6698 94.272C63.3504 94.3815 63.0174 94.4362 62.6706 94.4362C61.9314 94.4362 61.3292 94.1579 60.8638 93.6012C60.3984 93.0355 60.1657 92.31 60.1657 91.4249C60.1657 90.3116 60.4897 89.3352 61.1375 88.4957C61.7854 87.6561 62.5428 87.2364 63.4097 87.2364C64.0759 87.2364 64.5915 87.4234 64.9565 87.7976C65.3306 88.1717 65.5177 88.6964 65.5177 89.3717C65.5177 89.7732 65.4492 90.2295 65.3124 90.7405L65.0386 91.0279L61.6166 91.3427C61.7718 92.3739 62.2554 92.8895 63.0675 92.8895ZM63.0675 88.6462C62.666 88.6462 62.3284 88.8105 62.0546 89.139C61.7809 89.4584 61.6212 89.869 61.5756 90.3709L63.9025 90.0835C63.9299 89.8736 63.9436 89.7002 63.9436 89.5633C63.9436 88.9519 63.6516 88.6462 63.0675 88.6462ZM67.5201 87.6607V86.1687L69.3679 85.8128L69.19 87.6607H70.8462L70.6957 88.7831H69.1352L69.0668 91.6439C69.0668 92.0728 69.1079 92.3602 69.19 92.5062C69.2721 92.6431 69.4227 92.7115 69.6417 92.7115C69.8607 92.7115 70.1527 92.6613 70.5177 92.561L70.5998 93.5328C69.9976 94.0347 69.4683 94.2856 69.0121 94.2856C68.5558 94.2856 68.1817 94.1214 67.8896 93.7929C67.5976 93.4552 67.4516 93.0172 67.4516 92.4788L67.5338 90.9458L67.5201 88.7831H66.5756L66.7262 87.6607H67.5201ZM78.1113 92.9716C77.436 93.8476 76.8064 94.2856 76.2224 94.2856C75.6384 94.2856 75.1319 94.0301 74.703 93.5191C74.2741 93.0081 74.0597 92.3191 74.0597 91.4522C74.0597 90.3116 74.3745 89.3489 75.0041 88.5641C75.6429 87.7793 76.4231 87.3869 77.3448 87.3869L78.6451 87.5649L79.8086 87.2364L79.6443 90.7268L79.8086 96.859L77.9334 97.2012L78.1113 94.4362V92.9716ZM75.5927 90.6857C75.5927 91.9633 76.0079 92.602 76.8383 92.602C77.249 92.602 77.6733 92.4378 78.1113 92.1093V90.9595L78.0155 89.1253C77.4497 89.034 77.0756 88.9884 76.8931 88.9884C76.4916 88.9884 76.1722 89.1299 75.9349 89.4127C75.7068 89.6865 75.5927 90.1108 75.5927 90.6857ZM83.3117 94.2856C82.819 94.2856 82.4175 94.126 82.1072 93.8066C81.8061 93.4781 81.6555 93.0492 81.6555 92.5199L81.7376 90.9458L81.5871 87.6607L83.4212 87.3185L83.2433 91.4796C83.2433 91.872 83.3117 92.1595 83.4486 92.342C83.5946 92.5245 83.8228 92.6157 84.133 92.6157C84.4433 92.6157 84.8722 92.4606 85.4197 92.1503V91.3291L85.2691 87.7291L87.117 87.3869L86.9527 90.8089L86.9664 91.9313C86.9664 92.5153 87.117 93.1039 87.4181 93.6971L85.9946 94.3267C85.6934 93.7336 85.5109 93.2591 85.4471 92.9032C84.6258 93.8248 83.914 94.2856 83.3117 94.2856ZM90.2894 94.2856C89.751 94.2856 89.3084 94.1168 88.9616 93.7792C88.624 93.4324 88.4552 92.9716 88.4552 92.3967C88.4552 91.8127 88.7198 91.3108 89.2491 90.891C89.7784 90.4622 90.4217 90.2477 91.1791 90.2477H92.1099V90.015C92.1099 89.5679 92.0186 89.2622 91.8361 89.0979C91.6536 88.9337 91.3114 88.8515 90.8095 88.8515C90.5996 88.8515 90.3487 88.8972 90.0567 88.9884C89.7738 89.0706 89.4544 89.2029 89.0985 89.3854L88.7016 88.304C89.094 88.0303 89.5685 87.7839 90.1251 87.5649C90.6909 87.3459 91.1563 87.2364 91.5213 87.2364C92.9539 87.2364 93.6703 87.9299 93.6703 89.3169V91.9998C93.6703 92.5108 93.83 93.0811 94.1494 93.7108L92.6984 94.3267C92.4703 93.8887 92.3015 93.4963 92.192 93.1495C91.6901 93.9069 91.0559 94.2856 90.2894 94.2856ZM90.8643 92.8895C91.2293 92.8895 91.6445 92.7024 92.1099 92.3283V91.4112C91.6262 91.3017 91.2338 91.2469 90.9327 91.2469C90.3578 91.2469 90.0704 91.5024 90.0704 92.0135C90.0704 92.2781 90.1434 92.4925 90.2894 92.6568C90.4354 92.8119 90.627 92.8895 90.8643 92.8895ZM97.4858 83.6912L97.3079 90.7268L97.4584 93.9434L95.6105 94.2856L95.7748 90.9595L95.6105 84.0334L97.4858 83.6912ZM101.181 87.3185L101.016 90.7268L101.167 93.9434L99.3327 94.2856L99.497 90.9595L99.3464 87.6607L101.181 87.3185ZM99.2506 85.3201C99.2506 85.0098 99.3692 84.736 99.6065 84.4988C99.8437 84.2524 100.117 84.1292 100.428 84.1292C100.738 84.1292 100.975 84.2159 101.14 84.3893C101.304 84.5535 101.386 84.8045 101.386 85.1421C101.386 85.4798 101.267 85.7718 101.03 86.0181C100.802 86.2554 100.533 86.374 100.222 86.374C99.9213 86.374 99.684 86.2737 99.5106 86.0729C99.3373 85.8721 99.2506 85.6212 99.2506 85.3201ZM106.617 85.3748C106.279 85.2927 105.973 85.2516 105.7 85.2516C105.426 85.2516 105.225 85.3338 105.097 85.498C104.979 85.6623 104.919 85.9497 104.919 86.3603L104.906 87.6607H106.384L106.233 88.7831H104.906L104.892 90.7268L105.042 93.9434L103.195 94.2856L103.359 90.9595L103.304 88.7831H102.401L102.551 87.6607H103.277L103.263 86.6204C103.263 85.8083 103.514 85.1193 104.016 84.5535C104.518 83.9786 105.129 83.6912 105.85 83.6912C106.233 83.6912 106.63 83.7323 107.041 83.8144L106.617 85.3748ZM109.214 87.3185L109.049 90.7268L109.2 93.9434L107.366 94.2856L107.53 90.9595L107.379 87.6607L109.214 87.3185ZM107.284 85.3201C107.284 85.0098 107.402 84.736 107.64 84.4988C107.877 84.2524 108.151 84.1292 108.461 84.1292C108.771 84.1292 109.008 84.2159 109.173 84.3893C109.337 84.5535 109.419 84.8045 109.419 85.1421C109.419 85.4798 109.3 85.7718 109.063 86.0181C108.835 86.2554 108.566 86.374 108.256 86.374C107.954 86.374 107.717 86.2737 107.544 86.0729C107.37 85.8721 107.284 85.6212 107.284 85.3201ZM113.459 92.8895C113.723 92.8895 114.002 92.821 114.294 92.6842C114.586 92.5473 114.814 92.4104 114.978 92.2735L115.225 92.0682L115.854 92.8347C115.763 92.9899 115.622 93.1678 115.43 93.3686C115.238 93.5693 115.042 93.7427 114.841 93.8887C114.65 94.0256 114.39 94.1533 114.061 94.272C113.742 94.3815 113.409 94.4362 113.062 94.4362C112.323 94.4362 111.72 94.1579 111.255 93.6012C110.79 93.0355 110.557 92.31 110.557 91.4249C110.557 90.3116 110.881 89.3352 111.529 88.4957C112.177 87.6561 112.934 87.2364 113.801 87.2364C114.467 87.2364 114.983 87.4234 115.348 87.7976C115.722 88.1717 115.909 88.6964 115.909 89.3717C115.909 89.7732 115.841 90.2295 115.704 90.7405L115.43 91.0279L112.008 91.3427C112.163 92.3739 112.647 92.8895 113.459 92.8895ZM113.459 88.6462C113.057 88.6462 112.72 88.8105 112.446 89.139C112.172 89.4584 112.012 89.869 111.967 90.3709L114.294 90.0835C114.321 89.8736 114.335 89.7002 114.335 89.5633C114.335 88.9519 114.043 88.6462 113.459 88.6462ZM120.991 92.9442C120.279 93.8385 119.663 94.2856 119.143 94.2856C118.495 94.2856 117.962 94.021 117.542 93.4917C117.131 92.9625 116.926 92.2826 116.926 91.4522C116.926 90.3116 117.241 89.3489 117.87 88.5641C118.509 87.7793 119.289 87.3869 120.211 87.3869L120.977 87.4964V87.2364L120.813 84.0334L122.688 83.6912L122.51 90.7268V91.9313C122.51 92.4788 122.647 93.1085 122.921 93.8203L121.443 94.4362C121.178 93.8887 121.028 93.3914 120.991 92.9442ZM118.459 90.7405C118.459 91.3245 118.564 91.7808 118.774 92.1093C118.993 92.4378 119.303 92.602 119.704 92.602C120.115 92.602 120.539 92.4378 120.977 92.1093V89.1527C120.43 89.0432 120.024 88.9884 119.759 88.9884C119.349 88.9884 119.029 89.1344 118.801 89.4264C118.573 89.7184 118.459 90.1565 118.459 90.7405ZM34.8317 109.286C34.2933 109.286 33.8507 109.117 33.504 108.779C33.1663 108.432 32.9975 107.972 32.9975 107.397C32.9975 106.813 33.2621 106.311 33.7914 105.891C34.3207 105.462 34.964 105.248 35.7214 105.248H36.6522V105.015C36.6522 104.568 36.5609 104.262 36.3784 104.098C36.1959 103.934 35.8537 103.852 35.3518 103.852C35.1419 103.852 34.891 103.897 34.599 103.988C34.3161 104.071 33.9967 104.203 33.6408 104.385L33.2439 103.304C33.6363 103.03 34.1108 102.784 34.6674 102.565C35.2332 102.346 35.6986 102.236 36.0636 102.236C37.4963 102.236 38.2126 102.93 38.2126 104.317V107C38.2126 107.511 38.3723 108.081 38.6917 108.711L37.2408 109.327C37.0126 108.889 36.8438 108.496 36.7343 108.15C36.2324 108.907 35.5982 109.286 34.8317 109.286ZM35.4066 107.889C35.7716 107.889 36.1868 107.702 36.6522 107.328V106.411C36.1685 106.302 35.7761 106.247 35.475 106.247C34.9001 106.247 34.6127 106.502 34.6127 107.013C34.6127 107.278 34.6857 107.493 34.8317 107.657C34.9777 107.812 35.1693 107.889 35.4066 107.889ZM42.2197 108.013C42.6942 108.013 42.9315 107.803 42.9315 107.383C42.9315 107.237 42.8266 107.1 42.6167 106.972C42.4159 106.845 42.165 106.717 41.8638 106.589C41.5718 106.461 41.2753 106.32 40.9741 106.165C40.6821 106.001 40.4312 105.777 40.2213 105.494C40.0205 105.211 39.9202 104.887 39.9202 104.522C39.9202 103.911 40.1894 103.377 40.7277 102.921C41.2661 102.465 41.8867 102.236 42.5893 102.236C42.9178 102.236 43.2372 102.277 43.5475 102.36C43.8668 102.433 44.1725 102.551 44.4645 102.715L43.5475 104.385C43.4836 104.331 43.4015 104.262 43.3011 104.18C43.2007 104.098 43.0091 103.993 42.7262 103.865C42.4524 103.728 42.206 103.66 41.987 103.66C41.7772 103.66 41.6129 103.71 41.4943 103.81C41.3848 103.902 41.33 104.034 41.33 104.207C41.33 104.372 41.4851 104.541 41.7954 104.714C42.1148 104.878 42.4615 105.033 42.8357 105.179C43.2098 105.316 43.552 105.549 43.8623 105.877C44.1817 106.197 44.3414 106.58 44.3414 107.027C44.3414 107.666 44.0767 108.227 43.5475 108.711C43.0273 109.194 42.425 109.436 41.7407 109.436C41.3026 109.436 40.892 109.34 40.5087 109.149C40.1346 108.957 39.8654 108.766 39.7012 108.574L39.4548 108.286L40.5361 107.027C40.5909 107.1 40.6684 107.191 40.7688 107.301C40.8692 107.41 41.0654 107.556 41.3574 107.739C41.6585 107.921 41.946 108.013 42.2197 108.013ZM48.3909 111.927L49.8008 108.766L48.7879 106.001L47.4054 102.674L49.2259 102.332L50.1019 105.248L50.5536 106.63H50.7316L51.0601 105.631L52.0456 102.318L53.7292 102.524L51.3065 108.889L50.1567 112.297L48.3909 111.927ZM54.4252 106.425C54.4252 105.257 54.74 104.267 55.3696 103.455C55.9993 102.642 56.7339 102.236 57.5734 102.236C58.422 102.236 59.0791 102.51 59.5445 103.058C60.019 103.605 60.2562 104.331 60.2562 105.234C60.2562 106.439 59.9505 107.442 59.3391 108.245C58.7369 109.039 57.9749 109.436 57.0533 109.436C56.2959 109.436 55.6662 109.153 55.1643 108.588C54.6716 108.013 54.4252 107.292 54.4252 106.425ZM58.7232 105.946C58.7232 104.623 58.2715 103.961 57.3681 103.961C56.4282 103.961 55.9582 104.582 55.9582 105.823C55.9582 106.47 56.0905 106.977 56.3552 107.342C56.6198 107.707 56.9666 107.889 57.3955 107.889C57.8335 107.889 58.162 107.725 58.381 107.397C58.6091 107.059 58.7232 106.575 58.7232 105.946ZM63.3555 109.286C62.8627 109.286 62.4612 109.126 62.1509 108.807C61.8498 108.478 61.6992 108.049 61.6992 107.52L61.7814 105.946L61.6308 102.661L63.465 102.318L63.287 106.48C63.287 106.872 63.3555 107.159 63.4923 107.342C63.6384 107.524 63.8665 107.616 64.1767 107.616C64.487 107.616 64.9159 107.461 65.4634 107.15V106.329L65.3128 102.729L67.1607 102.387L66.9965 105.809L67.0101 106.931C67.0101 107.515 67.1607 108.104 67.4618 108.697L66.0383 109.327C65.7372 108.734 65.5547 108.259 65.4908 107.903C64.6695 108.825 63.9577 109.286 63.3555 109.286ZM75.0047 102.373C75.5888 102.373 76.077 102.629 76.4693 103.14C76.8709 103.651 77.0716 104.34 77.0716 105.207C77.0716 106.42 76.7568 107.406 76.1271 108.163C75.5066 108.912 74.731 109.286 73.8002 109.286C73.6086 109.286 73.3941 109.272 73.1569 109.245L73.2253 111.859L71.3501 112.201L71.528 105.959H71.5417C71.5052 104.737 71.4048 103.642 71.2406 102.674L72.8968 102.318C72.9515 102.802 72.9972 103.281 73.0337 103.756C73.0519 103.71 73.1432 103.587 73.3074 103.386C73.4808 103.176 73.7318 102.957 74.0603 102.729C74.3888 102.492 74.7036 102.373 75.0047 102.373ZM74.4709 104.153C73.9873 104.153 73.5173 104.285 73.0611 104.55V105.727L73.1158 107.684C73.6086 107.766 73.9827 107.807 74.2382 107.807C75.1142 107.807 75.5523 107.201 75.5523 105.987C75.5523 104.764 75.1918 104.153 74.4709 104.153ZM78.3306 102.674L79.9868 102.318C80.0689 103.021 80.1237 103.687 80.1511 104.317C80.9815 103.03 81.7617 102.387 82.4917 102.387L82.3411 104.522C81.8119 104.522 81.3921 104.572 81.0818 104.673C80.7807 104.764 80.4704 104.951 80.1511 105.234V105.727L80.3016 108.943L78.4675 109.286L78.6317 105.959C78.5952 104.737 78.4948 103.642 78.3306 102.674ZM83.2233 106.425C83.2233 105.257 83.5381 104.267 84.1677 103.455C84.7974 102.642 85.532 102.236 86.3715 102.236C87.2201 102.236 87.8771 102.51 88.3425 103.058C88.8171 103.605 89.0543 104.331 89.0543 105.234C89.0543 106.439 88.7486 107.442 88.1372 108.245C87.535 109.039 86.773 109.436 85.8513 109.436C85.0939 109.436 84.4643 109.153 83.9624 108.588C83.4696 108.013 83.2233 107.292 83.2233 106.425ZM87.5213 105.946C87.5213 104.623 87.0696 103.961 86.1662 103.961C85.2263 103.961 84.7563 104.582 84.7563 105.823C84.7563 106.47 84.8886 106.977 85.1533 107.342C85.4179 107.707 85.7646 107.889 86.1935 107.889C86.6315 107.889 86.9601 107.725 87.1791 107.397C87.4072 107.059 87.5213 106.575 87.5213 105.946ZM90.0319 110.641C90.0319 109.838 90.7802 109.208 92.2767 108.752C91.9209 108.569 91.7429 108.332 91.7429 108.04C91.7429 107.921 91.7885 107.803 91.8798 107.684C91.971 107.566 92.1034 107.442 92.2767 107.315V107.205C91.6197 107.205 91.095 107.023 90.7026 106.658C90.3194 106.293 90.1277 105.804 90.1277 105.193C90.1277 104.399 90.4517 103.71 91.0996 103.126C91.7475 102.533 92.514 102.236 93.3992 102.236C93.6273 102.236 93.9604 102.282 94.3984 102.373C94.8364 102.465 95.2653 102.51 95.685 102.51H96.739L96.6021 103.701L95.5755 103.578C95.6668 103.842 95.7124 104.144 95.7124 104.481C95.7124 104.819 95.6303 105.156 95.466 105.494C95.3109 105.823 95.1193 106.087 94.8911 106.288C94.6721 106.489 94.4486 106.667 94.2204 106.822C94.0014 106.968 93.8098 107.1 93.6455 107.219C93.4904 107.328 93.4128 107.429 93.4128 107.52C93.4128 107.693 93.5953 107.844 93.9604 107.972C94.9276 108.364 95.5801 108.697 95.9177 108.971C96.2645 109.245 96.4379 109.582 96.4379 109.984C96.4379 110.659 96.0957 111.211 95.4113 111.64C94.736 112.078 93.9284 112.297 92.9885 112.297C92.0486 112.297 91.3186 112.146 90.7984 111.845C90.2874 111.544 90.0319 111.143 90.0319 110.641ZM94.1657 104.892C94.1657 104.445 94.0653 104.116 93.8645 103.906C93.6638 103.696 93.349 103.591 92.9201 103.591C92.0897 103.591 91.6745 104.002 91.6745 104.823C91.6745 105.636 92.117 106.042 93.0022 106.042C93.7778 106.042 94.1657 105.658 94.1657 104.892ZM94.6584 110.189C94.6584 110.025 94.5717 109.87 94.3984 109.724C94.225 109.587 93.9147 109.423 93.4676 109.231C92.8014 109.413 92.3406 109.582 92.0851 109.737C91.8387 109.892 91.7155 110.084 91.7155 110.312C91.7155 110.54 91.8387 110.723 92.0851 110.86C92.3406 111.006 92.6919 111.079 93.1391 111.079C93.5862 111.079 93.9512 110.997 94.2341 110.832C94.517 110.668 94.6584 110.454 94.6584 110.189ZM97.5851 102.674L99.2413 102.318C99.3235 103.021 99.3782 103.687 99.4056 104.317C100.236 103.03 101.016 102.387 101.746 102.387L101.596 104.522C101.066 104.522 100.647 104.572 100.336 104.673C100.035 104.764 99.725 104.951 99.4056 105.234V105.727L99.5561 108.943L97.722 109.286L97.8862 105.959C97.8497 104.737 97.7493 103.642 97.5851 102.674ZM105.352 107.889C105.617 107.889 105.895 107.821 106.187 107.684C106.479 107.547 106.707 107.41 106.872 107.274L107.118 107.068L107.748 107.835C107.656 107.99 107.515 108.168 107.323 108.369C107.132 108.569 106.935 108.743 106.735 108.889C106.543 109.026 106.283 109.153 105.954 109.272C105.635 109.381 105.302 109.436 104.955 109.436C104.216 109.436 103.614 109.158 103.148 108.601C102.683 108.035 102.45 107.31 102.45 106.425C102.45 105.312 102.774 104.335 103.422 103.496C104.07 102.656 104.828 102.236 105.694 102.236C106.361 102.236 106.876 102.423 107.241 102.798C107.615 103.172 107.802 103.696 107.802 104.372C107.802 104.773 107.734 105.229 107.597 105.74L107.323 106.028L103.901 106.343C104.056 107.374 104.54 107.889 105.352 107.889ZM105.352 103.646C104.951 103.646 104.613 103.81 104.339 104.139C104.066 104.458 103.906 104.869 103.86 105.371L106.187 105.083C106.215 104.874 106.228 104.7 106.228 104.563C106.228 103.952 105.936 103.646 105.352 103.646ZM111.338 108.013C111.812 108.013 112.05 107.803 112.05 107.383C112.05 107.237 111.945 107.1 111.735 106.972C111.534 106.845 111.283 106.717 110.982 106.589C110.69 106.461 110.393 106.32 110.092 106.165C109.8 106.001 109.549 105.777 109.339 105.494C109.139 105.211 109.038 104.887 109.038 104.522C109.038 103.911 109.307 103.377 109.846 102.921C110.384 102.465 111.005 102.236 111.707 102.236C112.036 102.236 112.355 102.277 112.666 102.36C112.985 102.433 113.291 102.551 113.583 102.715L112.666 104.385C112.602 104.331 112.52 104.262 112.419 104.18C112.319 104.098 112.127 103.993 111.844 103.865C111.57 103.728 111.324 103.66 111.105 103.66C110.895 103.66 110.731 103.71 110.612 103.81C110.503 103.902 110.448 104.034 110.448 104.207C110.448 104.372 110.603 104.541 110.913 104.714C111.233 104.878 111.58 105.033 111.954 105.179C112.328 105.316 112.67 105.549 112.98 105.877C113.3 106.197 113.459 106.58 113.459 107.027C113.459 107.666 113.195 108.227 112.666 108.711C112.145 109.194 111.543 109.436 110.859 109.436C110.421 109.436 110.01 109.34 109.627 109.149C109.253 108.957 108.983 108.766 108.819 108.574L108.573 108.286L109.654 107.027C109.709 107.1 109.786 107.191 109.887 107.301C109.987 107.41 110.183 107.556 110.475 107.739C110.777 107.921 111.064 108.013 111.338 108.013ZM116.998 108.013C117.473 108.013 117.71 107.803 117.71 107.383C117.71 107.237 117.605 107.1 117.395 106.972C117.195 106.845 116.944 106.717 116.643 106.589C116.351 106.461 116.054 106.32 115.753 106.165C115.461 106.001 115.21 105.777 115 105.494C114.799 105.211 114.699 104.887 114.699 104.522C114.699 103.911 114.968 103.377 115.507 102.921C116.045 102.465 116.665 102.236 117.368 102.236C117.697 102.236 118.016 102.277 118.326 102.36C118.646 102.433 118.951 102.551 119.243 102.715L118.326 104.385C118.262 104.331 118.18 104.262 118.08 104.18C117.979 104.098 117.788 103.993 117.505 103.865C117.231 103.728 116.985 103.66 116.766 103.66C116.556 103.66 116.392 103.71 116.273 103.81C116.164 103.902 116.109 104.034 116.109 104.207C116.109 104.372 116.264 104.541 116.574 104.714C116.894 104.878 117.24 105.033 117.614 105.179C117.989 105.316 118.331 105.549 118.641 105.877C118.96 106.197 119.12 106.58 119.12 107.027C119.12 107.666 118.855 108.227 118.326 108.711C117.806 109.194 117.204 109.436 116.519 109.436C116.081 109.436 115.671 109.34 115.288 109.149C114.913 108.957 114.644 108.766 114.48 108.574L114.234 108.286L115.315 107.027C115.37 107.1 115.447 107.191 115.548 107.301C115.648 107.41 115.844 107.556 116.136 107.739C116.437 107.921 116.725 108.013 116.998 108.013ZM120.209 108.369C120.209 108.077 120.314 107.821 120.524 107.602C120.743 107.374 121.003 107.26 121.304 107.26C121.897 107.26 122.194 107.561 122.194 108.163C122.194 108.51 122.084 108.797 121.865 109.026C121.655 109.254 121.404 109.368 121.112 109.368C120.83 109.368 120.606 109.277 120.442 109.094C120.287 108.902 120.209 108.661 120.209 108.369Z" fill="black"/>
</svg>
