<svg width="150" height="150" viewBox="0 0 150 150" fill="none" xmlns="http://www.w3.org/2000/svg">
<circle cx="75" cy="75" r="74.7857" fill="#D6B6FF" stroke="black" stroke-width="0.428571"/>
<circle cx="74.9996" cy="75.0001" r="63.8571" fill="white" stroke="black" stroke-width="0.857143"/>
<path d="M55.4412 53.1041H55.7086L56.8513 48.9225L59.1852 39.2221L61.9324 39.6597L59.2825 49.3115L57.6536 55.9486L53.2045 56.2646L51.8188 49.7734L50.9922 46.5643L50.2628 49.3115L48.6339 55.9486L44.2578 56.2646L42.7991 49.7734L40.2707 39.8299L43.4312 39.2221L45.4005 48.6064L46.4945 53.1041H46.7619L48.0505 48.6064L49.8252 42.0423L49.266 39.8299L52.4752 39.2221L54.3958 48.6064L55.4412 53.1041ZM71.3363 49.9922C71.3363 48.8739 71.2391 48.1283 71.0446 47.7555C70.8501 47.3828 70.3963 47.1964 69.6831 47.1964C68.97 47.1964 68.1596 47.48 67.2519 48.0473V49.822L67.5194 55.5353L64.2373 56.1431L64.529 50.2353L64.2373 37.9336L67.568 37.3258L67.2519 43.6225V46.467C67.4951 46.1429 67.7706 45.8268 68.0785 45.5189C68.3865 45.2109 68.8646 44.8624 69.5129 44.4735C70.1612 44.0845 70.8501 43.89 71.5794 43.89C72.325 43.89 72.949 44.1817 73.4514 44.7652C73.9539 45.3325 74.2051 46.1104 74.2051 47.0991L74.0592 49.822L74.3266 55.6568L71.0446 56.2646L71.3363 49.9922ZM77.837 60.8352L80.3411 55.2192L78.5421 50.3083L76.0866 44.4005L79.32 43.7927L80.876 48.9711L81.6783 51.4266H81.9943L82.5778 49.6518L84.3282 43.7684L87.3186 44.1331L83.0154 55.438L80.9732 61.4916L77.837 60.8352ZM97.5086 39.2464L97.1682 49.822L97.46 56.1431H94.0563L94.3481 50.2353L94.0563 39.8542L97.5086 39.2464ZM102.292 44.3762V41.7262L105.574 41.0941L105.258 44.3762H108.2L107.932 46.3698H105.161L105.039 51.4509C105.039 52.2127 105.112 52.7232 105.258 52.9825C105.404 53.2257 105.671 53.3472 106.06 53.3472C106.449 53.3472 106.968 53.2581 107.616 53.0798L107.762 54.8059C106.693 55.6974 105.752 56.1431 104.942 56.1431C104.132 56.1431 103.467 55.8513 102.949 55.2678C102.43 54.6682 102.171 53.8902 102.171 52.9339L102.316 50.211L102.292 46.3698H100.615L100.882 44.3762H102.292Z" fill="black"/>
<path d="M55.4412 79.1041H55.7086L56.8513 74.9225L59.1852 65.2221L61.9324 65.6597L59.2825 75.3115L57.6536 81.9486L53.2045 82.2646L51.8188 75.7734L50.9922 72.5643L50.2628 75.3115L48.6339 81.9486L44.2578 82.2646L42.7991 75.7734L40.2707 65.8299L43.4312 65.2221L45.4005 74.6064L46.4945 79.1041H46.7619L48.0505 74.6064L49.8252 68.0423L49.266 65.8299L52.4752 65.2221L54.3958 74.6064L55.4412 79.1041ZM63.5079 77.0619C63.5079 74.9873 64.0671 73.2288 65.1855 71.7863C66.3038 70.3438 67.6085 69.6225 69.0996 69.6225C70.607 69.6225 71.7739 70.1088 72.6005 71.0812C73.4433 72.0537 73.8647 73.3422 73.8647 74.9468C73.8647 77.0862 73.3218 78.8691 72.2358 80.2954C71.1661 81.7055 69.8128 82.4105 68.1758 82.4105C66.8305 82.4105 65.7122 81.9081 64.8208 80.9032C63.9456 79.8821 63.5079 78.6017 63.5079 77.0619ZM71.1418 76.211C71.1418 73.8609 70.3395 72.6858 68.735 72.6858C67.0656 72.6858 66.2309 73.7879 66.2309 75.9922C66.2309 77.143 66.4659 78.0425 66.9359 78.6908C67.4059 79.3391 68.0218 79.6633 68.7836 79.6633C69.5616 79.6633 70.145 79.3715 70.534 78.7881C70.9392 78.1884 71.1418 77.3294 71.1418 76.211ZM76.1846 70.4005L79.1263 69.7684C79.2722 71.0164 79.3694 72.1996 79.418 73.3179C80.893 71.0326 82.2787 69.89 83.5753 69.89L83.3079 73.6826C82.3679 73.6826 81.6223 73.7717 81.0712 73.95C80.5364 74.1121 79.9853 74.4444 79.418 74.9468V75.822L79.6855 81.5353L76.4277 82.1431L76.7194 76.2353C76.6546 74.0635 76.4763 72.1185 76.1846 70.4005ZM93.1893 82.3862L88.6187 75.6518V75.822L88.8861 81.5353L85.604 82.1431L85.8958 76.2353L85.604 63.9336L88.9347 63.3258L88.6187 75.0684L93.481 69.7441L95.7663 71.3001L91.5118 75.2872L95.9608 80.5385L93.1893 82.3862ZM101.49 79.8821C102.333 79.8821 102.754 79.5093 102.754 78.7637C102.754 78.5044 102.568 78.2613 102.195 78.0344C101.838 77.8075 101.393 77.5806 100.858 77.3537C100.339 77.1268 99.8123 76.8755 99.2775 76.6C98.7588 76.3083 98.3131 75.9112 97.9403 75.4087C97.5838 74.9063 97.4055 74.3309 97.4055 73.6826C97.4055 72.5967 97.8836 71.6485 98.8399 70.8381C99.7961 70.0277 100.898 69.6225 102.146 69.6225C102.73 69.6225 103.297 69.6955 103.848 69.8414C104.415 69.971 104.958 70.1817 105.477 70.4735L103.848 73.4395C103.735 73.3422 103.589 73.2207 103.41 73.0748C103.232 72.9289 102.892 72.7425 102.389 72.5156C101.903 72.2725 101.466 72.151 101.077 72.151C100.704 72.151 100.412 72.2401 100.201 72.4184C100.007 72.5805 99.9096 72.8155 99.9096 73.1234C99.9096 73.4152 100.185 73.715 100.736 74.023C101.303 74.3147 101.919 74.5902 102.584 74.8496C103.248 75.0927 103.856 75.506 104.407 76.0895C104.975 76.6567 105.258 77.3375 105.258 78.1316C105.258 79.2662 104.788 80.263 103.848 81.122C102.924 81.981 101.855 82.4105 100.639 82.4105C99.8609 82.4105 99.1316 82.2403 98.4509 81.8999C97.7863 81.5596 97.3082 81.2192 97.0165 80.8789L96.5789 80.3683L98.4995 78.1316C98.5967 78.2613 98.7345 78.4234 98.9128 78.6179C99.0911 78.8124 99.4395 79.0717 99.9582 79.3958C100.493 79.72 101.004 79.8821 101.49 79.8821Z" fill="#9747FF"/>
<path d="M47.7587 92.3162C47.159 92.1703 46.6161 92.0974 46.1298 92.0974C45.6436 92.0974 45.287 92.2432 45.0601 92.535C44.8494 92.8267 44.7441 93.3372 44.7441 94.0666L44.7198 96.3762H47.3454L47.078 98.3698H44.7198L44.6954 101.822L44.9629 107.535L41.6808 108.143L41.9725 102.235L41.8753 98.3698H40.2707L40.5381 96.3762H41.8267L41.8024 94.5285C41.8024 93.086 42.2481 91.8623 43.1395 90.8575C44.0309 89.8364 45.1169 89.3258 46.3973 89.3258C47.078 89.3258 47.783 89.3988 48.5124 89.5446L47.7587 92.3162ZM48.3844 103.062C48.3844 100.987 48.9435 99.2288 50.0619 97.7863C51.1802 96.3438 52.4849 95.6225 53.9761 95.6225C55.4834 95.6225 56.6503 96.1088 57.4769 97.0812C58.3197 98.0537 58.7411 99.3422 58.7411 100.947C58.7411 103.086 58.1982 104.869 57.1123 106.295C56.0425 107.705 54.6892 108.41 53.0522 108.41C51.707 108.41 50.5886 107.908 49.6972 106.903C48.822 105.882 48.3844 104.602 48.3844 103.062ZM56.0182 102.211C56.0182 99.8609 55.216 98.6858 53.6114 98.6858C51.942 98.6858 51.1073 99.7879 51.1073 101.992C51.1073 103.143 51.3423 104.042 51.8123 104.691C52.2823 105.339 52.8982 105.663 53.66 105.663C54.438 105.663 55.0215 105.372 55.4104 104.788C55.8156 104.188 56.0182 103.329 56.0182 102.211ZM61.061 96.4005L64.0027 95.7684C64.1486 97.0164 64.2458 98.1996 64.2945 99.3179C65.7694 97.0326 67.1551 95.89 68.4518 95.89L68.1843 99.6826C67.2443 99.6826 66.4987 99.7717 65.9477 99.95C65.4128 100.112 64.8617 100.444 64.2945 100.947V101.822L64.5619 107.535L61.3041 108.143L61.5959 102.235C61.531 100.063 61.3528 98.1185 61.061 96.4005ZM80.188 98.5399H80.4798L82.2788 95.2336L84.1022 91.2221L87.0683 91.6597L84.8316 95.7198L81.6711 101.895L81.9385 108.143H78.5348L78.778 102.308L75.7147 96.0845L73.3808 91.8299L76.8087 91.2221L78.389 94.9175L80.188 98.5399ZM88.3163 103.062C88.3163 100.987 88.8755 99.2288 89.9938 97.7863C91.1122 96.3438 92.4169 95.6225 93.908 95.6225C95.4153 95.6225 96.5823 96.1088 97.4089 97.0812C98.2517 98.0537 98.6731 99.3422 98.6731 100.947C98.6731 103.086 98.1301 104.869 97.0442 106.295C95.9745 107.705 94.6211 108.41 92.9842 108.41C91.6389 108.41 90.5206 107.908 89.6291 106.903C88.7539 105.882 88.3163 104.602 88.3163 103.062ZM95.9502 102.211C95.9502 99.8609 95.1479 98.6858 93.5433 98.6858C91.8739 98.6858 91.0392 99.7879 91.0392 101.992C91.0392 103.143 91.2742 104.042 91.7443 104.691C92.2143 105.339 92.8302 105.663 93.5919 105.663C94.3699 105.663 94.9534 105.372 95.3424 104.788C95.7476 104.188 95.9502 103.329 95.9502 102.211ZM104.178 108.143C103.303 108.143 102.589 107.859 102.038 107.292C101.504 106.709 101.236 105.947 101.236 105.007L101.382 102.211L101.115 96.3762L104.372 95.7684L104.056 103.159C104.056 103.856 104.178 104.367 104.421 104.691C104.68 105.015 105.085 105.177 105.636 105.177C106.188 105.177 106.949 104.902 107.922 104.35V102.892L107.654 96.4978L110.936 95.89L110.645 101.968L110.669 103.961C110.669 104.999 110.936 106.044 111.471 107.098L108.943 108.216C108.408 107.162 108.084 106.32 107.97 105.688C106.512 107.325 105.248 108.143 104.178 108.143ZM113.459 106.514C113.459 105.996 113.646 105.542 114.018 105.153C114.407 104.748 114.869 104.545 115.404 104.545C116.458 104.545 116.984 105.08 116.984 106.15C116.984 106.765 116.79 107.276 116.401 107.681C116.028 108.086 115.582 108.289 115.064 108.289C114.561 108.289 114.164 108.127 113.872 107.803C113.597 107.462 113.459 107.033 113.459 106.514ZM113.459 100.12C113.459 99.6016 113.646 99.1477 114.018 98.7588C114.407 98.3536 114.869 98.151 115.404 98.151C116.458 98.151 116.984 98.6858 116.984 99.7555C116.984 100.371 116.79 100.882 116.401 101.287C116.028 101.692 115.582 101.895 115.064 101.895C114.561 101.895 114.164 101.733 113.872 101.409C113.597 101.068 113.459 100.639 113.459 100.12Z" fill="#020202"/>
</svg>
