<svg width="151" height="151" viewBox="0 0 151 151" fill="none" xmlns="http://www.w3.org/2000/svg">
<circle cx="75.5" cy="75.5" r="75.5" fill="#933FFF"/>
<circle cx="75.5003" cy="75.4998" r="66.44" fill="white" stroke="black" stroke-width="0.862857"/>
<path d="M57.9858 31.2848C56.6781 31.2848 55.6249 30.8456 54.8263 29.9671C54.0277 29.0887 53.6284 27.9257 53.6284 26.4782C53.6284 24.8311 54.1275 23.4435 55.1258 22.3155C56.124 21.1874 57.3519 20.6234 58.8094 20.6234C59.3884 20.6234 59.9224 20.6783 60.4116 20.7881C60.9107 20.888 61.2651 20.9928 61.4747 21.1026L61.7742 21.2673L60.9057 23.3487C60.6062 23.149 60.2019 22.9643 59.6928 22.7946C59.1837 22.6149 58.7345 22.5251 58.3452 22.5251C57.5366 22.5251 56.8877 22.8096 56.3986 23.3786C55.9094 23.9476 55.6648 24.7013 55.6648 25.6397C55.6648 26.9075 55.8944 27.8957 56.3536 28.6045C56.8228 29.3133 57.4717 29.6676 58.3003 29.6676C58.8393 29.6676 59.3484 29.5928 59.8276 29.443V27.1221H57.896L58.0457 25.6097H61.6394L61.5047 28.0505L61.6095 30.641C60.142 31.0702 58.9341 31.2848 57.9858 31.2848ZM65.9181 19.5303L65.7234 27.2269L65.8882 30.7458L63.8667 31.1201L64.0464 27.4815L63.8667 19.9047L65.9181 19.5303ZM67.5043 27.9906C67.5043 26.7128 67.8487 25.6297 68.5375 24.7412C69.2263 23.8528 70.0299 23.4086 70.9483 23.4086C71.8767 23.4086 72.5954 23.708 73.1045 24.307C73.6236 24.906 73.8832 25.6996 73.8832 26.6878C73.8832 28.0055 73.5487 29.1036 72.8799 29.9821C72.2211 30.8506 71.3875 31.2848 70.3793 31.2848C69.5507 31.2848 68.8619 30.9754 68.3129 30.3564C67.7738 29.7275 67.5043 28.9389 67.5043 27.9906ZM72.2061 27.4665C72.2061 26.019 71.7119 25.2953 70.7237 25.2953C69.6955 25.2953 69.1814 25.9741 69.1814 27.3317C69.1814 28.0405 69.3261 28.5945 69.6156 28.9938C69.9051 29.3931 70.2844 29.5928 70.7536 29.5928C71.2328 29.5928 71.5922 29.4131 71.8317 29.0537C72.0813 28.6844 72.2061 28.1553 72.2061 27.4665ZM79.4448 23.5583C80.1136 23.5583 80.6577 23.8478 81.0769 24.4268C81.4962 25.0058 81.7058 25.7495 81.7058 26.6579C81.7058 27.9656 81.3614 29.0387 80.6726 29.8773C79.9938 30.7058 79.1104 31.1201 78.0223 31.1201C77.5231 31.1201 76.6846 31.0403 75.5067 30.8805L75.6564 27.4815L75.4767 19.9047L77.5281 19.5303L77.3335 23.3936V25.0108C77.4433 24.851 77.578 24.6813 77.7378 24.5017C77.8975 24.322 78.1471 24.1223 78.4865 23.9027C78.8259 23.6731 79.1453 23.5583 79.4448 23.5583ZM78.8608 25.5049C78.4016 25.5049 77.8925 25.6447 77.3335 25.9242V27.2269L77.4233 29.4281C77.8426 29.478 78.2369 29.5029 78.6063 29.5029C79.5646 29.5029 80.0437 28.8391 80.0437 27.5114C80.0437 26.1737 79.6494 25.5049 78.8608 25.5049ZM84.7459 31.1201C84.1569 31.1201 83.6728 30.9354 83.2934 30.5661C82.9241 30.1867 82.7394 29.6826 82.7394 29.0537C82.7394 28.4148 83.0289 27.8658 83.6079 27.4066C84.1869 26.9374 84.8907 26.7028 85.7192 26.7028H86.7374V26.4483C86.7374 25.9591 86.6376 25.6247 86.438 25.445C86.2383 25.2653 85.864 25.1755 85.3149 25.1755C85.0853 25.1755 84.8108 25.2254 84.4913 25.3252C84.1819 25.4151 83.8325 25.5598 83.4432 25.7595L83.0089 24.5765C83.4382 24.277 83.9573 24.0075 84.5662 23.7679C85.1851 23.5284 85.6942 23.4086 86.0936 23.4086C87.6608 23.4086 88.4445 24.1672 88.4445 25.6846V28.6195C88.4445 29.1785 88.6191 29.8024 88.9685 30.4912L87.3813 31.165C87.1317 30.6859 86.9471 30.2566 86.8273 29.8773C86.2782 30.7058 85.5844 31.1201 84.7459 31.1201ZM85.3748 29.5928C85.7741 29.5928 86.2283 29.3881 86.7374 28.9789V27.9756C86.2084 27.8558 85.7791 27.7959 85.4497 27.7959C84.8208 27.7959 84.5063 28.0754 84.5063 28.6345C84.5063 28.9239 84.5862 29.1585 84.7459 29.3382C84.9056 29.5079 85.1153 29.5928 85.3748 29.5928ZM92.6184 19.5303L92.4238 27.2269L92.5885 30.7458L90.567 31.1201L90.7467 27.4815L90.567 19.9047L92.6184 19.5303ZM34.8122 36.6384C35.9901 36.6384 36.9584 37.0876 37.7171 37.986C38.4858 38.8845 38.8701 40.0275 38.8701 41.4151C38.8701 43.172 38.4159 44.5895 37.5075 45.6676C36.5991 46.7458 35.4062 47.2848 33.9287 47.2848C32.7807 47.2848 31.8174 46.8256 31.0388 45.9072C30.2601 44.9789 29.8708 43.8358 29.8708 42.4782C29.8708 40.7812 30.335 39.3836 31.2634 38.2855C32.1918 37.1874 33.3747 36.6384 34.8122 36.6384ZM36.8337 42.2536C36.8337 39.728 36.0051 38.4652 34.348 38.4652C33.5893 38.4652 32.9904 38.7497 32.5511 39.3187C32.1219 39.8777 31.9073 40.7213 31.9073 41.8493C31.9073 42.9674 32.1369 43.8907 32.5961 44.6195C33.0652 45.3382 33.6792 45.6976 34.4378 45.6976C35.2065 45.6976 35.7955 45.3931 36.2048 44.7842C36.624 44.1653 36.8337 43.3217 36.8337 42.2536ZM44.4873 39.5583C45.1262 39.5583 45.6603 39.8378 46.0895 40.3968C46.5287 40.9559 46.7484 41.7096 46.7484 42.6579C46.7484 43.9856 46.404 45.0637 45.7152 45.8923C45.0363 46.7108 44.1878 47.1201 43.1696 47.1201C42.96 47.1201 42.7254 47.1051 42.4658 47.0752L42.5407 49.9352L40.4893 50.3096L40.6839 43.4815H40.6989C40.659 42.1438 40.5492 40.9459 40.3695 39.8877L42.1813 39.4984C42.2412 40.0275 42.2911 40.5516 42.3311 41.0707C42.351 41.0208 42.4509 40.886 42.6305 40.6664C42.8202 40.4368 43.0947 40.1972 43.4541 39.9476C43.8135 39.6881 44.1579 39.5583 44.4873 39.5583ZM43.9033 41.5049C43.3742 41.5049 42.8601 41.6497 42.361 41.9392V43.2269L42.4209 45.3682C42.96 45.458 43.3693 45.5029 43.6488 45.5029C44.6071 45.5029 45.0863 44.8391 45.0863 43.5114C45.0863 42.1737 44.692 41.5049 43.9033 41.5049ZM52.2884 39.5583C52.9272 39.5583 53.4613 39.8378 53.8906 40.3968C54.3298 40.9559 54.5494 41.7096 54.5494 42.6579C54.5494 43.9856 54.205 45.0637 53.5162 45.8923C52.8374 46.7108 51.9889 47.1201 50.9707 47.1201C50.761 47.1201 50.5264 47.1051 50.2669 47.0752L50.3417 49.9352L48.2903 50.3096L48.485 43.4815H48.5C48.46 42.1438 48.3502 40.9459 48.1705 39.8877L49.9824 39.4984C50.0423 40.0275 50.0922 40.5516 50.1321 41.0707C50.1521 41.0208 50.2519 40.886 50.4316 40.6664C50.6213 40.4368 50.8958 40.1972 51.2552 39.9476C51.6145 39.6881 51.9589 39.5583 52.2884 39.5583ZM51.7044 41.5049C51.1753 41.5049 50.6612 41.6497 50.1621 41.9392V43.2269L50.222 45.3682C50.761 45.458 51.1703 45.5029 51.4498 45.5029C52.4081 45.5029 52.8873 44.8391 52.8873 43.5114C52.8873 42.1737 52.493 41.5049 51.7044 41.5049ZM55.6422 43.9906C55.6422 42.7128 55.9866 41.6297 56.6754 40.7412C57.3642 39.8528 58.1678 39.4086 59.0861 39.4086C60.0145 39.4086 60.7333 39.708 61.2424 40.307C61.7615 40.906 62.021 41.6996 62.021 42.6878C62.021 44.0055 61.6866 45.1036 61.0178 45.9821C60.3589 46.8506 59.5254 47.2848 58.5171 47.2848C57.6886 47.2848 56.9998 46.9754 56.4507 46.3564C55.9117 45.7275 55.6422 44.9389 55.6422 43.9906ZM60.344 43.4665C60.344 42.019 59.8498 41.2953 58.8615 41.2953C57.8333 41.2953 57.3192 41.9741 57.3192 43.3317C57.3192 44.0405 57.464 44.5945 57.7535 44.9938C58.043 45.3931 58.4223 45.5928 58.8915 45.5928C59.3707 45.5928 59.73 45.4131 59.9696 45.0537C60.2192 44.6844 60.344 44.1553 60.344 43.4665ZM63.4499 39.8877L65.2617 39.4984C65.3516 40.2671 65.4115 40.9958 65.4414 41.6846C66.3498 40.277 67.2033 39.5733 68.0019 39.5733L67.8372 41.9092C67.2582 41.9092 66.799 41.9641 66.4596 42.0739C66.1302 42.1737 65.7908 42.3784 65.4414 42.6878V43.2269L65.6061 46.7458L63.5996 47.1201L63.7793 43.4815C63.7394 42.1438 63.6296 40.9459 63.4499 39.8877ZM69.8354 39.8728V38.2406L71.8569 37.8513L71.6622 39.8728H73.4741L73.3094 41.1006H71.6023L71.5275 44.2302C71.5275 44.6993 71.5724 45.0138 71.6622 45.1735C71.7521 45.3233 71.9168 45.3981 72.1564 45.3981C72.3959 45.3981 72.7154 45.3432 73.1147 45.2334L73.2045 46.2966C72.5457 46.8456 71.9667 47.1201 71.4676 47.1201C70.9684 47.1201 70.5592 46.9404 70.2397 46.5811C69.9203 46.2117 69.7605 45.7325 69.7605 45.1436L69.8504 43.4665L69.8354 41.1006H68.8022L68.9669 39.8728H69.8354ZM76.6705 47.1201C76.1315 47.1201 75.6922 46.9454 75.3528 46.596C75.0234 46.2367 74.8587 45.7675 74.8587 45.1885L74.9485 43.4665L74.7838 39.8728L76.7903 39.4984L76.5957 44.0505C76.5957 44.4797 76.6705 44.7942 76.8203 44.9938C76.98 45.1935 77.2296 45.2933 77.569 45.2933C77.9084 45.2933 78.3775 45.1236 78.9765 44.7842V43.8858L78.8118 39.9476L80.8333 39.5733L80.6536 43.3167L80.6686 44.5446C80.6686 45.1835 80.8333 45.8274 81.1627 46.4762L79.6054 47.165C79.276 46.5162 79.0763 45.9971 79.0065 45.6078C78.108 46.616 77.3294 47.1201 76.6705 47.1201ZM87.1487 43.3317C87.1487 42.6429 87.0888 42.1837 86.9691 41.9541C86.8493 41.7245 86.5698 41.6097 86.1305 41.6097C85.6913 41.6097 85.1922 41.7844 84.6331 42.1338V43.2269L84.7978 46.7458L82.7913 47.1201L82.971 43.4815C82.9311 42.1438 82.8213 40.9459 82.6416 39.8877L84.4534 39.4984C84.5233 40.0774 84.5732 40.6414 84.6032 41.1905C84.7529 40.9908 84.9226 40.7961 85.1123 40.6065C85.302 40.4068 85.6014 40.1872 86.0107 39.9476C86.42 39.6981 86.8493 39.5733 87.2985 39.5733C87.7577 39.5733 88.142 39.753 88.4515 40.1123C88.7609 40.4617 88.9157 40.9409 88.9157 41.5498L88.8258 43.2269L88.9905 46.8206L86.9691 47.195L87.1487 43.3317ZM92.9502 39.4984L92.7705 43.2269L92.9352 46.7458L90.9287 47.1201L91.1084 43.4815L90.9437 39.8728L92.9502 39.4984ZM90.8389 37.3122C90.8389 36.9728 90.9686 36.6733 91.2282 36.4138C91.4877 36.1443 91.7872 36.0095 92.1266 36.0095C92.466 36.0095 92.7256 36.1043 92.9053 36.294C93.0849 36.4737 93.1748 36.7482 93.1748 37.1176C93.1748 37.4869 93.045 37.8064 92.7855 38.0759C92.5359 38.3354 92.2414 38.4652 91.902 38.4652C91.5726 38.4652 91.313 38.3554 91.1234 38.1358C90.9337 37.9162 90.8389 37.6416 90.8389 37.3122ZM95.4829 39.8728V38.2406L97.5044 37.8513L97.3097 39.8728H99.1215L98.9568 41.1006H97.2498L97.1749 44.2302C97.1749 44.6993 97.2198 45.0138 97.3097 45.1735C97.3995 45.3233 97.5642 45.3981 97.8038 45.3981C98.0434 45.3981 98.3629 45.3432 98.7622 45.2334L98.852 46.2966C98.1932 46.8456 97.6142 47.1201 97.115 47.1201C96.6159 47.1201 96.2066 46.9404 95.8872 46.5811C95.5677 46.2117 95.408 45.7325 95.408 45.1436L95.4979 43.4665L95.4829 41.1006H94.4497L94.6144 39.8728H95.4829ZM102.528 39.4984L102.348 43.2269L102.513 46.7458L100.506 47.1201L100.686 43.4815L100.521 39.8728L102.528 39.4984ZM100.416 37.3122C100.416 36.9728 100.546 36.6733 100.806 36.4138C101.065 36.1443 101.365 36.0095 101.704 36.0095C102.043 36.0095 102.303 36.1043 102.483 36.294C102.662 36.4737 102.752 36.7482 102.752 37.1176C102.752 37.4869 102.622 37.8064 102.363 38.0759C102.113 38.3354 101.819 38.4652 101.479 38.4652C101.15 38.4652 100.89 38.3554 100.701 38.1358C100.511 37.9162 100.416 37.6416 100.416 37.3122ZM107.172 45.5928C107.461 45.5928 107.766 45.5179 108.085 45.3682C108.404 45.2184 108.654 45.0687 108.834 44.919L109.103 44.6943L109.792 45.5329C109.692 45.7026 109.538 45.8972 109.328 46.1169C109.118 46.3365 108.904 46.5262 108.684 46.6859C108.474 46.8356 108.19 46.9754 107.83 47.1051C107.481 47.2249 107.117 47.2848 106.737 47.2848C105.929 47.2848 105.27 46.9804 104.761 46.3714C104.252 45.7525 103.997 44.9589 103.997 43.9906C103.997 42.7727 104.352 41.7046 105.06 40.7862C105.769 39.8678 106.598 39.4086 107.546 39.4086C108.275 39.4086 108.839 39.6132 109.238 40.0225C109.647 40.4318 109.852 41.0058 109.852 41.7445C109.852 42.1837 109.777 42.6829 109.627 43.2419L109.328 43.5563L105.584 43.9007C105.754 45.0288 106.283 45.5928 107.172 45.5928ZM107.172 40.9509C106.732 40.9509 106.363 41.1306 106.064 41.4899C105.764 41.8393 105.589 42.2885 105.539 42.8376L108.085 42.5231C108.115 42.2935 108.13 42.1039 108.13 41.9541C108.13 41.2853 107.811 40.9509 107.172 40.9509ZM113.72 45.7275C114.239 45.7275 114.498 45.4979 114.498 45.0387C114.498 44.879 114.383 44.7293 114.154 44.5895C113.934 44.4498 113.66 44.31 113.33 44.1703C113.011 44.0305 112.686 43.8758 112.357 43.7061C112.037 43.5264 111.763 43.2818 111.533 42.9723C111.314 42.6629 111.204 42.3085 111.204 41.9092C111.204 41.2404 111.498 40.6564 112.087 40.1573C112.676 39.6581 113.355 39.4086 114.124 39.4086C114.483 39.4086 114.833 39.4535 115.172 39.5433C115.521 39.6232 115.856 39.753 116.175 39.9326L115.172 41.7595C115.102 41.6996 115.012 41.6247 114.902 41.5349C114.793 41.445 114.583 41.3302 114.274 41.1905C113.974 41.0407 113.705 40.9658 113.465 40.9658C113.235 40.9658 113.056 41.0208 112.926 41.1306C112.806 41.2304 112.746 41.3751 112.746 41.5648C112.746 41.7445 112.916 41.9292 113.255 42.1188C113.605 42.2985 113.984 42.4682 114.393 42.6279C114.803 42.7777 115.177 43.0322 115.516 43.3916C115.866 43.741 116.041 44.1603 116.041 44.6494C116.041 45.3482 115.751 45.9621 115.172 46.4912C114.603 47.0203 113.944 47.2848 113.195 47.2848C112.716 47.2848 112.267 47.18 111.848 46.9704C111.439 46.7607 111.144 46.5511 110.964 46.3415L110.695 46.027L111.878 44.6494C111.938 44.7293 112.023 44.8291 112.132 44.9489C112.242 45.0687 112.457 45.2284 112.776 45.4281C113.106 45.6277 113.42 45.7275 113.72 45.7275ZM117.232 46.1169C117.232 45.7974 117.347 45.5179 117.576 45.2783C117.816 45.0288 118.1 44.904 118.43 44.904C119.079 44.904 119.403 45.2334 119.403 45.8923C119.403 46.2716 119.283 46.586 119.044 46.8356C118.814 47.0852 118.539 47.21 118.22 47.21C117.911 47.21 117.666 47.1101 117.486 46.9105C117.317 46.7008 117.232 46.4363 117.232 46.1169ZM117.232 42.1787C117.232 41.8593 117.347 41.5798 117.576 41.3402C117.816 41.0906 118.1 40.9658 118.43 40.9658C119.079 40.9658 119.403 41.2953 119.403 41.9541C119.403 42.3335 119.283 42.6479 119.044 42.8975C118.814 43.147 118.539 43.2718 118.22 43.2718C117.911 43.2718 117.666 43.172 117.486 42.9723C117.317 42.7627 117.232 42.4982 117.232 42.1787ZM87.1291 112.603C87.1291 111.724 87.9477 111.035 89.5849 110.536C89.1955 110.336 89.0009 110.077 89.0009 109.757C89.0009 109.628 89.0508 109.498 89.1506 109.368C89.2504 109.238 89.3952 109.104 89.5849 108.964V108.844C88.8661 108.844 88.2921 108.644 87.8629 108.245C87.4436 107.846 87.234 107.312 87.234 106.643C87.234 105.774 87.5883 105.021 88.2971 104.382C89.0059 103.733 89.8444 103.409 90.8127 103.409C91.0623 103.409 91.4267 103.458 91.9058 103.558C92.385 103.658 92.8542 103.708 93.3134 103.708H94.4664L94.3166 105.011L93.1936 104.876C93.2934 105.165 93.3433 105.495 93.3433 105.864C93.3433 106.234 93.2535 106.603 93.0738 106.972C92.9041 107.332 92.6944 107.621 92.4449 107.841C92.2053 108.06 91.9607 108.255 91.7112 108.425C91.4716 108.585 91.2619 108.729 91.0823 108.859C90.9125 108.979 90.8277 109.089 90.8277 109.188C90.8277 109.378 91.0273 109.543 91.4267 109.683C92.4848 110.112 93.1986 110.476 93.5679 110.776C93.9473 111.075 94.1369 111.445 94.1369 111.884C94.1369 112.622 93.7626 113.226 93.0139 113.696C92.2752 114.175 91.3917 114.414 90.3635 114.414C89.3353 114.414 88.5367 114.25 87.9677 113.92C87.4087 113.591 87.1291 113.152 87.1291 112.603ZM91.6513 106.313C91.6513 105.824 91.5415 105.465 91.3218 105.235C91.1022 105.006 90.7578 104.891 90.2886 104.891C89.3802 104.891 88.926 105.34 88.926 106.239C88.926 107.127 89.4102 107.571 90.3785 107.571C91.227 107.571 91.6513 107.152 91.6513 106.313ZM92.1903 112.108C92.1903 111.929 92.0955 111.759 91.9058 111.599C91.7161 111.45 91.3767 111.27 90.8876 111.06C90.1589 111.26 89.6547 111.445 89.3752 111.614C89.1057 111.784 88.9709 111.994 88.9709 112.243C88.9709 112.493 89.1057 112.692 89.3752 112.842C89.6547 113.002 90.0391 113.082 90.5282 113.082C91.0174 113.082 91.4167 112.992 91.7261 112.812C92.0356 112.632 92.1903 112.398 92.1903 112.108ZM97.6081 99.5303L97.4134 107.227L97.5781 110.746L95.5566 111.12L95.7363 107.481L95.5566 99.9047L97.6081 99.5303ZM99.1942 107.991C99.1942 106.713 99.5386 105.63 100.227 104.741C100.916 103.853 101.72 103.409 102.638 103.409C103.567 103.409 104.285 103.708 104.794 104.307C105.314 104.906 105.573 105.7 105.573 106.688C105.573 108.006 105.239 109.104 104.57 109.982C103.911 110.851 103.077 111.285 102.069 111.285C101.241 111.285 100.552 110.975 100.003 110.356C99.4638 109.728 99.1942 108.939 99.1942 107.991ZM103.896 107.466C103.896 106.019 103.402 105.295 102.414 105.295C101.385 105.295 100.871 105.974 100.871 107.332C100.871 108.04 101.016 108.595 101.306 108.994C101.595 109.393 101.974 109.593 102.444 109.593C102.923 109.593 103.282 109.413 103.522 109.054C103.771 108.684 103.896 108.155 103.896 107.466ZM111.135 103.558C111.804 103.558 112.348 103.848 112.767 104.427C113.186 105.006 113.396 105.749 113.396 106.658C113.396 107.966 113.051 109.039 112.363 109.877C111.684 110.706 110.8 111.12 109.712 111.12C109.213 111.12 108.375 111.04 107.197 110.881L107.346 107.481L107.167 99.9047L109.218 99.5303L109.023 103.394V105.011C109.133 104.851 109.268 104.681 109.428 104.502C109.587 104.322 109.837 104.122 110.176 103.903C110.516 103.673 110.835 103.558 111.135 103.558ZM110.551 105.505C110.092 105.505 109.582 105.645 109.023 105.924V107.227L109.113 109.428C109.533 109.478 109.927 109.503 110.296 109.503C111.255 109.503 111.734 108.839 111.734 107.511C111.734 106.174 111.339 105.505 110.551 105.505ZM116.436 111.12C115.847 111.12 115.363 110.935 114.983 110.566C114.614 110.187 114.429 109.683 114.429 109.054C114.429 108.415 114.719 107.866 115.298 107.407C115.877 106.937 116.581 106.703 117.409 106.703H118.427V106.448C118.427 105.959 118.328 105.625 118.128 105.445C117.928 105.265 117.554 105.175 117.005 105.175C116.775 105.175 116.501 105.225 116.181 105.325C115.872 105.415 115.522 105.56 115.133 105.759L114.699 104.577C115.128 104.277 115.647 104.008 116.256 103.768C116.875 103.528 117.384 103.409 117.784 103.409C119.351 103.409 120.134 104.167 120.134 105.685V108.619C120.134 109.179 120.309 109.802 120.658 110.491L119.071 111.165C118.822 110.686 118.637 110.257 118.517 109.877C117.968 110.706 117.274 111.12 116.436 111.12ZM117.065 109.593C117.464 109.593 117.918 109.388 118.427 108.979V107.976C117.898 107.856 117.469 107.796 117.14 107.796C116.511 107.796 116.196 108.075 116.196 108.634C116.196 108.924 116.276 109.159 116.436 109.338C116.596 109.508 116.805 109.593 117.065 109.593ZM124.308 99.5303L124.114 107.227L124.278 110.746L122.257 111.12L122.437 107.481L122.257 99.9047L124.308 99.5303ZM57.2373 121.355C56.7981 121.355 56.4587 121.515 56.2191 121.834C55.9795 122.144 55.8597 122.623 55.8597 123.272C55.8597 123.921 55.9795 124.445 56.2191 124.844C56.4687 125.233 56.8281 125.428 57.2972 125.428C57.5368 125.428 57.7714 125.353 58.001 125.203C58.2306 125.054 58.4053 124.904 58.5251 124.754L58.6898 124.515L59.4385 125.293C59.4086 125.343 59.3686 125.413 59.3187 125.503C59.2788 125.593 59.169 125.753 58.9893 125.982C58.8196 126.212 58.6349 126.416 58.4353 126.596C58.2456 126.766 57.996 126.925 57.6866 127.075C57.3771 127.215 57.0527 127.285 56.7133 127.285C55.9646 127.285 55.3556 126.98 54.8864 126.371C54.4173 125.762 54.1827 124.969 54.1827 123.991C54.1827 122.773 54.537 121.705 55.2458 120.786C55.9546 119.868 56.7831 119.409 57.7315 119.409C58.021 119.409 58.3105 119.453 58.6 119.543C58.8895 119.623 59.1839 119.753 59.4834 119.933L58.4353 121.774C58.0759 121.495 57.6766 121.355 57.2373 121.355ZM62.2201 127.12C61.6312 127.12 61.147 126.935 60.7677 126.566C60.3983 126.187 60.2136 125.683 60.2136 125.054C60.2136 124.415 60.5031 123.866 61.0821 123.407C61.6611 122.937 62.3649 122.703 63.1934 122.703H64.2117V122.448C64.2117 121.959 64.1118 121.625 63.9122 121.445C63.7125 121.265 63.3382 121.175 62.7891 121.175C62.5595 121.175 62.285 121.225 61.9656 121.325C61.6561 121.415 61.3067 121.56 60.9174 121.759L60.4832 120.577C60.9124 120.277 61.4315 120.008 62.0405 119.768C62.6594 119.528 63.1685 119.409 63.5678 119.409C65.1351 119.409 65.9187 120.167 65.9187 121.685V124.619C65.9187 125.179 66.0934 125.802 66.4428 126.491L64.8555 127.165C64.606 126.686 64.4213 126.257 64.3015 125.877C63.7525 126.706 63.0587 127.12 62.2201 127.12ZM62.849 125.593C63.2483 125.593 63.7026 125.388 64.2117 124.979V123.976C63.6826 123.856 63.2533 123.796 62.9239 123.796C62.295 123.796 61.9806 124.075 61.9806 124.634C61.9806 124.924 62.0604 125.159 62.2201 125.338C62.3799 125.508 62.5895 125.593 62.849 125.593ZM67.8765 119.888L69.6884 119.498C69.7782 120.267 69.8381 120.996 69.8681 121.685C70.7765 120.277 71.63 119.573 72.4286 119.573L72.2639 121.909C71.6849 121.909 71.2257 121.964 70.8863 122.074C70.5569 122.174 70.2174 122.378 69.8681 122.688V123.227L70.0328 126.746L68.0263 127.12L68.206 123.481C68.166 122.144 68.0562 120.946 67.8765 119.888ZM76.3734 125.593C76.6629 125.593 76.9674 125.518 77.2868 125.368C77.6062 125.218 77.8558 125.069 78.0355 124.919L78.305 124.694L78.9938 125.533C78.894 125.703 78.7393 125.897 78.5296 126.117C78.32 126.336 78.1054 126.526 77.8857 126.686C77.6761 126.836 77.3916 126.975 77.0322 127.105C76.6828 127.225 76.3185 127.285 75.9391 127.285C75.1306 127.285 74.4717 126.98 73.9626 126.371C73.4535 125.753 73.1989 124.959 73.1989 123.991C73.1989 122.773 73.5533 121.705 74.2621 120.786C74.9708 119.868 75.7994 119.409 76.7477 119.409C77.4765 119.409 78.0405 119.613 78.4398 120.022C78.8491 120.432 79.0537 121.006 79.0537 121.744C79.0537 122.184 78.9788 122.683 78.8291 123.242L78.5296 123.556L74.7862 123.901C74.9559 125.029 75.4849 125.593 76.3734 125.593ZM76.3734 120.951C75.9342 120.951 75.5648 121.131 75.2653 121.49C74.9658 121.839 74.7911 122.289 74.7412 122.838L77.2868 122.523C77.3167 122.294 77.3317 122.104 77.3317 121.954C77.3317 121.285 77.0123 120.951 76.3734 120.951ZM83.3555 125.593C83.645 125.593 83.9495 125.518 84.269 125.368C84.5884 125.218 84.838 125.069 85.0177 124.919L85.2872 124.694L85.976 125.533C85.8762 125.703 85.7214 125.897 85.5118 126.117C85.3022 126.336 85.0875 126.526 84.8679 126.686C84.6583 126.836 84.3738 126.975 84.0144 127.105C83.665 127.225 83.3006 127.285 82.9213 127.285C82.1127 127.285 81.4539 126.98 80.9448 126.371C80.4356 125.753 80.1811 124.959 80.1811 123.991C80.1811 122.773 80.5355 121.705 81.2442 120.786C81.953 119.868 82.7816 119.409 83.7299 119.409C84.4586 119.409 85.0226 119.613 85.4219 120.022C85.8312 120.432 86.0359 121.006 86.0359 121.744C86.0359 122.184 85.961 122.683 85.8113 123.242L85.5118 123.556L81.7683 123.901C81.938 125.029 82.4671 125.593 83.3555 125.593ZM83.3555 120.951C82.9163 120.951 82.547 121.131 82.2475 121.49C81.948 121.839 81.7733 122.289 81.7234 122.838L84.269 122.523C84.2989 122.294 84.3139 122.104 84.3139 121.954C84.3139 121.285 83.9944 120.951 83.3555 120.951ZM87.4777 119.888L89.2895 119.498C89.3794 120.267 89.4393 120.996 89.4692 121.685C90.3776 120.277 91.2312 119.573 92.0298 119.573L91.865 121.909C91.2861 121.909 90.8269 121.964 90.4875 122.074C90.158 122.174 89.8186 122.378 89.4692 122.688V123.227L89.6339 126.746L87.6274 127.12L87.8071 123.481C87.7672 122.144 87.6574 120.946 87.4777 119.888ZM92.86 126.117C92.86 125.797 92.9748 125.518 93.2044 125.278C93.444 125.029 93.7285 124.904 94.0579 124.904C94.7068 124.904 95.0312 125.233 95.0312 125.892C95.0312 126.272 94.9114 126.586 94.6718 126.836C94.4422 127.085 94.1677 127.21 93.8483 127.21C93.5388 127.21 93.2942 127.11 93.1145 126.91C92.9448 126.701 92.86 126.436 92.86 126.117Z" fill="#AC6CFF"/>
<path d="M58.9901 61.2484H59.1548L59.8586 58.6729L61.2961 52.6983L62.9881 52.9678L61.356 58.9125L60.3527 63.0003L57.6125 63.195L56.759 59.197L56.2499 57.2204L55.8007 58.9125L54.7974 63.0003L52.1021 63.195L51.2037 59.197L49.6464 53.0726L51.593 52.6983L52.8059 58.4782L53.4797 61.2484H53.6444L54.438 58.4782L55.5311 54.4353L55.1867 53.0726L57.1633 52.6983L58.3462 58.4782L58.9901 61.2484ZM63.9585 59.9906C63.9585 58.7128 64.3029 57.6297 64.9917 56.7412C65.6805 55.8528 66.4841 55.4086 67.4025 55.4086C68.3309 55.4086 69.0496 55.708 69.5587 56.307C70.0778 56.906 70.3374 57.6996 70.3374 58.6878C70.3374 60.0055 70.003 61.1036 69.3341 61.9821C68.6753 62.8506 67.8417 63.2848 66.8335 63.2848C66.0049 63.2848 65.3161 62.9754 64.7671 62.3564C64.228 61.7275 63.9585 60.9389 63.9585 59.9906ZM68.6603 59.4665C68.6603 58.019 68.1662 57.2953 67.1779 57.2953C66.1497 57.2953 65.6356 57.9741 65.6356 59.3317C65.6356 60.0405 65.7803 60.5945 66.0698 60.9938C66.3593 61.3931 66.7387 61.5928 67.2078 61.5928C67.687 61.5928 68.0464 61.4131 68.286 61.0537C68.5355 60.6844 68.6603 60.1553 68.6603 59.4665ZM71.7662 55.8877L73.5781 55.4984C73.6679 56.2671 73.7278 56.9958 73.7578 57.6846C74.6662 56.277 75.5197 55.5733 76.3183 55.5733L76.1536 57.9092C75.5746 57.9092 75.1154 57.9641 74.776 58.0739C74.4466 58.1737 74.1071 58.3784 73.7578 58.6878V59.2269L73.9225 62.7458L71.916 63.1201L72.0957 59.4815C72.0557 58.1438 71.9459 56.9459 71.7662 55.8877ZM82.2396 63.2699L79.4246 59.1221V59.2269L79.5893 62.7458L77.5678 63.1201L77.7475 59.4815L77.5678 51.9047L79.6192 51.5303L79.4246 58.7627L82.4193 55.4834L83.8269 56.4418L81.2064 58.8975L83.9467 62.1318L82.2396 63.2699ZM87.2517 59.9906C87.2517 58.7128 87.5961 57.6297 88.2849 56.7412C88.9737 55.8528 89.7773 55.4086 90.6957 55.4086C91.6241 55.4086 92.3428 55.708 92.8519 56.307C93.371 56.906 93.6306 57.6996 93.6306 58.6878C93.6306 60.0055 93.2961 61.1036 92.6273 61.9821C91.9685 62.8506 91.1349 63.2848 90.1267 63.2848C89.2981 63.2848 88.6093 62.9754 88.0603 62.3564C87.5212 61.7275 87.2517 60.9389 87.2517 59.9906ZM91.9535 59.4665C91.9535 58.019 91.4593 57.2953 90.4711 57.2953C89.4429 57.2953 88.9288 57.9741 88.9288 59.3317C88.9288 60.0405 89.0735 60.5945 89.363 60.9938C89.6525 61.3931 90.0318 61.5928 90.501 61.5928C90.9802 61.5928 91.3396 61.4131 91.5791 61.0537C91.8287 60.6844 91.9535 60.1553 91.9535 59.4665ZM99.5665 59.3317C99.5665 58.6429 99.5066 58.1837 99.3869 57.9541C99.2671 57.7245 98.9876 57.6097 98.5483 57.6097C98.1091 57.6097 97.61 57.7844 97.0509 58.1338V59.2269L97.2156 62.7458L95.2091 63.1201L95.3888 59.4815C95.3489 58.1438 95.2391 56.9459 95.0594 55.8877L96.8712 55.4984C96.9411 56.0774 96.991 56.6414 97.021 57.1905C97.1707 56.9908 97.3404 56.7961 97.5301 56.6065C97.7198 56.4068 98.0192 56.1872 98.4285 55.9476C98.8378 55.6981 99.2671 55.5733 99.7163 55.5733C100.175 55.5733 100.56 55.753 100.869 56.1123C101.179 56.4617 101.333 56.9409 101.333 57.5498L101.244 59.2269L101.408 62.8206L99.3869 63.195L99.5665 59.3317ZM36.2959 71.4984L36.1163 75.2269L36.281 78.7458L34.2745 79.1201L34.4542 75.4815L34.2894 71.8728L36.2959 71.4984ZM34.1846 69.3122C34.1846 68.9728 34.3144 68.6733 34.5739 68.4138C34.8335 68.1443 35.133 68.0095 35.4724 68.0095C35.8118 68.0095 36.0713 68.1043 36.251 68.294C36.4307 68.4737 36.5206 68.7482 36.5206 69.1176C36.5206 69.4869 36.3908 69.8064 36.1312 70.0759C35.8817 70.3354 35.5872 70.4652 35.2478 70.4652C34.9183 70.4652 34.6588 70.3554 34.4691 70.1358C34.2795 69.9162 34.1846 69.6416 34.1846 69.3122ZM42.5871 75.3317C42.5871 74.6429 42.5272 74.1837 42.4074 73.9541C42.2876 73.7245 42.0081 73.6097 41.5689 73.6097C41.1296 73.6097 40.6305 73.7844 40.0715 74.1338V75.2269L40.2362 78.7458L38.2297 79.1201L38.4094 75.4815C38.3694 74.1438 38.2596 72.9459 38.0799 71.8877L39.8918 71.4984C39.9617 72.0774 40.0116 72.6414 40.0415 73.1905C40.1913 72.9908 40.361 72.7961 40.5506 72.6065C40.7403 72.4068 41.0398 72.1872 41.4491 71.9476C41.8584 71.6981 42.2876 71.5733 42.7368 71.5733C43.196 71.5733 43.5804 71.753 43.8898 72.1123C44.1993 72.4617 44.354 72.9409 44.354 73.5498L44.2642 75.2269L44.4289 78.8206L42.4074 79.195L42.5871 75.3317ZM46.966 71.8728V70.2406L48.9875 69.8513L48.7928 71.8728H50.6047L50.44 73.1006H48.7329L48.6581 76.2302C48.6581 76.6993 48.703 77.0138 48.7928 77.1735C48.8827 77.3233 49.0474 77.3981 49.287 77.3981C49.5265 77.3981 49.846 77.3432 50.2453 77.2334L50.3351 78.2966C49.6763 78.8456 49.0973 79.1201 48.5982 79.1201C48.099 79.1201 47.6898 78.9404 47.3703 78.5811C47.0509 78.2117 46.8911 77.7325 46.8911 77.1436L46.981 75.4665L46.966 73.1006H45.9328L46.0975 71.8728H46.966ZM54.6996 77.5928C54.9891 77.5928 55.2935 77.5179 55.613 77.3682C55.9324 77.2184 56.182 77.0687 56.3617 76.919L56.6312 76.6943L57.32 77.5329C57.2202 77.7026 57.0654 77.8972 56.8558 78.1169C56.6462 78.3365 56.4315 78.5262 56.2119 78.6859C56.0023 78.8356 55.7178 78.9754 55.3584 79.1051C55.009 79.2249 54.6447 79.2848 54.2653 79.2848C53.4567 79.2848 52.7979 78.9804 52.2888 78.3714C51.7797 77.7525 51.5251 76.9589 51.5251 75.9906C51.5251 74.7727 51.8795 73.7046 52.5882 72.7862C53.297 71.8678 54.1256 71.4086 55.0739 71.4086C55.8026 71.4086 56.3667 71.6132 56.766 72.0225C57.1752 72.4318 57.3799 73.0058 57.3799 73.7445C57.3799 74.1837 57.305 74.6829 57.1553 75.2419L56.8558 75.5563L53.1123 75.9007C53.282 77.0288 53.8111 77.5928 54.6996 77.5928ZM54.6996 72.9509C54.2603 72.9509 53.891 73.1306 53.5915 73.4899C53.292 73.8393 53.1173 74.2885 53.0674 74.8376L55.613 74.5231C55.6429 74.2935 55.6579 74.1039 55.6579 73.9541C55.6579 73.2853 55.3384 72.9509 54.6996 72.9509ZM58.8217 71.8877L60.6335 71.4984C60.7234 72.2671 60.7833 72.9958 60.8132 73.6846C61.7217 72.277 62.5752 71.5733 63.3738 71.5733L63.2091 73.9092C62.6301 73.9092 62.1709 73.9641 61.8315 74.0739C61.502 74.1737 61.1626 74.3784 60.8132 74.6878V75.2269L60.9779 78.7458L58.9714 79.1201L59.1511 75.4815C59.1112 74.1438 59.0014 72.9459 58.8217 71.8877ZM68.9657 75.3317C68.9657 74.6429 68.9058 74.1837 68.786 73.9541C68.6662 73.7245 68.3867 73.6097 67.9475 73.6097C67.5082 73.6097 67.0091 73.7844 66.4501 74.1338V75.2269L66.6148 78.7458L64.6083 79.1201L64.788 75.4815C64.7481 74.1438 64.6382 72.9459 64.4586 71.8877L66.2704 71.4984C66.3403 72.0774 66.3902 72.6414 66.4201 73.1905C66.5699 72.9908 66.7396 72.7961 66.9292 72.6065C67.1189 72.4068 67.4184 72.1872 67.8277 71.9476C68.237 71.6981 68.6662 71.5733 69.1154 71.5733C69.5746 71.5733 69.959 71.753 70.2684 72.1123C70.5779 72.4617 70.7326 72.9409 70.7326 73.5498L70.6428 75.2269L70.8075 78.8206L68.786 79.195L68.9657 75.3317ZM74.258 79.1201C73.6691 79.1201 73.1849 78.9354 72.8056 78.5661C72.4362 78.1867 72.2515 77.6826 72.2515 77.0537C72.2515 76.4148 72.541 75.8658 73.12 75.4066C73.699 74.9374 74.4028 74.7028 75.2313 74.7028H76.2496V74.4483C76.2496 73.9591 76.1497 73.6247 75.9501 73.445C75.7504 73.2653 75.3761 73.1755 74.827 73.1755C74.5974 73.1755 74.3229 73.2254 74.0035 73.3252C73.694 73.4151 73.3446 73.5598 72.9553 73.7595L72.5211 72.5765C72.9503 72.277 73.4694 72.0075 74.0783 71.7679C74.6973 71.5284 75.2064 71.4086 75.6057 71.4086C77.173 71.4086 77.9566 72.1672 77.9566 73.6846V76.6195C77.9566 77.1785 78.1313 77.8024 78.4807 78.4912L76.8934 79.165C76.6439 78.6859 76.4592 78.2566 76.3394 77.8773C75.7904 78.7058 75.0966 79.1201 74.258 79.1201ZM74.8869 77.5928C75.2862 77.5928 75.7404 77.3881 76.2496 76.9789V75.9756C75.7205 75.8558 75.2912 75.7959 74.9618 75.7959C74.3329 75.7959 74.0185 76.0754 74.0185 76.6345C74.0185 76.9239 74.0983 77.1585 74.258 77.3382C74.4178 77.5079 74.6274 77.5928 74.8869 77.5928ZM80.6631 71.8728V70.2406L82.6846 69.8513L82.4899 71.8728H84.3018L84.1371 73.1006H82.43L82.3552 76.2302C82.3552 76.6993 82.4001 77.0138 82.4899 77.1735C82.5798 77.3233 82.7445 77.3981 82.9841 77.3981C83.2237 77.3981 83.5431 77.3432 83.9424 77.2334L84.0322 78.2966C83.3734 78.8456 82.7944 79.1201 82.2953 79.1201C81.7961 79.1201 81.3869 78.9404 81.0674 78.5811C80.748 78.2117 80.5882 77.7325 80.5882 77.1436L80.6781 75.4665L80.6631 73.1006H79.6299L79.7946 71.8728H80.6631ZM87.7079 71.4984L87.5282 75.2269L87.6929 78.7458L85.6864 79.1201L85.8661 75.4815L85.7014 71.8728L87.7079 71.4984ZM85.5965 69.3122C85.5965 68.9728 85.7263 68.6733 85.9859 68.4138C86.2454 68.1443 86.5449 68.0095 86.8843 68.0095C87.2237 68.0095 87.4833 68.1043 87.6629 68.294C87.8426 68.4737 87.9325 68.7482 87.9325 69.1176C87.9325 69.4869 87.8027 69.8064 87.5432 70.0759C87.2936 70.3354 86.9991 70.4652 86.6597 70.4652C86.3303 70.4652 86.0707 70.3554 85.8811 70.1358C85.6914 69.9162 85.5965 69.6416 85.5965 69.3122ZM89.2074 75.9906C89.2074 74.7128 89.5518 73.6297 90.2406 72.7412C90.9294 71.8528 91.733 71.4086 92.6513 71.4086C93.5797 71.4086 94.2985 71.708 94.8076 72.307C95.3267 72.906 95.5862 73.6996 95.5862 74.6878C95.5862 76.0055 95.2518 77.1036 94.583 77.9821C93.9241 78.8506 93.0906 79.2848 92.0823 79.2848C91.2538 79.2848 90.565 78.9754 90.0159 78.3564C89.4769 77.7275 89.2074 76.9389 89.2074 75.9906ZM93.9092 75.4665C93.9092 74.019 93.415 73.2953 92.4267 73.2953C91.3985 73.2953 90.8844 73.9741 90.8844 75.3317C90.8844 76.0405 91.0292 76.5945 91.3187 76.9938C91.6082 77.3931 91.9875 77.5928 92.4567 77.5928C92.9359 77.5928 93.2952 77.4131 93.5348 77.0537C93.7844 76.6844 93.9092 76.1553 93.9092 75.4665ZM101.522 75.3317C101.522 74.6429 101.462 74.1837 101.343 73.9541C101.223 73.7245 100.943 73.6097 100.504 73.6097C100.065 73.6097 99.5656 73.7844 99.0066 74.1338V75.2269L99.1713 78.7458L97.1648 79.1201L97.3445 75.4815C97.3046 74.1438 97.1948 72.9459 97.0151 71.8877L98.8269 71.4984C98.8968 72.0774 98.9467 72.6414 98.9766 73.1905C99.1264 72.9908 99.2961 72.7961 99.4858 72.6065C99.6754 72.4068 99.9749 72.1872 100.384 71.9476C100.793 71.6981 101.223 71.5733 101.672 71.5733C102.131 71.5733 102.515 71.753 102.825 72.1123C103.134 72.4617 103.289 72.9409 103.289 73.5498L103.199 75.2269L103.364 78.8206L101.343 79.195L101.522 75.3317ZM106.815 79.1201C106.226 79.1201 105.741 78.9354 105.362 78.5661C104.993 78.1867 104.808 77.6826 104.808 77.0537C104.808 76.4148 105.098 75.8658 105.677 75.4066C106.256 74.9374 106.959 74.7028 107.788 74.7028H108.806V74.4483C108.806 73.9591 108.706 73.6247 108.507 73.445C108.307 73.2653 107.933 73.1755 107.384 73.1755C107.154 73.1755 106.879 73.2254 106.56 73.3252C106.251 73.4151 105.901 73.5598 105.512 73.7595L105.078 72.5765C105.507 72.277 106.026 72.0075 106.635 71.7679C107.254 71.5284 107.763 71.4086 108.162 71.4086C109.729 71.4086 110.513 72.1672 110.513 73.6846V76.6195C110.513 77.1785 110.688 77.8024 111.037 78.4912L109.45 79.165C109.2 78.6859 109.016 78.2566 108.896 77.8773C108.347 78.7058 107.653 79.1201 106.815 79.1201ZM107.443 77.5928C107.843 77.5928 108.297 77.3881 108.806 76.9789V75.9756C108.277 75.8558 107.848 75.7959 107.518 75.7959C106.889 75.7959 106.575 76.0754 106.575 76.6345C106.575 76.9239 106.655 77.1585 106.815 77.3382C106.974 77.5079 107.184 77.5928 107.443 77.5928ZM114.687 67.5303L114.492 75.2269L114.657 78.7458L112.636 79.1201L112.815 75.4815L112.636 67.9047L114.687 67.5303ZM25.1274 87.5583C25.7663 87.5583 26.3004 87.8378 26.7296 88.3968C27.1689 88.9559 27.3885 89.7096 27.3885 90.6579C27.3885 91.9856 27.0441 93.0637 26.3553 93.8923C25.6765 94.7108 24.8279 95.1201 23.8097 95.1201C23.6001 95.1201 23.3655 95.1051 23.1059 95.0752L23.1808 97.9352L21.1294 98.3096L21.324 91.4815H21.339C21.2991 90.1438 21.1893 88.9459 21.0096 87.8877L22.8214 87.4984C22.8813 88.0275 22.9312 88.5516 22.9712 89.0707C22.9911 89.0208 23.091 88.886 23.2707 88.6664C23.4603 88.4368 23.7348 88.1972 24.0942 87.9476C24.4536 87.6881 24.798 87.5583 25.1274 87.5583ZM24.5434 89.5049C24.0144 89.5049 23.5003 89.6497 23.0011 89.9392V91.2269L23.061 93.3682C23.6001 93.458 24.0094 93.5029 24.2889 93.5029C25.2472 93.5029 25.7264 92.8391 25.7264 91.5114C25.7264 90.1737 25.3321 89.5049 24.5434 89.5049ZM28.7657 87.8877L30.5776 87.4984C30.6674 88.2671 30.7273 88.9958 30.7572 89.6846C31.6657 88.277 32.5192 87.5733 33.3178 87.5733L33.1531 89.9092C32.5741 89.9092 32.1149 89.9641 31.7755 90.0739C31.446 90.1737 31.1066 90.3784 30.7572 90.6878V91.2269L30.922 94.7458L28.9155 95.1201L29.0951 91.4815C29.0552 90.1438 28.9454 88.9459 28.7657 87.8877ZM34.1181 91.9906C34.1181 90.7128 34.4625 89.6297 35.1513 88.7412C35.8401 87.8528 36.6437 87.4086 37.5621 87.4086C38.4904 87.4086 39.2092 87.708 39.7183 88.307C40.2374 88.906 40.4969 89.6996 40.4969 90.6878C40.4969 92.0055 40.1625 93.1036 39.4937 93.9821C38.8348 94.8506 38.0013 95.2848 36.9931 95.2848C36.1645 95.2848 35.4757 94.9754 34.9267 94.3564C34.3876 93.7275 34.1181 92.9389 34.1181 91.9906ZM38.8199 91.4665C38.8199 90.019 38.3257 89.2953 37.3375 89.2953C36.3092 89.2953 35.7951 89.9741 35.7951 91.3317C35.7951 92.0405 35.9399 92.5945 36.2294 92.9938C36.5189 93.3931 36.8982 93.5928 37.3674 93.5928C37.8466 93.5928 38.2059 93.4131 38.4455 93.0537C38.6951 92.6844 38.8199 92.1553 38.8199 91.4665ZM41.2669 98.4144C40.8576 98.4144 40.4484 98.3695 40.0391 98.2796L40.5033 96.5726C40.8427 96.6624 41.1571 96.7073 41.4466 96.7073C41.7461 96.7073 41.9607 96.5975 42.0905 96.3779C42.2203 96.1583 42.2852 95.764 42.2852 95.195L42.2702 91.4815L42.1055 87.8728L44.112 87.4984L43.9323 91.2269L44.097 94.611C44.097 95.6492 43.8175 96.5426 43.2585 97.2913C42.6994 98.04 42.0356 98.4144 41.2669 98.4144ZM42.0006 85.3272C42.0006 84.9778 42.1304 84.6733 42.39 84.4138C42.6495 84.1443 42.949 84.0095 43.2884 84.0095C43.6378 84.0095 43.8973 84.1043 44.067 84.294C44.2467 84.4737 44.3366 84.7482 44.3366 85.1176C44.3366 85.4769 44.2118 85.7914 43.9622 86.0609C43.7127 86.3304 43.4182 86.4652 43.0788 86.4652C42.7493 86.4652 42.4848 86.3604 42.2852 86.1508C42.0955 85.9411 42.0006 85.6666 42.0006 85.3272ZM48.7849 93.5928C49.0744 93.5928 49.3788 93.5179 49.6983 93.3682C50.0177 93.2184 50.2673 93.0687 50.447 92.919L50.7165 92.6943L51.4053 93.5329C51.3055 93.7026 51.1507 93.8972 50.9411 94.1169C50.7315 94.3365 50.5169 94.5262 50.2972 94.6859C50.0876 94.8356 49.8031 94.9754 49.4437 95.1051C49.0943 95.2249 48.73 95.2848 48.3506 95.2848C47.542 95.2848 46.8832 94.9804 46.3741 94.3714C45.865 93.7525 45.6104 92.9589 45.6104 91.9906C45.6104 90.7727 45.9648 89.7046 46.6736 88.7862C47.3823 87.8678 48.2109 87.4086 49.1592 87.4086C49.8879 87.4086 50.452 87.6132 50.8513 88.0225C51.2606 88.4318 51.4652 89.0058 51.4652 89.7445C51.4652 90.1837 51.3903 90.6829 51.2406 91.2419L50.9411 91.5563L47.1976 91.9007C47.3673 93.0288 47.8964 93.5928 48.7849 93.5928ZM48.7849 88.9509C48.3456 88.9509 47.9763 89.1306 47.6768 89.4899C47.3773 89.8393 47.2026 90.2885 47.1527 90.8376L49.6983 90.5231C49.7282 90.2935 49.7432 90.1039 49.7432 89.9541C49.7432 89.2853 49.4238 88.9509 48.7849 88.9509ZM55.6472 89.3552C55.208 89.3552 54.8686 89.5149 54.629 89.8343C54.3894 90.1438 54.2696 90.623 54.2696 91.2718C54.2696 91.9207 54.3894 92.4448 54.629 92.8441C54.8786 93.2334 55.238 93.4281 55.7071 93.4281C55.9467 93.4281 56.1813 93.3532 56.4109 93.2035C56.6405 93.0537 56.8152 92.904 56.935 92.7542L57.0997 92.5147L57.8484 93.2933C57.8185 93.3432 57.7785 93.4131 57.7286 93.5029C57.6887 93.5928 57.5789 93.7525 57.3992 93.9821C57.2295 94.2117 57.0448 94.4163 56.8452 94.596C56.6555 94.7657 56.4059 94.9255 56.0965 95.0752C55.787 95.215 55.4626 95.2848 55.1232 95.2848C54.3745 95.2848 53.7655 94.9804 53.2963 94.3714C52.8272 93.7625 52.5926 92.9689 52.5926 91.9906C52.5926 90.7727 52.947 89.7046 53.6557 88.7862C54.3645 87.8678 55.193 87.4086 56.1414 87.4086C56.4309 87.4086 56.7204 87.4535 57.0099 87.5433C57.2994 87.6232 57.5938 87.753 57.8933 87.9326L56.8452 89.7744C56.4858 89.4949 56.0865 89.3552 55.6472 89.3552ZM59.7166 87.8728V86.2406L61.7381 85.8513L61.5434 87.8728H63.3553L63.1906 89.1006H61.4836L61.4087 92.2302C61.4087 92.6993 61.4536 93.0138 61.5434 93.1735C61.6333 93.3233 61.798 93.3981 62.0376 93.3981C62.2772 93.3981 62.5966 93.3432 62.9959 93.2334L63.0858 94.2966C62.4269 94.8456 61.8479 95.1201 61.3488 95.1201C60.8497 95.1201 60.4404 94.9404 60.1209 94.5811C59.8015 94.2117 59.6418 93.7325 59.6418 93.1436L59.7316 91.4665L59.7166 89.1006H58.6834L58.8481 87.8728H59.7166ZM67.0159 93.7275C67.535 93.7275 67.7946 93.4979 67.7946 93.0387C67.7946 92.879 67.6798 92.7293 67.4502 92.5895C67.2306 92.4498 66.956 92.31 66.6266 92.1703C66.3072 92.0305 65.9827 91.8758 65.6533 91.7061C65.3339 91.5264 65.0593 91.2818 64.8297 90.9723C64.6101 90.6629 64.5003 90.3085 64.5003 89.9092C64.5003 89.2404 64.7948 88.6564 65.3838 88.1573C65.9728 87.6581 66.6516 87.4086 67.4202 87.4086C67.7796 87.4086 68.129 87.4535 68.4684 87.5433C68.8178 87.6232 69.1522 87.753 69.4717 87.9326L68.4684 89.7595C68.3985 89.6996 68.3087 89.6247 68.1989 89.5349C68.0891 89.445 67.8794 89.3302 67.57 89.1905C67.2705 89.0407 67.001 88.9658 66.7614 88.9658C66.5318 88.9658 66.3521 89.0208 66.2223 89.1306C66.1025 89.2304 66.0426 89.3751 66.0426 89.5648C66.0426 89.7445 66.2123 89.9292 66.5517 90.1188C66.9011 90.2985 67.2805 90.4682 67.6898 90.6279C68.099 90.7777 68.4734 91.0322 68.8128 91.3916C69.1622 91.741 69.3369 92.1603 69.3369 92.6494C69.3369 93.3482 69.0474 93.9621 68.4684 94.4912C67.8994 95.0203 67.2405 95.2848 66.4919 95.2848C66.0127 95.2848 65.5635 95.18 65.1442 94.9704C64.7349 94.7607 64.4404 94.5511 64.2607 94.3415L63.9912 94.027L65.1741 92.6494C65.234 92.7293 65.3189 92.8291 65.4287 92.9489C65.5385 93.0687 65.7531 93.2284 66.0726 93.4281C66.402 93.6277 66.7165 93.7275 67.0159 93.7275ZM75.0547 95.1201C74.4657 95.1201 73.9816 94.9354 73.6022 94.5661C73.2329 94.1867 73.0482 93.6826 73.0482 93.0537C73.0482 92.4148 73.3377 91.8658 73.9167 91.4066C74.4957 90.9374 75.1994 90.7028 76.028 90.7028H77.0462V90.4483C77.0462 89.9591 76.9464 89.6247 76.7467 89.445C76.5471 89.2653 76.1727 89.1755 75.6237 89.1755C75.3941 89.1755 75.1196 89.2254 74.8001 89.3252C74.4907 89.4151 74.1413 89.5598 73.752 89.7595L73.3177 88.5765C73.747 88.277 74.2661 88.0075 74.875 87.7679C75.4939 87.5284 76.003 87.4086 76.4023 87.4086C77.9696 87.4086 78.7532 88.1672 78.7532 89.6846V92.6195C78.7532 93.1785 78.9279 93.8024 79.2773 94.4912L77.6901 95.165C77.4405 94.6859 77.2559 94.2566 77.1361 93.8773C76.587 94.7058 75.8932 95.1201 75.0547 95.1201ZM75.6836 93.5928C76.0829 93.5928 76.5371 93.3881 77.0462 92.9789V91.9756C76.5171 91.8558 76.0879 91.7959 75.7585 91.7959C75.1296 91.7959 74.8151 92.0754 74.8151 92.6345C74.8151 92.9239 74.895 93.1585 75.0547 93.3382C75.2144 93.5079 75.424 93.5928 75.6836 93.5928ZM85.2182 91.3317C85.2182 90.6429 85.1583 90.1837 85.0385 89.9541C84.9187 89.7245 84.6392 89.6097 84.2 89.6097C83.7608 89.6097 83.2616 89.7844 82.7026 90.1338V91.2269L82.8673 94.7458L80.8608 95.1201L81.0405 91.4815C81.0006 90.1438 80.8908 88.9459 80.7111 87.8877L82.5229 87.4984C82.5928 88.0774 82.6427 88.6414 82.6727 89.1905C82.8224 88.9908 82.9921 88.7961 83.1818 88.6065C83.3714 88.4068 83.6709 88.1872 84.0802 87.9476C84.4895 87.6981 84.9187 87.5733 85.368 87.5733C85.8272 87.5733 86.2115 87.753 86.5209 88.1123C86.8304 88.4617 86.9851 88.9409 86.9851 89.5498L86.8953 91.2269L87.06 94.8206L85.0385 95.195L85.2182 91.3317ZM92.9663 93.6527C92.1876 94.631 91.5138 95.1201 90.9448 95.1201C90.236 95.1201 89.6521 94.8306 89.1929 94.2516C88.7436 93.6726 88.519 92.9289 88.519 92.0205C88.519 90.7727 88.8634 89.7195 89.5522 88.861C90.251 88.0025 91.1045 87.5733 92.1128 87.5733L92.9513 87.6931V87.4086L92.7716 83.9047L94.823 83.5303L94.6284 91.2269V92.5446C94.6284 93.1436 94.7781 93.8324 95.0776 94.611L93.4604 95.2848C93.1709 94.6859 93.0062 94.1418 92.9663 93.6527ZM90.1961 91.2419C90.1961 91.8808 90.3109 92.3799 90.5405 92.7393C90.7801 93.0986 91.1195 93.2783 91.5587 93.2783C92.0079 93.2783 92.4721 93.0986 92.9513 92.7393V89.5049C92.3523 89.3851 91.9081 89.3252 91.6186 89.3252C91.1694 89.3252 90.82 89.4849 90.5705 89.8044C90.3209 90.1238 90.1961 90.603 90.1961 91.2419ZM98.9895 91.9906C98.9895 90.7128 99.3339 89.6297 100.023 88.7412C100.712 87.8528 101.515 87.4086 102.434 87.4086C103.362 87.4086 104.081 87.708 104.59 88.307C105.109 88.906 105.368 89.6996 105.368 90.6878C105.368 92.0055 105.034 93.1036 104.365 93.9821C103.706 94.8506 102.873 95.2848 101.865 95.2848C101.036 95.2848 100.347 94.9754 99.7981 94.3564C99.2591 93.7275 98.9895 92.9389 98.9895 91.9906ZM103.691 91.4665C103.691 90.019 103.197 89.2953 102.209 89.2953C101.181 89.2953 100.667 89.9741 100.667 91.3317C100.667 92.0405 100.811 92.5945 101.101 92.9938C101.39 93.3931 101.77 93.5928 102.239 93.5928C102.718 93.5928 103.077 93.4131 103.317 93.0537C103.567 92.6844 103.691 92.1553 103.691 91.4665ZM110.96 87.5583C111.599 87.5583 112.133 87.8378 112.562 88.3968C113.001 88.9559 113.221 89.7096 113.221 90.6579C113.221 91.9856 112.877 93.0637 112.188 93.8923C111.509 94.7108 110.66 95.1201 109.642 95.1201C109.433 95.1201 109.198 95.1051 108.938 95.0752L109.013 97.9352L106.962 98.3096L107.157 91.4815H107.172C107.132 90.1438 107.022 88.9459 106.842 87.8877L108.654 87.4984C108.714 88.0275 108.764 88.5516 108.804 89.0707C108.824 89.0208 108.924 88.886 109.103 88.6664C109.293 88.4368 109.567 88.1972 109.927 87.9476C110.286 87.6881 110.631 87.5583 110.96 87.5583ZM110.376 89.5049C109.847 89.5049 109.333 89.6497 108.834 89.9392V91.2269L108.894 93.3682C109.433 93.458 109.842 93.5029 110.121 93.5029C111.08 93.5029 111.559 92.8391 111.559 91.5114C111.559 90.1737 111.165 89.5049 110.376 89.5049ZM117.458 93.5928C117.748 93.5928 118.052 93.5179 118.372 93.3682C118.691 93.2184 118.941 93.0687 119.12 92.919L119.39 92.6943L120.079 93.5329C119.979 93.7026 119.824 93.8972 119.615 94.1169C119.405 94.3365 119.19 94.5262 118.971 94.6859C118.761 94.8356 118.477 94.9754 118.117 95.1051C117.768 95.2249 117.403 95.2848 117.024 95.2848C116.215 95.2848 115.557 94.9804 115.047 94.3714C114.538 93.7525 114.284 92.9589 114.284 91.9906C114.284 90.7727 114.638 89.7046 115.347 88.7862C116.056 87.8678 116.884 87.4086 117.833 87.4086C118.561 87.4086 119.125 87.6132 119.525 88.0225C119.934 88.4318 120.139 89.0058 120.139 89.7445C120.139 90.1837 120.064 90.6829 119.914 91.2419L119.615 91.5563L115.871 91.9007C116.041 93.0288 116.57 93.5928 117.458 93.5928ZM117.458 88.9509C117.019 88.9509 116.65 89.1306 116.35 89.4899C116.051 89.8393 115.876 90.2885 115.826 90.8376L118.372 90.5231C118.402 90.2935 118.417 90.1039 118.417 89.9541C118.417 89.2853 118.097 88.9509 117.458 88.9509ZM126.088 91.3317C126.088 90.6429 126.028 90.1837 125.908 89.9541C125.788 89.7245 125.509 89.6097 125.069 89.6097C124.63 89.6097 124.131 89.7844 123.572 90.1338V91.2269L123.737 94.7458L121.73 95.1201L121.91 91.4815C121.87 90.1438 121.76 88.9459 121.58 87.8877L123.392 87.4984C123.462 88.0774 123.512 88.6414 123.542 89.1905C123.692 88.9908 123.861 88.7961 124.051 88.6065C124.241 88.4068 124.54 88.1872 124.95 87.9476C125.359 87.6981 125.788 87.5733 126.237 87.5733C126.697 87.5733 127.081 87.753 127.39 88.1123C127.7 88.4617 127.854 88.9409 127.854 89.5498L127.765 91.2269L127.929 94.8206L125.908 95.195L126.088 91.3317ZM28.6212 109.653C27.8426 110.631 27.1688 111.12 26.5998 111.12C25.891 111.12 25.307 110.831 24.8478 110.252C24.3986 109.673 24.174 108.929 24.174 108.021C24.174 106.773 24.5184 105.72 25.2072 104.861C25.906 104.003 26.7595 103.573 27.7677 103.573L28.6063 103.693V103.409L28.4266 99.9047L30.478 99.5303L30.2833 107.227V108.545C30.2833 109.144 30.4331 109.832 30.7326 110.611L29.1154 111.285C28.8259 110.686 28.6612 110.142 28.6212 109.653ZM25.8511 107.242C25.8511 107.881 25.9659 108.38 26.1955 108.739C26.4351 109.099 26.7745 109.278 27.2137 109.278C27.6629 109.278 28.1271 109.099 28.6063 108.739V105.505C28.0073 105.385 27.5631 105.325 27.2736 105.325C26.8244 105.325 26.475 105.485 26.2254 105.804C25.9759 106.124 25.8511 106.603 25.8511 107.242ZM32.0346 107.991C32.0346 106.713 32.379 105.63 33.0678 104.741C33.7566 103.853 34.5602 103.409 35.4786 103.409C36.407 103.409 37.1257 103.708 37.6348 104.307C38.1539 104.906 38.4135 105.7 38.4135 106.688C38.4135 108.006 38.079 109.104 37.4102 109.982C36.7514 110.851 35.9178 111.285 34.9096 111.285C34.081 111.285 33.3922 110.975 32.8432 110.356C32.3041 109.728 32.0346 108.939 32.0346 107.991ZM36.7364 107.466C36.7364 106.019 36.2422 105.295 35.254 105.295C34.2258 105.295 33.7117 105.974 33.7117 107.332C33.7117 108.04 33.8564 108.595 34.1459 108.994C34.4354 109.393 34.8147 109.593 35.2839 109.593C35.7631 109.593 36.1225 109.413 36.362 109.054C36.6116 108.684 36.7364 108.155 36.7364 107.466ZM39.5578 107.991C39.5578 106.713 39.9022 105.63 40.591 104.741C41.2798 103.853 42.0834 103.409 43.0018 103.409C43.9302 103.409 44.6489 103.708 45.158 104.307C45.6771 104.906 45.9367 105.7 45.9367 106.688C45.9367 108.006 45.6023 109.104 44.9334 109.982C44.2746 110.851 43.441 111.285 42.4328 111.285C41.6042 111.285 40.9154 110.975 40.3664 110.356C39.8273 109.728 39.5578 108.939 39.5578 107.991ZM44.2596 107.466C44.2596 106.019 43.7655 105.295 42.7772 105.295C41.749 105.295 41.2349 105.974 41.2349 107.332C41.2349 108.04 41.3796 108.595 41.6691 108.994C41.9586 109.393 42.3379 109.593 42.8071 109.593C43.2863 109.593 43.6457 109.413 43.8853 109.054C44.1348 108.684 44.2596 108.155 44.2596 107.466ZM47.3655 103.888L49.1774 103.498C49.2672 104.267 49.3271 104.996 49.357 105.685C50.2655 104.277 51.119 103.573 51.9176 103.573L51.7529 105.909C51.1739 105.909 50.7147 105.964 50.3753 106.074C50.0458 106.174 49.7064 106.378 49.357 106.688V107.227L49.5218 110.746L47.5152 111.12L47.6949 107.481C47.655 106.144 47.5452 104.946 47.3655 103.888ZM55.4281 109.728C55.9472 109.728 56.2068 109.498 56.2068 109.039C56.2068 108.879 56.092 108.729 55.8624 108.59C55.6428 108.45 55.3682 108.31 55.0388 108.17C54.7194 108.031 54.3949 107.876 54.0655 107.706C53.7461 107.526 53.4715 107.282 53.2419 106.972C53.0223 106.663 52.9125 106.309 52.9125 105.909C52.9125 105.24 53.207 104.656 53.796 104.157C54.3849 103.658 55.0638 103.409 55.8324 103.409C56.1918 103.409 56.5412 103.453 56.8806 103.543C57.23 103.623 57.5644 103.753 57.8838 103.933L56.8806 105.759C56.8107 105.7 56.7209 105.625 56.6111 105.535C56.5013 105.445 56.2916 105.33 55.9822 105.19C55.6827 105.041 55.4132 104.966 55.1736 104.966C54.944 104.966 54.7643 105.021 54.6345 105.131C54.5147 105.23 54.4548 105.375 54.4548 105.565C54.4548 105.744 54.6245 105.929 54.9639 106.119C55.3133 106.299 55.6927 106.468 56.102 106.628C56.5112 106.778 56.8856 107.032 57.225 107.392C57.5744 107.741 57.7491 108.16 57.7491 108.649C57.7491 109.348 57.4596 109.962 56.8806 110.491C56.3116 111.02 55.6527 111.285 54.904 111.285C54.4249 111.285 53.9757 111.18 53.5564 110.97C53.1471 110.761 52.8526 110.551 52.6729 110.341L52.4034 110.027L53.5863 108.649C53.6462 108.729 53.7311 108.829 53.8409 108.949C53.9507 109.069 54.1653 109.228 54.4848 109.428C54.8142 109.628 55.1287 109.728 55.4281 109.728ZM62.5535 103.873V102.241L64.575 101.851L64.3803 103.873H66.1921L66.0274 105.101H64.3204L64.2455 108.23C64.2455 108.699 64.2905 109.014 64.3803 109.174C64.4701 109.323 64.6349 109.398 64.8744 109.398C65.114 109.398 65.4335 109.343 65.8328 109.233L65.9226 110.297C65.2638 110.846 64.6848 111.12 64.1856 111.12C63.6865 111.12 63.2772 110.94 62.9578 110.581C62.6383 110.212 62.4786 109.733 62.4786 109.144L62.5685 107.466L62.5535 105.101H61.5203L61.685 103.873H62.5535ZM67.1425 107.991C67.1425 106.713 67.4869 105.63 68.1757 104.741C68.8645 103.853 69.6681 103.409 70.5865 103.409C71.5149 103.409 72.2336 103.708 72.7427 104.307C73.2618 104.906 73.5214 105.7 73.5214 106.688C73.5214 108.006 73.187 109.104 72.5181 109.982C71.8593 110.851 71.0257 111.285 70.0175 111.285C69.1889 111.285 68.5001 110.975 67.9511 110.356C67.412 109.728 67.1425 108.939 67.1425 107.991ZM71.8443 107.466C71.8443 106.019 71.3502 105.295 70.3619 105.295C69.3337 105.295 68.8196 105.974 68.8196 107.332C68.8196 108.04 68.9643 108.595 69.2538 108.994C69.5433 109.393 69.9227 109.593 70.3918 109.593C70.871 109.593 71.2304 109.413 71.47 109.054C71.7195 108.684 71.8443 108.155 71.8443 107.466ZM79.2222 111.12C78.6333 111.12 78.1491 110.935 77.7698 110.566C77.4004 110.187 77.2157 109.683 77.2157 109.054C77.2157 108.415 77.5052 107.866 78.0842 107.407C78.6632 106.937 79.367 106.703 80.1955 106.703H81.2138V106.448C81.2138 105.959 81.1139 105.625 80.9143 105.445C80.7146 105.265 80.3403 105.175 79.7912 105.175C79.5616 105.175 79.2871 105.225 78.9677 105.325C78.6582 105.415 78.3088 105.56 77.9195 105.759L77.4853 104.577C77.9145 104.277 78.4336 104.008 79.0425 103.768C79.6615 103.528 80.1706 103.409 80.5699 103.409C82.1371 103.409 82.9208 104.167 82.9208 105.685V108.619C82.9208 109.179 83.0955 109.802 83.4449 110.491L81.8576 111.165C81.6081 110.686 81.4234 110.257 81.3036 109.877C80.7546 110.706 80.0608 111.12 79.2222 111.12ZM79.8511 109.593C80.2504 109.593 80.7046 109.388 81.2138 108.979V107.976C80.6847 107.856 80.2554 107.796 79.926 107.796C79.2971 107.796 78.9826 108.075 78.9826 108.634C78.9826 108.924 79.0625 109.159 79.2222 109.338C79.382 109.508 79.5916 109.593 79.8511 109.593Z" fill="black"/>
</svg>
