<svg width="385" height="125" viewBox="0 0 385 125" fill="none" xmlns="http://www.w3.org/2000/svg">
<g filter="url(#filter0_d_1030_2456)">
<path d="M11 17C11 11.4772 15.4772 7 21 7H332.215C335.542 7 338.651 8.65502 340.51 11.4151L371.797 57.8854C374.286 61.5824 374.028 66.4803 371.164 69.8954L340.535 106.425C338.635 108.691 335.829 110 332.872 110H21C15.4772 110 11 105.523 11 100V58.5V17Z" fill="url(#paint0_linear_1030_2456)"/>
<path d="M21 8H332.215C335.116 8.00007 337.833 9.39813 339.521 11.7441L339.681 11.9736L370.967 58.4443C373.207 61.7715 372.975 66.1793 370.398 69.2529L339.769 105.782C338.059 107.822 335.533 109 332.872 109H21C16.0294 109 12 104.971 12 100V17C12 12.0294 16.0294 8 21 8Z" stroke="white" stroke-width="2"/>
</g>
<defs>
<filter id="filter0_d_1030_2456" x="0.4" y="0.4" width="383.702" height="124.2" filterUnits="userSpaceOnUse" color-interpolation-filters="sRGB">
<feFlood flood-opacity="0" result="BackgroundImageFix"/>
<feColorMatrix in="SourceAlpha" type="matrix" values="0 0 0 0 0 0 0 0 0 0 0 0 0 0 0 0 0 0 127 0" result="hardAlpha"/>
<feOffset dy="4"/>
<feGaussianBlur stdDeviation="5.3"/>
<feComposite in2="hardAlpha" operator="out"/>
<feColorMatrix type="matrix" values="0 0 0 0 0.673587 0 0 0 0 0.4225 0 0 0 0 1 0 0 0 1 0"/>
<feBlend mode="normal" in2="BackgroundImageFix" result="effect1_dropShadow_1030_2456"/>
<feBlend mode="normal" in="SourceGraphic" in2="effect1_dropShadow_1030_2456" result="shape"/>
</filter>
<linearGradient id="paint0_linear_1030_2456" x1="11" y1="58.5" x2="337.537" y2="58.5" gradientUnits="userSpaceOnUse">
<stop stop-color="#6B009D"/>
<stop offset="1" stop-color="#2B2038"/>
</linearGradient>
</defs>
</svg>
